M48
; DRILL file KiCad 10.0.3 date 2026-06-12T15:25:57
; FORMAT={-:-/ absolute / metric / decimal}
; #@! TF.CreationDate,2026-06-12T15:25:57+02:00
; #@! TF.GenerationSoftware,Kicad,Pcbnew,10.0.3
; #@! TF.FileFunction,Plated,1,2,PTH
FMAT,2
METRIC
; #@! TA.AperFunction,Plated,PTH,ViaDrill
T1C0.300
; #@! TA.AperFunction,Plated,PTH,ViaDrill
T2C0.500
; #@! TA.AperFunction,Plated,PTH,ViaDrill
T3C0.800
; #@! TA.AperFunction,Plated,PTH,ComponentDrill
T4C0.800
; #@! TA.AperFunction,Plated,PTH,ComponentDrill
T5C1.000
; #@! TA.AperFunction,Plated,PTH,ComponentDrill
T6C1.100
; #@! TA.AperFunction,Plated,PTH,ComponentDrill
T7C1.200
; #@! TA.AperFunction,Plated,PTH,ComponentDrill
T8C1.300
; #@! TA.AperFunction,Plated,PTH,ComponentDrill
T9C1.500
; #@! TA.AperFunction,Plated,PTH,ViaDrill
T10C3.200
%
G90
G05
T1
X68.234Y-111.668
X80.299Y-90.758
X89.409Y-99.748
X106.099Y-76.258
X110.299Y-72.258
X110.299Y-79.058
X112.099Y-94.658
X114.699Y-87.258
X119.799Y-61.258
X123.299Y-54.758
T2
X66.634Y-92.068
X66.634Y-94.668
X73.299Y-68.758
X78.799Y-57.758
X91.299Y-67.258
X94.299Y-67.258
X99.299Y-67.258
X113.174Y-89.663
X115.099Y-94.138
X118.499Y-94.138
T3
X50.799Y-28.258
X50.799Y-30.258
X50.799Y-32.258
X63.299Y-28.258
X63.299Y-30.258
X63.299Y-32.258
X75.299Y-28.258
X75.299Y-30.758
X75.299Y-32.258
X87.299Y-28.258
X87.299Y-30.258
X87.299Y-32.758
X99.799Y-28.258
X99.799Y-30.258
X99.799Y-32.258
X115.799Y-28.258
X115.799Y-30.258
X115.799Y-32.258
X127.799Y-53.258
X127.799Y-56.258
X127.799Y-60.758
X128.299Y-28.258
X128.299Y-30.258
X128.299Y-32.258
X130.299Y-53.258
X130.299Y-60.758
X135.299Y-81.058
X140.799Y-28.258
X140.799Y-30.258
X140.799Y-32.258
X140.799Y-93.758
X142.699Y-83.918
X144.0Y-76.0
X145.799Y-91.258
X145.799Y-93.758
X145.799Y-96.258
X145.799Y-98.258
X146.0Y-76.0
X148.0Y-76.0
X148.299Y-91.258
X148.299Y-93.758
X148.299Y-96.258
X148.299Y-98.258
X150.0Y-74.0
X150.0Y-76.0
X150.799Y-96.258
X150.799Y-98.258
X152.799Y-96.258
X152.799Y-98.258
X154.799Y-96.258
X154.799Y-98.258
X156.799Y-96.258
X156.799Y-98.258
X158.799Y-96.258
X158.799Y-98.258
X160.799Y-96.258
X160.799Y-98.258
T4
X113.679Y-64.638
X113.679Y-67.178
X113.679Y-69.718
X113.679Y-72.258
X121.299Y-64.638
X121.299Y-67.178
X121.299Y-69.718
X121.299Y-72.258
X123.179Y-89.718
X123.179Y-92.258
X123.179Y-94.798
X123.179Y-97.338
X130.799Y-89.718
X130.799Y-92.258
X130.799Y-94.798
X130.799Y-97.338
T5
X69.799Y-59.258
X69.799Y-61.798
X69.799Y-64.338
X69.799Y-66.878
X72.954Y-99.868
X72.954Y-102.408
X75.169Y-75.468
X75.169Y-79.668
X75.169Y-83.868
X75.169Y-88.268
X75.494Y-99.868
X75.494Y-102.408
X77.709Y-75.468
X77.709Y-79.668
X77.709Y-83.868
X77.709Y-88.268
X78.034Y-99.868
X78.034Y-102.408
X85.334Y-71.808
X85.334Y-74.348
X85.334Y-76.888
X85.334Y-79.428
X85.334Y-81.968
X85.334Y-84.508
X85.334Y-87.048
X85.334Y-89.588
X85.334Y-92.128
X85.334Y-94.668
X85.334Y-97.208
X85.334Y-99.748
X85.334Y-102.288
X85.334Y-104.828
X85.334Y-107.368
X100.574Y-71.808
X100.574Y-74.348
X100.574Y-76.888
X100.574Y-79.428
X100.574Y-81.968
X100.574Y-84.508
X100.574Y-87.048
X100.574Y-89.588
X100.574Y-92.128
X100.574Y-94.668
X100.574Y-97.208
X100.574Y-99.748
X100.574Y-102.288
X100.574Y-104.828
X100.574Y-107.368
X107.634Y-84.648
X107.634Y-87.188
X107.634Y-89.728
X107.634Y-92.268
T6
X81.759Y-63.208
X84.299Y-63.208
X86.839Y-63.208
T7
X130.599Y-56.458
X155.999Y-56.458
T8
X59.932Y-51.258
X59.932Y-56.258
X59.932Y-61.258
X104.899Y-51.258
X109.899Y-51.258
X114.899Y-51.258
X156.099Y-68.378
X156.099Y-73.458
T9
X67.699Y-51.258
X90.299Y-51.258
T10
X45.0Y-45.0
X45.0Y-110.0
X155.0Y-45.0
X155.0Y-110.0
M30
