%TF.GenerationSoftware,KiCad,Pcbnew,10.0.3*%
%TF.CreationDate,2026-06-12T15:06:18+02:00*%
%TF.ProjectId,Gruppe1-Index3,47727570-7065-4312-9d49-6e646578332e,rev?*%
%TF.SameCoordinates,Original*%
%TF.FileFunction,Profile,NP*%
%FSLAX45Y45*%
G04 Gerber Fmt 4.5, Leading zero omitted, Abs format (unit mm)*
G04 Created by KiCad (PCBNEW 10.0.3) date 2026-06-12 15:06:18*
%MOMM*%
%LPD*%
G01*
G04 APERTURE LIST*
%ADD10C,0.150000*%
%ADD11C,0.300000*%
%ADD12C,0.400000*%
%TA.AperFunction,Profile*%
%ADD13C,0.050000*%
%TD*%
G04 APERTURE END LIST*
D10*
X29998900Y-25300220D02*
X40798900Y-25300220D01*
X40798900Y-28500220D01*
X29998900Y-28500220D01*
X29998900Y-25300220D01*
X1000000Y-1000000D02*
X40998900Y-1000000D01*
X40998900Y-28700220D01*
X1000000Y-28700220D01*
X1000000Y-1000000D01*
X1200000Y-1200000D02*
X40798900Y-1200000D01*
X40798900Y-28500220D01*
X1200000Y-28500220D01*
X1200000Y-1200000D01*
X6000000Y-1200000D02*
X6000000Y-1000000D01*
X11000000Y-1200000D02*
X11000000Y-1000000D01*
X16000000Y-1200000D02*
X16000000Y-1000000D01*
X21000000Y-1200000D02*
X21000000Y-1000000D01*
X26000000Y-1200000D02*
X26000000Y-1000000D01*
X31000000Y-1200000D02*
X31000000Y-1000000D01*
X36000000Y-1200000D02*
X36000000Y-1000000D01*
X3608916Y-1159360D02*
X3534630Y-1159360D01*
X3571773Y-1159360D02*
X3571773Y-1029360D01*
X3571773Y-1029360D02*
X3559392Y-1047932D01*
X3559392Y-1047932D02*
X3547011Y-1060313D01*
X3547011Y-1060313D02*
X3534630Y-1066503D01*
X8534630Y-1041741D02*
X8540821Y-1035551D01*
X8540821Y-1035551D02*
X8553202Y-1029360D01*
X8553202Y-1029360D02*
X8584154Y-1029360D01*
X8584154Y-1029360D02*
X8596535Y-1035551D01*
X8596535Y-1035551D02*
X8602726Y-1041741D01*
X8602726Y-1041741D02*
X8608916Y-1054122D01*
X8608916Y-1054122D02*
X8608916Y-1066503D01*
X8608916Y-1066503D02*
X8602726Y-1085075D01*
X8602726Y-1085075D02*
X8528440Y-1159360D01*
X8528440Y-1159360D02*
X8608916Y-1159360D01*
X13528440Y-1029360D02*
X13608916Y-1029360D01*
X13608916Y-1029360D02*
X13565583Y-1078884D01*
X13565583Y-1078884D02*
X13584154Y-1078884D01*
X13584154Y-1078884D02*
X13596535Y-1085075D01*
X13596535Y-1085075D02*
X13602725Y-1091265D01*
X13602725Y-1091265D02*
X13608916Y-1103646D01*
X13608916Y-1103646D02*
X13608916Y-1134599D01*
X13608916Y-1134599D02*
X13602725Y-1146980D01*
X13602725Y-1146980D02*
X13596535Y-1153170D01*
X13596535Y-1153170D02*
X13584154Y-1159360D01*
X13584154Y-1159360D02*
X13547011Y-1159360D01*
X13547011Y-1159360D02*
X13534630Y-1153170D01*
X13534630Y-1153170D02*
X13528440Y-1146980D01*
X18596535Y-1072694D02*
X18596535Y-1159360D01*
X18565583Y-1023170D02*
X18534630Y-1116027D01*
X18534630Y-1116027D02*
X18615106Y-1116027D01*
X23602725Y-1029360D02*
X23540821Y-1029360D01*
X23540821Y-1029360D02*
X23534630Y-1091265D01*
X23534630Y-1091265D02*
X23540821Y-1085075D01*
X23540821Y-1085075D02*
X23553202Y-1078884D01*
X23553202Y-1078884D02*
X23584154Y-1078884D01*
X23584154Y-1078884D02*
X23596535Y-1085075D01*
X23596535Y-1085075D02*
X23602725Y-1091265D01*
X23602725Y-1091265D02*
X23608916Y-1103646D01*
X23608916Y-1103646D02*
X23608916Y-1134599D01*
X23608916Y-1134599D02*
X23602725Y-1146980D01*
X23602725Y-1146980D02*
X23596535Y-1153170D01*
X23596535Y-1153170D02*
X23584154Y-1159360D01*
X23584154Y-1159360D02*
X23553202Y-1159360D01*
X23553202Y-1159360D02*
X23540821Y-1153170D01*
X23540821Y-1153170D02*
X23534630Y-1146980D01*
X28596535Y-1029360D02*
X28571773Y-1029360D01*
X28571773Y-1029360D02*
X28559392Y-1035551D01*
X28559392Y-1035551D02*
X28553202Y-1041741D01*
X28553202Y-1041741D02*
X28540821Y-1060313D01*
X28540821Y-1060313D02*
X28534630Y-1085075D01*
X28534630Y-1085075D02*
X28534630Y-1134599D01*
X28534630Y-1134599D02*
X28540821Y-1146980D01*
X28540821Y-1146980D02*
X28547011Y-1153170D01*
X28547011Y-1153170D02*
X28559392Y-1159360D01*
X28559392Y-1159360D02*
X28584154Y-1159360D01*
X28584154Y-1159360D02*
X28596535Y-1153170D01*
X28596535Y-1153170D02*
X28602725Y-1146980D01*
X28602725Y-1146980D02*
X28608916Y-1134599D01*
X28608916Y-1134599D02*
X28608916Y-1103646D01*
X28608916Y-1103646D02*
X28602725Y-1091265D01*
X28602725Y-1091265D02*
X28596535Y-1085075D01*
X28596535Y-1085075D02*
X28584154Y-1078884D01*
X28584154Y-1078884D02*
X28559392Y-1078884D01*
X28559392Y-1078884D02*
X28547011Y-1085075D01*
X28547011Y-1085075D02*
X28540821Y-1091265D01*
X28540821Y-1091265D02*
X28534630Y-1103646D01*
X33528440Y-1029360D02*
X33615106Y-1029360D01*
X33615106Y-1029360D02*
X33559392Y-1159360D01*
X38559392Y-1085075D02*
X38547011Y-1078884D01*
X38547011Y-1078884D02*
X38540821Y-1072694D01*
X38540821Y-1072694D02*
X38534630Y-1060313D01*
X38534630Y-1060313D02*
X38534630Y-1054122D01*
X38534630Y-1054122D02*
X38540821Y-1041741D01*
X38540821Y-1041741D02*
X38547011Y-1035551D01*
X38547011Y-1035551D02*
X38559392Y-1029360D01*
X38559392Y-1029360D02*
X38584154Y-1029360D01*
X38584154Y-1029360D02*
X38596535Y-1035551D01*
X38596535Y-1035551D02*
X38602726Y-1041741D01*
X38602726Y-1041741D02*
X38608916Y-1054122D01*
X38608916Y-1054122D02*
X38608916Y-1060313D01*
X38608916Y-1060313D02*
X38602726Y-1072694D01*
X38602726Y-1072694D02*
X38596535Y-1078884D01*
X38596535Y-1078884D02*
X38584154Y-1085075D01*
X38584154Y-1085075D02*
X38559392Y-1085075D01*
X38559392Y-1085075D02*
X38547011Y-1091265D01*
X38547011Y-1091265D02*
X38540821Y-1097456D01*
X38540821Y-1097456D02*
X38534630Y-1109837D01*
X38534630Y-1109837D02*
X38534630Y-1134599D01*
X38534630Y-1134599D02*
X38540821Y-1146980D01*
X38540821Y-1146980D02*
X38547011Y-1153170D01*
X38547011Y-1153170D02*
X38559392Y-1159360D01*
X38559392Y-1159360D02*
X38584154Y-1159360D01*
X38584154Y-1159360D02*
X38596535Y-1153170D01*
X38596535Y-1153170D02*
X38602726Y-1146980D01*
X38602726Y-1146980D02*
X38608916Y-1134599D01*
X38608916Y-1134599D02*
X38608916Y-1109837D01*
X38608916Y-1109837D02*
X38602726Y-1097456D01*
X38602726Y-1097456D02*
X38596535Y-1091265D01*
X38596535Y-1091265D02*
X38584154Y-1085075D01*
X6000000Y-28500220D02*
X6000000Y-28700220D01*
X11000000Y-28500220D02*
X11000000Y-28700220D01*
X16000000Y-28500220D02*
X16000000Y-28700220D01*
X21000000Y-28500220D02*
X21000000Y-28700220D01*
X26000000Y-28500220D02*
X26000000Y-28700220D01*
X31000000Y-28500220D02*
X31000000Y-28700220D01*
X36000000Y-28500220D02*
X36000000Y-28700220D01*
X3608916Y-28659580D02*
X3534630Y-28659580D01*
X3571773Y-28659580D02*
X3571773Y-28529580D01*
X3571773Y-28529580D02*
X3559392Y-28548152D01*
X3559392Y-28548152D02*
X3547011Y-28560533D01*
X3547011Y-28560533D02*
X3534630Y-28566723D01*
X8534630Y-28541961D02*
X8540821Y-28535771D01*
X8540821Y-28535771D02*
X8553202Y-28529580D01*
X8553202Y-28529580D02*
X8584154Y-28529580D01*
X8584154Y-28529580D02*
X8596535Y-28535771D01*
X8596535Y-28535771D02*
X8602726Y-28541961D01*
X8602726Y-28541961D02*
X8608916Y-28554342D01*
X8608916Y-28554342D02*
X8608916Y-28566723D01*
X8608916Y-28566723D02*
X8602726Y-28585295D01*
X8602726Y-28585295D02*
X8528440Y-28659580D01*
X8528440Y-28659580D02*
X8608916Y-28659580D01*
X13528440Y-28529580D02*
X13608916Y-28529580D01*
X13608916Y-28529580D02*
X13565583Y-28579104D01*
X13565583Y-28579104D02*
X13584154Y-28579104D01*
X13584154Y-28579104D02*
X13596535Y-28585295D01*
X13596535Y-28585295D02*
X13602725Y-28591485D01*
X13602725Y-28591485D02*
X13608916Y-28603866D01*
X13608916Y-28603866D02*
X13608916Y-28634818D01*
X13608916Y-28634818D02*
X13602725Y-28647199D01*
X13602725Y-28647199D02*
X13596535Y-28653390D01*
X13596535Y-28653390D02*
X13584154Y-28659580D01*
X13584154Y-28659580D02*
X13547011Y-28659580D01*
X13547011Y-28659580D02*
X13534630Y-28653390D01*
X13534630Y-28653390D02*
X13528440Y-28647199D01*
X18596535Y-28572914D02*
X18596535Y-28659580D01*
X18565583Y-28523390D02*
X18534630Y-28616247D01*
X18534630Y-28616247D02*
X18615106Y-28616247D01*
X23602725Y-28529580D02*
X23540821Y-28529580D01*
X23540821Y-28529580D02*
X23534630Y-28591485D01*
X23534630Y-28591485D02*
X23540821Y-28585295D01*
X23540821Y-28585295D02*
X23553202Y-28579104D01*
X23553202Y-28579104D02*
X23584154Y-28579104D01*
X23584154Y-28579104D02*
X23596535Y-28585295D01*
X23596535Y-28585295D02*
X23602725Y-28591485D01*
X23602725Y-28591485D02*
X23608916Y-28603866D01*
X23608916Y-28603866D02*
X23608916Y-28634818D01*
X23608916Y-28634818D02*
X23602725Y-28647199D01*
X23602725Y-28647199D02*
X23596535Y-28653390D01*
X23596535Y-28653390D02*
X23584154Y-28659580D01*
X23584154Y-28659580D02*
X23553202Y-28659580D01*
X23553202Y-28659580D02*
X23540821Y-28653390D01*
X23540821Y-28653390D02*
X23534630Y-28647199D01*
X28596535Y-28529580D02*
X28571773Y-28529580D01*
X28571773Y-28529580D02*
X28559392Y-28535771D01*
X28559392Y-28535771D02*
X28553202Y-28541961D01*
X28553202Y-28541961D02*
X28540821Y-28560533D01*
X28540821Y-28560533D02*
X28534630Y-28585295D01*
X28534630Y-28585295D02*
X28534630Y-28634818D01*
X28534630Y-28634818D02*
X28540821Y-28647199D01*
X28540821Y-28647199D02*
X28547011Y-28653390D01*
X28547011Y-28653390D02*
X28559392Y-28659580D01*
X28559392Y-28659580D02*
X28584154Y-28659580D01*
X28584154Y-28659580D02*
X28596535Y-28653390D01*
X28596535Y-28653390D02*
X28602725Y-28647199D01*
X28602725Y-28647199D02*
X28608916Y-28634818D01*
X28608916Y-28634818D02*
X28608916Y-28603866D01*
X28608916Y-28603866D02*
X28602725Y-28591485D01*
X28602725Y-28591485D02*
X28596535Y-28585295D01*
X28596535Y-28585295D02*
X28584154Y-28579104D01*
X28584154Y-28579104D02*
X28559392Y-28579104D01*
X28559392Y-28579104D02*
X28547011Y-28585295D01*
X28547011Y-28585295D02*
X28540821Y-28591485D01*
X28540821Y-28591485D02*
X28534630Y-28603866D01*
X33528440Y-28529580D02*
X33615106Y-28529580D01*
X33615106Y-28529580D02*
X33559392Y-28659580D01*
X38559392Y-28585295D02*
X38547011Y-28579104D01*
X38547011Y-28579104D02*
X38540821Y-28572914D01*
X38540821Y-28572914D02*
X38534630Y-28560533D01*
X38534630Y-28560533D02*
X38534630Y-28554342D01*
X38534630Y-28554342D02*
X38540821Y-28541961D01*
X38540821Y-28541961D02*
X38547011Y-28535771D01*
X38547011Y-28535771D02*
X38559392Y-28529580D01*
X38559392Y-28529580D02*
X38584154Y-28529580D01*
X38584154Y-28529580D02*
X38596535Y-28535771D01*
X38596535Y-28535771D02*
X38602726Y-28541961D01*
X38602726Y-28541961D02*
X38608916Y-28554342D01*
X38608916Y-28554342D02*
X38608916Y-28560533D01*
X38608916Y-28560533D02*
X38602726Y-28572914D01*
X38602726Y-28572914D02*
X38596535Y-28579104D01*
X38596535Y-28579104D02*
X38584154Y-28585295D01*
X38584154Y-28585295D02*
X38559392Y-28585295D01*
X38559392Y-28585295D02*
X38547011Y-28591485D01*
X38547011Y-28591485D02*
X38540821Y-28597676D01*
X38540821Y-28597676D02*
X38534630Y-28610057D01*
X38534630Y-28610057D02*
X38534630Y-28634818D01*
X38534630Y-28634818D02*
X38540821Y-28647199D01*
X38540821Y-28647199D02*
X38547011Y-28653390D01*
X38547011Y-28653390D02*
X38559392Y-28659580D01*
X38559392Y-28659580D02*
X38584154Y-28659580D01*
X38584154Y-28659580D02*
X38596535Y-28653390D01*
X38596535Y-28653390D02*
X38602726Y-28647199D01*
X38602726Y-28647199D02*
X38608916Y-28634818D01*
X38608916Y-28634818D02*
X38608916Y-28610057D01*
X38608916Y-28610057D02*
X38602726Y-28597676D01*
X38602726Y-28597676D02*
X38596535Y-28591485D01*
X38596535Y-28591485D02*
X38584154Y-28585295D01*
X1000000Y-6000000D02*
X1200000Y-6000000D01*
X1000000Y-11000000D02*
X1200000Y-11000000D01*
X1000000Y-16000000D02*
X1200000Y-16000000D01*
X1000000Y-21000000D02*
X1200000Y-21000000D01*
X1000000Y-26000000D02*
X1200000Y-26000000D01*
X1069048Y-3522218D02*
X1130952Y-3522218D01*
X1056667Y-3559360D02*
X1100000Y-3429360D01*
X1100000Y-3429360D02*
X1143333Y-3559360D01*
X1109286Y-8491265D02*
X1127857Y-8497456D01*
X1127857Y-8497456D02*
X1134048Y-8503646D01*
X1134048Y-8503646D02*
X1140238Y-8516027D01*
X1140238Y-8516027D02*
X1140238Y-8534599D01*
X1140238Y-8534599D02*
X1134048Y-8546980D01*
X1134048Y-8546980D02*
X1127857Y-8553170D01*
X1127857Y-8553170D02*
X1115476Y-8559360D01*
X1115476Y-8559360D02*
X1065952Y-8559360D01*
X1065952Y-8559360D02*
X1065952Y-8429360D01*
X1065952Y-8429360D02*
X1109286Y-8429360D01*
X1109286Y-8429360D02*
X1121667Y-8435551D01*
X1121667Y-8435551D02*
X1127857Y-8441741D01*
X1127857Y-8441741D02*
X1134048Y-8454122D01*
X1134048Y-8454122D02*
X1134048Y-8466503D01*
X1134048Y-8466503D02*
X1127857Y-8478884D01*
X1127857Y-8478884D02*
X1121667Y-8485075D01*
X1121667Y-8485075D02*
X1109286Y-8491265D01*
X1109286Y-8491265D02*
X1065952Y-8491265D01*
X1140238Y-13546979D02*
X1134048Y-13553170D01*
X1134048Y-13553170D02*
X1115476Y-13559360D01*
X1115476Y-13559360D02*
X1103095Y-13559360D01*
X1103095Y-13559360D02*
X1084524Y-13553170D01*
X1084524Y-13553170D02*
X1072143Y-13540789D01*
X1072143Y-13540789D02*
X1065952Y-13528408D01*
X1065952Y-13528408D02*
X1059762Y-13503646D01*
X1059762Y-13503646D02*
X1059762Y-13485075D01*
X1059762Y-13485075D02*
X1065952Y-13460313D01*
X1065952Y-13460313D02*
X1072143Y-13447932D01*
X1072143Y-13447932D02*
X1084524Y-13435551D01*
X1084524Y-13435551D02*
X1103095Y-13429360D01*
X1103095Y-13429360D02*
X1115476Y-13429360D01*
X1115476Y-13429360D02*
X1134048Y-13435551D01*
X1134048Y-13435551D02*
X1140238Y-13441741D01*
X1065952Y-18559360D02*
X1065952Y-18429360D01*
X1065952Y-18429360D02*
X1096905Y-18429360D01*
X1096905Y-18429360D02*
X1115476Y-18435551D01*
X1115476Y-18435551D02*
X1127857Y-18447932D01*
X1127857Y-18447932D02*
X1134048Y-18460313D01*
X1134048Y-18460313D02*
X1140238Y-18485075D01*
X1140238Y-18485075D02*
X1140238Y-18503646D01*
X1140238Y-18503646D02*
X1134048Y-18528408D01*
X1134048Y-18528408D02*
X1127857Y-18540789D01*
X1127857Y-18540789D02*
X1115476Y-18553170D01*
X1115476Y-18553170D02*
X1096905Y-18559360D01*
X1096905Y-18559360D02*
X1065952Y-18559360D01*
X1072143Y-23491265D02*
X1115476Y-23491265D01*
X1134048Y-23559360D02*
X1072143Y-23559360D01*
X1072143Y-23559360D02*
X1072143Y-23429360D01*
X1072143Y-23429360D02*
X1134048Y-23429360D01*
X1118571Y-28491265D02*
X1075238Y-28491265D01*
X1075238Y-28559360D02*
X1075238Y-28429360D01*
X1075238Y-28429360D02*
X1137143Y-28429360D01*
X40998900Y-6000000D02*
X40798900Y-6000000D01*
X40998900Y-11000000D02*
X40798900Y-11000000D01*
X40998900Y-16000000D02*
X40798900Y-16000000D01*
X40998900Y-21000000D02*
X40798900Y-21000000D01*
X40998900Y-26000000D02*
X40798900Y-26000000D01*
X40867948Y-3522218D02*
X40929852Y-3522218D01*
X40855567Y-3559360D02*
X40898900Y-3429360D01*
X40898900Y-3429360D02*
X40942233Y-3559360D01*
X40908186Y-8491265D02*
X40926757Y-8497456D01*
X40926757Y-8497456D02*
X40932948Y-8503646D01*
X40932948Y-8503646D02*
X40939138Y-8516027D01*
X40939138Y-8516027D02*
X40939138Y-8534599D01*
X40939138Y-8534599D02*
X40932948Y-8546980D01*
X40932948Y-8546980D02*
X40926757Y-8553170D01*
X40926757Y-8553170D02*
X40914376Y-8559360D01*
X40914376Y-8559360D02*
X40864852Y-8559360D01*
X40864852Y-8559360D02*
X40864852Y-8429360D01*
X40864852Y-8429360D02*
X40908186Y-8429360D01*
X40908186Y-8429360D02*
X40920567Y-8435551D01*
X40920567Y-8435551D02*
X40926757Y-8441741D01*
X40926757Y-8441741D02*
X40932948Y-8454122D01*
X40932948Y-8454122D02*
X40932948Y-8466503D01*
X40932948Y-8466503D02*
X40926757Y-8478884D01*
X40926757Y-8478884D02*
X40920567Y-8485075D01*
X40920567Y-8485075D02*
X40908186Y-8491265D01*
X40908186Y-8491265D02*
X40864852Y-8491265D01*
X40939138Y-13546979D02*
X40932948Y-13553170D01*
X40932948Y-13553170D02*
X40914376Y-13559360D01*
X40914376Y-13559360D02*
X40901995Y-13559360D01*
X40901995Y-13559360D02*
X40883424Y-13553170D01*
X40883424Y-13553170D02*
X40871043Y-13540789D01*
X40871043Y-13540789D02*
X40864852Y-13528408D01*
X40864852Y-13528408D02*
X40858662Y-13503646D01*
X40858662Y-13503646D02*
X40858662Y-13485075D01*
X40858662Y-13485075D02*
X40864852Y-13460313D01*
X40864852Y-13460313D02*
X40871043Y-13447932D01*
X40871043Y-13447932D02*
X40883424Y-13435551D01*
X40883424Y-13435551D02*
X40901995Y-13429360D01*
X40901995Y-13429360D02*
X40914376Y-13429360D01*
X40914376Y-13429360D02*
X40932948Y-13435551D01*
X40932948Y-13435551D02*
X40939138Y-13441741D01*
X40864852Y-18559360D02*
X40864852Y-18429360D01*
X40864852Y-18429360D02*
X40895805Y-18429360D01*
X40895805Y-18429360D02*
X40914376Y-18435551D01*
X40914376Y-18435551D02*
X40926757Y-18447932D01*
X40926757Y-18447932D02*
X40932948Y-18460313D01*
X40932948Y-18460313D02*
X40939138Y-18485075D01*
X40939138Y-18485075D02*
X40939138Y-18503646D01*
X40939138Y-18503646D02*
X40932948Y-18528408D01*
X40932948Y-18528408D02*
X40926757Y-18540789D01*
X40926757Y-18540789D02*
X40914376Y-18553170D01*
X40914376Y-18553170D02*
X40895805Y-18559360D01*
X40895805Y-18559360D02*
X40864852Y-18559360D01*
X40871043Y-23491265D02*
X40914376Y-23491265D01*
X40932948Y-23559360D02*
X40871043Y-23559360D01*
X40871043Y-23559360D02*
X40871043Y-23429360D01*
X40871043Y-23429360D02*
X40932948Y-23429360D01*
X40917471Y-28491265D02*
X40874138Y-28491265D01*
X40874138Y-28559360D02*
X40874138Y-28429360D01*
X40874138Y-28429360D02*
X40936043Y-28429360D01*
X32344483Y-28078833D02*
X32344483Y-27928833D01*
X32344483Y-27928833D02*
X32380197Y-27928833D01*
X32380197Y-27928833D02*
X32401625Y-27935976D01*
X32401625Y-27935976D02*
X32415911Y-27950261D01*
X32415911Y-27950261D02*
X32423054Y-27964547D01*
X32423054Y-27964547D02*
X32430197Y-27993118D01*
X32430197Y-27993118D02*
X32430197Y-28014547D01*
X32430197Y-28014547D02*
X32423054Y-28043118D01*
X32423054Y-28043118D02*
X32415911Y-28057404D01*
X32415911Y-28057404D02*
X32401625Y-28071690D01*
X32401625Y-28071690D02*
X32380197Y-28078833D01*
X32380197Y-28078833D02*
X32344483Y-28078833D01*
X32558768Y-28078833D02*
X32558768Y-28000261D01*
X32558768Y-28000261D02*
X32551625Y-27985976D01*
X32551625Y-27985976D02*
X32537340Y-27978833D01*
X32537340Y-27978833D02*
X32508768Y-27978833D01*
X32508768Y-27978833D02*
X32494483Y-27985976D01*
X32558768Y-28071690D02*
X32544483Y-28078833D01*
X32544483Y-28078833D02*
X32508768Y-28078833D01*
X32508768Y-28078833D02*
X32494483Y-28071690D01*
X32494483Y-28071690D02*
X32487340Y-28057404D01*
X32487340Y-28057404D02*
X32487340Y-28043118D01*
X32487340Y-28043118D02*
X32494483Y-28028833D01*
X32494483Y-28028833D02*
X32508768Y-28021690D01*
X32508768Y-28021690D02*
X32544483Y-28021690D01*
X32544483Y-28021690D02*
X32558768Y-28014547D01*
X32608768Y-27978833D02*
X32665911Y-27978833D01*
X32630197Y-27928833D02*
X32630197Y-28057404D01*
X32630197Y-28057404D02*
X32637340Y-28071690D01*
X32637340Y-28071690D02*
X32651625Y-28078833D01*
X32651625Y-28078833D02*
X32665911Y-28078833D01*
X32773054Y-28071690D02*
X32758768Y-28078833D01*
X32758768Y-28078833D02*
X32730197Y-28078833D01*
X32730197Y-28078833D02*
X32715911Y-28071690D01*
X32715911Y-28071690D02*
X32708768Y-28057404D01*
X32708768Y-28057404D02*
X32708768Y-28000261D01*
X32708768Y-28000261D02*
X32715911Y-27985976D01*
X32715911Y-27985976D02*
X32730197Y-27978833D01*
X32730197Y-27978833D02*
X32758768Y-27978833D01*
X32758768Y-27978833D02*
X32773054Y-27985976D01*
X32773054Y-27985976D02*
X32780197Y-28000261D01*
X32780197Y-28000261D02*
X32780197Y-28014547D01*
X32780197Y-28014547D02*
X32708768Y-28028833D01*
X32844483Y-28064547D02*
X32851625Y-28071690D01*
X32851625Y-28071690D02*
X32844483Y-28078833D01*
X32844483Y-28078833D02*
X32837340Y-28071690D01*
X32837340Y-28071690D02*
X32844483Y-28064547D01*
X32844483Y-28064547D02*
X32844483Y-28078833D01*
X32844483Y-27985976D02*
X32851625Y-27993118D01*
X32851625Y-27993118D02*
X32844483Y-28000261D01*
X32844483Y-28000261D02*
X32837340Y-27993118D01*
X32837340Y-27993118D02*
X32844483Y-27985976D01*
X32844483Y-27985976D02*
X32844483Y-28000261D01*
X33023054Y-27943118D02*
X33030197Y-27935976D01*
X33030197Y-27935976D02*
X33044483Y-27928833D01*
X33044483Y-27928833D02*
X33080197Y-27928833D01*
X33080197Y-27928833D02*
X33094483Y-27935976D01*
X33094483Y-27935976D02*
X33101625Y-27943118D01*
X33101625Y-27943118D02*
X33108768Y-27957404D01*
X33108768Y-27957404D02*
X33108768Y-27971690D01*
X33108768Y-27971690D02*
X33101625Y-27993118D01*
X33101625Y-27993118D02*
X33015911Y-28078833D01*
X33015911Y-28078833D02*
X33108768Y-28078833D01*
X33201625Y-27928833D02*
X33215911Y-27928833D01*
X33215911Y-27928833D02*
X33230197Y-27935976D01*
X33230197Y-27935976D02*
X33237340Y-27943118D01*
X33237340Y-27943118D02*
X33244483Y-27957404D01*
X33244483Y-27957404D02*
X33251625Y-27985976D01*
X33251625Y-27985976D02*
X33251625Y-28021690D01*
X33251625Y-28021690D02*
X33244483Y-28050261D01*
X33244483Y-28050261D02*
X33237340Y-28064547D01*
X33237340Y-28064547D02*
X33230197Y-28071690D01*
X33230197Y-28071690D02*
X33215911Y-28078833D01*
X33215911Y-28078833D02*
X33201625Y-28078833D01*
X33201625Y-28078833D02*
X33187340Y-28071690D01*
X33187340Y-28071690D02*
X33180197Y-28064547D01*
X33180197Y-28064547D02*
X33173054Y-28050261D01*
X33173054Y-28050261D02*
X33165911Y-28021690D01*
X33165911Y-28021690D02*
X33165911Y-27985976D01*
X33165911Y-27985976D02*
X33173054Y-27957404D01*
X33173054Y-27957404D02*
X33180197Y-27943118D01*
X33180197Y-27943118D02*
X33187340Y-27935976D01*
X33187340Y-27935976D02*
X33201625Y-27928833D01*
X33308768Y-27943118D02*
X33315911Y-27935976D01*
X33315911Y-27935976D02*
X33330197Y-27928833D01*
X33330197Y-27928833D02*
X33365911Y-27928833D01*
X33365911Y-27928833D02*
X33380197Y-27935976D01*
X33380197Y-27935976D02*
X33387340Y-27943118D01*
X33387340Y-27943118D02*
X33394483Y-27957404D01*
X33394483Y-27957404D02*
X33394483Y-27971690D01*
X33394483Y-27971690D02*
X33387340Y-27993118D01*
X33387340Y-27993118D02*
X33301625Y-28078833D01*
X33301625Y-28078833D02*
X33394483Y-28078833D01*
X33523054Y-27928833D02*
X33494482Y-27928833D01*
X33494482Y-27928833D02*
X33480197Y-27935976D01*
X33480197Y-27935976D02*
X33473054Y-27943118D01*
X33473054Y-27943118D02*
X33458768Y-27964547D01*
X33458768Y-27964547D02*
X33451625Y-27993118D01*
X33451625Y-27993118D02*
X33451625Y-28050261D01*
X33451625Y-28050261D02*
X33458768Y-28064547D01*
X33458768Y-28064547D02*
X33465911Y-28071690D01*
X33465911Y-28071690D02*
X33480197Y-28078833D01*
X33480197Y-28078833D02*
X33508768Y-28078833D01*
X33508768Y-28078833D02*
X33523054Y-28071690D01*
X33523054Y-28071690D02*
X33530197Y-28064547D01*
X33530197Y-28064547D02*
X33537340Y-28050261D01*
X33537340Y-28050261D02*
X33537340Y-28014547D01*
X33537340Y-28014547D02*
X33530197Y-28000261D01*
X33530197Y-28000261D02*
X33523054Y-27993118D01*
X33523054Y-27993118D02*
X33508768Y-27985976D01*
X33508768Y-27985976D02*
X33480197Y-27985976D01*
X33480197Y-27985976D02*
X33465911Y-27993118D01*
X33465911Y-27993118D02*
X33458768Y-28000261D01*
X33458768Y-28000261D02*
X33451625Y-28014547D01*
X33601625Y-28021690D02*
X33715911Y-28021690D01*
X33815911Y-27928833D02*
X33830197Y-27928833D01*
X33830197Y-27928833D02*
X33844483Y-27935976D01*
X33844483Y-27935976D02*
X33851625Y-27943118D01*
X33851625Y-27943118D02*
X33858768Y-27957404D01*
X33858768Y-27957404D02*
X33865911Y-27985976D01*
X33865911Y-27985976D02*
X33865911Y-28021690D01*
X33865911Y-28021690D02*
X33858768Y-28050261D01*
X33858768Y-28050261D02*
X33851625Y-28064547D01*
X33851625Y-28064547D02*
X33844483Y-28071690D01*
X33844483Y-28071690D02*
X33830197Y-28078833D01*
X33830197Y-28078833D02*
X33815911Y-28078833D01*
X33815911Y-28078833D02*
X33801625Y-28071690D01*
X33801625Y-28071690D02*
X33794483Y-28064547D01*
X33794483Y-28064547D02*
X33787340Y-28050261D01*
X33787340Y-28050261D02*
X33780197Y-28021690D01*
X33780197Y-28021690D02*
X33780197Y-27985976D01*
X33780197Y-27985976D02*
X33787340Y-27957404D01*
X33787340Y-27957404D02*
X33794483Y-27943118D01*
X33794483Y-27943118D02*
X33801625Y-27935976D01*
X33801625Y-27935976D02*
X33815911Y-27928833D01*
X34001625Y-27928833D02*
X33930197Y-27928833D01*
X33930197Y-27928833D02*
X33923054Y-28000261D01*
X33923054Y-28000261D02*
X33930197Y-27993118D01*
X33930197Y-27993118D02*
X33944483Y-27985976D01*
X33944483Y-27985976D02*
X33980197Y-27985976D01*
X33980197Y-27985976D02*
X33994483Y-27993118D01*
X33994483Y-27993118D02*
X34001625Y-28000261D01*
X34001625Y-28000261D02*
X34008768Y-28014547D01*
X34008768Y-28014547D02*
X34008768Y-28050261D01*
X34008768Y-28050261D02*
X34001625Y-28064547D01*
X34001625Y-28064547D02*
X33994483Y-28071690D01*
X33994483Y-28071690D02*
X33980197Y-28078833D01*
X33980197Y-28078833D02*
X33944483Y-28078833D01*
X33944483Y-28078833D02*
X33930197Y-28071690D01*
X33930197Y-28071690D02*
X33923054Y-28064547D01*
X34073054Y-28021690D02*
X34187340Y-28021690D01*
X34337340Y-28078833D02*
X34251625Y-28078833D01*
X34294482Y-28078833D02*
X34294482Y-27928833D01*
X34294482Y-27928833D02*
X34280197Y-27950261D01*
X34280197Y-27950261D02*
X34265911Y-27964547D01*
X34265911Y-27964547D02*
X34251625Y-27971690D01*
X34465911Y-27928833D02*
X34437340Y-27928833D01*
X34437340Y-27928833D02*
X34423054Y-27935976D01*
X34423054Y-27935976D02*
X34415911Y-27943118D01*
X34415911Y-27943118D02*
X34401625Y-27964547D01*
X34401625Y-27964547D02*
X34394482Y-27993118D01*
X34394482Y-27993118D02*
X34394482Y-28050261D01*
X34394482Y-28050261D02*
X34401625Y-28064547D01*
X34401625Y-28064547D02*
X34408768Y-28071690D01*
X34408768Y-28071690D02*
X34423054Y-28078833D01*
X34423054Y-28078833D02*
X34451625Y-28078833D01*
X34451625Y-28078833D02*
X34465911Y-28071690D01*
X34465911Y-28071690D02*
X34473054Y-28064547D01*
X34473054Y-28064547D02*
X34480197Y-28050261D01*
X34480197Y-28050261D02*
X34480197Y-28014547D01*
X34480197Y-28014547D02*
X34473054Y-28000261D01*
X34473054Y-28000261D02*
X34465911Y-27993118D01*
X34465911Y-27993118D02*
X34451625Y-27985976D01*
X34451625Y-27985976D02*
X34423054Y-27985976D01*
X34423054Y-27985976D02*
X34408768Y-27993118D01*
X34408768Y-27993118D02*
X34401625Y-28000261D01*
X34401625Y-28000261D02*
X34394482Y-28014547D01*
X29998900Y-28150220D02*
X40798900Y-28150220D01*
X30144483Y-28358833D02*
X30144483Y-28208833D01*
X30230197Y-28358833D02*
X30165911Y-28273118D01*
X30230197Y-28208833D02*
X30144483Y-28294547D01*
X30294483Y-28358833D02*
X30294483Y-28258833D01*
X30294483Y-28208833D02*
X30287340Y-28215976D01*
X30287340Y-28215976D02*
X30294483Y-28223118D01*
X30294483Y-28223118D02*
X30301625Y-28215976D01*
X30301625Y-28215976D02*
X30294483Y-28208833D01*
X30294483Y-28208833D02*
X30294483Y-28223118D01*
X30451625Y-28344547D02*
X30444483Y-28351690D01*
X30444483Y-28351690D02*
X30423054Y-28358833D01*
X30423054Y-28358833D02*
X30408768Y-28358833D01*
X30408768Y-28358833D02*
X30387340Y-28351690D01*
X30387340Y-28351690D02*
X30373054Y-28337404D01*
X30373054Y-28337404D02*
X30365911Y-28323118D01*
X30365911Y-28323118D02*
X30358768Y-28294547D01*
X30358768Y-28294547D02*
X30358768Y-28273118D01*
X30358768Y-28273118D02*
X30365911Y-28244547D01*
X30365911Y-28244547D02*
X30373054Y-28230261D01*
X30373054Y-28230261D02*
X30387340Y-28215976D01*
X30387340Y-28215976D02*
X30408768Y-28208833D01*
X30408768Y-28208833D02*
X30423054Y-28208833D01*
X30423054Y-28208833D02*
X30444483Y-28215976D01*
X30444483Y-28215976D02*
X30451625Y-28223118D01*
X30580197Y-28358833D02*
X30580197Y-28280261D01*
X30580197Y-28280261D02*
X30573054Y-28265976D01*
X30573054Y-28265976D02*
X30558768Y-28258833D01*
X30558768Y-28258833D02*
X30530197Y-28258833D01*
X30530197Y-28258833D02*
X30515911Y-28265976D01*
X30580197Y-28351690D02*
X30565911Y-28358833D01*
X30565911Y-28358833D02*
X30530197Y-28358833D01*
X30530197Y-28358833D02*
X30515911Y-28351690D01*
X30515911Y-28351690D02*
X30508768Y-28337404D01*
X30508768Y-28337404D02*
X30508768Y-28323118D01*
X30508768Y-28323118D02*
X30515911Y-28308833D01*
X30515911Y-28308833D02*
X30530197Y-28301690D01*
X30530197Y-28301690D02*
X30565911Y-28301690D01*
X30565911Y-28301690D02*
X30580197Y-28294547D01*
X30715911Y-28358833D02*
X30715911Y-28208833D01*
X30715911Y-28351690D02*
X30701625Y-28358833D01*
X30701625Y-28358833D02*
X30673054Y-28358833D01*
X30673054Y-28358833D02*
X30658768Y-28351690D01*
X30658768Y-28351690D02*
X30651625Y-28344547D01*
X30651625Y-28344547D02*
X30644483Y-28330261D01*
X30644483Y-28330261D02*
X30644483Y-28287404D01*
X30644483Y-28287404D02*
X30651625Y-28273118D01*
X30651625Y-28273118D02*
X30658768Y-28265976D01*
X30658768Y-28265976D02*
X30673054Y-28258833D01*
X30673054Y-28258833D02*
X30701625Y-28258833D01*
X30701625Y-28258833D02*
X30715911Y-28265976D01*
X30901625Y-28280261D02*
X30951625Y-28280261D01*
X30973054Y-28358833D02*
X30901625Y-28358833D01*
X30901625Y-28358833D02*
X30901625Y-28208833D01*
X30901625Y-28208833D02*
X30973054Y-28208833D01*
X31037340Y-28344547D02*
X31044483Y-28351690D01*
X31044483Y-28351690D02*
X31037340Y-28358833D01*
X31037340Y-28358833D02*
X31030197Y-28351690D01*
X31030197Y-28351690D02*
X31037340Y-28344547D01*
X31037340Y-28344547D02*
X31037340Y-28358833D01*
X31108768Y-28358833D02*
X31108768Y-28208833D01*
X31108768Y-28208833D02*
X31144483Y-28208833D01*
X31144483Y-28208833D02*
X31165911Y-28215976D01*
X31165911Y-28215976D02*
X31180197Y-28230261D01*
X31180197Y-28230261D02*
X31187340Y-28244547D01*
X31187340Y-28244547D02*
X31194483Y-28273118D01*
X31194483Y-28273118D02*
X31194483Y-28294547D01*
X31194483Y-28294547D02*
X31187340Y-28323118D01*
X31187340Y-28323118D02*
X31180197Y-28337404D01*
X31180197Y-28337404D02*
X31165911Y-28351690D01*
X31165911Y-28351690D02*
X31144483Y-28358833D01*
X31144483Y-28358833D02*
X31108768Y-28358833D01*
X31258768Y-28344547D02*
X31265911Y-28351690D01*
X31265911Y-28351690D02*
X31258768Y-28358833D01*
X31258768Y-28358833D02*
X31251626Y-28351690D01*
X31251626Y-28351690D02*
X31258768Y-28344547D01*
X31258768Y-28344547D02*
X31258768Y-28358833D01*
X31323054Y-28315976D02*
X31394483Y-28315976D01*
X31308768Y-28358833D02*
X31358768Y-28208833D01*
X31358768Y-28208833D02*
X31408768Y-28358833D01*
X31458768Y-28344547D02*
X31465911Y-28351690D01*
X31465911Y-28351690D02*
X31458768Y-28358833D01*
X31458768Y-28358833D02*
X31451626Y-28351690D01*
X31451626Y-28351690D02*
X31458768Y-28344547D01*
X31458768Y-28344547D02*
X31458768Y-28358833D01*
X31723054Y-28358833D02*
X31637340Y-28358833D01*
X31680197Y-28358833D02*
X31680197Y-28208833D01*
X31680197Y-28208833D02*
X31665911Y-28230261D01*
X31665911Y-28230261D02*
X31651626Y-28244547D01*
X31651626Y-28244547D02*
X31637340Y-28251690D01*
X31815911Y-28208833D02*
X31830197Y-28208833D01*
X31830197Y-28208833D02*
X31844483Y-28215976D01*
X31844483Y-28215976D02*
X31851626Y-28223118D01*
X31851626Y-28223118D02*
X31858768Y-28237404D01*
X31858768Y-28237404D02*
X31865911Y-28265976D01*
X31865911Y-28265976D02*
X31865911Y-28301690D01*
X31865911Y-28301690D02*
X31858768Y-28330261D01*
X31858768Y-28330261D02*
X31851626Y-28344547D01*
X31851626Y-28344547D02*
X31844483Y-28351690D01*
X31844483Y-28351690D02*
X31830197Y-28358833D01*
X31830197Y-28358833D02*
X31815911Y-28358833D01*
X31815911Y-28358833D02*
X31801626Y-28351690D01*
X31801626Y-28351690D02*
X31794483Y-28344547D01*
X31794483Y-28344547D02*
X31787340Y-28330261D01*
X31787340Y-28330261D02*
X31780197Y-28301690D01*
X31780197Y-28301690D02*
X31780197Y-28265976D01*
X31780197Y-28265976D02*
X31787340Y-28237404D01*
X31787340Y-28237404D02*
X31794483Y-28223118D01*
X31794483Y-28223118D02*
X31801626Y-28215976D01*
X31801626Y-28215976D02*
X31815911Y-28208833D01*
X31930197Y-28344547D02*
X31937340Y-28351690D01*
X31937340Y-28351690D02*
X31930197Y-28358833D01*
X31930197Y-28358833D02*
X31923054Y-28351690D01*
X31923054Y-28351690D02*
X31930197Y-28344547D01*
X31930197Y-28344547D02*
X31930197Y-28358833D01*
X32030197Y-28208833D02*
X32044483Y-28208833D01*
X32044483Y-28208833D02*
X32058768Y-28215976D01*
X32058768Y-28215976D02*
X32065911Y-28223118D01*
X32065911Y-28223118D02*
X32073054Y-28237404D01*
X32073054Y-28237404D02*
X32080197Y-28265976D01*
X32080197Y-28265976D02*
X32080197Y-28301690D01*
X32080197Y-28301690D02*
X32073054Y-28330261D01*
X32073054Y-28330261D02*
X32065911Y-28344547D01*
X32065911Y-28344547D02*
X32058768Y-28351690D01*
X32058768Y-28351690D02*
X32044483Y-28358833D01*
X32044483Y-28358833D02*
X32030197Y-28358833D01*
X32030197Y-28358833D02*
X32015911Y-28351690D01*
X32015911Y-28351690D02*
X32008768Y-28344547D01*
X32008768Y-28344547D02*
X32001625Y-28330261D01*
X32001625Y-28330261D02*
X31994483Y-28301690D01*
X31994483Y-28301690D02*
X31994483Y-28265976D01*
X31994483Y-28265976D02*
X32001625Y-28237404D01*
X32001625Y-28237404D02*
X32008768Y-28223118D01*
X32008768Y-28223118D02*
X32015911Y-28215976D01*
X32015911Y-28215976D02*
X32030197Y-28208833D01*
X32144483Y-28344547D02*
X32151625Y-28351690D01*
X32151625Y-28351690D02*
X32144483Y-28358833D01*
X32144483Y-28358833D02*
X32137340Y-28351690D01*
X32137340Y-28351690D02*
X32144483Y-28344547D01*
X32144483Y-28344547D02*
X32144483Y-28358833D01*
X32201625Y-28208833D02*
X32294483Y-28208833D01*
X32294483Y-28208833D02*
X32244483Y-28265976D01*
X32244483Y-28265976D02*
X32265911Y-28265976D01*
X32265911Y-28265976D02*
X32280197Y-28273118D01*
X32280197Y-28273118D02*
X32287340Y-28280261D01*
X32287340Y-28280261D02*
X32294483Y-28294547D01*
X32294483Y-28294547D02*
X32294483Y-28330261D01*
X32294483Y-28330261D02*
X32287340Y-28344547D01*
X32287340Y-28344547D02*
X32280197Y-28351690D01*
X32280197Y-28351690D02*
X32265911Y-28358833D01*
X32265911Y-28358833D02*
X32223054Y-28358833D01*
X32223054Y-28358833D02*
X32208768Y-28351690D01*
X32208768Y-28351690D02*
X32201625Y-28344547D01*
X29998900Y-27850220D02*
X40798900Y-27850220D01*
D11*
X38740065Y-28078053D02*
X38690065Y-28006624D01*
X38654351Y-28078053D02*
X38654351Y-27928053D01*
X38654351Y-27928053D02*
X38711494Y-27928053D01*
X38711494Y-27928053D02*
X38725780Y-27935196D01*
X38725780Y-27935196D02*
X38732923Y-27942338D01*
X38732923Y-27942338D02*
X38740065Y-27956624D01*
X38740065Y-27956624D02*
X38740065Y-27978053D01*
X38740065Y-27978053D02*
X38732923Y-27992338D01*
X38732923Y-27992338D02*
X38725780Y-27999481D01*
X38725780Y-27999481D02*
X38711494Y-28006624D01*
X38711494Y-28006624D02*
X38654351Y-28006624D01*
X38861494Y-28070910D02*
X38847208Y-28078053D01*
X38847208Y-28078053D02*
X38818637Y-28078053D01*
X38818637Y-28078053D02*
X38804351Y-28070910D01*
X38804351Y-28070910D02*
X38797208Y-28056624D01*
X38797208Y-28056624D02*
X38797208Y-27999481D01*
X38797208Y-27999481D02*
X38804351Y-27985196D01*
X38804351Y-27985196D02*
X38818637Y-27978053D01*
X38818637Y-27978053D02*
X38847208Y-27978053D01*
X38847208Y-27978053D02*
X38861494Y-27985196D01*
X38861494Y-27985196D02*
X38868637Y-27999481D01*
X38868637Y-27999481D02*
X38868637Y-28013767D01*
X38868637Y-28013767D02*
X38797208Y-28028053D01*
X38918637Y-27978053D02*
X38954351Y-28078053D01*
X38954351Y-28078053D02*
X38990065Y-27978053D01*
X39047208Y-28063767D02*
X39054351Y-28070910D01*
X39054351Y-28070910D02*
X39047208Y-28078053D01*
X39047208Y-28078053D02*
X39040065Y-28070910D01*
X39040065Y-28070910D02*
X39047208Y-28063767D01*
X39047208Y-28063767D02*
X39047208Y-28078053D01*
X39047208Y-27985196D02*
X39054351Y-27992338D01*
X39054351Y-27992338D02*
X39047208Y-27999481D01*
X39047208Y-27999481D02*
X39040065Y-27992338D01*
X39040065Y-27992338D02*
X39047208Y-27985196D01*
X39047208Y-27985196D02*
X39047208Y-27999481D01*
D10*
X30137340Y-28071690D02*
X30158768Y-28078833D01*
X30158768Y-28078833D02*
X30194483Y-28078833D01*
X30194483Y-28078833D02*
X30208768Y-28071690D01*
X30208768Y-28071690D02*
X30215911Y-28064547D01*
X30215911Y-28064547D02*
X30223054Y-28050261D01*
X30223054Y-28050261D02*
X30223054Y-28035976D01*
X30223054Y-28035976D02*
X30215911Y-28021690D01*
X30215911Y-28021690D02*
X30208768Y-28014547D01*
X30208768Y-28014547D02*
X30194483Y-28007404D01*
X30194483Y-28007404D02*
X30165911Y-28000261D01*
X30165911Y-28000261D02*
X30151625Y-27993118D01*
X30151625Y-27993118D02*
X30144483Y-27985976D01*
X30144483Y-27985976D02*
X30137340Y-27971690D01*
X30137340Y-27971690D02*
X30137340Y-27957404D01*
X30137340Y-27957404D02*
X30144483Y-27943118D01*
X30144483Y-27943118D02*
X30151625Y-27935976D01*
X30151625Y-27935976D02*
X30165911Y-27928833D01*
X30165911Y-27928833D02*
X30201625Y-27928833D01*
X30201625Y-27928833D02*
X30223054Y-27935976D01*
X30287340Y-28078833D02*
X30287340Y-27978833D01*
X30287340Y-27928833D02*
X30280197Y-27935976D01*
X30280197Y-27935976D02*
X30287340Y-27943118D01*
X30287340Y-27943118D02*
X30294483Y-27935976D01*
X30294483Y-27935976D02*
X30287340Y-27928833D01*
X30287340Y-27928833D02*
X30287340Y-27943118D01*
X30344483Y-27978833D02*
X30423054Y-27978833D01*
X30423054Y-27978833D02*
X30344483Y-28078833D01*
X30344483Y-28078833D02*
X30423054Y-28078833D01*
X30537340Y-28071690D02*
X30523054Y-28078833D01*
X30523054Y-28078833D02*
X30494483Y-28078833D01*
X30494483Y-28078833D02*
X30480197Y-28071690D01*
X30480197Y-28071690D02*
X30473054Y-28057404D01*
X30473054Y-28057404D02*
X30473054Y-28000261D01*
X30473054Y-28000261D02*
X30480197Y-27985976D01*
X30480197Y-27985976D02*
X30494483Y-27978833D01*
X30494483Y-27978833D02*
X30523054Y-27978833D01*
X30523054Y-27978833D02*
X30537340Y-27985976D01*
X30537340Y-27985976D02*
X30544483Y-28000261D01*
X30544483Y-28000261D02*
X30544483Y-28014547D01*
X30544483Y-28014547D02*
X30473054Y-28028833D01*
X30608768Y-28064547D02*
X30615911Y-28071690D01*
X30615911Y-28071690D02*
X30608768Y-28078833D01*
X30608768Y-28078833D02*
X30601625Y-28071690D01*
X30601625Y-28071690D02*
X30608768Y-28064547D01*
X30608768Y-28064547D02*
X30608768Y-28078833D01*
X30608768Y-27985976D02*
X30615911Y-27993118D01*
X30615911Y-27993118D02*
X30608768Y-28000261D01*
X30608768Y-28000261D02*
X30601625Y-27993118D01*
X30601625Y-27993118D02*
X30608768Y-27985976D01*
X30608768Y-27985976D02*
X30608768Y-28000261D01*
X30787340Y-28035976D02*
X30858768Y-28035976D01*
X30773054Y-28078833D02*
X30823054Y-27928833D01*
X30823054Y-27928833D02*
X30873054Y-28078833D01*
X30908768Y-27928833D02*
X31001625Y-27928833D01*
X31001625Y-27928833D02*
X30951625Y-27985976D01*
X30951625Y-27985976D02*
X30973054Y-27985976D01*
X30973054Y-27985976D02*
X30987340Y-27993118D01*
X30987340Y-27993118D02*
X30994483Y-28000261D01*
X30994483Y-28000261D02*
X31001625Y-28014547D01*
X31001625Y-28014547D02*
X31001625Y-28050261D01*
X31001625Y-28050261D02*
X30994483Y-28064547D01*
X30994483Y-28064547D02*
X30987340Y-28071690D01*
X30987340Y-28071690D02*
X30973054Y-28078833D01*
X30973054Y-28078833D02*
X30930197Y-28078833D01*
X30930197Y-28078833D02*
X30915911Y-28071690D01*
X30915911Y-28071690D02*
X30908768Y-28064547D01*
X38644483Y-28358833D02*
X38644483Y-28208833D01*
X38780197Y-28358833D02*
X38780197Y-28208833D01*
X38780197Y-28351690D02*
X38765911Y-28358833D01*
X38765911Y-28358833D02*
X38737340Y-28358833D01*
X38737340Y-28358833D02*
X38723054Y-28351690D01*
X38723054Y-28351690D02*
X38715911Y-28344547D01*
X38715911Y-28344547D02*
X38708768Y-28330261D01*
X38708768Y-28330261D02*
X38708768Y-28287404D01*
X38708768Y-28287404D02*
X38715911Y-28273118D01*
X38715911Y-28273118D02*
X38723054Y-28265976D01*
X38723054Y-28265976D02*
X38737340Y-28258833D01*
X38737340Y-28258833D02*
X38765911Y-28258833D01*
X38765911Y-28258833D02*
X38780197Y-28265976D01*
X38851626Y-28344547D02*
X38858768Y-28351690D01*
X38858768Y-28351690D02*
X38851626Y-28358833D01*
X38851626Y-28358833D02*
X38844483Y-28351690D01*
X38844483Y-28351690D02*
X38851626Y-28344547D01*
X38851626Y-28344547D02*
X38851626Y-28358833D01*
X38851626Y-28265976D02*
X38858768Y-28273118D01*
X38858768Y-28273118D02*
X38851626Y-28280261D01*
X38851626Y-28280261D02*
X38844483Y-28273118D01*
X38844483Y-28273118D02*
X38851626Y-28265976D01*
X38851626Y-28265976D02*
X38851626Y-28280261D01*
X39023054Y-28208833D02*
X39123054Y-28208833D01*
X39123054Y-28208833D02*
X39058768Y-28358833D01*
X39287340Y-28201690D02*
X39158768Y-28394547D01*
X39323054Y-28208833D02*
X39423054Y-28208833D01*
X39423054Y-28208833D02*
X39358768Y-28358833D01*
X29998900Y-27450220D02*
X40798900Y-27450220D01*
D12*
X30168073Y-27520664D02*
X30282358Y-27520664D01*
X30200216Y-27720664D02*
X30225216Y-27520664D01*
X30324025Y-27720664D02*
X30340692Y-27587330D01*
X30349025Y-27520664D02*
X30338311Y-27530188D01*
X30338311Y-27530188D02*
X30346644Y-27539711D01*
X30346644Y-27539711D02*
X30357359Y-27530188D01*
X30357359Y-27530188D02*
X30349025Y-27520664D01*
X30349025Y-27520664D02*
X30346644Y-27539711D01*
X30407359Y-27587330D02*
X30483549Y-27587330D01*
X30444263Y-27520664D02*
X30422835Y-27692092D01*
X30422835Y-27692092D02*
X30429978Y-27711140D01*
X30429978Y-27711140D02*
X30447835Y-27720664D01*
X30447835Y-27720664D02*
X30466882Y-27720664D01*
X30562120Y-27720664D02*
X30544263Y-27711140D01*
X30544263Y-27711140D02*
X30537120Y-27692092D01*
X30537120Y-27692092D02*
X30558549Y-27520664D01*
X30715692Y-27711140D02*
X30695454Y-27720664D01*
X30695454Y-27720664D02*
X30657358Y-27720664D01*
X30657358Y-27720664D02*
X30639501Y-27711140D01*
X30639501Y-27711140D02*
X30632358Y-27692092D01*
X30632358Y-27692092D02*
X30641882Y-27615902D01*
X30641882Y-27615902D02*
X30653787Y-27596854D01*
X30653787Y-27596854D02*
X30674025Y-27587330D01*
X30674025Y-27587330D02*
X30712120Y-27587330D01*
X30712120Y-27587330D02*
X30729978Y-27596854D01*
X30729978Y-27596854D02*
X30737120Y-27615902D01*
X30737120Y-27615902D02*
X30734739Y-27634949D01*
X30734739Y-27634949D02*
X30637120Y-27653997D01*
X30812120Y-27701616D02*
X30820454Y-27711140D01*
X30820454Y-27711140D02*
X30809739Y-27720664D01*
X30809739Y-27720664D02*
X30801406Y-27711140D01*
X30801406Y-27711140D02*
X30812120Y-27701616D01*
X30812120Y-27701616D02*
X30809739Y-27720664D01*
X30825216Y-27596854D02*
X30833549Y-27606378D01*
X30833549Y-27606378D02*
X30822835Y-27615902D01*
X30822835Y-27615902D02*
X30814501Y-27606378D01*
X30814501Y-27606378D02*
X30825216Y-27596854D01*
X30825216Y-27596854D02*
X30822835Y-27615902D01*
X31057359Y-27720664D02*
X31082359Y-27520664D01*
X31082359Y-27520664D02*
X31129978Y-27520664D01*
X31129978Y-27520664D02*
X31157359Y-27530188D01*
X31157359Y-27530188D02*
X31174025Y-27549235D01*
X31174025Y-27549235D02*
X31181168Y-27568283D01*
X31181168Y-27568283D02*
X31185930Y-27606378D01*
X31185930Y-27606378D02*
X31182359Y-27634949D01*
X31182359Y-27634949D02*
X31168073Y-27673045D01*
X31168073Y-27673045D02*
X31156168Y-27692092D01*
X31156168Y-27692092D02*
X31134740Y-27711140D01*
X31134740Y-27711140D02*
X31104978Y-27720664D01*
X31104978Y-27720664D02*
X31057359Y-27720664D01*
X31374025Y-27701616D02*
X31363311Y-27711140D01*
X31363311Y-27711140D02*
X31333549Y-27720664D01*
X31333549Y-27720664D02*
X31314501Y-27720664D01*
X31314501Y-27720664D02*
X31287120Y-27711140D01*
X31287120Y-27711140D02*
X31270454Y-27692092D01*
X31270454Y-27692092D02*
X31263311Y-27673045D01*
X31263311Y-27673045D02*
X31258549Y-27634949D01*
X31258549Y-27634949D02*
X31262120Y-27606378D01*
X31262120Y-27606378D02*
X31276406Y-27568283D01*
X31276406Y-27568283D02*
X31288311Y-27549235D01*
X31288311Y-27549235D02*
X31309740Y-27530188D01*
X31309740Y-27530188D02*
X31339501Y-27520664D01*
X31339501Y-27520664D02*
X31358549Y-27520664D01*
X31358549Y-27520664D02*
X31385930Y-27530188D01*
X31385930Y-27530188D02*
X31394263Y-27539711D01*
X31609740Y-27720664D02*
X31634740Y-27520664D01*
X31634740Y-27520664D02*
X31683549Y-27663521D01*
X31683549Y-27663521D02*
X31768073Y-27520664D01*
X31768073Y-27520664D02*
X31743073Y-27720664D01*
X31866882Y-27720664D02*
X31849025Y-27711140D01*
X31849025Y-27711140D02*
X31840692Y-27701616D01*
X31840692Y-27701616D02*
X31833549Y-27682568D01*
X31833549Y-27682568D02*
X31840692Y-27625426D01*
X31840692Y-27625426D02*
X31852597Y-27606378D01*
X31852597Y-27606378D02*
X31863311Y-27596854D01*
X31863311Y-27596854D02*
X31883549Y-27587330D01*
X31883549Y-27587330D02*
X31912120Y-27587330D01*
X31912120Y-27587330D02*
X31929978Y-27596854D01*
X31929978Y-27596854D02*
X31938311Y-27606378D01*
X31938311Y-27606378D02*
X31945454Y-27625426D01*
X31945454Y-27625426D02*
X31938311Y-27682568D01*
X31938311Y-27682568D02*
X31926406Y-27701616D01*
X31926406Y-27701616D02*
X31915692Y-27711140D01*
X31915692Y-27711140D02*
X31895454Y-27720664D01*
X31895454Y-27720664D02*
X31866882Y-27720664D01*
X32007359Y-27587330D02*
X32083549Y-27587330D01*
X32044263Y-27520664D02*
X32022835Y-27692092D01*
X32022835Y-27692092D02*
X32029978Y-27711140D01*
X32029978Y-27711140D02*
X32047835Y-27720664D01*
X32047835Y-27720664D02*
X32066882Y-27720664D01*
X32162121Y-27720664D02*
X32144263Y-27711140D01*
X32144263Y-27711140D02*
X32135930Y-27701616D01*
X32135930Y-27701616D02*
X32128787Y-27682568D01*
X32128787Y-27682568D02*
X32135930Y-27625426D01*
X32135930Y-27625426D02*
X32147835Y-27606378D01*
X32147835Y-27606378D02*
X32158549Y-27596854D01*
X32158549Y-27596854D02*
X32178787Y-27587330D01*
X32178787Y-27587330D02*
X32207359Y-27587330D01*
X32207359Y-27587330D02*
X32225216Y-27596854D01*
X32225216Y-27596854D02*
X32233549Y-27606378D01*
X32233549Y-27606378D02*
X32240692Y-27625426D01*
X32240692Y-27625426D02*
X32233549Y-27682568D01*
X32233549Y-27682568D02*
X32221644Y-27701616D01*
X32221644Y-27701616D02*
X32210930Y-27711140D01*
X32210930Y-27711140D02*
X32190692Y-27720664D01*
X32190692Y-27720664D02*
X32162121Y-27720664D01*
X32314501Y-27720664D02*
X32331168Y-27587330D01*
X32326406Y-27625426D02*
X32338311Y-27606378D01*
X32338311Y-27606378D02*
X32349025Y-27596854D01*
X32349025Y-27596854D02*
X32369263Y-27587330D01*
X32369263Y-27587330D02*
X32388311Y-27587330D01*
X32590692Y-27720664D02*
X32615692Y-27520664D01*
X32615692Y-27520664D02*
X32663311Y-27520664D01*
X32663311Y-27520664D02*
X32690692Y-27530188D01*
X32690692Y-27530188D02*
X32707359Y-27549235D01*
X32707359Y-27549235D02*
X32714501Y-27568283D01*
X32714501Y-27568283D02*
X32719263Y-27606378D01*
X32719263Y-27606378D02*
X32715692Y-27634949D01*
X32715692Y-27634949D02*
X32701406Y-27673045D01*
X32701406Y-27673045D02*
X32689501Y-27692092D01*
X32689501Y-27692092D02*
X32668073Y-27711140D01*
X32668073Y-27711140D02*
X32638311Y-27720664D01*
X32638311Y-27720664D02*
X32590692Y-27720664D01*
X32790692Y-27720664D02*
X32807359Y-27587330D01*
X32802597Y-27625426D02*
X32814501Y-27606378D01*
X32814501Y-27606378D02*
X32825216Y-27596854D01*
X32825216Y-27596854D02*
X32845454Y-27587330D01*
X32845454Y-27587330D02*
X32864501Y-27587330D01*
X32914501Y-27720664D02*
X32931168Y-27587330D01*
X32939501Y-27520664D02*
X32928787Y-27530188D01*
X32928787Y-27530188D02*
X32937121Y-27539711D01*
X32937121Y-27539711D02*
X32947835Y-27530188D01*
X32947835Y-27530188D02*
X32939501Y-27520664D01*
X32939501Y-27520664D02*
X32937121Y-27539711D01*
X33007359Y-27587330D02*
X33038311Y-27720664D01*
X33038311Y-27720664D02*
X33102597Y-27587330D01*
X33239502Y-27711140D02*
X33219263Y-27720664D01*
X33219263Y-27720664D02*
X33181168Y-27720664D01*
X33181168Y-27720664D02*
X33163311Y-27711140D01*
X33163311Y-27711140D02*
X33156168Y-27692092D01*
X33156168Y-27692092D02*
X33165692Y-27615902D01*
X33165692Y-27615902D02*
X33177597Y-27596854D01*
X33177597Y-27596854D02*
X33197835Y-27587330D01*
X33197835Y-27587330D02*
X33235930Y-27587330D01*
X33235930Y-27587330D02*
X33253787Y-27596854D01*
X33253787Y-27596854D02*
X33260930Y-27615902D01*
X33260930Y-27615902D02*
X33258549Y-27634949D01*
X33258549Y-27634949D02*
X33160930Y-27653997D01*
X33333549Y-27720664D02*
X33350216Y-27587330D01*
X33345454Y-27625426D02*
X33357359Y-27606378D01*
X33357359Y-27606378D02*
X33368073Y-27596854D01*
X33368073Y-27596854D02*
X33388311Y-27587330D01*
X33388311Y-27587330D02*
X33407359Y-27587330D01*
D10*
X30194483Y-27260261D02*
X30144483Y-27260261D01*
X30144483Y-27338833D02*
X30144483Y-27188833D01*
X30144483Y-27188833D02*
X30215911Y-27188833D01*
X30273054Y-27338833D02*
X30273054Y-27238833D01*
X30273054Y-27188833D02*
X30265911Y-27195976D01*
X30265911Y-27195976D02*
X30273054Y-27203118D01*
X30273054Y-27203118D02*
X30280197Y-27195976D01*
X30280197Y-27195976D02*
X30273054Y-27188833D01*
X30273054Y-27188833D02*
X30273054Y-27203118D01*
X30365911Y-27338833D02*
X30351625Y-27331690D01*
X30351625Y-27331690D02*
X30344483Y-27317404D01*
X30344483Y-27317404D02*
X30344483Y-27188833D01*
X30480197Y-27331690D02*
X30465911Y-27338833D01*
X30465911Y-27338833D02*
X30437340Y-27338833D01*
X30437340Y-27338833D02*
X30423054Y-27331690D01*
X30423054Y-27331690D02*
X30415911Y-27317404D01*
X30415911Y-27317404D02*
X30415911Y-27260261D01*
X30415911Y-27260261D02*
X30423054Y-27245976D01*
X30423054Y-27245976D02*
X30437340Y-27238833D01*
X30437340Y-27238833D02*
X30465911Y-27238833D01*
X30465911Y-27238833D02*
X30480197Y-27245976D01*
X30480197Y-27245976D02*
X30487340Y-27260261D01*
X30487340Y-27260261D02*
X30487340Y-27274547D01*
X30487340Y-27274547D02*
X30415911Y-27288833D01*
X30551625Y-27324547D02*
X30558768Y-27331690D01*
X30558768Y-27331690D02*
X30551625Y-27338833D01*
X30551625Y-27338833D02*
X30544483Y-27331690D01*
X30544483Y-27331690D02*
X30551625Y-27324547D01*
X30551625Y-27324547D02*
X30551625Y-27338833D01*
X30551625Y-27245976D02*
X30558768Y-27253118D01*
X30558768Y-27253118D02*
X30551625Y-27260261D01*
X30551625Y-27260261D02*
X30544483Y-27253118D01*
X30544483Y-27253118D02*
X30551625Y-27245976D01*
X30551625Y-27245976D02*
X30551625Y-27260261D01*
X30815911Y-27195976D02*
X30801625Y-27188833D01*
X30801625Y-27188833D02*
X30780197Y-27188833D01*
X30780197Y-27188833D02*
X30758768Y-27195976D01*
X30758768Y-27195976D02*
X30744483Y-27210261D01*
X30744483Y-27210261D02*
X30737340Y-27224547D01*
X30737340Y-27224547D02*
X30730197Y-27253118D01*
X30730197Y-27253118D02*
X30730197Y-27274547D01*
X30730197Y-27274547D02*
X30737340Y-27303118D01*
X30737340Y-27303118D02*
X30744483Y-27317404D01*
X30744483Y-27317404D02*
X30758768Y-27331690D01*
X30758768Y-27331690D02*
X30780197Y-27338833D01*
X30780197Y-27338833D02*
X30794483Y-27338833D01*
X30794483Y-27338833D02*
X30815911Y-27331690D01*
X30815911Y-27331690D02*
X30823054Y-27324547D01*
X30823054Y-27324547D02*
X30823054Y-27274547D01*
X30823054Y-27274547D02*
X30794483Y-27274547D01*
X30887340Y-27338833D02*
X30887340Y-27238833D01*
X30887340Y-27267404D02*
X30894483Y-27253118D01*
X30894483Y-27253118D02*
X30901625Y-27245976D01*
X30901625Y-27245976D02*
X30915911Y-27238833D01*
X30915911Y-27238833D02*
X30930197Y-27238833D01*
X31044483Y-27238833D02*
X31044483Y-27338833D01*
X30980197Y-27238833D02*
X30980197Y-27317404D01*
X30980197Y-27317404D02*
X30987340Y-27331690D01*
X30987340Y-27331690D02*
X31001625Y-27338833D01*
X31001625Y-27338833D02*
X31023054Y-27338833D01*
X31023054Y-27338833D02*
X31037340Y-27331690D01*
X31037340Y-27331690D02*
X31044483Y-27324547D01*
X31115911Y-27238833D02*
X31115911Y-27388833D01*
X31115911Y-27245976D02*
X31130197Y-27238833D01*
X31130197Y-27238833D02*
X31158768Y-27238833D01*
X31158768Y-27238833D02*
X31173054Y-27245976D01*
X31173054Y-27245976D02*
X31180197Y-27253118D01*
X31180197Y-27253118D02*
X31187340Y-27267404D01*
X31187340Y-27267404D02*
X31187340Y-27310261D01*
X31187340Y-27310261D02*
X31180197Y-27324547D01*
X31180197Y-27324547D02*
X31173054Y-27331690D01*
X31173054Y-27331690D02*
X31158768Y-27338833D01*
X31158768Y-27338833D02*
X31130197Y-27338833D01*
X31130197Y-27338833D02*
X31115911Y-27331690D01*
X31251625Y-27238833D02*
X31251625Y-27388833D01*
X31251625Y-27245976D02*
X31265911Y-27238833D01*
X31265911Y-27238833D02*
X31294483Y-27238833D01*
X31294483Y-27238833D02*
X31308768Y-27245976D01*
X31308768Y-27245976D02*
X31315911Y-27253118D01*
X31315911Y-27253118D02*
X31323054Y-27267404D01*
X31323054Y-27267404D02*
X31323054Y-27310261D01*
X31323054Y-27310261D02*
X31315911Y-27324547D01*
X31315911Y-27324547D02*
X31308768Y-27331690D01*
X31308768Y-27331690D02*
X31294483Y-27338833D01*
X31294483Y-27338833D02*
X31265911Y-27338833D01*
X31265911Y-27338833D02*
X31251625Y-27331690D01*
X31444483Y-27331690D02*
X31430197Y-27338833D01*
X31430197Y-27338833D02*
X31401625Y-27338833D01*
X31401625Y-27338833D02*
X31387340Y-27331690D01*
X31387340Y-27331690D02*
X31380197Y-27317404D01*
X31380197Y-27317404D02*
X31380197Y-27260261D01*
X31380197Y-27260261D02*
X31387340Y-27245976D01*
X31387340Y-27245976D02*
X31401625Y-27238833D01*
X31401625Y-27238833D02*
X31430197Y-27238833D01*
X31430197Y-27238833D02*
X31444483Y-27245976D01*
X31444483Y-27245976D02*
X31451625Y-27260261D01*
X31451625Y-27260261D02*
X31451625Y-27274547D01*
X31451625Y-27274547D02*
X31380197Y-27288833D01*
X31594483Y-27338833D02*
X31508768Y-27338833D01*
X31551625Y-27338833D02*
X31551625Y-27188833D01*
X31551625Y-27188833D02*
X31537340Y-27210261D01*
X31537340Y-27210261D02*
X31523054Y-27224547D01*
X31523054Y-27224547D02*
X31508768Y-27231690D01*
X31658768Y-27281690D02*
X31773054Y-27281690D01*
X31844482Y-27338833D02*
X31844482Y-27188833D01*
X31915911Y-27238833D02*
X31915911Y-27338833D01*
X31915911Y-27253118D02*
X31923054Y-27245976D01*
X31923054Y-27245976D02*
X31937340Y-27238833D01*
X31937340Y-27238833D02*
X31958768Y-27238833D01*
X31958768Y-27238833D02*
X31973054Y-27245976D01*
X31973054Y-27245976D02*
X31980197Y-27260261D01*
X31980197Y-27260261D02*
X31980197Y-27338833D01*
X32115911Y-27338833D02*
X32115911Y-27188833D01*
X32115911Y-27331690D02*
X32101625Y-27338833D01*
X32101625Y-27338833D02*
X32073054Y-27338833D01*
X32073054Y-27338833D02*
X32058768Y-27331690D01*
X32058768Y-27331690D02*
X32051625Y-27324547D01*
X32051625Y-27324547D02*
X32044483Y-27310261D01*
X32044483Y-27310261D02*
X32044483Y-27267404D01*
X32044483Y-27267404D02*
X32051625Y-27253118D01*
X32051625Y-27253118D02*
X32058768Y-27245976D01*
X32058768Y-27245976D02*
X32073054Y-27238833D01*
X32073054Y-27238833D02*
X32101625Y-27238833D01*
X32101625Y-27238833D02*
X32115911Y-27245976D01*
X32244483Y-27331690D02*
X32230197Y-27338833D01*
X32230197Y-27338833D02*
X32201625Y-27338833D01*
X32201625Y-27338833D02*
X32187340Y-27331690D01*
X32187340Y-27331690D02*
X32180197Y-27317404D01*
X32180197Y-27317404D02*
X32180197Y-27260261D01*
X32180197Y-27260261D02*
X32187340Y-27245976D01*
X32187340Y-27245976D02*
X32201625Y-27238833D01*
X32201625Y-27238833D02*
X32230197Y-27238833D01*
X32230197Y-27238833D02*
X32244483Y-27245976D01*
X32244483Y-27245976D02*
X32251625Y-27260261D01*
X32251625Y-27260261D02*
X32251625Y-27274547D01*
X32251625Y-27274547D02*
X32180197Y-27288833D01*
X32301625Y-27338833D02*
X32380197Y-27238833D01*
X32301625Y-27238833D02*
X32380197Y-27338833D01*
X32423054Y-27188833D02*
X32515911Y-27188833D01*
X32515911Y-27188833D02*
X32465911Y-27245976D01*
X32465911Y-27245976D02*
X32487340Y-27245976D01*
X32487340Y-27245976D02*
X32501625Y-27253118D01*
X32501625Y-27253118D02*
X32508768Y-27260261D01*
X32508768Y-27260261D02*
X32515911Y-27274547D01*
X32515911Y-27274547D02*
X32515911Y-27310261D01*
X32515911Y-27310261D02*
X32508768Y-27324547D01*
X32508768Y-27324547D02*
X32501625Y-27331690D01*
X32501625Y-27331690D02*
X32487340Y-27338833D01*
X32487340Y-27338833D02*
X32444483Y-27338833D01*
X32444483Y-27338833D02*
X32430197Y-27331690D01*
X32430197Y-27331690D02*
X32423054Y-27324547D01*
X32580197Y-27324547D02*
X32587340Y-27331690D01*
X32587340Y-27331690D02*
X32580197Y-27338833D01*
X32580197Y-27338833D02*
X32573054Y-27331690D01*
X32573054Y-27331690D02*
X32580197Y-27324547D01*
X32580197Y-27324547D02*
X32580197Y-27338833D01*
X32651625Y-27338833D02*
X32651625Y-27188833D01*
X32665911Y-27281690D02*
X32708768Y-27338833D01*
X32708768Y-27238833D02*
X32651625Y-27295976D01*
X32773054Y-27338833D02*
X32773054Y-27238833D01*
X32773054Y-27188833D02*
X32765911Y-27195976D01*
X32765911Y-27195976D02*
X32773054Y-27203118D01*
X32773054Y-27203118D02*
X32780197Y-27195976D01*
X32780197Y-27195976D02*
X32773054Y-27188833D01*
X32773054Y-27188833D02*
X32773054Y-27203118D01*
X32908768Y-27331690D02*
X32894483Y-27338833D01*
X32894483Y-27338833D02*
X32865911Y-27338833D01*
X32865911Y-27338833D02*
X32851625Y-27331690D01*
X32851625Y-27331690D02*
X32844483Y-27324547D01*
X32844483Y-27324547D02*
X32837340Y-27310261D01*
X32837340Y-27310261D02*
X32837340Y-27267404D01*
X32837340Y-27267404D02*
X32844483Y-27253118D01*
X32844483Y-27253118D02*
X32851625Y-27245976D01*
X32851625Y-27245976D02*
X32865911Y-27238833D01*
X32865911Y-27238833D02*
X32894483Y-27238833D01*
X32894483Y-27238833D02*
X32908768Y-27245976D01*
X33037340Y-27338833D02*
X33037340Y-27260261D01*
X33037340Y-27260261D02*
X33030197Y-27245976D01*
X33030197Y-27245976D02*
X33015911Y-27238833D01*
X33015911Y-27238833D02*
X32987340Y-27238833D01*
X32987340Y-27238833D02*
X32973054Y-27245976D01*
X33037340Y-27331690D02*
X33023054Y-27338833D01*
X33023054Y-27338833D02*
X32987340Y-27338833D01*
X32987340Y-27338833D02*
X32973054Y-27331690D01*
X32973054Y-27331690D02*
X32965911Y-27317404D01*
X32965911Y-27317404D02*
X32965911Y-27303118D01*
X32965911Y-27303118D02*
X32973054Y-27288833D01*
X32973054Y-27288833D02*
X32987340Y-27281690D01*
X32987340Y-27281690D02*
X33023054Y-27281690D01*
X33023054Y-27281690D02*
X33037340Y-27274547D01*
X33173054Y-27338833D02*
X33173054Y-27188833D01*
X33173054Y-27331690D02*
X33158768Y-27338833D01*
X33158768Y-27338833D02*
X33130197Y-27338833D01*
X33130197Y-27338833D02*
X33115911Y-27331690D01*
X33115911Y-27331690D02*
X33108768Y-27324547D01*
X33108768Y-27324547D02*
X33101625Y-27310261D01*
X33101625Y-27310261D02*
X33101625Y-27267404D01*
X33101625Y-27267404D02*
X33108768Y-27253118D01*
X33108768Y-27253118D02*
X33115911Y-27245976D01*
X33115911Y-27245976D02*
X33130197Y-27238833D01*
X33130197Y-27238833D02*
X33158768Y-27238833D01*
X33158768Y-27238833D02*
X33173054Y-27245976D01*
X33208768Y-27353118D02*
X33323054Y-27353118D01*
X33358768Y-27238833D02*
X33358768Y-27388833D01*
X33358768Y-27245976D02*
X33373054Y-27238833D01*
X33373054Y-27238833D02*
X33401625Y-27238833D01*
X33401625Y-27238833D02*
X33415911Y-27245976D01*
X33415911Y-27245976D02*
X33423054Y-27253118D01*
X33423054Y-27253118D02*
X33430197Y-27267404D01*
X33430197Y-27267404D02*
X33430197Y-27310261D01*
X33430197Y-27310261D02*
X33423054Y-27324547D01*
X33423054Y-27324547D02*
X33415911Y-27331690D01*
X33415911Y-27331690D02*
X33401625Y-27338833D01*
X33401625Y-27338833D02*
X33373054Y-27338833D01*
X33373054Y-27338833D02*
X33358768Y-27331690D01*
X33558768Y-27331690D02*
X33544483Y-27338833D01*
X33544483Y-27338833D02*
X33515911Y-27338833D01*
X33515911Y-27338833D02*
X33501625Y-27331690D01*
X33501625Y-27331690D02*
X33494483Y-27324547D01*
X33494483Y-27324547D02*
X33487340Y-27310261D01*
X33487340Y-27310261D02*
X33487340Y-27267404D01*
X33487340Y-27267404D02*
X33494483Y-27253118D01*
X33494483Y-27253118D02*
X33501625Y-27245976D01*
X33501625Y-27245976D02*
X33515911Y-27238833D01*
X33515911Y-27238833D02*
X33544483Y-27238833D01*
X33544483Y-27238833D02*
X33558768Y-27245976D01*
X33623054Y-27338833D02*
X33623054Y-27188833D01*
X33623054Y-27245976D02*
X33637340Y-27238833D01*
X33637340Y-27238833D02*
X33665911Y-27238833D01*
X33665911Y-27238833D02*
X33680197Y-27245976D01*
X33680197Y-27245976D02*
X33687340Y-27253118D01*
X33687340Y-27253118D02*
X33694483Y-27267404D01*
X33694483Y-27267404D02*
X33694483Y-27310261D01*
X33694483Y-27310261D02*
X33687340Y-27324547D01*
X33687340Y-27324547D02*
X33680197Y-27331690D01*
X33680197Y-27331690D02*
X33665911Y-27338833D01*
X33665911Y-27338833D02*
X33637340Y-27338833D01*
X33637340Y-27338833D02*
X33623054Y-27331690D01*
X29998900Y-26850220D02*
X40798900Y-26850220D01*
X30137340Y-27061690D02*
X30158768Y-27068833D01*
X30158768Y-27068833D02*
X30194483Y-27068833D01*
X30194483Y-27068833D02*
X30208768Y-27061690D01*
X30208768Y-27061690D02*
X30215911Y-27054547D01*
X30215911Y-27054547D02*
X30223054Y-27040261D01*
X30223054Y-27040261D02*
X30223054Y-27025976D01*
X30223054Y-27025976D02*
X30215911Y-27011690D01*
X30215911Y-27011690D02*
X30208768Y-27004547D01*
X30208768Y-27004547D02*
X30194483Y-26997404D01*
X30194483Y-26997404D02*
X30165911Y-26990261D01*
X30165911Y-26990261D02*
X30151625Y-26983118D01*
X30151625Y-26983118D02*
X30144483Y-26975976D01*
X30144483Y-26975976D02*
X30137340Y-26961690D01*
X30137340Y-26961690D02*
X30137340Y-26947404D01*
X30137340Y-26947404D02*
X30144483Y-26933118D01*
X30144483Y-26933118D02*
X30151625Y-26925976D01*
X30151625Y-26925976D02*
X30165911Y-26918833D01*
X30165911Y-26918833D02*
X30201625Y-26918833D01*
X30201625Y-26918833D02*
X30223054Y-26925976D01*
X30287340Y-27068833D02*
X30287340Y-26918833D01*
X30351625Y-27068833D02*
X30351625Y-26990261D01*
X30351625Y-26990261D02*
X30344483Y-26975976D01*
X30344483Y-26975976D02*
X30330197Y-26968833D01*
X30330197Y-26968833D02*
X30308768Y-26968833D01*
X30308768Y-26968833D02*
X30294483Y-26975976D01*
X30294483Y-26975976D02*
X30287340Y-26983118D01*
X30480197Y-27061690D02*
X30465911Y-27068833D01*
X30465911Y-27068833D02*
X30437340Y-27068833D01*
X30437340Y-27068833D02*
X30423054Y-27061690D01*
X30423054Y-27061690D02*
X30415911Y-27047404D01*
X30415911Y-27047404D02*
X30415911Y-26990261D01*
X30415911Y-26990261D02*
X30423054Y-26975976D01*
X30423054Y-26975976D02*
X30437340Y-26968833D01*
X30437340Y-26968833D02*
X30465911Y-26968833D01*
X30465911Y-26968833D02*
X30480197Y-26975976D01*
X30480197Y-26975976D02*
X30487340Y-26990261D01*
X30487340Y-26990261D02*
X30487340Y-27004547D01*
X30487340Y-27004547D02*
X30415911Y-27018833D01*
X30608768Y-27061690D02*
X30594483Y-27068833D01*
X30594483Y-27068833D02*
X30565911Y-27068833D01*
X30565911Y-27068833D02*
X30551625Y-27061690D01*
X30551625Y-27061690D02*
X30544483Y-27047404D01*
X30544483Y-27047404D02*
X30544483Y-26990261D01*
X30544483Y-26990261D02*
X30551625Y-26975976D01*
X30551625Y-26975976D02*
X30565911Y-26968833D01*
X30565911Y-26968833D02*
X30594483Y-26968833D01*
X30594483Y-26968833D02*
X30608768Y-26975976D01*
X30608768Y-26975976D02*
X30615911Y-26990261D01*
X30615911Y-26990261D02*
X30615911Y-27004547D01*
X30615911Y-27004547D02*
X30544483Y-27018833D01*
X30658768Y-26968833D02*
X30715911Y-26968833D01*
X30680197Y-26918833D02*
X30680197Y-27047404D01*
X30680197Y-27047404D02*
X30687340Y-27061690D01*
X30687340Y-27061690D02*
X30701625Y-27068833D01*
X30701625Y-27068833D02*
X30715911Y-27068833D01*
X30765911Y-27054547D02*
X30773054Y-27061690D01*
X30773054Y-27061690D02*
X30765911Y-27068833D01*
X30765911Y-27068833D02*
X30758768Y-27061690D01*
X30758768Y-27061690D02*
X30765911Y-27054547D01*
X30765911Y-27054547D02*
X30765911Y-27068833D01*
X30765911Y-26975976D02*
X30773054Y-26983118D01*
X30773054Y-26983118D02*
X30765911Y-26990261D01*
X30765911Y-26990261D02*
X30758768Y-26983118D01*
X30758768Y-26983118D02*
X30765911Y-26975976D01*
X30765911Y-26975976D02*
X30765911Y-26990261D01*
D11*
X30140065Y-26618053D02*
X30175780Y-26768053D01*
X30175780Y-26768053D02*
X30204351Y-26660910D01*
X30204351Y-26660910D02*
X30232922Y-26768053D01*
X30232922Y-26768053D02*
X30268637Y-26618053D01*
X30325780Y-26768053D02*
X30325780Y-26618053D01*
X30325780Y-26689481D02*
X30411494Y-26689481D01*
X30411494Y-26768053D02*
X30411494Y-26618053D01*
X30468637Y-26618053D02*
X30568637Y-26618053D01*
X30568637Y-26618053D02*
X30468637Y-26768053D01*
X30468637Y-26768053D02*
X30568637Y-26768053D01*
X30725780Y-26618053D02*
X30825780Y-26618053D01*
X30825780Y-26618053D02*
X30725780Y-26768053D01*
X30725780Y-26768053D02*
X30825780Y-26768053D01*
X30868637Y-26668053D02*
X30897208Y-26768053D01*
X30897208Y-26768053D02*
X30925780Y-26696624D01*
X30925780Y-26696624D02*
X30954351Y-26768053D01*
X30954351Y-26768053D02*
X30982922Y-26668053D01*
X31040065Y-26768053D02*
X31040065Y-26668053D01*
X31040065Y-26618053D02*
X31032922Y-26625196D01*
X31032922Y-26625196D02*
X31040065Y-26632338D01*
X31040065Y-26632338D02*
X31047208Y-26625196D01*
X31047208Y-26625196D02*
X31040065Y-26618053D01*
X31040065Y-26618053D02*
X31040065Y-26632338D01*
X31175780Y-26760910D02*
X31161494Y-26768053D01*
X31161494Y-26768053D02*
X31132922Y-26768053D01*
X31132922Y-26768053D02*
X31118637Y-26760910D01*
X31118637Y-26760910D02*
X31111494Y-26753767D01*
X31111494Y-26753767D02*
X31104351Y-26739481D01*
X31104351Y-26739481D02*
X31104351Y-26696624D01*
X31104351Y-26696624D02*
X31111494Y-26682338D01*
X31111494Y-26682338D02*
X31118637Y-26675196D01*
X31118637Y-26675196D02*
X31132922Y-26668053D01*
X31132922Y-26668053D02*
X31161494Y-26668053D01*
X31161494Y-26668053D02*
X31175780Y-26675196D01*
X31240065Y-26768053D02*
X31240065Y-26618053D01*
X31254351Y-26710910D02*
X31297208Y-26768053D01*
X31297208Y-26668053D02*
X31240065Y-26725196D01*
X31425780Y-26768053D02*
X31425780Y-26689481D01*
X31425780Y-26689481D02*
X31418637Y-26675196D01*
X31418637Y-26675196D02*
X31404351Y-26668053D01*
X31404351Y-26668053D02*
X31375780Y-26668053D01*
X31375780Y-26668053D02*
X31361494Y-26675196D01*
X31425780Y-26760910D02*
X31411494Y-26768053D01*
X31411494Y-26768053D02*
X31375780Y-26768053D01*
X31375780Y-26768053D02*
X31361494Y-26760910D01*
X31361494Y-26760910D02*
X31354351Y-26746624D01*
X31354351Y-26746624D02*
X31354351Y-26732338D01*
X31354351Y-26732338D02*
X31361494Y-26718053D01*
X31361494Y-26718053D02*
X31375780Y-26710910D01*
X31375780Y-26710910D02*
X31411494Y-26710910D01*
X31411494Y-26710910D02*
X31425780Y-26703767D01*
X31561494Y-26668053D02*
X31561494Y-26768053D01*
X31497208Y-26668053D02*
X31497208Y-26746624D01*
X31497208Y-26746624D02*
X31504351Y-26760910D01*
X31504351Y-26760910D02*
X31518637Y-26768053D01*
X31518637Y-26768053D02*
X31540065Y-26768053D01*
X31540065Y-26768053D02*
X31554351Y-26760910D01*
X31554351Y-26760910D02*
X31561494Y-26753767D01*
D10*
X30123054Y-26318833D02*
X30208768Y-26318833D01*
X30165911Y-26468833D02*
X30165911Y-26318833D01*
X30315911Y-26461690D02*
X30301625Y-26468833D01*
X30301625Y-26468833D02*
X30273054Y-26468833D01*
X30273054Y-26468833D02*
X30258768Y-26461690D01*
X30258768Y-26461690D02*
X30251625Y-26447404D01*
X30251625Y-26447404D02*
X30251625Y-26390261D01*
X30251625Y-26390261D02*
X30258768Y-26375976D01*
X30258768Y-26375976D02*
X30273054Y-26368833D01*
X30273054Y-26368833D02*
X30301625Y-26368833D01*
X30301625Y-26368833D02*
X30315911Y-26375976D01*
X30315911Y-26375976D02*
X30323054Y-26390261D01*
X30323054Y-26390261D02*
X30323054Y-26404547D01*
X30323054Y-26404547D02*
X30251625Y-26418833D01*
X30451625Y-26468833D02*
X30451625Y-26390261D01*
X30451625Y-26390261D02*
X30444483Y-26375976D01*
X30444483Y-26375976D02*
X30430197Y-26368833D01*
X30430197Y-26368833D02*
X30401625Y-26368833D01*
X30401625Y-26368833D02*
X30387340Y-26375976D01*
X30451625Y-26461690D02*
X30437340Y-26468833D01*
X30437340Y-26468833D02*
X30401625Y-26468833D01*
X30401625Y-26468833D02*
X30387340Y-26461690D01*
X30387340Y-26461690D02*
X30380197Y-26447404D01*
X30380197Y-26447404D02*
X30380197Y-26433118D01*
X30380197Y-26433118D02*
X30387340Y-26418833D01*
X30387340Y-26418833D02*
X30401625Y-26411690D01*
X30401625Y-26411690D02*
X30437340Y-26411690D01*
X30437340Y-26411690D02*
X30451625Y-26404547D01*
X30523054Y-26468833D02*
X30523054Y-26368833D01*
X30523054Y-26383118D02*
X30530197Y-26375976D01*
X30530197Y-26375976D02*
X30544483Y-26368833D01*
X30544483Y-26368833D02*
X30565911Y-26368833D01*
X30565911Y-26368833D02*
X30580197Y-26375976D01*
X30580197Y-26375976D02*
X30587340Y-26390261D01*
X30587340Y-26390261D02*
X30587340Y-26468833D01*
X30587340Y-26390261D02*
X30594483Y-26375976D01*
X30594483Y-26375976D02*
X30608768Y-26368833D01*
X30608768Y-26368833D02*
X30630197Y-26368833D01*
X30630197Y-26368833D02*
X30644483Y-26375976D01*
X30644483Y-26375976D02*
X30651625Y-26390261D01*
X30651625Y-26390261D02*
X30651625Y-26468833D01*
X30915911Y-26468833D02*
X30830197Y-26468833D01*
X30873054Y-26468833D02*
X30873054Y-26318833D01*
X30873054Y-26318833D02*
X30858768Y-26340261D01*
X30858768Y-26340261D02*
X30844483Y-26354547D01*
X30844483Y-26354547D02*
X30830197Y-26361690D01*
X30144483Y-26168833D02*
X30144483Y-26018833D01*
X30215911Y-26068833D02*
X30215911Y-26168833D01*
X30215911Y-26083118D02*
X30223054Y-26075976D01*
X30223054Y-26075976D02*
X30237340Y-26068833D01*
X30237340Y-26068833D02*
X30258768Y-26068833D01*
X30258768Y-26068833D02*
X30273054Y-26075976D01*
X30273054Y-26075976D02*
X30280197Y-26090261D01*
X30280197Y-26090261D02*
X30280197Y-26168833D01*
X30415911Y-26168833D02*
X30415911Y-26018833D01*
X30415911Y-26161690D02*
X30401625Y-26168833D01*
X30401625Y-26168833D02*
X30373054Y-26168833D01*
X30373054Y-26168833D02*
X30358768Y-26161690D01*
X30358768Y-26161690D02*
X30351625Y-26154547D01*
X30351625Y-26154547D02*
X30344483Y-26140261D01*
X30344483Y-26140261D02*
X30344483Y-26097404D01*
X30344483Y-26097404D02*
X30351625Y-26083118D01*
X30351625Y-26083118D02*
X30358768Y-26075976D01*
X30358768Y-26075976D02*
X30373054Y-26068833D01*
X30373054Y-26068833D02*
X30401625Y-26068833D01*
X30401625Y-26068833D02*
X30415911Y-26075976D01*
X30544483Y-26161690D02*
X30530197Y-26168833D01*
X30530197Y-26168833D02*
X30501626Y-26168833D01*
X30501626Y-26168833D02*
X30487340Y-26161690D01*
X30487340Y-26161690D02*
X30480197Y-26147404D01*
X30480197Y-26147404D02*
X30480197Y-26090261D01*
X30480197Y-26090261D02*
X30487340Y-26075976D01*
X30487340Y-26075976D02*
X30501626Y-26068833D01*
X30501626Y-26068833D02*
X30530197Y-26068833D01*
X30530197Y-26068833D02*
X30544483Y-26075976D01*
X30544483Y-26075976D02*
X30551626Y-26090261D01*
X30551626Y-26090261D02*
X30551626Y-26104547D01*
X30551626Y-26104547D02*
X30480197Y-26118833D01*
X30601625Y-26168833D02*
X30680197Y-26068833D01*
X30601625Y-26068833D02*
X30680197Y-26168833D01*
X30880197Y-26018833D02*
X30894483Y-26018833D01*
X30894483Y-26018833D02*
X30908768Y-26025976D01*
X30908768Y-26025976D02*
X30915911Y-26033118D01*
X30915911Y-26033118D02*
X30923054Y-26047404D01*
X30923054Y-26047404D02*
X30930197Y-26075976D01*
X30930197Y-26075976D02*
X30930197Y-26111690D01*
X30930197Y-26111690D02*
X30923054Y-26140261D01*
X30923054Y-26140261D02*
X30915911Y-26154547D01*
X30915911Y-26154547D02*
X30908768Y-26161690D01*
X30908768Y-26161690D02*
X30894483Y-26168833D01*
X30894483Y-26168833D02*
X30880197Y-26168833D01*
X30880197Y-26168833D02*
X30865911Y-26161690D01*
X30865911Y-26161690D02*
X30858768Y-26154547D01*
X30858768Y-26154547D02*
X30851625Y-26140261D01*
X30851625Y-26140261D02*
X30844483Y-26111690D01*
X30844483Y-26111690D02*
X30844483Y-26075976D01*
X30844483Y-26075976D02*
X30851625Y-26047404D01*
X30851625Y-26047404D02*
X30858768Y-26033118D01*
X30858768Y-26033118D02*
X30865911Y-26025976D01*
X30865911Y-26025976D02*
X30880197Y-26018833D01*
X31001625Y-26161690D02*
X31001625Y-26168833D01*
X31001625Y-26168833D02*
X30994483Y-26183118D01*
X30994483Y-26183118D02*
X30987340Y-26190261D01*
X31223054Y-26018833D02*
X31223054Y-26125976D01*
X31223054Y-26125976D02*
X31215911Y-26147404D01*
X31215911Y-26147404D02*
X31201625Y-26161690D01*
X31201625Y-26161690D02*
X31180197Y-26168833D01*
X31180197Y-26168833D02*
X31165911Y-26168833D01*
X31358768Y-26068833D02*
X31358768Y-26168833D01*
X31294483Y-26068833D02*
X31294483Y-26147404D01*
X31294483Y-26147404D02*
X31301625Y-26161690D01*
X31301625Y-26161690D02*
X31315911Y-26168833D01*
X31315911Y-26168833D02*
X31337340Y-26168833D01*
X31337340Y-26168833D02*
X31351625Y-26161690D01*
X31351625Y-26161690D02*
X31358768Y-26154547D01*
X31430197Y-26068833D02*
X31430197Y-26168833D01*
X31430197Y-26083118D02*
X31437340Y-26075976D01*
X31437340Y-26075976D02*
X31451625Y-26068833D01*
X31451625Y-26068833D02*
X31473054Y-26068833D01*
X31473054Y-26068833D02*
X31487340Y-26075976D01*
X31487340Y-26075976D02*
X31494483Y-26090261D01*
X31494483Y-26090261D02*
X31494483Y-26168833D01*
X31623054Y-26161690D02*
X31608768Y-26168833D01*
X31608768Y-26168833D02*
X31580197Y-26168833D01*
X31580197Y-26168833D02*
X31565911Y-26161690D01*
X31565911Y-26161690D02*
X31558768Y-26147404D01*
X31558768Y-26147404D02*
X31558768Y-26090261D01*
X31558768Y-26090261D02*
X31565911Y-26075976D01*
X31565911Y-26075976D02*
X31580197Y-26068833D01*
X31580197Y-26068833D02*
X31608768Y-26068833D01*
X31608768Y-26068833D02*
X31623054Y-26075976D01*
X31623054Y-26075976D02*
X31630197Y-26090261D01*
X31630197Y-26090261D02*
X31630197Y-26104547D01*
X31630197Y-26104547D02*
X31558768Y-26118833D01*
X31801625Y-26033118D02*
X31808768Y-26025976D01*
X31808768Y-26025976D02*
X31823054Y-26018833D01*
X31823054Y-26018833D02*
X31858768Y-26018833D01*
X31858768Y-26018833D02*
X31873054Y-26025976D01*
X31873054Y-26025976D02*
X31880197Y-26033118D01*
X31880197Y-26033118D02*
X31887340Y-26047404D01*
X31887340Y-26047404D02*
X31887340Y-26061690D01*
X31887340Y-26061690D02*
X31880197Y-26083118D01*
X31880197Y-26083118D02*
X31794483Y-26168833D01*
X31794483Y-26168833D02*
X31887340Y-26168833D01*
X31980197Y-26018833D02*
X31994483Y-26018833D01*
X31994483Y-26018833D02*
X32008768Y-26025976D01*
X32008768Y-26025976D02*
X32015911Y-26033118D01*
X32015911Y-26033118D02*
X32023054Y-26047404D01*
X32023054Y-26047404D02*
X32030197Y-26075976D01*
X32030197Y-26075976D02*
X32030197Y-26111690D01*
X32030197Y-26111690D02*
X32023054Y-26140261D01*
X32023054Y-26140261D02*
X32015911Y-26154547D01*
X32015911Y-26154547D02*
X32008768Y-26161690D01*
X32008768Y-26161690D02*
X31994483Y-26168833D01*
X31994483Y-26168833D02*
X31980197Y-26168833D01*
X31980197Y-26168833D02*
X31965911Y-26161690D01*
X31965911Y-26161690D02*
X31958768Y-26154547D01*
X31958768Y-26154547D02*
X31951625Y-26140261D01*
X31951625Y-26140261D02*
X31944483Y-26111690D01*
X31944483Y-26111690D02*
X31944483Y-26075976D01*
X31944483Y-26075976D02*
X31951625Y-26047404D01*
X31951625Y-26047404D02*
X31958768Y-26033118D01*
X31958768Y-26033118D02*
X31965911Y-26025976D01*
X31965911Y-26025976D02*
X31980197Y-26018833D01*
X32087340Y-26033118D02*
X32094482Y-26025976D01*
X32094482Y-26025976D02*
X32108768Y-26018833D01*
X32108768Y-26018833D02*
X32144482Y-26018833D01*
X32144482Y-26018833D02*
X32158768Y-26025976D01*
X32158768Y-26025976D02*
X32165911Y-26033118D01*
X32165911Y-26033118D02*
X32173054Y-26047404D01*
X32173054Y-26047404D02*
X32173054Y-26061690D01*
X32173054Y-26061690D02*
X32165911Y-26083118D01*
X32165911Y-26083118D02*
X32080197Y-26168833D01*
X32080197Y-26168833D02*
X32173054Y-26168833D01*
X32301625Y-26018833D02*
X32273054Y-26018833D01*
X32273054Y-26018833D02*
X32258768Y-26025976D01*
X32258768Y-26025976D02*
X32251625Y-26033118D01*
X32251625Y-26033118D02*
X32237340Y-26054547D01*
X32237340Y-26054547D02*
X32230197Y-26083118D01*
X32230197Y-26083118D02*
X32230197Y-26140261D01*
X32230197Y-26140261D02*
X32237340Y-26154547D01*
X32237340Y-26154547D02*
X32244482Y-26161690D01*
X32244482Y-26161690D02*
X32258768Y-26168833D01*
X32258768Y-26168833D02*
X32287340Y-26168833D01*
X32287340Y-26168833D02*
X32301625Y-26161690D01*
X32301625Y-26161690D02*
X32308768Y-26154547D01*
X32308768Y-26154547D02*
X32315911Y-26140261D01*
X32315911Y-26140261D02*
X32315911Y-26104547D01*
X32315911Y-26104547D02*
X32308768Y-26090261D01*
X32308768Y-26090261D02*
X32301625Y-26083118D01*
X32301625Y-26083118D02*
X32287340Y-26075976D01*
X32287340Y-26075976D02*
X32258768Y-26075976D01*
X32258768Y-26075976D02*
X32244482Y-26083118D01*
X32244482Y-26083118D02*
X32237340Y-26090261D01*
X32237340Y-26090261D02*
X32230197Y-26104547D01*
X31998900Y-27850220D02*
X31998900Y-28150220D01*
X38398900Y-27850220D02*
X38398900Y-28500220D01*
D13*
X3700000Y-2290000D02*
X16700000Y-2290000D01*
X16700000Y-11590000D01*
X3700000Y-11590000D01*
X3700000Y-2290000D01*
M02*
