%TF.GenerationSoftware,KiCad,Pcbnew,10.0.3*%
%TF.CreationDate,2026-06-12T15:06:18+02:00*%
%TF.ProjectId,Gruppe1-Index3,47727570-7065-4312-9d49-6e646578332e,rev?*%
%TF.SameCoordinates,Original*%
%TF.FileFunction,Soldermask,Bot*%
%TF.FilePolarity,Negative*%
%FSLAX45Y45*%
G04 Gerber Fmt 4.5, Leading zero omitted, Abs format (unit mm)*
G04 Created by KiCad (PCBNEW 10.0.3) date 2026-06-12 15:06:18*
%MOMM*%
%LPD*%
G01*
G04 APERTURE LIST*
%ADD10C,0.150000*%
%ADD11C,0.300000*%
%ADD12C,0.400000*%
G04 APERTURE END LIST*
D10*
X29998900Y-25300220D02*
X40798900Y-25300220D01*
X40798900Y-28500220D01*
X29998900Y-28500220D01*
X29998900Y-25300220D01*
X1000000Y-1000000D02*
X40998900Y-1000000D01*
X40998900Y-28700220D01*
X1000000Y-28700220D01*
X1000000Y-1000000D01*
X1200000Y-1200000D02*
X40798900Y-1200000D01*
X40798900Y-28500220D01*
X1200000Y-28500220D01*
X1200000Y-1200000D01*
X6000000Y-1200000D02*
X6000000Y-1000000D01*
X11000000Y-1200000D02*
X11000000Y-1000000D01*
X16000000Y-1200000D02*
X16000000Y-1000000D01*
X21000000Y-1200000D02*
X21000000Y-1000000D01*
X26000000Y-1200000D02*
X26000000Y-1000000D01*
X31000000Y-1200000D02*
X31000000Y-1000000D01*
X36000000Y-1200000D02*
X36000000Y-1000000D01*
X3608916Y-1159360D02*
X3534630Y-1159360D01*
X3571773Y-1159360D02*
X3571773Y-1029360D01*
X3571773Y-1029360D02*
X3559392Y-1047932D01*
X3559392Y-1047932D02*
X3547011Y-1060313D01*
X3547011Y-1060313D02*
X3534630Y-1066503D01*
X8534630Y-1041741D02*
X8540821Y-1035551D01*
X8540821Y-1035551D02*
X8553202Y-1029360D01*
X8553202Y-1029360D02*
X8584154Y-1029360D01*
X8584154Y-1029360D02*
X8596535Y-1035551D01*
X8596535Y-1035551D02*
X8602726Y-1041741D01*
X8602726Y-1041741D02*
X8608916Y-1054122D01*
X8608916Y-1054122D02*
X8608916Y-1066503D01*
X8608916Y-1066503D02*
X8602726Y-1085075D01*
X8602726Y-1085075D02*
X8528440Y-1159360D01*
X8528440Y-1159360D02*
X8608916Y-1159360D01*
X13528440Y-1029360D02*
X13608916Y-1029360D01*
X13608916Y-1029360D02*
X13565583Y-1078884D01*
X13565583Y-1078884D02*
X13584154Y-1078884D01*
X13584154Y-1078884D02*
X13596535Y-1085075D01*
X13596535Y-1085075D02*
X13602725Y-1091265D01*
X13602725Y-1091265D02*
X13608916Y-1103646D01*
X13608916Y-1103646D02*
X13608916Y-1134599D01*
X13608916Y-1134599D02*
X13602725Y-1146980D01*
X13602725Y-1146980D02*
X13596535Y-1153170D01*
X13596535Y-1153170D02*
X13584154Y-1159360D01*
X13584154Y-1159360D02*
X13547011Y-1159360D01*
X13547011Y-1159360D02*
X13534630Y-1153170D01*
X13534630Y-1153170D02*
X13528440Y-1146980D01*
X18596535Y-1072694D02*
X18596535Y-1159360D01*
X18565583Y-1023170D02*
X18534630Y-1116027D01*
X18534630Y-1116027D02*
X18615106Y-1116027D01*
X23602725Y-1029360D02*
X23540821Y-1029360D01*
X23540821Y-1029360D02*
X23534630Y-1091265D01*
X23534630Y-1091265D02*
X23540821Y-1085075D01*
X23540821Y-1085075D02*
X23553202Y-1078884D01*
X23553202Y-1078884D02*
X23584154Y-1078884D01*
X23584154Y-1078884D02*
X23596535Y-1085075D01*
X23596535Y-1085075D02*
X23602725Y-1091265D01*
X23602725Y-1091265D02*
X23608916Y-1103646D01*
X23608916Y-1103646D02*
X23608916Y-1134599D01*
X23608916Y-1134599D02*
X23602725Y-1146980D01*
X23602725Y-1146980D02*
X23596535Y-1153170D01*
X23596535Y-1153170D02*
X23584154Y-1159360D01*
X23584154Y-1159360D02*
X23553202Y-1159360D01*
X23553202Y-1159360D02*
X23540821Y-1153170D01*
X23540821Y-1153170D02*
X23534630Y-1146980D01*
X28596535Y-1029360D02*
X28571773Y-1029360D01*
X28571773Y-1029360D02*
X28559392Y-1035551D01*
X28559392Y-1035551D02*
X28553202Y-1041741D01*
X28553202Y-1041741D02*
X28540821Y-1060313D01*
X28540821Y-1060313D02*
X28534630Y-1085075D01*
X28534630Y-1085075D02*
X28534630Y-1134599D01*
X28534630Y-1134599D02*
X28540821Y-1146980D01*
X28540821Y-1146980D02*
X28547011Y-1153170D01*
X28547011Y-1153170D02*
X28559392Y-1159360D01*
X28559392Y-1159360D02*
X28584154Y-1159360D01*
X28584154Y-1159360D02*
X28596535Y-1153170D01*
X28596535Y-1153170D02*
X28602725Y-1146980D01*
X28602725Y-1146980D02*
X28608916Y-1134599D01*
X28608916Y-1134599D02*
X28608916Y-1103646D01*
X28608916Y-1103646D02*
X28602725Y-1091265D01*
X28602725Y-1091265D02*
X28596535Y-1085075D01*
X28596535Y-1085075D02*
X28584154Y-1078884D01*
X28584154Y-1078884D02*
X28559392Y-1078884D01*
X28559392Y-1078884D02*
X28547011Y-1085075D01*
X28547011Y-1085075D02*
X28540821Y-1091265D01*
X28540821Y-1091265D02*
X28534630Y-1103646D01*
X33528440Y-1029360D02*
X33615106Y-1029360D01*
X33615106Y-1029360D02*
X33559392Y-1159360D01*
X38559392Y-1085075D02*
X38547011Y-1078884D01*
X38547011Y-1078884D02*
X38540821Y-1072694D01*
X38540821Y-1072694D02*
X38534630Y-1060313D01*
X38534630Y-1060313D02*
X38534630Y-1054122D01*
X38534630Y-1054122D02*
X38540821Y-1041741D01*
X38540821Y-1041741D02*
X38547011Y-1035551D01*
X38547011Y-1035551D02*
X38559392Y-1029360D01*
X38559392Y-1029360D02*
X38584154Y-1029360D01*
X38584154Y-1029360D02*
X38596535Y-1035551D01*
X38596535Y-1035551D02*
X38602726Y-1041741D01*
X38602726Y-1041741D02*
X38608916Y-1054122D01*
X38608916Y-1054122D02*
X38608916Y-1060313D01*
X38608916Y-1060313D02*
X38602726Y-1072694D01*
X38602726Y-1072694D02*
X38596535Y-1078884D01*
X38596535Y-1078884D02*
X38584154Y-1085075D01*
X38584154Y-1085075D02*
X38559392Y-1085075D01*
X38559392Y-1085075D02*
X38547011Y-1091265D01*
X38547011Y-1091265D02*
X38540821Y-1097456D01*
X38540821Y-1097456D02*
X38534630Y-1109837D01*
X38534630Y-1109837D02*
X38534630Y-1134599D01*
X38534630Y-1134599D02*
X38540821Y-1146980D01*
X38540821Y-1146980D02*
X38547011Y-1153170D01*
X38547011Y-1153170D02*
X38559392Y-1159360D01*
X38559392Y-1159360D02*
X38584154Y-1159360D01*
X38584154Y-1159360D02*
X38596535Y-1153170D01*
X38596535Y-1153170D02*
X38602726Y-1146980D01*
X38602726Y-1146980D02*
X38608916Y-1134599D01*
X38608916Y-1134599D02*
X38608916Y-1109837D01*
X38608916Y-1109837D02*
X38602726Y-1097456D01*
X38602726Y-1097456D02*
X38596535Y-1091265D01*
X38596535Y-1091265D02*
X38584154Y-1085075D01*
X6000000Y-28500220D02*
X6000000Y-28700220D01*
X11000000Y-28500220D02*
X11000000Y-28700220D01*
X16000000Y-28500220D02*
X16000000Y-28700220D01*
X21000000Y-28500220D02*
X21000000Y-28700220D01*
X26000000Y-28500220D02*
X26000000Y-28700220D01*
X31000000Y-28500220D02*
X31000000Y-28700220D01*
X36000000Y-28500220D02*
X36000000Y-28700220D01*
X3608916Y-28659580D02*
X3534630Y-28659580D01*
X3571773Y-28659580D02*
X3571773Y-28529580D01*
X3571773Y-28529580D02*
X3559392Y-28548152D01*
X3559392Y-28548152D02*
X3547011Y-28560533D01*
X3547011Y-28560533D02*
X3534630Y-28566723D01*
X8534630Y-28541961D02*
X8540821Y-28535771D01*
X8540821Y-28535771D02*
X8553202Y-28529580D01*
X8553202Y-28529580D02*
X8584154Y-28529580D01*
X8584154Y-28529580D02*
X8596535Y-28535771D01*
X8596535Y-28535771D02*
X8602726Y-28541961D01*
X8602726Y-28541961D02*
X8608916Y-28554342D01*
X8608916Y-28554342D02*
X8608916Y-28566723D01*
X8608916Y-28566723D02*
X8602726Y-28585295D01*
X8602726Y-28585295D02*
X8528440Y-28659580D01*
X8528440Y-28659580D02*
X8608916Y-28659580D01*
X13528440Y-28529580D02*
X13608916Y-28529580D01*
X13608916Y-28529580D02*
X13565583Y-28579104D01*
X13565583Y-28579104D02*
X13584154Y-28579104D01*
X13584154Y-28579104D02*
X13596535Y-28585295D01*
X13596535Y-28585295D02*
X13602725Y-28591485D01*
X13602725Y-28591485D02*
X13608916Y-28603866D01*
X13608916Y-28603866D02*
X13608916Y-28634818D01*
X13608916Y-28634818D02*
X13602725Y-28647199D01*
X13602725Y-28647199D02*
X13596535Y-28653390D01*
X13596535Y-28653390D02*
X13584154Y-28659580D01*
X13584154Y-28659580D02*
X13547011Y-28659580D01*
X13547011Y-28659580D02*
X13534630Y-28653390D01*
X13534630Y-28653390D02*
X13528440Y-28647199D01*
X18596535Y-28572914D02*
X18596535Y-28659580D01*
X18565583Y-28523390D02*
X18534630Y-28616247D01*
X18534630Y-28616247D02*
X18615106Y-28616247D01*
X23602725Y-28529580D02*
X23540821Y-28529580D01*
X23540821Y-28529580D02*
X23534630Y-28591485D01*
X23534630Y-28591485D02*
X23540821Y-28585295D01*
X23540821Y-28585295D02*
X23553202Y-28579104D01*
X23553202Y-28579104D02*
X23584154Y-28579104D01*
X23584154Y-28579104D02*
X23596535Y-28585295D01*
X23596535Y-28585295D02*
X23602725Y-28591485D01*
X23602725Y-28591485D02*
X23608916Y-28603866D01*
X23608916Y-28603866D02*
X23608916Y-28634818D01*
X23608916Y-28634818D02*
X23602725Y-28647199D01*
X23602725Y-28647199D02*
X23596535Y-28653390D01*
X23596535Y-28653390D02*
X23584154Y-28659580D01*
X23584154Y-28659580D02*
X23553202Y-28659580D01*
X23553202Y-28659580D02*
X23540821Y-28653390D01*
X23540821Y-28653390D02*
X23534630Y-28647199D01*
X28596535Y-28529580D02*
X28571773Y-28529580D01*
X28571773Y-28529580D02*
X28559392Y-28535771D01*
X28559392Y-28535771D02*
X28553202Y-28541961D01*
X28553202Y-28541961D02*
X28540821Y-28560533D01*
X28540821Y-28560533D02*
X28534630Y-28585295D01*
X28534630Y-28585295D02*
X28534630Y-28634818D01*
X28534630Y-28634818D02*
X28540821Y-28647199D01*
X28540821Y-28647199D02*
X28547011Y-28653390D01*
X28547011Y-28653390D02*
X28559392Y-28659580D01*
X28559392Y-28659580D02*
X28584154Y-28659580D01*
X28584154Y-28659580D02*
X28596535Y-28653390D01*
X28596535Y-28653390D02*
X28602725Y-28647199D01*
X28602725Y-28647199D02*
X28608916Y-28634818D01*
X28608916Y-28634818D02*
X28608916Y-28603866D01*
X28608916Y-28603866D02*
X28602725Y-28591485D01*
X28602725Y-28591485D02*
X28596535Y-28585295D01*
X28596535Y-28585295D02*
X28584154Y-28579104D01*
X28584154Y-28579104D02*
X28559392Y-28579104D01*
X28559392Y-28579104D02*
X28547011Y-28585295D01*
X28547011Y-28585295D02*
X28540821Y-28591485D01*
X28540821Y-28591485D02*
X28534630Y-28603866D01*
X33528440Y-28529580D02*
X33615106Y-28529580D01*
X33615106Y-28529580D02*
X33559392Y-28659580D01*
X38559392Y-28585295D02*
X38547011Y-28579104D01*
X38547011Y-28579104D02*
X38540821Y-28572914D01*
X38540821Y-28572914D02*
X38534630Y-28560533D01*
X38534630Y-28560533D02*
X38534630Y-28554342D01*
X38534630Y-28554342D02*
X38540821Y-28541961D01*
X38540821Y-28541961D02*
X38547011Y-28535771D01*
X38547011Y-28535771D02*
X38559392Y-28529580D01*
X38559392Y-28529580D02*
X38584154Y-28529580D01*
X38584154Y-28529580D02*
X38596535Y-28535771D01*
X38596535Y-28535771D02*
X38602726Y-28541961D01*
X38602726Y-28541961D02*
X38608916Y-28554342D01*
X38608916Y-28554342D02*
X38608916Y-28560533D01*
X38608916Y-28560533D02*
X38602726Y-28572914D01*
X38602726Y-28572914D02*
X38596535Y-28579104D01*
X38596535Y-28579104D02*
X38584154Y-28585295D01*
X38584154Y-28585295D02*
X38559392Y-28585295D01*
X38559392Y-28585295D02*
X38547011Y-28591485D01*
X38547011Y-28591485D02*
X38540821Y-28597676D01*
X38540821Y-28597676D02*
X38534630Y-28610057D01*
X38534630Y-28610057D02*
X38534630Y-28634818D01*
X38534630Y-28634818D02*
X38540821Y-28647199D01*
X38540821Y-28647199D02*
X38547011Y-28653390D01*
X38547011Y-28653390D02*
X38559392Y-28659580D01*
X38559392Y-28659580D02*
X38584154Y-28659580D01*
X38584154Y-28659580D02*
X38596535Y-28653390D01*
X38596535Y-28653390D02*
X38602726Y-28647199D01*
X38602726Y-28647199D02*
X38608916Y-28634818D01*
X38608916Y-28634818D02*
X38608916Y-28610057D01*
X38608916Y-28610057D02*
X38602726Y-28597676D01*
X38602726Y-28597676D02*
X38596535Y-28591485D01*
X38596535Y-28591485D02*
X38584154Y-28585295D01*
X1000000Y-6000000D02*
X1200000Y-6000000D01*
X1000000Y-11000000D02*
X1200000Y-11000000D01*
X1000000Y-16000000D02*
X1200000Y-16000000D01*
X1000000Y-21000000D02*
X1200000Y-21000000D01*
X1000000Y-26000000D02*
X1200000Y-26000000D01*
X1069048Y-3522218D02*
X1130952Y-3522218D01*
X1056667Y-3559360D02*
X1100000Y-3429360D01*
X1100000Y-3429360D02*
X1143333Y-3559360D01*
X1109286Y-8491265D02*
X1127857Y-8497456D01*
X1127857Y-8497456D02*
X1134048Y-8503646D01*
X1134048Y-8503646D02*
X1140238Y-8516027D01*
X1140238Y-8516027D02*
X1140238Y-8534599D01*
X1140238Y-8534599D02*
X1134048Y-8546980D01*
X1134048Y-8546980D02*
X1127857Y-8553170D01*
X1127857Y-8553170D02*
X1115476Y-8559360D01*
X1115476Y-8559360D02*
X1065952Y-8559360D01*
X1065952Y-8559360D02*
X1065952Y-8429360D01*
X1065952Y-8429360D02*
X1109286Y-8429360D01*
X1109286Y-8429360D02*
X1121667Y-8435551D01*
X1121667Y-8435551D02*
X1127857Y-8441741D01*
X1127857Y-8441741D02*
X1134048Y-8454122D01*
X1134048Y-8454122D02*
X1134048Y-8466503D01*
X1134048Y-8466503D02*
X1127857Y-8478884D01*
X1127857Y-8478884D02*
X1121667Y-8485075D01*
X1121667Y-8485075D02*
X1109286Y-8491265D01*
X1109286Y-8491265D02*
X1065952Y-8491265D01*
X1140238Y-13546979D02*
X1134048Y-13553170D01*
X1134048Y-13553170D02*
X1115476Y-13559360D01*
X1115476Y-13559360D02*
X1103095Y-13559360D01*
X1103095Y-13559360D02*
X1084524Y-13553170D01*
X1084524Y-13553170D02*
X1072143Y-13540789D01*
X1072143Y-13540789D02*
X1065952Y-13528408D01*
X1065952Y-13528408D02*
X1059762Y-13503646D01*
X1059762Y-13503646D02*
X1059762Y-13485075D01*
X1059762Y-13485075D02*
X1065952Y-13460313D01*
X1065952Y-13460313D02*
X1072143Y-13447932D01*
X1072143Y-13447932D02*
X1084524Y-13435551D01*
X1084524Y-13435551D02*
X1103095Y-13429360D01*
X1103095Y-13429360D02*
X1115476Y-13429360D01*
X1115476Y-13429360D02*
X1134048Y-13435551D01*
X1134048Y-13435551D02*
X1140238Y-13441741D01*
X1065952Y-18559360D02*
X1065952Y-18429360D01*
X1065952Y-18429360D02*
X1096905Y-18429360D01*
X1096905Y-18429360D02*
X1115476Y-18435551D01*
X1115476Y-18435551D02*
X1127857Y-18447932D01*
X1127857Y-18447932D02*
X1134048Y-18460313D01*
X1134048Y-18460313D02*
X1140238Y-18485075D01*
X1140238Y-18485075D02*
X1140238Y-18503646D01*
X1140238Y-18503646D02*
X1134048Y-18528408D01*
X1134048Y-18528408D02*
X1127857Y-18540789D01*
X1127857Y-18540789D02*
X1115476Y-18553170D01*
X1115476Y-18553170D02*
X1096905Y-18559360D01*
X1096905Y-18559360D02*
X1065952Y-18559360D01*
X1072143Y-23491265D02*
X1115476Y-23491265D01*
X1134048Y-23559360D02*
X1072143Y-23559360D01*
X1072143Y-23559360D02*
X1072143Y-23429360D01*
X1072143Y-23429360D02*
X1134048Y-23429360D01*
X1118571Y-28491265D02*
X1075238Y-28491265D01*
X1075238Y-28559360D02*
X1075238Y-28429360D01*
X1075238Y-28429360D02*
X1137143Y-28429360D01*
X40998900Y-6000000D02*
X40798900Y-6000000D01*
X40998900Y-11000000D02*
X40798900Y-11000000D01*
X40998900Y-16000000D02*
X40798900Y-16000000D01*
X40998900Y-21000000D02*
X40798900Y-21000000D01*
X40998900Y-26000000D02*
X40798900Y-26000000D01*
X40867948Y-3522218D02*
X40929852Y-3522218D01*
X40855567Y-3559360D02*
X40898900Y-3429360D01*
X40898900Y-3429360D02*
X40942233Y-3559360D01*
X40908186Y-8491265D02*
X40926757Y-8497456D01*
X40926757Y-8497456D02*
X40932948Y-8503646D01*
X40932948Y-8503646D02*
X40939138Y-8516027D01*
X40939138Y-8516027D02*
X40939138Y-8534599D01*
X40939138Y-8534599D02*
X40932948Y-8546980D01*
X40932948Y-8546980D02*
X40926757Y-8553170D01*
X40926757Y-8553170D02*
X40914376Y-8559360D01*
X40914376Y-8559360D02*
X40864852Y-8559360D01*
X40864852Y-8559360D02*
X40864852Y-8429360D01*
X40864852Y-8429360D02*
X40908186Y-8429360D01*
X40908186Y-8429360D02*
X40920567Y-8435551D01*
X40920567Y-8435551D02*
X40926757Y-8441741D01*
X40926757Y-8441741D02*
X40932948Y-8454122D01*
X40932948Y-8454122D02*
X40932948Y-8466503D01*
X40932948Y-8466503D02*
X40926757Y-8478884D01*
X40926757Y-8478884D02*
X40920567Y-8485075D01*
X40920567Y-8485075D02*
X40908186Y-8491265D01*
X40908186Y-8491265D02*
X40864852Y-8491265D01*
X40939138Y-13546979D02*
X40932948Y-13553170D01*
X40932948Y-13553170D02*
X40914376Y-13559360D01*
X40914376Y-13559360D02*
X40901995Y-13559360D01*
X40901995Y-13559360D02*
X40883424Y-13553170D01*
X40883424Y-13553170D02*
X40871043Y-13540789D01*
X40871043Y-13540789D02*
X40864852Y-13528408D01*
X40864852Y-13528408D02*
X40858662Y-13503646D01*
X40858662Y-13503646D02*
X40858662Y-13485075D01*
X40858662Y-13485075D02*
X40864852Y-13460313D01*
X40864852Y-13460313D02*
X40871043Y-13447932D01*
X40871043Y-13447932D02*
X40883424Y-13435551D01*
X40883424Y-13435551D02*
X40901995Y-13429360D01*
X40901995Y-13429360D02*
X40914376Y-13429360D01*
X40914376Y-13429360D02*
X40932948Y-13435551D01*
X40932948Y-13435551D02*
X40939138Y-13441741D01*
X40864852Y-18559360D02*
X40864852Y-18429360D01*
X40864852Y-18429360D02*
X40895805Y-18429360D01*
X40895805Y-18429360D02*
X40914376Y-18435551D01*
X40914376Y-18435551D02*
X40926757Y-18447932D01*
X40926757Y-18447932D02*
X40932948Y-18460313D01*
X40932948Y-18460313D02*
X40939138Y-18485075D01*
X40939138Y-18485075D02*
X40939138Y-18503646D01*
X40939138Y-18503646D02*
X40932948Y-18528408D01*
X40932948Y-18528408D02*
X40926757Y-18540789D01*
X40926757Y-18540789D02*
X40914376Y-18553170D01*
X40914376Y-18553170D02*
X40895805Y-18559360D01*
X40895805Y-18559360D02*
X40864852Y-18559360D01*
X40871043Y-23491265D02*
X40914376Y-23491265D01*
X40932948Y-23559360D02*
X40871043Y-23559360D01*
X40871043Y-23559360D02*
X40871043Y-23429360D01*
X40871043Y-23429360D02*
X40932948Y-23429360D01*
X40917471Y-28491265D02*
X40874138Y-28491265D01*
X40874138Y-28559360D02*
X40874138Y-28429360D01*
X40874138Y-28429360D02*
X40936043Y-28429360D01*
X32344483Y-28078833D02*
X32344483Y-27928833D01*
X32344483Y-27928833D02*
X32380197Y-27928833D01*
X32380197Y-27928833D02*
X32401625Y-27935976D01*
X32401625Y-27935976D02*
X32415911Y-27950261D01*
X32415911Y-27950261D02*
X32423054Y-27964547D01*
X32423054Y-27964547D02*
X32430197Y-27993118D01*
X32430197Y-27993118D02*
X32430197Y-28014547D01*
X32430197Y-28014547D02*
X32423054Y-28043118D01*
X32423054Y-28043118D02*
X32415911Y-28057404D01*
X32415911Y-28057404D02*
X32401625Y-28071690D01*
X32401625Y-28071690D02*
X32380197Y-28078833D01*
X32380197Y-28078833D02*
X32344483Y-28078833D01*
X32558768Y-28078833D02*
X32558768Y-28000261D01*
X32558768Y-28000261D02*
X32551625Y-27985976D01*
X32551625Y-27985976D02*
X32537340Y-27978833D01*
X32537340Y-27978833D02*
X32508768Y-27978833D01*
X32508768Y-27978833D02*
X32494483Y-27985976D01*
X32558768Y-28071690D02*
X32544483Y-28078833D01*
X32544483Y-28078833D02*
X32508768Y-28078833D01*
X32508768Y-28078833D02*
X32494483Y-28071690D01*
X32494483Y-28071690D02*
X32487340Y-28057404D01*
X32487340Y-28057404D02*
X32487340Y-28043118D01*
X32487340Y-28043118D02*
X32494483Y-28028833D01*
X32494483Y-28028833D02*
X32508768Y-28021690D01*
X32508768Y-28021690D02*
X32544483Y-28021690D01*
X32544483Y-28021690D02*
X32558768Y-28014547D01*
X32608768Y-27978833D02*
X32665911Y-27978833D01*
X32630197Y-27928833D02*
X32630197Y-28057404D01*
X32630197Y-28057404D02*
X32637340Y-28071690D01*
X32637340Y-28071690D02*
X32651625Y-28078833D01*
X32651625Y-28078833D02*
X32665911Y-28078833D01*
X32773054Y-28071690D02*
X32758768Y-28078833D01*
X32758768Y-28078833D02*
X32730197Y-28078833D01*
X32730197Y-28078833D02*
X32715911Y-28071690D01*
X32715911Y-28071690D02*
X32708768Y-28057404D01*
X32708768Y-28057404D02*
X32708768Y-28000261D01*
X32708768Y-28000261D02*
X32715911Y-27985976D01*
X32715911Y-27985976D02*
X32730197Y-27978833D01*
X32730197Y-27978833D02*
X32758768Y-27978833D01*
X32758768Y-27978833D02*
X32773054Y-27985976D01*
X32773054Y-27985976D02*
X32780197Y-28000261D01*
X32780197Y-28000261D02*
X32780197Y-28014547D01*
X32780197Y-28014547D02*
X32708768Y-28028833D01*
X32844483Y-28064547D02*
X32851625Y-28071690D01*
X32851625Y-28071690D02*
X32844483Y-28078833D01*
X32844483Y-28078833D02*
X32837340Y-28071690D01*
X32837340Y-28071690D02*
X32844483Y-28064547D01*
X32844483Y-28064547D02*
X32844483Y-28078833D01*
X32844483Y-27985976D02*
X32851625Y-27993118D01*
X32851625Y-27993118D02*
X32844483Y-28000261D01*
X32844483Y-28000261D02*
X32837340Y-27993118D01*
X32837340Y-27993118D02*
X32844483Y-27985976D01*
X32844483Y-27985976D02*
X32844483Y-28000261D01*
X33023054Y-27943118D02*
X33030197Y-27935976D01*
X33030197Y-27935976D02*
X33044483Y-27928833D01*
X33044483Y-27928833D02*
X33080197Y-27928833D01*
X33080197Y-27928833D02*
X33094483Y-27935976D01*
X33094483Y-27935976D02*
X33101625Y-27943118D01*
X33101625Y-27943118D02*
X33108768Y-27957404D01*
X33108768Y-27957404D02*
X33108768Y-27971690D01*
X33108768Y-27971690D02*
X33101625Y-27993118D01*
X33101625Y-27993118D02*
X33015911Y-28078833D01*
X33015911Y-28078833D02*
X33108768Y-28078833D01*
X33201625Y-27928833D02*
X33215911Y-27928833D01*
X33215911Y-27928833D02*
X33230197Y-27935976D01*
X33230197Y-27935976D02*
X33237340Y-27943118D01*
X33237340Y-27943118D02*
X33244483Y-27957404D01*
X33244483Y-27957404D02*
X33251625Y-27985976D01*
X33251625Y-27985976D02*
X33251625Y-28021690D01*
X33251625Y-28021690D02*
X33244483Y-28050261D01*
X33244483Y-28050261D02*
X33237340Y-28064547D01*
X33237340Y-28064547D02*
X33230197Y-28071690D01*
X33230197Y-28071690D02*
X33215911Y-28078833D01*
X33215911Y-28078833D02*
X33201625Y-28078833D01*
X33201625Y-28078833D02*
X33187340Y-28071690D01*
X33187340Y-28071690D02*
X33180197Y-28064547D01*
X33180197Y-28064547D02*
X33173054Y-28050261D01*
X33173054Y-28050261D02*
X33165911Y-28021690D01*
X33165911Y-28021690D02*
X33165911Y-27985976D01*
X33165911Y-27985976D02*
X33173054Y-27957404D01*
X33173054Y-27957404D02*
X33180197Y-27943118D01*
X33180197Y-27943118D02*
X33187340Y-27935976D01*
X33187340Y-27935976D02*
X33201625Y-27928833D01*
X33308768Y-27943118D02*
X33315911Y-27935976D01*
X33315911Y-27935976D02*
X33330197Y-27928833D01*
X33330197Y-27928833D02*
X33365911Y-27928833D01*
X33365911Y-27928833D02*
X33380197Y-27935976D01*
X33380197Y-27935976D02*
X33387340Y-27943118D01*
X33387340Y-27943118D02*
X33394483Y-27957404D01*
X33394483Y-27957404D02*
X33394483Y-27971690D01*
X33394483Y-27971690D02*
X33387340Y-27993118D01*
X33387340Y-27993118D02*
X33301625Y-28078833D01*
X33301625Y-28078833D02*
X33394483Y-28078833D01*
X33523054Y-27928833D02*
X33494482Y-27928833D01*
X33494482Y-27928833D02*
X33480197Y-27935976D01*
X33480197Y-27935976D02*
X33473054Y-27943118D01*
X33473054Y-27943118D02*
X33458768Y-27964547D01*
X33458768Y-27964547D02*
X33451625Y-27993118D01*
X33451625Y-27993118D02*
X33451625Y-28050261D01*
X33451625Y-28050261D02*
X33458768Y-28064547D01*
X33458768Y-28064547D02*
X33465911Y-28071690D01*
X33465911Y-28071690D02*
X33480197Y-28078833D01*
X33480197Y-28078833D02*
X33508768Y-28078833D01*
X33508768Y-28078833D02*
X33523054Y-28071690D01*
X33523054Y-28071690D02*
X33530197Y-28064547D01*
X33530197Y-28064547D02*
X33537340Y-28050261D01*
X33537340Y-28050261D02*
X33537340Y-28014547D01*
X33537340Y-28014547D02*
X33530197Y-28000261D01*
X33530197Y-28000261D02*
X33523054Y-27993118D01*
X33523054Y-27993118D02*
X33508768Y-27985976D01*
X33508768Y-27985976D02*
X33480197Y-27985976D01*
X33480197Y-27985976D02*
X33465911Y-27993118D01*
X33465911Y-27993118D02*
X33458768Y-28000261D01*
X33458768Y-28000261D02*
X33451625Y-28014547D01*
X33601625Y-28021690D02*
X33715911Y-28021690D01*
X33815911Y-27928833D02*
X33830197Y-27928833D01*
X33830197Y-27928833D02*
X33844483Y-27935976D01*
X33844483Y-27935976D02*
X33851625Y-27943118D01*
X33851625Y-27943118D02*
X33858768Y-27957404D01*
X33858768Y-27957404D02*
X33865911Y-27985976D01*
X33865911Y-27985976D02*
X33865911Y-28021690D01*
X33865911Y-28021690D02*
X33858768Y-28050261D01*
X33858768Y-28050261D02*
X33851625Y-28064547D01*
X33851625Y-28064547D02*
X33844483Y-28071690D01*
X33844483Y-28071690D02*
X33830197Y-28078833D01*
X33830197Y-28078833D02*
X33815911Y-28078833D01*
X33815911Y-28078833D02*
X33801625Y-28071690D01*
X33801625Y-28071690D02*
X33794483Y-28064547D01*
X33794483Y-28064547D02*
X33787340Y-28050261D01*
X33787340Y-28050261D02*
X33780197Y-28021690D01*
X33780197Y-28021690D02*
X33780197Y-27985976D01*
X33780197Y-27985976D02*
X33787340Y-27957404D01*
X33787340Y-27957404D02*
X33794483Y-27943118D01*
X33794483Y-27943118D02*
X33801625Y-27935976D01*
X33801625Y-27935976D02*
X33815911Y-27928833D01*
X34001625Y-27928833D02*
X33930197Y-27928833D01*
X33930197Y-27928833D02*
X33923054Y-28000261D01*
X33923054Y-28000261D02*
X33930197Y-27993118D01*
X33930197Y-27993118D02*
X33944483Y-27985976D01*
X33944483Y-27985976D02*
X33980197Y-27985976D01*
X33980197Y-27985976D02*
X33994483Y-27993118D01*
X33994483Y-27993118D02*
X34001625Y-28000261D01*
X34001625Y-28000261D02*
X34008768Y-28014547D01*
X34008768Y-28014547D02*
X34008768Y-28050261D01*
X34008768Y-28050261D02*
X34001625Y-28064547D01*
X34001625Y-28064547D02*
X33994483Y-28071690D01*
X33994483Y-28071690D02*
X33980197Y-28078833D01*
X33980197Y-28078833D02*
X33944483Y-28078833D01*
X33944483Y-28078833D02*
X33930197Y-28071690D01*
X33930197Y-28071690D02*
X33923054Y-28064547D01*
X34073054Y-28021690D02*
X34187340Y-28021690D01*
X34337340Y-28078833D02*
X34251625Y-28078833D01*
X34294482Y-28078833D02*
X34294482Y-27928833D01*
X34294482Y-27928833D02*
X34280197Y-27950261D01*
X34280197Y-27950261D02*
X34265911Y-27964547D01*
X34265911Y-27964547D02*
X34251625Y-27971690D01*
X34465911Y-27928833D02*
X34437340Y-27928833D01*
X34437340Y-27928833D02*
X34423054Y-27935976D01*
X34423054Y-27935976D02*
X34415911Y-27943118D01*
X34415911Y-27943118D02*
X34401625Y-27964547D01*
X34401625Y-27964547D02*
X34394482Y-27993118D01*
X34394482Y-27993118D02*
X34394482Y-28050261D01*
X34394482Y-28050261D02*
X34401625Y-28064547D01*
X34401625Y-28064547D02*
X34408768Y-28071690D01*
X34408768Y-28071690D02*
X34423054Y-28078833D01*
X34423054Y-28078833D02*
X34451625Y-28078833D01*
X34451625Y-28078833D02*
X34465911Y-28071690D01*
X34465911Y-28071690D02*
X34473054Y-28064547D01*
X34473054Y-28064547D02*
X34480197Y-28050261D01*
X34480197Y-28050261D02*
X34480197Y-28014547D01*
X34480197Y-28014547D02*
X34473054Y-28000261D01*
X34473054Y-28000261D02*
X34465911Y-27993118D01*
X34465911Y-27993118D02*
X34451625Y-27985976D01*
X34451625Y-27985976D02*
X34423054Y-27985976D01*
X34423054Y-27985976D02*
X34408768Y-27993118D01*
X34408768Y-27993118D02*
X34401625Y-28000261D01*
X34401625Y-28000261D02*
X34394482Y-28014547D01*
X29998900Y-28150220D02*
X40798900Y-28150220D01*
X30144483Y-28358833D02*
X30144483Y-28208833D01*
X30230197Y-28358833D02*
X30165911Y-28273118D01*
X30230197Y-28208833D02*
X30144483Y-28294547D01*
X30294483Y-28358833D02*
X30294483Y-28258833D01*
X30294483Y-28208833D02*
X30287340Y-28215976D01*
X30287340Y-28215976D02*
X30294483Y-28223118D01*
X30294483Y-28223118D02*
X30301625Y-28215976D01*
X30301625Y-28215976D02*
X30294483Y-28208833D01*
X30294483Y-28208833D02*
X30294483Y-28223118D01*
X30451625Y-28344547D02*
X30444483Y-28351690D01*
X30444483Y-28351690D02*
X30423054Y-28358833D01*
X30423054Y-28358833D02*
X30408768Y-28358833D01*
X30408768Y-28358833D02*
X30387340Y-28351690D01*
X30387340Y-28351690D02*
X30373054Y-28337404D01*
X30373054Y-28337404D02*
X30365911Y-28323118D01*
X30365911Y-28323118D02*
X30358768Y-28294547D01*
X30358768Y-28294547D02*
X30358768Y-28273118D01*
X30358768Y-28273118D02*
X30365911Y-28244547D01*
X30365911Y-28244547D02*
X30373054Y-28230261D01*
X30373054Y-28230261D02*
X30387340Y-28215976D01*
X30387340Y-28215976D02*
X30408768Y-28208833D01*
X30408768Y-28208833D02*
X30423054Y-28208833D01*
X30423054Y-28208833D02*
X30444483Y-28215976D01*
X30444483Y-28215976D02*
X30451625Y-28223118D01*
X30580197Y-28358833D02*
X30580197Y-28280261D01*
X30580197Y-28280261D02*
X30573054Y-28265976D01*
X30573054Y-28265976D02*
X30558768Y-28258833D01*
X30558768Y-28258833D02*
X30530197Y-28258833D01*
X30530197Y-28258833D02*
X30515911Y-28265976D01*
X30580197Y-28351690D02*
X30565911Y-28358833D01*
X30565911Y-28358833D02*
X30530197Y-28358833D01*
X30530197Y-28358833D02*
X30515911Y-28351690D01*
X30515911Y-28351690D02*
X30508768Y-28337404D01*
X30508768Y-28337404D02*
X30508768Y-28323118D01*
X30508768Y-28323118D02*
X30515911Y-28308833D01*
X30515911Y-28308833D02*
X30530197Y-28301690D01*
X30530197Y-28301690D02*
X30565911Y-28301690D01*
X30565911Y-28301690D02*
X30580197Y-28294547D01*
X30715911Y-28358833D02*
X30715911Y-28208833D01*
X30715911Y-28351690D02*
X30701625Y-28358833D01*
X30701625Y-28358833D02*
X30673054Y-28358833D01*
X30673054Y-28358833D02*
X30658768Y-28351690D01*
X30658768Y-28351690D02*
X30651625Y-28344547D01*
X30651625Y-28344547D02*
X30644483Y-28330261D01*
X30644483Y-28330261D02*
X30644483Y-28287404D01*
X30644483Y-28287404D02*
X30651625Y-28273118D01*
X30651625Y-28273118D02*
X30658768Y-28265976D01*
X30658768Y-28265976D02*
X30673054Y-28258833D01*
X30673054Y-28258833D02*
X30701625Y-28258833D01*
X30701625Y-28258833D02*
X30715911Y-28265976D01*
X30901625Y-28280261D02*
X30951625Y-28280261D01*
X30973054Y-28358833D02*
X30901625Y-28358833D01*
X30901625Y-28358833D02*
X30901625Y-28208833D01*
X30901625Y-28208833D02*
X30973054Y-28208833D01*
X31037340Y-28344547D02*
X31044483Y-28351690D01*
X31044483Y-28351690D02*
X31037340Y-28358833D01*
X31037340Y-28358833D02*
X31030197Y-28351690D01*
X31030197Y-28351690D02*
X31037340Y-28344547D01*
X31037340Y-28344547D02*
X31037340Y-28358833D01*
X31108768Y-28358833D02*
X31108768Y-28208833D01*
X31108768Y-28208833D02*
X31144483Y-28208833D01*
X31144483Y-28208833D02*
X31165911Y-28215976D01*
X31165911Y-28215976D02*
X31180197Y-28230261D01*
X31180197Y-28230261D02*
X31187340Y-28244547D01*
X31187340Y-28244547D02*
X31194483Y-28273118D01*
X31194483Y-28273118D02*
X31194483Y-28294547D01*
X31194483Y-28294547D02*
X31187340Y-28323118D01*
X31187340Y-28323118D02*
X31180197Y-28337404D01*
X31180197Y-28337404D02*
X31165911Y-28351690D01*
X31165911Y-28351690D02*
X31144483Y-28358833D01*
X31144483Y-28358833D02*
X31108768Y-28358833D01*
X31258768Y-28344547D02*
X31265911Y-28351690D01*
X31265911Y-28351690D02*
X31258768Y-28358833D01*
X31258768Y-28358833D02*
X31251626Y-28351690D01*
X31251626Y-28351690D02*
X31258768Y-28344547D01*
X31258768Y-28344547D02*
X31258768Y-28358833D01*
X31323054Y-28315976D02*
X31394483Y-28315976D01*
X31308768Y-28358833D02*
X31358768Y-28208833D01*
X31358768Y-28208833D02*
X31408768Y-28358833D01*
X31458768Y-28344547D02*
X31465911Y-28351690D01*
X31465911Y-28351690D02*
X31458768Y-28358833D01*
X31458768Y-28358833D02*
X31451626Y-28351690D01*
X31451626Y-28351690D02*
X31458768Y-28344547D01*
X31458768Y-28344547D02*
X31458768Y-28358833D01*
X31723054Y-28358833D02*
X31637340Y-28358833D01*
X31680197Y-28358833D02*
X31680197Y-28208833D01*
X31680197Y-28208833D02*
X31665911Y-28230261D01*
X31665911Y-28230261D02*
X31651626Y-28244547D01*
X31651626Y-28244547D02*
X31637340Y-28251690D01*
X31815911Y-28208833D02*
X31830197Y-28208833D01*
X31830197Y-28208833D02*
X31844483Y-28215976D01*
X31844483Y-28215976D02*
X31851626Y-28223118D01*
X31851626Y-28223118D02*
X31858768Y-28237404D01*
X31858768Y-28237404D02*
X31865911Y-28265976D01*
X31865911Y-28265976D02*
X31865911Y-28301690D01*
X31865911Y-28301690D02*
X31858768Y-28330261D01*
X31858768Y-28330261D02*
X31851626Y-28344547D01*
X31851626Y-28344547D02*
X31844483Y-28351690D01*
X31844483Y-28351690D02*
X31830197Y-28358833D01*
X31830197Y-28358833D02*
X31815911Y-28358833D01*
X31815911Y-28358833D02*
X31801626Y-28351690D01*
X31801626Y-28351690D02*
X31794483Y-28344547D01*
X31794483Y-28344547D02*
X31787340Y-28330261D01*
X31787340Y-28330261D02*
X31780197Y-28301690D01*
X31780197Y-28301690D02*
X31780197Y-28265976D01*
X31780197Y-28265976D02*
X31787340Y-28237404D01*
X31787340Y-28237404D02*
X31794483Y-28223118D01*
X31794483Y-28223118D02*
X31801626Y-28215976D01*
X31801626Y-28215976D02*
X31815911Y-28208833D01*
X31930197Y-28344547D02*
X31937340Y-28351690D01*
X31937340Y-28351690D02*
X31930197Y-28358833D01*
X31930197Y-28358833D02*
X31923054Y-28351690D01*
X31923054Y-28351690D02*
X31930197Y-28344547D01*
X31930197Y-28344547D02*
X31930197Y-28358833D01*
X32030197Y-28208833D02*
X32044483Y-28208833D01*
X32044483Y-28208833D02*
X32058768Y-28215976D01*
X32058768Y-28215976D02*
X32065911Y-28223118D01*
X32065911Y-28223118D02*
X32073054Y-28237404D01*
X32073054Y-28237404D02*
X32080197Y-28265976D01*
X32080197Y-28265976D02*
X32080197Y-28301690D01*
X32080197Y-28301690D02*
X32073054Y-28330261D01*
X32073054Y-28330261D02*
X32065911Y-28344547D01*
X32065911Y-28344547D02*
X32058768Y-28351690D01*
X32058768Y-28351690D02*
X32044483Y-28358833D01*
X32044483Y-28358833D02*
X32030197Y-28358833D01*
X32030197Y-28358833D02*
X32015911Y-28351690D01*
X32015911Y-28351690D02*
X32008768Y-28344547D01*
X32008768Y-28344547D02*
X32001625Y-28330261D01*
X32001625Y-28330261D02*
X31994483Y-28301690D01*
X31994483Y-28301690D02*
X31994483Y-28265976D01*
X31994483Y-28265976D02*
X32001625Y-28237404D01*
X32001625Y-28237404D02*
X32008768Y-28223118D01*
X32008768Y-28223118D02*
X32015911Y-28215976D01*
X32015911Y-28215976D02*
X32030197Y-28208833D01*
X32144483Y-28344547D02*
X32151625Y-28351690D01*
X32151625Y-28351690D02*
X32144483Y-28358833D01*
X32144483Y-28358833D02*
X32137340Y-28351690D01*
X32137340Y-28351690D02*
X32144483Y-28344547D01*
X32144483Y-28344547D02*
X32144483Y-28358833D01*
X32201625Y-28208833D02*
X32294483Y-28208833D01*
X32294483Y-28208833D02*
X32244483Y-28265976D01*
X32244483Y-28265976D02*
X32265911Y-28265976D01*
X32265911Y-28265976D02*
X32280197Y-28273118D01*
X32280197Y-28273118D02*
X32287340Y-28280261D01*
X32287340Y-28280261D02*
X32294483Y-28294547D01*
X32294483Y-28294547D02*
X32294483Y-28330261D01*
X32294483Y-28330261D02*
X32287340Y-28344547D01*
X32287340Y-28344547D02*
X32280197Y-28351690D01*
X32280197Y-28351690D02*
X32265911Y-28358833D01*
X32265911Y-28358833D02*
X32223054Y-28358833D01*
X32223054Y-28358833D02*
X32208768Y-28351690D01*
X32208768Y-28351690D02*
X32201625Y-28344547D01*
X29998900Y-27850220D02*
X40798900Y-27850220D01*
D11*
X38740065Y-28078053D02*
X38690065Y-28006624D01*
X38654351Y-28078053D02*
X38654351Y-27928053D01*
X38654351Y-27928053D02*
X38711494Y-27928053D01*
X38711494Y-27928053D02*
X38725780Y-27935196D01*
X38725780Y-27935196D02*
X38732923Y-27942338D01*
X38732923Y-27942338D02*
X38740065Y-27956624D01*
X38740065Y-27956624D02*
X38740065Y-27978053D01*
X38740065Y-27978053D02*
X38732923Y-27992338D01*
X38732923Y-27992338D02*
X38725780Y-27999481D01*
X38725780Y-27999481D02*
X38711494Y-28006624D01*
X38711494Y-28006624D02*
X38654351Y-28006624D01*
X38861494Y-28070910D02*
X38847208Y-28078053D01*
X38847208Y-28078053D02*
X38818637Y-28078053D01*
X38818637Y-28078053D02*
X38804351Y-28070910D01*
X38804351Y-28070910D02*
X38797208Y-28056624D01*
X38797208Y-28056624D02*
X38797208Y-27999481D01*
X38797208Y-27999481D02*
X38804351Y-27985196D01*
X38804351Y-27985196D02*
X38818637Y-27978053D01*
X38818637Y-27978053D02*
X38847208Y-27978053D01*
X38847208Y-27978053D02*
X38861494Y-27985196D01*
X38861494Y-27985196D02*
X38868637Y-27999481D01*
X38868637Y-27999481D02*
X38868637Y-28013767D01*
X38868637Y-28013767D02*
X38797208Y-28028053D01*
X38918637Y-27978053D02*
X38954351Y-28078053D01*
X38954351Y-28078053D02*
X38990065Y-27978053D01*
X39047208Y-28063767D02*
X39054351Y-28070910D01*
X39054351Y-28070910D02*
X39047208Y-28078053D01*
X39047208Y-28078053D02*
X39040065Y-28070910D01*
X39040065Y-28070910D02*
X39047208Y-28063767D01*
X39047208Y-28063767D02*
X39047208Y-28078053D01*
X39047208Y-27985196D02*
X39054351Y-27992338D01*
X39054351Y-27992338D02*
X39047208Y-27999481D01*
X39047208Y-27999481D02*
X39040065Y-27992338D01*
X39040065Y-27992338D02*
X39047208Y-27985196D01*
X39047208Y-27985196D02*
X39047208Y-27999481D01*
D10*
X30137340Y-28071690D02*
X30158768Y-28078833D01*
X30158768Y-28078833D02*
X30194483Y-28078833D01*
X30194483Y-28078833D02*
X30208768Y-28071690D01*
X30208768Y-28071690D02*
X30215911Y-28064547D01*
X30215911Y-28064547D02*
X30223054Y-28050261D01*
X30223054Y-28050261D02*
X30223054Y-28035976D01*
X30223054Y-28035976D02*
X30215911Y-28021690D01*
X30215911Y-28021690D02*
X30208768Y-28014547D01*
X30208768Y-28014547D02*
X30194483Y-28007404D01*
X30194483Y-28007404D02*
X30165911Y-28000261D01*
X30165911Y-28000261D02*
X30151625Y-27993118D01*
X30151625Y-27993118D02*
X30144483Y-27985976D01*
X30144483Y-27985976D02*
X30137340Y-27971690D01*
X30137340Y-27971690D02*
X30137340Y-27957404D01*
X30137340Y-27957404D02*
X30144483Y-27943118D01*
X30144483Y-27943118D02*
X30151625Y-27935976D01*
X30151625Y-27935976D02*
X30165911Y-27928833D01*
X30165911Y-27928833D02*
X30201625Y-27928833D01*
X30201625Y-27928833D02*
X30223054Y-27935976D01*
X30287340Y-28078833D02*
X30287340Y-27978833D01*
X30287340Y-27928833D02*
X30280197Y-27935976D01*
X30280197Y-27935976D02*
X30287340Y-27943118D01*
X30287340Y-27943118D02*
X30294483Y-27935976D01*
X30294483Y-27935976D02*
X30287340Y-27928833D01*
X30287340Y-27928833D02*
X30287340Y-27943118D01*
X30344483Y-27978833D02*
X30423054Y-27978833D01*
X30423054Y-27978833D02*
X30344483Y-28078833D01*
X30344483Y-28078833D02*
X30423054Y-28078833D01*
X30537340Y-28071690D02*
X30523054Y-28078833D01*
X30523054Y-28078833D02*
X30494483Y-28078833D01*
X30494483Y-28078833D02*
X30480197Y-28071690D01*
X30480197Y-28071690D02*
X30473054Y-28057404D01*
X30473054Y-28057404D02*
X30473054Y-28000261D01*
X30473054Y-28000261D02*
X30480197Y-27985976D01*
X30480197Y-27985976D02*
X30494483Y-27978833D01*
X30494483Y-27978833D02*
X30523054Y-27978833D01*
X30523054Y-27978833D02*
X30537340Y-27985976D01*
X30537340Y-27985976D02*
X30544483Y-28000261D01*
X30544483Y-28000261D02*
X30544483Y-28014547D01*
X30544483Y-28014547D02*
X30473054Y-28028833D01*
X30608768Y-28064547D02*
X30615911Y-28071690D01*
X30615911Y-28071690D02*
X30608768Y-28078833D01*
X30608768Y-28078833D02*
X30601625Y-28071690D01*
X30601625Y-28071690D02*
X30608768Y-28064547D01*
X30608768Y-28064547D02*
X30608768Y-28078833D01*
X30608768Y-27985976D02*
X30615911Y-27993118D01*
X30615911Y-27993118D02*
X30608768Y-28000261D01*
X30608768Y-28000261D02*
X30601625Y-27993118D01*
X30601625Y-27993118D02*
X30608768Y-27985976D01*
X30608768Y-27985976D02*
X30608768Y-28000261D01*
X30787340Y-28035976D02*
X30858768Y-28035976D01*
X30773054Y-28078833D02*
X30823054Y-27928833D01*
X30823054Y-27928833D02*
X30873054Y-28078833D01*
X30908768Y-27928833D02*
X31001625Y-27928833D01*
X31001625Y-27928833D02*
X30951625Y-27985976D01*
X30951625Y-27985976D02*
X30973054Y-27985976D01*
X30973054Y-27985976D02*
X30987340Y-27993118D01*
X30987340Y-27993118D02*
X30994483Y-28000261D01*
X30994483Y-28000261D02*
X31001625Y-28014547D01*
X31001625Y-28014547D02*
X31001625Y-28050261D01*
X31001625Y-28050261D02*
X30994483Y-28064547D01*
X30994483Y-28064547D02*
X30987340Y-28071690D01*
X30987340Y-28071690D02*
X30973054Y-28078833D01*
X30973054Y-28078833D02*
X30930197Y-28078833D01*
X30930197Y-28078833D02*
X30915911Y-28071690D01*
X30915911Y-28071690D02*
X30908768Y-28064547D01*
X38644483Y-28358833D02*
X38644483Y-28208833D01*
X38780197Y-28358833D02*
X38780197Y-28208833D01*
X38780197Y-28351690D02*
X38765911Y-28358833D01*
X38765911Y-28358833D02*
X38737340Y-28358833D01*
X38737340Y-28358833D02*
X38723054Y-28351690D01*
X38723054Y-28351690D02*
X38715911Y-28344547D01*
X38715911Y-28344547D02*
X38708768Y-28330261D01*
X38708768Y-28330261D02*
X38708768Y-28287404D01*
X38708768Y-28287404D02*
X38715911Y-28273118D01*
X38715911Y-28273118D02*
X38723054Y-28265976D01*
X38723054Y-28265976D02*
X38737340Y-28258833D01*
X38737340Y-28258833D02*
X38765911Y-28258833D01*
X38765911Y-28258833D02*
X38780197Y-28265976D01*
X38851626Y-28344547D02*
X38858768Y-28351690D01*
X38858768Y-28351690D02*
X38851626Y-28358833D01*
X38851626Y-28358833D02*
X38844483Y-28351690D01*
X38844483Y-28351690D02*
X38851626Y-28344547D01*
X38851626Y-28344547D02*
X38851626Y-28358833D01*
X38851626Y-28265976D02*
X38858768Y-28273118D01*
X38858768Y-28273118D02*
X38851626Y-28280261D01*
X38851626Y-28280261D02*
X38844483Y-28273118D01*
X38844483Y-28273118D02*
X38851626Y-28265976D01*
X38851626Y-28265976D02*
X38851626Y-28280261D01*
X39101626Y-28208833D02*
X39073054Y-28208833D01*
X39073054Y-28208833D02*
X39058768Y-28215976D01*
X39058768Y-28215976D02*
X39051626Y-28223118D01*
X39051626Y-28223118D02*
X39037340Y-28244547D01*
X39037340Y-28244547D02*
X39030197Y-28273118D01*
X39030197Y-28273118D02*
X39030197Y-28330261D01*
X39030197Y-28330261D02*
X39037340Y-28344547D01*
X39037340Y-28344547D02*
X39044483Y-28351690D01*
X39044483Y-28351690D02*
X39058768Y-28358833D01*
X39058768Y-28358833D02*
X39087340Y-28358833D01*
X39087340Y-28358833D02*
X39101626Y-28351690D01*
X39101626Y-28351690D02*
X39108768Y-28344547D01*
X39108768Y-28344547D02*
X39115911Y-28330261D01*
X39115911Y-28330261D02*
X39115911Y-28294547D01*
X39115911Y-28294547D02*
X39108768Y-28280261D01*
X39108768Y-28280261D02*
X39101626Y-28273118D01*
X39101626Y-28273118D02*
X39087340Y-28265976D01*
X39087340Y-28265976D02*
X39058768Y-28265976D01*
X39058768Y-28265976D02*
X39044483Y-28273118D01*
X39044483Y-28273118D02*
X39037340Y-28280261D01*
X39037340Y-28280261D02*
X39030197Y-28294547D01*
X39287340Y-28201690D02*
X39158768Y-28394547D01*
X39323054Y-28208833D02*
X39423054Y-28208833D01*
X39423054Y-28208833D02*
X39358768Y-28358833D01*
X29998900Y-27450220D02*
X40798900Y-27450220D01*
D12*
X30168073Y-27520664D02*
X30282358Y-27520664D01*
X30200216Y-27720664D02*
X30225216Y-27520664D01*
X30324025Y-27720664D02*
X30340692Y-27587330D01*
X30349025Y-27520664D02*
X30338311Y-27530188D01*
X30338311Y-27530188D02*
X30346644Y-27539711D01*
X30346644Y-27539711D02*
X30357359Y-27530188D01*
X30357359Y-27530188D02*
X30349025Y-27520664D01*
X30349025Y-27520664D02*
X30346644Y-27539711D01*
X30407359Y-27587330D02*
X30483549Y-27587330D01*
X30444263Y-27520664D02*
X30422835Y-27692092D01*
X30422835Y-27692092D02*
X30429978Y-27711140D01*
X30429978Y-27711140D02*
X30447835Y-27720664D01*
X30447835Y-27720664D02*
X30466882Y-27720664D01*
X30562120Y-27720664D02*
X30544263Y-27711140D01*
X30544263Y-27711140D02*
X30537120Y-27692092D01*
X30537120Y-27692092D02*
X30558549Y-27520664D01*
X30715692Y-27711140D02*
X30695454Y-27720664D01*
X30695454Y-27720664D02*
X30657358Y-27720664D01*
X30657358Y-27720664D02*
X30639501Y-27711140D01*
X30639501Y-27711140D02*
X30632358Y-27692092D01*
X30632358Y-27692092D02*
X30641882Y-27615902D01*
X30641882Y-27615902D02*
X30653787Y-27596854D01*
X30653787Y-27596854D02*
X30674025Y-27587330D01*
X30674025Y-27587330D02*
X30712120Y-27587330D01*
X30712120Y-27587330D02*
X30729978Y-27596854D01*
X30729978Y-27596854D02*
X30737120Y-27615902D01*
X30737120Y-27615902D02*
X30734739Y-27634949D01*
X30734739Y-27634949D02*
X30637120Y-27653997D01*
X30812120Y-27701616D02*
X30820454Y-27711140D01*
X30820454Y-27711140D02*
X30809739Y-27720664D01*
X30809739Y-27720664D02*
X30801406Y-27711140D01*
X30801406Y-27711140D02*
X30812120Y-27701616D01*
X30812120Y-27701616D02*
X30809739Y-27720664D01*
X30825216Y-27596854D02*
X30833549Y-27606378D01*
X30833549Y-27606378D02*
X30822835Y-27615902D01*
X30822835Y-27615902D02*
X30814501Y-27606378D01*
X30814501Y-27606378D02*
X30825216Y-27596854D01*
X30825216Y-27596854D02*
X30822835Y-27615902D01*
X31057359Y-27720664D02*
X31082359Y-27520664D01*
X31082359Y-27520664D02*
X31129978Y-27520664D01*
X31129978Y-27520664D02*
X31157359Y-27530188D01*
X31157359Y-27530188D02*
X31174025Y-27549235D01*
X31174025Y-27549235D02*
X31181168Y-27568283D01*
X31181168Y-27568283D02*
X31185930Y-27606378D01*
X31185930Y-27606378D02*
X31182359Y-27634949D01*
X31182359Y-27634949D02*
X31168073Y-27673045D01*
X31168073Y-27673045D02*
X31156168Y-27692092D01*
X31156168Y-27692092D02*
X31134740Y-27711140D01*
X31134740Y-27711140D02*
X31104978Y-27720664D01*
X31104978Y-27720664D02*
X31057359Y-27720664D01*
X31374025Y-27701616D02*
X31363311Y-27711140D01*
X31363311Y-27711140D02*
X31333549Y-27720664D01*
X31333549Y-27720664D02*
X31314501Y-27720664D01*
X31314501Y-27720664D02*
X31287120Y-27711140D01*
X31287120Y-27711140D02*
X31270454Y-27692092D01*
X31270454Y-27692092D02*
X31263311Y-27673045D01*
X31263311Y-27673045D02*
X31258549Y-27634949D01*
X31258549Y-27634949D02*
X31262120Y-27606378D01*
X31262120Y-27606378D02*
X31276406Y-27568283D01*
X31276406Y-27568283D02*
X31288311Y-27549235D01*
X31288311Y-27549235D02*
X31309740Y-27530188D01*
X31309740Y-27530188D02*
X31339501Y-27520664D01*
X31339501Y-27520664D02*
X31358549Y-27520664D01*
X31358549Y-27520664D02*
X31385930Y-27530188D01*
X31385930Y-27530188D02*
X31394263Y-27539711D01*
X31609740Y-27720664D02*
X31634740Y-27520664D01*
X31634740Y-27520664D02*
X31683549Y-27663521D01*
X31683549Y-27663521D02*
X31768073Y-27520664D01*
X31768073Y-27520664D02*
X31743073Y-27720664D01*
X31866882Y-27720664D02*
X31849025Y-27711140D01*
X31849025Y-27711140D02*
X31840692Y-27701616D01*
X31840692Y-27701616D02*
X31833549Y-27682568D01*
X31833549Y-27682568D02*
X31840692Y-27625426D01*
X31840692Y-27625426D02*
X31852597Y-27606378D01*
X31852597Y-27606378D02*
X31863311Y-27596854D01*
X31863311Y-27596854D02*
X31883549Y-27587330D01*
X31883549Y-27587330D02*
X31912120Y-27587330D01*
X31912120Y-27587330D02*
X31929978Y-27596854D01*
X31929978Y-27596854D02*
X31938311Y-27606378D01*
X31938311Y-27606378D02*
X31945454Y-27625426D01*
X31945454Y-27625426D02*
X31938311Y-27682568D01*
X31938311Y-27682568D02*
X31926406Y-27701616D01*
X31926406Y-27701616D02*
X31915692Y-27711140D01*
X31915692Y-27711140D02*
X31895454Y-27720664D01*
X31895454Y-27720664D02*
X31866882Y-27720664D01*
X32007359Y-27587330D02*
X32083549Y-27587330D01*
X32044263Y-27520664D02*
X32022835Y-27692092D01*
X32022835Y-27692092D02*
X32029978Y-27711140D01*
X32029978Y-27711140D02*
X32047835Y-27720664D01*
X32047835Y-27720664D02*
X32066882Y-27720664D01*
X32162121Y-27720664D02*
X32144263Y-27711140D01*
X32144263Y-27711140D02*
X32135930Y-27701616D01*
X32135930Y-27701616D02*
X32128787Y-27682568D01*
X32128787Y-27682568D02*
X32135930Y-27625426D01*
X32135930Y-27625426D02*
X32147835Y-27606378D01*
X32147835Y-27606378D02*
X32158549Y-27596854D01*
X32158549Y-27596854D02*
X32178787Y-27587330D01*
X32178787Y-27587330D02*
X32207359Y-27587330D01*
X32207359Y-27587330D02*
X32225216Y-27596854D01*
X32225216Y-27596854D02*
X32233549Y-27606378D01*
X32233549Y-27606378D02*
X32240692Y-27625426D01*
X32240692Y-27625426D02*
X32233549Y-27682568D01*
X32233549Y-27682568D02*
X32221644Y-27701616D01*
X32221644Y-27701616D02*
X32210930Y-27711140D01*
X32210930Y-27711140D02*
X32190692Y-27720664D01*
X32190692Y-27720664D02*
X32162121Y-27720664D01*
X32314501Y-27720664D02*
X32331168Y-27587330D01*
X32326406Y-27625426D02*
X32338311Y-27606378D01*
X32338311Y-27606378D02*
X32349025Y-27596854D01*
X32349025Y-27596854D02*
X32369263Y-27587330D01*
X32369263Y-27587330D02*
X32388311Y-27587330D01*
X32590692Y-27720664D02*
X32615692Y-27520664D01*
X32615692Y-27520664D02*
X32663311Y-27520664D01*
X32663311Y-27520664D02*
X32690692Y-27530188D01*
X32690692Y-27530188D02*
X32707359Y-27549235D01*
X32707359Y-27549235D02*
X32714501Y-27568283D01*
X32714501Y-27568283D02*
X32719263Y-27606378D01*
X32719263Y-27606378D02*
X32715692Y-27634949D01*
X32715692Y-27634949D02*
X32701406Y-27673045D01*
X32701406Y-27673045D02*
X32689501Y-27692092D01*
X32689501Y-27692092D02*
X32668073Y-27711140D01*
X32668073Y-27711140D02*
X32638311Y-27720664D01*
X32638311Y-27720664D02*
X32590692Y-27720664D01*
X32790692Y-27720664D02*
X32807359Y-27587330D01*
X32802597Y-27625426D02*
X32814501Y-27606378D01*
X32814501Y-27606378D02*
X32825216Y-27596854D01*
X32825216Y-27596854D02*
X32845454Y-27587330D01*
X32845454Y-27587330D02*
X32864501Y-27587330D01*
X32914501Y-27720664D02*
X32931168Y-27587330D01*
X32939501Y-27520664D02*
X32928787Y-27530188D01*
X32928787Y-27530188D02*
X32937121Y-27539711D01*
X32937121Y-27539711D02*
X32947835Y-27530188D01*
X32947835Y-27530188D02*
X32939501Y-27520664D01*
X32939501Y-27520664D02*
X32937121Y-27539711D01*
X33007359Y-27587330D02*
X33038311Y-27720664D01*
X33038311Y-27720664D02*
X33102597Y-27587330D01*
X33239502Y-27711140D02*
X33219263Y-27720664D01*
X33219263Y-27720664D02*
X33181168Y-27720664D01*
X33181168Y-27720664D02*
X33163311Y-27711140D01*
X33163311Y-27711140D02*
X33156168Y-27692092D01*
X33156168Y-27692092D02*
X33165692Y-27615902D01*
X33165692Y-27615902D02*
X33177597Y-27596854D01*
X33177597Y-27596854D02*
X33197835Y-27587330D01*
X33197835Y-27587330D02*
X33235930Y-27587330D01*
X33235930Y-27587330D02*
X33253787Y-27596854D01*
X33253787Y-27596854D02*
X33260930Y-27615902D01*
X33260930Y-27615902D02*
X33258549Y-27634949D01*
X33258549Y-27634949D02*
X33160930Y-27653997D01*
X33333549Y-27720664D02*
X33350216Y-27587330D01*
X33345454Y-27625426D02*
X33357359Y-27606378D01*
X33357359Y-27606378D02*
X33368073Y-27596854D01*
X33368073Y-27596854D02*
X33388311Y-27587330D01*
X33388311Y-27587330D02*
X33407359Y-27587330D01*
D10*
X30194483Y-27260261D02*
X30144483Y-27260261D01*
X30144483Y-27338833D02*
X30144483Y-27188833D01*
X30144483Y-27188833D02*
X30215911Y-27188833D01*
X30273054Y-27338833D02*
X30273054Y-27238833D01*
X30273054Y-27188833D02*
X30265911Y-27195976D01*
X30265911Y-27195976D02*
X30273054Y-27203118D01*
X30273054Y-27203118D02*
X30280197Y-27195976D01*
X30280197Y-27195976D02*
X30273054Y-27188833D01*
X30273054Y-27188833D02*
X30273054Y-27203118D01*
X30365911Y-27338833D02*
X30351625Y-27331690D01*
X30351625Y-27331690D02*
X30344483Y-27317404D01*
X30344483Y-27317404D02*
X30344483Y-27188833D01*
X30480197Y-27331690D02*
X30465911Y-27338833D01*
X30465911Y-27338833D02*
X30437340Y-27338833D01*
X30437340Y-27338833D02*
X30423054Y-27331690D01*
X30423054Y-27331690D02*
X30415911Y-27317404D01*
X30415911Y-27317404D02*
X30415911Y-27260261D01*
X30415911Y-27260261D02*
X30423054Y-27245976D01*
X30423054Y-27245976D02*
X30437340Y-27238833D01*
X30437340Y-27238833D02*
X30465911Y-27238833D01*
X30465911Y-27238833D02*
X30480197Y-27245976D01*
X30480197Y-27245976D02*
X30487340Y-27260261D01*
X30487340Y-27260261D02*
X30487340Y-27274547D01*
X30487340Y-27274547D02*
X30415911Y-27288833D01*
X30551625Y-27324547D02*
X30558768Y-27331690D01*
X30558768Y-27331690D02*
X30551625Y-27338833D01*
X30551625Y-27338833D02*
X30544483Y-27331690D01*
X30544483Y-27331690D02*
X30551625Y-27324547D01*
X30551625Y-27324547D02*
X30551625Y-27338833D01*
X30551625Y-27245976D02*
X30558768Y-27253118D01*
X30558768Y-27253118D02*
X30551625Y-27260261D01*
X30551625Y-27260261D02*
X30544483Y-27253118D01*
X30544483Y-27253118D02*
X30551625Y-27245976D01*
X30551625Y-27245976D02*
X30551625Y-27260261D01*
X30815911Y-27195976D02*
X30801625Y-27188833D01*
X30801625Y-27188833D02*
X30780197Y-27188833D01*
X30780197Y-27188833D02*
X30758768Y-27195976D01*
X30758768Y-27195976D02*
X30744483Y-27210261D01*
X30744483Y-27210261D02*
X30737340Y-27224547D01*
X30737340Y-27224547D02*
X30730197Y-27253118D01*
X30730197Y-27253118D02*
X30730197Y-27274547D01*
X30730197Y-27274547D02*
X30737340Y-27303118D01*
X30737340Y-27303118D02*
X30744483Y-27317404D01*
X30744483Y-27317404D02*
X30758768Y-27331690D01*
X30758768Y-27331690D02*
X30780197Y-27338833D01*
X30780197Y-27338833D02*
X30794483Y-27338833D01*
X30794483Y-27338833D02*
X30815911Y-27331690D01*
X30815911Y-27331690D02*
X30823054Y-27324547D01*
X30823054Y-27324547D02*
X30823054Y-27274547D01*
X30823054Y-27274547D02*
X30794483Y-27274547D01*
X30887340Y-27338833D02*
X30887340Y-27238833D01*
X30887340Y-27267404D02*
X30894483Y-27253118D01*
X30894483Y-27253118D02*
X30901625Y-27245976D01*
X30901625Y-27245976D02*
X30915911Y-27238833D01*
X30915911Y-27238833D02*
X30930197Y-27238833D01*
X31044483Y-27238833D02*
X31044483Y-27338833D01*
X30980197Y-27238833D02*
X30980197Y-27317404D01*
X30980197Y-27317404D02*
X30987340Y-27331690D01*
X30987340Y-27331690D02*
X31001625Y-27338833D01*
X31001625Y-27338833D02*
X31023054Y-27338833D01*
X31023054Y-27338833D02*
X31037340Y-27331690D01*
X31037340Y-27331690D02*
X31044483Y-27324547D01*
X31115911Y-27238833D02*
X31115911Y-27388833D01*
X31115911Y-27245976D02*
X31130197Y-27238833D01*
X31130197Y-27238833D02*
X31158768Y-27238833D01*
X31158768Y-27238833D02*
X31173054Y-27245976D01*
X31173054Y-27245976D02*
X31180197Y-27253118D01*
X31180197Y-27253118D02*
X31187340Y-27267404D01*
X31187340Y-27267404D02*
X31187340Y-27310261D01*
X31187340Y-27310261D02*
X31180197Y-27324547D01*
X31180197Y-27324547D02*
X31173054Y-27331690D01*
X31173054Y-27331690D02*
X31158768Y-27338833D01*
X31158768Y-27338833D02*
X31130197Y-27338833D01*
X31130197Y-27338833D02*
X31115911Y-27331690D01*
X31251625Y-27238833D02*
X31251625Y-27388833D01*
X31251625Y-27245976D02*
X31265911Y-27238833D01*
X31265911Y-27238833D02*
X31294483Y-27238833D01*
X31294483Y-27238833D02*
X31308768Y-27245976D01*
X31308768Y-27245976D02*
X31315911Y-27253118D01*
X31315911Y-27253118D02*
X31323054Y-27267404D01*
X31323054Y-27267404D02*
X31323054Y-27310261D01*
X31323054Y-27310261D02*
X31315911Y-27324547D01*
X31315911Y-27324547D02*
X31308768Y-27331690D01*
X31308768Y-27331690D02*
X31294483Y-27338833D01*
X31294483Y-27338833D02*
X31265911Y-27338833D01*
X31265911Y-27338833D02*
X31251625Y-27331690D01*
X31444483Y-27331690D02*
X31430197Y-27338833D01*
X31430197Y-27338833D02*
X31401625Y-27338833D01*
X31401625Y-27338833D02*
X31387340Y-27331690D01*
X31387340Y-27331690D02*
X31380197Y-27317404D01*
X31380197Y-27317404D02*
X31380197Y-27260261D01*
X31380197Y-27260261D02*
X31387340Y-27245976D01*
X31387340Y-27245976D02*
X31401625Y-27238833D01*
X31401625Y-27238833D02*
X31430197Y-27238833D01*
X31430197Y-27238833D02*
X31444483Y-27245976D01*
X31444483Y-27245976D02*
X31451625Y-27260261D01*
X31451625Y-27260261D02*
X31451625Y-27274547D01*
X31451625Y-27274547D02*
X31380197Y-27288833D01*
X31594483Y-27338833D02*
X31508768Y-27338833D01*
X31551625Y-27338833D02*
X31551625Y-27188833D01*
X31551625Y-27188833D02*
X31537340Y-27210261D01*
X31537340Y-27210261D02*
X31523054Y-27224547D01*
X31523054Y-27224547D02*
X31508768Y-27231690D01*
X31658768Y-27281690D02*
X31773054Y-27281690D01*
X31844482Y-27338833D02*
X31844482Y-27188833D01*
X31915911Y-27238833D02*
X31915911Y-27338833D01*
X31915911Y-27253118D02*
X31923054Y-27245976D01*
X31923054Y-27245976D02*
X31937340Y-27238833D01*
X31937340Y-27238833D02*
X31958768Y-27238833D01*
X31958768Y-27238833D02*
X31973054Y-27245976D01*
X31973054Y-27245976D02*
X31980197Y-27260261D01*
X31980197Y-27260261D02*
X31980197Y-27338833D01*
X32115911Y-27338833D02*
X32115911Y-27188833D01*
X32115911Y-27331690D02*
X32101625Y-27338833D01*
X32101625Y-27338833D02*
X32073054Y-27338833D01*
X32073054Y-27338833D02*
X32058768Y-27331690D01*
X32058768Y-27331690D02*
X32051625Y-27324547D01*
X32051625Y-27324547D02*
X32044483Y-27310261D01*
X32044483Y-27310261D02*
X32044483Y-27267404D01*
X32044483Y-27267404D02*
X32051625Y-27253118D01*
X32051625Y-27253118D02*
X32058768Y-27245976D01*
X32058768Y-27245976D02*
X32073054Y-27238833D01*
X32073054Y-27238833D02*
X32101625Y-27238833D01*
X32101625Y-27238833D02*
X32115911Y-27245976D01*
X32244483Y-27331690D02*
X32230197Y-27338833D01*
X32230197Y-27338833D02*
X32201625Y-27338833D01*
X32201625Y-27338833D02*
X32187340Y-27331690D01*
X32187340Y-27331690D02*
X32180197Y-27317404D01*
X32180197Y-27317404D02*
X32180197Y-27260261D01*
X32180197Y-27260261D02*
X32187340Y-27245976D01*
X32187340Y-27245976D02*
X32201625Y-27238833D01*
X32201625Y-27238833D02*
X32230197Y-27238833D01*
X32230197Y-27238833D02*
X32244483Y-27245976D01*
X32244483Y-27245976D02*
X32251625Y-27260261D01*
X32251625Y-27260261D02*
X32251625Y-27274547D01*
X32251625Y-27274547D02*
X32180197Y-27288833D01*
X32301625Y-27338833D02*
X32380197Y-27238833D01*
X32301625Y-27238833D02*
X32380197Y-27338833D01*
X32423054Y-27188833D02*
X32515911Y-27188833D01*
X32515911Y-27188833D02*
X32465911Y-27245976D01*
X32465911Y-27245976D02*
X32487340Y-27245976D01*
X32487340Y-27245976D02*
X32501625Y-27253118D01*
X32501625Y-27253118D02*
X32508768Y-27260261D01*
X32508768Y-27260261D02*
X32515911Y-27274547D01*
X32515911Y-27274547D02*
X32515911Y-27310261D01*
X32515911Y-27310261D02*
X32508768Y-27324547D01*
X32508768Y-27324547D02*
X32501625Y-27331690D01*
X32501625Y-27331690D02*
X32487340Y-27338833D01*
X32487340Y-27338833D02*
X32444483Y-27338833D01*
X32444483Y-27338833D02*
X32430197Y-27331690D01*
X32430197Y-27331690D02*
X32423054Y-27324547D01*
X32580197Y-27324547D02*
X32587340Y-27331690D01*
X32587340Y-27331690D02*
X32580197Y-27338833D01*
X32580197Y-27338833D02*
X32573054Y-27331690D01*
X32573054Y-27331690D02*
X32580197Y-27324547D01*
X32580197Y-27324547D02*
X32580197Y-27338833D01*
X32651625Y-27338833D02*
X32651625Y-27188833D01*
X32665911Y-27281690D02*
X32708768Y-27338833D01*
X32708768Y-27238833D02*
X32651625Y-27295976D01*
X32773054Y-27338833D02*
X32773054Y-27238833D01*
X32773054Y-27188833D02*
X32765911Y-27195976D01*
X32765911Y-27195976D02*
X32773054Y-27203118D01*
X32773054Y-27203118D02*
X32780197Y-27195976D01*
X32780197Y-27195976D02*
X32773054Y-27188833D01*
X32773054Y-27188833D02*
X32773054Y-27203118D01*
X32908768Y-27331690D02*
X32894483Y-27338833D01*
X32894483Y-27338833D02*
X32865911Y-27338833D01*
X32865911Y-27338833D02*
X32851625Y-27331690D01*
X32851625Y-27331690D02*
X32844483Y-27324547D01*
X32844483Y-27324547D02*
X32837340Y-27310261D01*
X32837340Y-27310261D02*
X32837340Y-27267404D01*
X32837340Y-27267404D02*
X32844483Y-27253118D01*
X32844483Y-27253118D02*
X32851625Y-27245976D01*
X32851625Y-27245976D02*
X32865911Y-27238833D01*
X32865911Y-27238833D02*
X32894483Y-27238833D01*
X32894483Y-27238833D02*
X32908768Y-27245976D01*
X33037340Y-27338833D02*
X33037340Y-27260261D01*
X33037340Y-27260261D02*
X33030197Y-27245976D01*
X33030197Y-27245976D02*
X33015911Y-27238833D01*
X33015911Y-27238833D02*
X32987340Y-27238833D01*
X32987340Y-27238833D02*
X32973054Y-27245976D01*
X33037340Y-27331690D02*
X33023054Y-27338833D01*
X33023054Y-27338833D02*
X32987340Y-27338833D01*
X32987340Y-27338833D02*
X32973054Y-27331690D01*
X32973054Y-27331690D02*
X32965911Y-27317404D01*
X32965911Y-27317404D02*
X32965911Y-27303118D01*
X32965911Y-27303118D02*
X32973054Y-27288833D01*
X32973054Y-27288833D02*
X32987340Y-27281690D01*
X32987340Y-27281690D02*
X33023054Y-27281690D01*
X33023054Y-27281690D02*
X33037340Y-27274547D01*
X33173054Y-27338833D02*
X33173054Y-27188833D01*
X33173054Y-27331690D02*
X33158768Y-27338833D01*
X33158768Y-27338833D02*
X33130197Y-27338833D01*
X33130197Y-27338833D02*
X33115911Y-27331690D01*
X33115911Y-27331690D02*
X33108768Y-27324547D01*
X33108768Y-27324547D02*
X33101625Y-27310261D01*
X33101625Y-27310261D02*
X33101625Y-27267404D01*
X33101625Y-27267404D02*
X33108768Y-27253118D01*
X33108768Y-27253118D02*
X33115911Y-27245976D01*
X33115911Y-27245976D02*
X33130197Y-27238833D01*
X33130197Y-27238833D02*
X33158768Y-27238833D01*
X33158768Y-27238833D02*
X33173054Y-27245976D01*
X33208768Y-27353118D02*
X33323054Y-27353118D01*
X33358768Y-27238833D02*
X33358768Y-27388833D01*
X33358768Y-27245976D02*
X33373054Y-27238833D01*
X33373054Y-27238833D02*
X33401625Y-27238833D01*
X33401625Y-27238833D02*
X33415911Y-27245976D01*
X33415911Y-27245976D02*
X33423054Y-27253118D01*
X33423054Y-27253118D02*
X33430197Y-27267404D01*
X33430197Y-27267404D02*
X33430197Y-27310261D01*
X33430197Y-27310261D02*
X33423054Y-27324547D01*
X33423054Y-27324547D02*
X33415911Y-27331690D01*
X33415911Y-27331690D02*
X33401625Y-27338833D01*
X33401625Y-27338833D02*
X33373054Y-27338833D01*
X33373054Y-27338833D02*
X33358768Y-27331690D01*
X33558768Y-27331690D02*
X33544483Y-27338833D01*
X33544483Y-27338833D02*
X33515911Y-27338833D01*
X33515911Y-27338833D02*
X33501625Y-27331690D01*
X33501625Y-27331690D02*
X33494483Y-27324547D01*
X33494483Y-27324547D02*
X33487340Y-27310261D01*
X33487340Y-27310261D02*
X33487340Y-27267404D01*
X33487340Y-27267404D02*
X33494483Y-27253118D01*
X33494483Y-27253118D02*
X33501625Y-27245976D01*
X33501625Y-27245976D02*
X33515911Y-27238833D01*
X33515911Y-27238833D02*
X33544483Y-27238833D01*
X33544483Y-27238833D02*
X33558768Y-27245976D01*
X33623054Y-27338833D02*
X33623054Y-27188833D01*
X33623054Y-27245976D02*
X33637340Y-27238833D01*
X33637340Y-27238833D02*
X33665911Y-27238833D01*
X33665911Y-27238833D02*
X33680197Y-27245976D01*
X33680197Y-27245976D02*
X33687340Y-27253118D01*
X33687340Y-27253118D02*
X33694483Y-27267404D01*
X33694483Y-27267404D02*
X33694483Y-27310261D01*
X33694483Y-27310261D02*
X33687340Y-27324547D01*
X33687340Y-27324547D02*
X33680197Y-27331690D01*
X33680197Y-27331690D02*
X33665911Y-27338833D01*
X33665911Y-27338833D02*
X33637340Y-27338833D01*
X33637340Y-27338833D02*
X33623054Y-27331690D01*
X29998900Y-26850220D02*
X40798900Y-26850220D01*
X30137340Y-27061690D02*
X30158768Y-27068833D01*
X30158768Y-27068833D02*
X30194483Y-27068833D01*
X30194483Y-27068833D02*
X30208768Y-27061690D01*
X30208768Y-27061690D02*
X30215911Y-27054547D01*
X30215911Y-27054547D02*
X30223054Y-27040261D01*
X30223054Y-27040261D02*
X30223054Y-27025976D01*
X30223054Y-27025976D02*
X30215911Y-27011690D01*
X30215911Y-27011690D02*
X30208768Y-27004547D01*
X30208768Y-27004547D02*
X30194483Y-26997404D01*
X30194483Y-26997404D02*
X30165911Y-26990261D01*
X30165911Y-26990261D02*
X30151625Y-26983118D01*
X30151625Y-26983118D02*
X30144483Y-26975976D01*
X30144483Y-26975976D02*
X30137340Y-26961690D01*
X30137340Y-26961690D02*
X30137340Y-26947404D01*
X30137340Y-26947404D02*
X30144483Y-26933118D01*
X30144483Y-26933118D02*
X30151625Y-26925976D01*
X30151625Y-26925976D02*
X30165911Y-26918833D01*
X30165911Y-26918833D02*
X30201625Y-26918833D01*
X30201625Y-26918833D02*
X30223054Y-26925976D01*
X30287340Y-27068833D02*
X30287340Y-26918833D01*
X30351625Y-27068833D02*
X30351625Y-26990261D01*
X30351625Y-26990261D02*
X30344483Y-26975976D01*
X30344483Y-26975976D02*
X30330197Y-26968833D01*
X30330197Y-26968833D02*
X30308768Y-26968833D01*
X30308768Y-26968833D02*
X30294483Y-26975976D01*
X30294483Y-26975976D02*
X30287340Y-26983118D01*
X30480197Y-27061690D02*
X30465911Y-27068833D01*
X30465911Y-27068833D02*
X30437340Y-27068833D01*
X30437340Y-27068833D02*
X30423054Y-27061690D01*
X30423054Y-27061690D02*
X30415911Y-27047404D01*
X30415911Y-27047404D02*
X30415911Y-26990261D01*
X30415911Y-26990261D02*
X30423054Y-26975976D01*
X30423054Y-26975976D02*
X30437340Y-26968833D01*
X30437340Y-26968833D02*
X30465911Y-26968833D01*
X30465911Y-26968833D02*
X30480197Y-26975976D01*
X30480197Y-26975976D02*
X30487340Y-26990261D01*
X30487340Y-26990261D02*
X30487340Y-27004547D01*
X30487340Y-27004547D02*
X30415911Y-27018833D01*
X30608768Y-27061690D02*
X30594483Y-27068833D01*
X30594483Y-27068833D02*
X30565911Y-27068833D01*
X30565911Y-27068833D02*
X30551625Y-27061690D01*
X30551625Y-27061690D02*
X30544483Y-27047404D01*
X30544483Y-27047404D02*
X30544483Y-26990261D01*
X30544483Y-26990261D02*
X30551625Y-26975976D01*
X30551625Y-26975976D02*
X30565911Y-26968833D01*
X30565911Y-26968833D02*
X30594483Y-26968833D01*
X30594483Y-26968833D02*
X30608768Y-26975976D01*
X30608768Y-26975976D02*
X30615911Y-26990261D01*
X30615911Y-26990261D02*
X30615911Y-27004547D01*
X30615911Y-27004547D02*
X30544483Y-27018833D01*
X30658768Y-26968833D02*
X30715911Y-26968833D01*
X30680197Y-26918833D02*
X30680197Y-27047404D01*
X30680197Y-27047404D02*
X30687340Y-27061690D01*
X30687340Y-27061690D02*
X30701625Y-27068833D01*
X30701625Y-27068833D02*
X30715911Y-27068833D01*
X30765911Y-27054547D02*
X30773054Y-27061690D01*
X30773054Y-27061690D02*
X30765911Y-27068833D01*
X30765911Y-27068833D02*
X30758768Y-27061690D01*
X30758768Y-27061690D02*
X30765911Y-27054547D01*
X30765911Y-27054547D02*
X30765911Y-27068833D01*
X30765911Y-26975976D02*
X30773054Y-26983118D01*
X30773054Y-26983118D02*
X30765911Y-26990261D01*
X30765911Y-26990261D02*
X30758768Y-26983118D01*
X30758768Y-26983118D02*
X30765911Y-26975976D01*
X30765911Y-26975976D02*
X30765911Y-26990261D01*
D11*
X30140065Y-26618053D02*
X30175780Y-26768053D01*
X30175780Y-26768053D02*
X30204351Y-26660910D01*
X30204351Y-26660910D02*
X30232922Y-26768053D01*
X30232922Y-26768053D02*
X30268637Y-26618053D01*
X30325780Y-26768053D02*
X30325780Y-26618053D01*
X30325780Y-26689481D02*
X30411494Y-26689481D01*
X30411494Y-26768053D02*
X30411494Y-26618053D01*
X30468637Y-26618053D02*
X30568637Y-26618053D01*
X30568637Y-26618053D02*
X30468637Y-26768053D01*
X30468637Y-26768053D02*
X30568637Y-26768053D01*
X30725780Y-26618053D02*
X30825780Y-26618053D01*
X30825780Y-26618053D02*
X30725780Y-26768053D01*
X30725780Y-26768053D02*
X30825780Y-26768053D01*
X30868637Y-26668053D02*
X30897208Y-26768053D01*
X30897208Y-26768053D02*
X30925780Y-26696624D01*
X30925780Y-26696624D02*
X30954351Y-26768053D01*
X30954351Y-26768053D02*
X30982922Y-26668053D01*
X31040065Y-26768053D02*
X31040065Y-26668053D01*
X31040065Y-26618053D02*
X31032922Y-26625196D01*
X31032922Y-26625196D02*
X31040065Y-26632338D01*
X31040065Y-26632338D02*
X31047208Y-26625196D01*
X31047208Y-26625196D02*
X31040065Y-26618053D01*
X31040065Y-26618053D02*
X31040065Y-26632338D01*
X31175780Y-26760910D02*
X31161494Y-26768053D01*
X31161494Y-26768053D02*
X31132922Y-26768053D01*
X31132922Y-26768053D02*
X31118637Y-26760910D01*
X31118637Y-26760910D02*
X31111494Y-26753767D01*
X31111494Y-26753767D02*
X31104351Y-26739481D01*
X31104351Y-26739481D02*
X31104351Y-26696624D01*
X31104351Y-26696624D02*
X31111494Y-26682338D01*
X31111494Y-26682338D02*
X31118637Y-26675196D01*
X31118637Y-26675196D02*
X31132922Y-26668053D01*
X31132922Y-26668053D02*
X31161494Y-26668053D01*
X31161494Y-26668053D02*
X31175780Y-26675196D01*
X31240065Y-26768053D02*
X31240065Y-26618053D01*
X31254351Y-26710910D02*
X31297208Y-26768053D01*
X31297208Y-26668053D02*
X31240065Y-26725196D01*
X31425780Y-26768053D02*
X31425780Y-26689481D01*
X31425780Y-26689481D02*
X31418637Y-26675196D01*
X31418637Y-26675196D02*
X31404351Y-26668053D01*
X31404351Y-26668053D02*
X31375780Y-26668053D01*
X31375780Y-26668053D02*
X31361494Y-26675196D01*
X31425780Y-26760910D02*
X31411494Y-26768053D01*
X31411494Y-26768053D02*
X31375780Y-26768053D01*
X31375780Y-26768053D02*
X31361494Y-26760910D01*
X31361494Y-26760910D02*
X31354351Y-26746624D01*
X31354351Y-26746624D02*
X31354351Y-26732338D01*
X31354351Y-26732338D02*
X31361494Y-26718053D01*
X31361494Y-26718053D02*
X31375780Y-26710910D01*
X31375780Y-26710910D02*
X31411494Y-26710910D01*
X31411494Y-26710910D02*
X31425780Y-26703767D01*
X31561494Y-26668053D02*
X31561494Y-26768053D01*
X31497208Y-26668053D02*
X31497208Y-26746624D01*
X31497208Y-26746624D02*
X31504351Y-26760910D01*
X31504351Y-26760910D02*
X31518637Y-26768053D01*
X31518637Y-26768053D02*
X31540065Y-26768053D01*
X31540065Y-26768053D02*
X31554351Y-26760910D01*
X31554351Y-26760910D02*
X31561494Y-26753767D01*
D10*
X30123054Y-26318833D02*
X30208768Y-26318833D01*
X30165911Y-26468833D02*
X30165911Y-26318833D01*
X30315911Y-26461690D02*
X30301625Y-26468833D01*
X30301625Y-26468833D02*
X30273054Y-26468833D01*
X30273054Y-26468833D02*
X30258768Y-26461690D01*
X30258768Y-26461690D02*
X30251625Y-26447404D01*
X30251625Y-26447404D02*
X30251625Y-26390261D01*
X30251625Y-26390261D02*
X30258768Y-26375976D01*
X30258768Y-26375976D02*
X30273054Y-26368833D01*
X30273054Y-26368833D02*
X30301625Y-26368833D01*
X30301625Y-26368833D02*
X30315911Y-26375976D01*
X30315911Y-26375976D02*
X30323054Y-26390261D01*
X30323054Y-26390261D02*
X30323054Y-26404547D01*
X30323054Y-26404547D02*
X30251625Y-26418833D01*
X30451625Y-26468833D02*
X30451625Y-26390261D01*
X30451625Y-26390261D02*
X30444483Y-26375976D01*
X30444483Y-26375976D02*
X30430197Y-26368833D01*
X30430197Y-26368833D02*
X30401625Y-26368833D01*
X30401625Y-26368833D02*
X30387340Y-26375976D01*
X30451625Y-26461690D02*
X30437340Y-26468833D01*
X30437340Y-26468833D02*
X30401625Y-26468833D01*
X30401625Y-26468833D02*
X30387340Y-26461690D01*
X30387340Y-26461690D02*
X30380197Y-26447404D01*
X30380197Y-26447404D02*
X30380197Y-26433118D01*
X30380197Y-26433118D02*
X30387340Y-26418833D01*
X30387340Y-26418833D02*
X30401625Y-26411690D01*
X30401625Y-26411690D02*
X30437340Y-26411690D01*
X30437340Y-26411690D02*
X30451625Y-26404547D01*
X30523054Y-26468833D02*
X30523054Y-26368833D01*
X30523054Y-26383118D02*
X30530197Y-26375976D01*
X30530197Y-26375976D02*
X30544483Y-26368833D01*
X30544483Y-26368833D02*
X30565911Y-26368833D01*
X30565911Y-26368833D02*
X30580197Y-26375976D01*
X30580197Y-26375976D02*
X30587340Y-26390261D01*
X30587340Y-26390261D02*
X30587340Y-26468833D01*
X30587340Y-26390261D02*
X30594483Y-26375976D01*
X30594483Y-26375976D02*
X30608768Y-26368833D01*
X30608768Y-26368833D02*
X30630197Y-26368833D01*
X30630197Y-26368833D02*
X30644483Y-26375976D01*
X30644483Y-26375976D02*
X30651625Y-26390261D01*
X30651625Y-26390261D02*
X30651625Y-26468833D01*
X30915911Y-26468833D02*
X30830197Y-26468833D01*
X30873054Y-26468833D02*
X30873054Y-26318833D01*
X30873054Y-26318833D02*
X30858768Y-26340261D01*
X30858768Y-26340261D02*
X30844483Y-26354547D01*
X30844483Y-26354547D02*
X30830197Y-26361690D01*
X30144483Y-26168833D02*
X30144483Y-26018833D01*
X30215911Y-26068833D02*
X30215911Y-26168833D01*
X30215911Y-26083118D02*
X30223054Y-26075976D01*
X30223054Y-26075976D02*
X30237340Y-26068833D01*
X30237340Y-26068833D02*
X30258768Y-26068833D01*
X30258768Y-26068833D02*
X30273054Y-26075976D01*
X30273054Y-26075976D02*
X30280197Y-26090261D01*
X30280197Y-26090261D02*
X30280197Y-26168833D01*
X30415911Y-26168833D02*
X30415911Y-26018833D01*
X30415911Y-26161690D02*
X30401625Y-26168833D01*
X30401625Y-26168833D02*
X30373054Y-26168833D01*
X30373054Y-26168833D02*
X30358768Y-26161690D01*
X30358768Y-26161690D02*
X30351625Y-26154547D01*
X30351625Y-26154547D02*
X30344483Y-26140261D01*
X30344483Y-26140261D02*
X30344483Y-26097404D01*
X30344483Y-26097404D02*
X30351625Y-26083118D01*
X30351625Y-26083118D02*
X30358768Y-26075976D01*
X30358768Y-26075976D02*
X30373054Y-26068833D01*
X30373054Y-26068833D02*
X30401625Y-26068833D01*
X30401625Y-26068833D02*
X30415911Y-26075976D01*
X30544483Y-26161690D02*
X30530197Y-26168833D01*
X30530197Y-26168833D02*
X30501626Y-26168833D01*
X30501626Y-26168833D02*
X30487340Y-26161690D01*
X30487340Y-26161690D02*
X30480197Y-26147404D01*
X30480197Y-26147404D02*
X30480197Y-26090261D01*
X30480197Y-26090261D02*
X30487340Y-26075976D01*
X30487340Y-26075976D02*
X30501626Y-26068833D01*
X30501626Y-26068833D02*
X30530197Y-26068833D01*
X30530197Y-26068833D02*
X30544483Y-26075976D01*
X30544483Y-26075976D02*
X30551626Y-26090261D01*
X30551626Y-26090261D02*
X30551626Y-26104547D01*
X30551626Y-26104547D02*
X30480197Y-26118833D01*
X30601625Y-26168833D02*
X30680197Y-26068833D01*
X30601625Y-26068833D02*
X30680197Y-26168833D01*
X30880197Y-26018833D02*
X30894483Y-26018833D01*
X30894483Y-26018833D02*
X30908768Y-26025976D01*
X30908768Y-26025976D02*
X30915911Y-26033118D01*
X30915911Y-26033118D02*
X30923054Y-26047404D01*
X30923054Y-26047404D02*
X30930197Y-26075976D01*
X30930197Y-26075976D02*
X30930197Y-26111690D01*
X30930197Y-26111690D02*
X30923054Y-26140261D01*
X30923054Y-26140261D02*
X30915911Y-26154547D01*
X30915911Y-26154547D02*
X30908768Y-26161690D01*
X30908768Y-26161690D02*
X30894483Y-26168833D01*
X30894483Y-26168833D02*
X30880197Y-26168833D01*
X30880197Y-26168833D02*
X30865911Y-26161690D01*
X30865911Y-26161690D02*
X30858768Y-26154547D01*
X30858768Y-26154547D02*
X30851625Y-26140261D01*
X30851625Y-26140261D02*
X30844483Y-26111690D01*
X30844483Y-26111690D02*
X30844483Y-26075976D01*
X30844483Y-26075976D02*
X30851625Y-26047404D01*
X30851625Y-26047404D02*
X30858768Y-26033118D01*
X30858768Y-26033118D02*
X30865911Y-26025976D01*
X30865911Y-26025976D02*
X30880197Y-26018833D01*
X31001625Y-26161690D02*
X31001625Y-26168833D01*
X31001625Y-26168833D02*
X30994483Y-26183118D01*
X30994483Y-26183118D02*
X30987340Y-26190261D01*
X31223054Y-26018833D02*
X31223054Y-26125976D01*
X31223054Y-26125976D02*
X31215911Y-26147404D01*
X31215911Y-26147404D02*
X31201625Y-26161690D01*
X31201625Y-26161690D02*
X31180197Y-26168833D01*
X31180197Y-26168833D02*
X31165911Y-26168833D01*
X31358768Y-26068833D02*
X31358768Y-26168833D01*
X31294483Y-26068833D02*
X31294483Y-26147404D01*
X31294483Y-26147404D02*
X31301625Y-26161690D01*
X31301625Y-26161690D02*
X31315911Y-26168833D01*
X31315911Y-26168833D02*
X31337340Y-26168833D01*
X31337340Y-26168833D02*
X31351625Y-26161690D01*
X31351625Y-26161690D02*
X31358768Y-26154547D01*
X31430197Y-26068833D02*
X31430197Y-26168833D01*
X31430197Y-26083118D02*
X31437340Y-26075976D01*
X31437340Y-26075976D02*
X31451625Y-26068833D01*
X31451625Y-26068833D02*
X31473054Y-26068833D01*
X31473054Y-26068833D02*
X31487340Y-26075976D01*
X31487340Y-26075976D02*
X31494483Y-26090261D01*
X31494483Y-26090261D02*
X31494483Y-26168833D01*
X31623054Y-26161690D02*
X31608768Y-26168833D01*
X31608768Y-26168833D02*
X31580197Y-26168833D01*
X31580197Y-26168833D02*
X31565911Y-26161690D01*
X31565911Y-26161690D02*
X31558768Y-26147404D01*
X31558768Y-26147404D02*
X31558768Y-26090261D01*
X31558768Y-26090261D02*
X31565911Y-26075976D01*
X31565911Y-26075976D02*
X31580197Y-26068833D01*
X31580197Y-26068833D02*
X31608768Y-26068833D01*
X31608768Y-26068833D02*
X31623054Y-26075976D01*
X31623054Y-26075976D02*
X31630197Y-26090261D01*
X31630197Y-26090261D02*
X31630197Y-26104547D01*
X31630197Y-26104547D02*
X31558768Y-26118833D01*
X31801625Y-26033118D02*
X31808768Y-26025976D01*
X31808768Y-26025976D02*
X31823054Y-26018833D01*
X31823054Y-26018833D02*
X31858768Y-26018833D01*
X31858768Y-26018833D02*
X31873054Y-26025976D01*
X31873054Y-26025976D02*
X31880197Y-26033118D01*
X31880197Y-26033118D02*
X31887340Y-26047404D01*
X31887340Y-26047404D02*
X31887340Y-26061690D01*
X31887340Y-26061690D02*
X31880197Y-26083118D01*
X31880197Y-26083118D02*
X31794483Y-26168833D01*
X31794483Y-26168833D02*
X31887340Y-26168833D01*
X31980197Y-26018833D02*
X31994483Y-26018833D01*
X31994483Y-26018833D02*
X32008768Y-26025976D01*
X32008768Y-26025976D02*
X32015911Y-26033118D01*
X32015911Y-26033118D02*
X32023054Y-26047404D01*
X32023054Y-26047404D02*
X32030197Y-26075976D01*
X32030197Y-26075976D02*
X32030197Y-26111690D01*
X32030197Y-26111690D02*
X32023054Y-26140261D01*
X32023054Y-26140261D02*
X32015911Y-26154547D01*
X32015911Y-26154547D02*
X32008768Y-26161690D01*
X32008768Y-26161690D02*
X31994483Y-26168833D01*
X31994483Y-26168833D02*
X31980197Y-26168833D01*
X31980197Y-26168833D02*
X31965911Y-26161690D01*
X31965911Y-26161690D02*
X31958768Y-26154547D01*
X31958768Y-26154547D02*
X31951625Y-26140261D01*
X31951625Y-26140261D02*
X31944483Y-26111690D01*
X31944483Y-26111690D02*
X31944483Y-26075976D01*
X31944483Y-26075976D02*
X31951625Y-26047404D01*
X31951625Y-26047404D02*
X31958768Y-26033118D01*
X31958768Y-26033118D02*
X31965911Y-26025976D01*
X31965911Y-26025976D02*
X31980197Y-26018833D01*
X32087340Y-26033118D02*
X32094482Y-26025976D01*
X32094482Y-26025976D02*
X32108768Y-26018833D01*
X32108768Y-26018833D02*
X32144482Y-26018833D01*
X32144482Y-26018833D02*
X32158768Y-26025976D01*
X32158768Y-26025976D02*
X32165911Y-26033118D01*
X32165911Y-26033118D02*
X32173054Y-26047404D01*
X32173054Y-26047404D02*
X32173054Y-26061690D01*
X32173054Y-26061690D02*
X32165911Y-26083118D01*
X32165911Y-26083118D02*
X32080197Y-26168833D01*
X32080197Y-26168833D02*
X32173054Y-26168833D01*
X32301625Y-26018833D02*
X32273054Y-26018833D01*
X32273054Y-26018833D02*
X32258768Y-26025976D01*
X32258768Y-26025976D02*
X32251625Y-26033118D01*
X32251625Y-26033118D02*
X32237340Y-26054547D01*
X32237340Y-26054547D02*
X32230197Y-26083118D01*
X32230197Y-26083118D02*
X32230197Y-26140261D01*
X32230197Y-26140261D02*
X32237340Y-26154547D01*
X32237340Y-26154547D02*
X32244482Y-26161690D01*
X32244482Y-26161690D02*
X32258768Y-26168833D01*
X32258768Y-26168833D02*
X32287340Y-26168833D01*
X32287340Y-26168833D02*
X32301625Y-26161690D01*
X32301625Y-26161690D02*
X32308768Y-26154547D01*
X32308768Y-26154547D02*
X32315911Y-26140261D01*
X32315911Y-26140261D02*
X32315911Y-26104547D01*
X32315911Y-26104547D02*
X32308768Y-26090261D01*
X32308768Y-26090261D02*
X32301625Y-26083118D01*
X32301625Y-26083118D02*
X32287340Y-26075976D01*
X32287340Y-26075976D02*
X32258768Y-26075976D01*
X32258768Y-26075976D02*
X32244482Y-26083118D01*
X32244482Y-26083118D02*
X32237340Y-26090261D01*
X32237340Y-26090261D02*
X32230197Y-26104547D01*
X31998900Y-27850220D02*
X31998900Y-28150220D01*
X38398900Y-27850220D02*
X38398900Y-28500220D01*
G36*
X8559541Y-10650696D02*
G01*
X8575841Y-10657447D01*
X8590511Y-10667249D01*
X8602986Y-10679725D01*
X8612788Y-10694395D01*
X8619540Y-10710695D01*
X8622982Y-10727999D01*
X8622982Y-10745642D01*
X8619540Y-10762946D01*
X8612788Y-10779246D01*
X8602986Y-10793916D01*
X8590511Y-10806391D01*
X8575841Y-10816193D01*
X8559541Y-10822945D01*
X8542237Y-10826387D01*
X8524594Y-10826387D01*
X8507290Y-10822945D01*
X8490990Y-10816193D01*
X8476320Y-10806391D01*
X8463844Y-10793916D01*
X8454042Y-10779246D01*
X8447291Y-10762946D01*
X8443849Y-10745642D01*
X8443849Y-10727999D01*
X8447291Y-10710695D01*
X8454042Y-10694395D01*
X8463844Y-10679725D01*
X8476320Y-10667249D01*
X8490990Y-10657447D01*
X8507290Y-10650696D01*
X8524594Y-10647254D01*
X8542237Y-10647254D01*
X8559541Y-10650696D01*
G37*
G36*
X10083541Y-10650696D02*
G01*
X10099841Y-10657447D01*
X10114511Y-10667249D01*
X10126986Y-10679725D01*
X10136788Y-10694395D01*
X10143540Y-10710695D01*
X10146982Y-10727999D01*
X10146982Y-10745642D01*
X10143540Y-10762946D01*
X10136788Y-10779246D01*
X10126986Y-10793916D01*
X10114511Y-10806391D01*
X10099841Y-10816193D01*
X10083541Y-10822945D01*
X10066237Y-10826387D01*
X10048594Y-10826387D01*
X10031290Y-10822945D01*
X10014990Y-10816193D01*
X10000320Y-10806391D01*
X9987844Y-10793916D01*
X9978042Y-10779246D01*
X9971291Y-10762946D01*
X9967849Y-10745642D01*
X9967849Y-10727999D01*
X9971291Y-10710695D01*
X9978042Y-10694395D01*
X9987844Y-10679725D01*
X10000320Y-10667249D01*
X10014990Y-10657447D01*
X10031290Y-10650696D01*
X10048594Y-10647254D01*
X10066237Y-10647254D01*
X10083541Y-10650696D01*
G37*
G36*
X8559541Y-10396696D02*
G01*
X8575841Y-10403447D01*
X8590511Y-10413249D01*
X8602986Y-10425725D01*
X8612788Y-10440395D01*
X8619540Y-10456695D01*
X8622982Y-10473999D01*
X8622982Y-10491642D01*
X8619540Y-10508946D01*
X8612788Y-10525246D01*
X8602986Y-10539916D01*
X8590511Y-10552391D01*
X8575841Y-10562193D01*
X8559541Y-10568945D01*
X8542237Y-10572387D01*
X8524594Y-10572387D01*
X8507290Y-10568945D01*
X8490990Y-10562193D01*
X8476320Y-10552391D01*
X8463844Y-10539916D01*
X8454042Y-10525246D01*
X8447291Y-10508946D01*
X8443849Y-10491642D01*
X8443849Y-10473999D01*
X8447291Y-10456695D01*
X8454042Y-10440395D01*
X8463844Y-10425725D01*
X8476320Y-10413249D01*
X8490990Y-10403447D01*
X8507290Y-10396696D01*
X8524594Y-10393254D01*
X8542237Y-10393254D01*
X8559541Y-10396696D01*
G37*
G36*
X10083541Y-10396696D02*
G01*
X10099841Y-10403447D01*
X10114511Y-10413249D01*
X10126986Y-10425725D01*
X10136788Y-10440395D01*
X10143540Y-10456695D01*
X10146982Y-10473999D01*
X10146982Y-10491642D01*
X10143540Y-10508946D01*
X10136788Y-10525246D01*
X10126986Y-10539916D01*
X10114511Y-10552391D01*
X10099841Y-10562193D01*
X10083541Y-10568945D01*
X10066237Y-10572387D01*
X10048594Y-10572387D01*
X10031290Y-10568945D01*
X10014990Y-10562193D01*
X10000320Y-10552391D01*
X9987844Y-10539916D01*
X9978042Y-10525246D01*
X9971291Y-10508946D01*
X9967849Y-10491642D01*
X9967849Y-10473999D01*
X9971291Y-10456695D01*
X9978042Y-10440395D01*
X9987844Y-10425725D01*
X10000320Y-10413249D01*
X10014990Y-10403447D01*
X10031290Y-10396696D01*
X10048594Y-10393254D01*
X10066237Y-10393254D01*
X10083541Y-10396696D01*
G37*
G36*
X7322992Y-10149911D02*
G01*
X7340198Y-10157038D01*
X7355683Y-10167384D01*
X7368851Y-10180553D01*
X7379198Y-10196038D01*
X7386324Y-10213243D01*
X7389958Y-10231509D01*
X7389958Y-10250132D01*
X7386324Y-10268397D01*
X7379198Y-10285603D01*
X7368851Y-10301088D01*
X7355683Y-10314256D01*
X7340198Y-10324603D01*
X7322992Y-10331730D01*
X7304727Y-10335363D01*
X7286104Y-10335363D01*
X7267838Y-10331730D01*
X7250632Y-10324603D01*
X7235148Y-10314256D01*
X7221979Y-10301088D01*
X7211633Y-10285603D01*
X7204506Y-10268397D01*
X7200873Y-10250132D01*
X7200873Y-10231509D01*
X7204506Y-10213243D01*
X7211633Y-10196038D01*
X7221979Y-10180553D01*
X7235148Y-10167384D01*
X7250632Y-10157038D01*
X7267838Y-10149911D01*
X7286104Y-10146278D01*
X7304727Y-10146278D01*
X7322992Y-10149911D01*
G37*
G36*
X7576992Y-10149911D02*
G01*
X7594198Y-10157038D01*
X7609683Y-10167384D01*
X7622851Y-10180553D01*
X7633198Y-10196038D01*
X7640324Y-10213243D01*
X7643958Y-10231509D01*
X7643958Y-10250132D01*
X7640324Y-10268397D01*
X7633198Y-10285603D01*
X7622851Y-10301088D01*
X7609683Y-10314256D01*
X7594198Y-10324603D01*
X7576992Y-10331730D01*
X7558727Y-10335363D01*
X7540104Y-10335363D01*
X7521838Y-10331730D01*
X7504632Y-10324603D01*
X7489148Y-10314256D01*
X7475979Y-10301088D01*
X7465633Y-10285603D01*
X7458506Y-10268397D01*
X7454873Y-10250132D01*
X7454873Y-10231509D01*
X7458506Y-10213243D01*
X7465633Y-10196038D01*
X7475979Y-10180553D01*
X7489148Y-10167384D01*
X7504632Y-10157038D01*
X7521838Y-10149911D01*
X7540104Y-10146278D01*
X7558727Y-10146278D01*
X7576992Y-10149911D01*
G37*
G36*
X7830992Y-10149911D02*
G01*
X7848198Y-10157038D01*
X7863683Y-10167384D01*
X7876851Y-10180553D01*
X7887198Y-10196038D01*
X7894324Y-10213243D01*
X7897958Y-10231509D01*
X7897958Y-10250132D01*
X7894324Y-10268397D01*
X7887198Y-10285603D01*
X7876851Y-10301088D01*
X7863683Y-10314256D01*
X7848198Y-10324603D01*
X7830992Y-10331730D01*
X7812727Y-10335363D01*
X7794104Y-10335363D01*
X7775838Y-10331730D01*
X7758632Y-10324603D01*
X7743148Y-10314256D01*
X7729979Y-10301088D01*
X7719633Y-10285603D01*
X7712506Y-10268397D01*
X7708873Y-10250132D01*
X7708873Y-10231509D01*
X7712506Y-10213243D01*
X7719633Y-10196038D01*
X7729979Y-10180553D01*
X7743148Y-10167384D01*
X7758632Y-10157038D01*
X7775838Y-10149911D01*
X7794104Y-10146278D01*
X7812727Y-10146278D01*
X7830992Y-10149911D01*
G37*
G36*
X8559541Y-10142696D02*
G01*
X8575841Y-10149447D01*
X8590511Y-10159249D01*
X8602986Y-10171725D01*
X8612788Y-10186395D01*
X8619540Y-10202695D01*
X8622982Y-10219999D01*
X8622982Y-10237642D01*
X8619540Y-10254946D01*
X8612788Y-10271246D01*
X8602986Y-10285916D01*
X8590511Y-10298391D01*
X8575841Y-10308193D01*
X8559541Y-10314945D01*
X8542237Y-10318387D01*
X8524594Y-10318387D01*
X8507290Y-10314945D01*
X8490990Y-10308193D01*
X8476320Y-10298391D01*
X8463844Y-10285916D01*
X8454042Y-10271246D01*
X8447291Y-10254946D01*
X8443849Y-10237642D01*
X8443849Y-10219999D01*
X8447291Y-10202695D01*
X8454042Y-10186395D01*
X8463844Y-10171725D01*
X8476320Y-10159249D01*
X8490990Y-10149447D01*
X8507290Y-10142696D01*
X8524594Y-10139254D01*
X8542237Y-10139254D01*
X8559541Y-10142696D01*
G37*
G36*
X10083541Y-10142696D02*
G01*
X10099841Y-10149447D01*
X10114511Y-10159249D01*
X10126986Y-10171725D01*
X10136788Y-10186395D01*
X10143540Y-10202695D01*
X10146982Y-10219999D01*
X10146982Y-10237642D01*
X10143540Y-10254946D01*
X10136788Y-10271246D01*
X10126986Y-10285916D01*
X10114511Y-10298391D01*
X10099841Y-10308193D01*
X10083541Y-10314945D01*
X10066237Y-10318387D01*
X10048594Y-10318387D01*
X10031290Y-10314945D01*
X10014990Y-10308193D01*
X10000320Y-10298391D01*
X9987844Y-10285916D01*
X9978042Y-10271246D01*
X9971291Y-10254946D01*
X9967849Y-10237642D01*
X9967849Y-10219999D01*
X9971291Y-10202695D01*
X9978042Y-10186395D01*
X9987844Y-10171725D01*
X10000320Y-10159249D01*
X10014990Y-10149447D01*
X10031290Y-10142696D01*
X10048594Y-10139254D01*
X10066237Y-10139254D01*
X10083541Y-10142696D01*
G37*
G36*
X7892242Y-9892582D02*
G01*
X7895486Y-9894749D01*
X7897654Y-9897994D01*
X7898415Y-9901820D01*
X7898415Y-10071820D01*
X7897654Y-10075647D01*
X7895486Y-10078891D01*
X7892242Y-10081059D01*
X7888415Y-10081820D01*
X7718415Y-10081820D01*
X7714588Y-10081059D01*
X7711344Y-10078891D01*
X7709176Y-10075647D01*
X7708415Y-10071820D01*
X7708415Y-9901820D01*
X7709176Y-9897994D01*
X7711344Y-9894749D01*
X7714588Y-9892582D01*
X7718415Y-9891820D01*
X7888415Y-9891820D01*
X7892242Y-9892582D01*
G37*
G36*
X7322992Y-9895911D02*
G01*
X7340198Y-9903038D01*
X7355683Y-9913384D01*
X7368851Y-9926553D01*
X7379198Y-9942038D01*
X7386324Y-9959243D01*
X7389958Y-9977509D01*
X7389958Y-9996132D01*
X7386324Y-10014397D01*
X7379198Y-10031603D01*
X7368851Y-10047088D01*
X7355683Y-10060256D01*
X7340198Y-10070603D01*
X7322992Y-10077730D01*
X7304727Y-10081363D01*
X7286104Y-10081363D01*
X7267838Y-10077730D01*
X7250632Y-10070603D01*
X7235148Y-10060256D01*
X7221979Y-10047088D01*
X7211633Y-10031603D01*
X7204506Y-10014397D01*
X7200873Y-9996132D01*
X7200873Y-9977509D01*
X7204506Y-9959243D01*
X7211633Y-9942038D01*
X7221979Y-9926553D01*
X7235148Y-9913384D01*
X7250632Y-9903038D01*
X7267838Y-9895911D01*
X7286104Y-9892278D01*
X7304727Y-9892278D01*
X7322992Y-9895911D01*
G37*
G36*
X7576992Y-9895911D02*
G01*
X7594198Y-9903038D01*
X7609683Y-9913384D01*
X7622851Y-9926553D01*
X7633198Y-9942038D01*
X7640324Y-9959243D01*
X7643958Y-9977509D01*
X7643958Y-9996132D01*
X7640324Y-10014397D01*
X7633198Y-10031603D01*
X7622851Y-10047088D01*
X7609683Y-10060256D01*
X7594198Y-10070603D01*
X7576992Y-10077730D01*
X7558727Y-10081363D01*
X7540104Y-10081363D01*
X7521838Y-10077730D01*
X7504632Y-10070603D01*
X7489148Y-10060256D01*
X7475979Y-10047088D01*
X7465633Y-10031603D01*
X7458506Y-10014397D01*
X7454873Y-9996132D01*
X7454873Y-9977509D01*
X7458506Y-9959243D01*
X7465633Y-9942038D01*
X7475979Y-9926553D01*
X7489148Y-9913384D01*
X7504632Y-9903038D01*
X7521838Y-9895911D01*
X7540104Y-9892278D01*
X7558727Y-9892278D01*
X7576992Y-9895911D01*
G37*
G36*
X8559541Y-9888696D02*
G01*
X8575841Y-9895447D01*
X8590511Y-9905249D01*
X8602986Y-9917725D01*
X8612788Y-9932395D01*
X8619540Y-9948695D01*
X8622982Y-9965999D01*
X8622982Y-9983642D01*
X8619540Y-10000946D01*
X8612788Y-10017246D01*
X8602986Y-10031916D01*
X8590511Y-10044391D01*
X8575841Y-10054193D01*
X8559541Y-10060945D01*
X8542237Y-10064387D01*
X8524594Y-10064387D01*
X8507290Y-10060945D01*
X8490990Y-10054193D01*
X8476320Y-10044391D01*
X8463844Y-10031916D01*
X8454042Y-10017246D01*
X8447291Y-10000946D01*
X8443849Y-9983642D01*
X8443849Y-9965999D01*
X8447291Y-9948695D01*
X8454042Y-9932395D01*
X8463844Y-9917725D01*
X8476320Y-9905249D01*
X8490990Y-9895447D01*
X8507290Y-9888696D01*
X8524594Y-9885254D01*
X8542237Y-9885254D01*
X8559541Y-9888696D01*
G37*
G36*
X10083541Y-9888696D02*
G01*
X10099841Y-9895447D01*
X10114511Y-9905249D01*
X10126986Y-9917725D01*
X10136788Y-9932395D01*
X10143540Y-9948695D01*
X10146982Y-9965999D01*
X10146982Y-9983642D01*
X10143540Y-10000946D01*
X10136788Y-10017246D01*
X10126986Y-10031916D01*
X10114511Y-10044391D01*
X10099841Y-10054193D01*
X10083541Y-10060945D01*
X10066237Y-10064387D01*
X10048594Y-10064387D01*
X10031290Y-10060945D01*
X10014990Y-10054193D01*
X10000320Y-10044391D01*
X9987844Y-10031916D01*
X9978042Y-10017246D01*
X9971291Y-10000946D01*
X9967849Y-9983642D01*
X9967849Y-9965999D01*
X9971291Y-9948695D01*
X9978042Y-9932395D01*
X9987844Y-9917725D01*
X10000320Y-9905249D01*
X10014990Y-9895447D01*
X10031290Y-9888696D01*
X10048594Y-9885254D01*
X10066237Y-9885254D01*
X10083541Y-9888696D01*
G37*
G36*
X12344041Y-9647696D02*
G01*
X12360341Y-9654447D01*
X12375011Y-9664249D01*
X12387486Y-9676725D01*
X12397288Y-9691395D01*
X12404040Y-9707695D01*
X12407482Y-9724999D01*
X12407482Y-9742642D01*
X12404040Y-9759946D01*
X12397288Y-9776246D01*
X12387486Y-9790916D01*
X12375011Y-9803391D01*
X12360341Y-9813193D01*
X12344041Y-9819945D01*
X12326737Y-9823387D01*
X12309094Y-9823387D01*
X12291790Y-9819945D01*
X12275489Y-9813193D01*
X12260820Y-9803391D01*
X12248344Y-9790916D01*
X12238542Y-9776246D01*
X12231791Y-9759946D01*
X12228349Y-9742642D01*
X12228349Y-9724999D01*
X12231791Y-9707695D01*
X12238542Y-9691395D01*
X12248344Y-9676725D01*
X12260820Y-9664249D01*
X12275489Y-9654447D01*
X12291790Y-9647696D01*
X12309094Y-9644254D01*
X12326737Y-9644254D01*
X12344041Y-9647696D01*
G37*
G36*
X13106041Y-9647696D02*
G01*
X13122341Y-9654447D01*
X13137011Y-9664249D01*
X13149486Y-9676725D01*
X13159288Y-9691395D01*
X13166040Y-9707695D01*
X13169482Y-9724999D01*
X13169482Y-9742642D01*
X13166040Y-9759946D01*
X13159288Y-9776246D01*
X13149486Y-9790916D01*
X13137011Y-9803391D01*
X13122341Y-9813193D01*
X13106041Y-9819945D01*
X13088737Y-9823387D01*
X13071094Y-9823387D01*
X13053790Y-9819945D01*
X13037489Y-9813193D01*
X13022820Y-9803391D01*
X13010344Y-9790916D01*
X13000542Y-9776246D01*
X12993791Y-9759946D01*
X12990349Y-9742642D01*
X12990349Y-9724999D01*
X12993791Y-9707695D01*
X13000542Y-9691395D01*
X13010344Y-9676725D01*
X13022820Y-9664249D01*
X13037489Y-9654447D01*
X13053790Y-9647696D01*
X13071094Y-9644254D01*
X13088737Y-9644254D01*
X13106041Y-9647696D01*
G37*
G36*
X8559541Y-9634696D02*
G01*
X8575841Y-9641447D01*
X8590511Y-9651249D01*
X8602986Y-9663725D01*
X8612788Y-9678395D01*
X8619540Y-9694695D01*
X8622982Y-9711999D01*
X8622982Y-9729642D01*
X8619540Y-9746946D01*
X8612788Y-9763246D01*
X8602986Y-9777916D01*
X8590511Y-9790391D01*
X8575841Y-9800193D01*
X8559541Y-9806945D01*
X8542237Y-9810387D01*
X8524594Y-9810387D01*
X8507290Y-9806945D01*
X8490990Y-9800193D01*
X8476320Y-9790391D01*
X8463844Y-9777916D01*
X8454042Y-9763246D01*
X8447291Y-9746946D01*
X8443849Y-9729642D01*
X8443849Y-9711999D01*
X8447291Y-9694695D01*
X8454042Y-9678395D01*
X8463844Y-9663725D01*
X8476320Y-9651249D01*
X8490990Y-9641447D01*
X8507290Y-9634696D01*
X8524594Y-9631254D01*
X8542237Y-9631254D01*
X8559541Y-9634696D01*
G37*
G36*
X10083541Y-9634696D02*
G01*
X10099841Y-9641447D01*
X10114511Y-9651249D01*
X10126986Y-9663725D01*
X10136788Y-9678395D01*
X10143540Y-9694695D01*
X10146982Y-9711999D01*
X10146982Y-9729642D01*
X10143540Y-9746946D01*
X10136788Y-9763246D01*
X10126986Y-9777916D01*
X10114511Y-9790391D01*
X10099841Y-9800193D01*
X10083541Y-9806945D01*
X10066237Y-9810387D01*
X10048594Y-9810387D01*
X10031290Y-9806945D01*
X10014990Y-9800193D01*
X10000320Y-9790391D01*
X9987844Y-9777916D01*
X9978042Y-9763246D01*
X9971291Y-9746946D01*
X9967849Y-9729642D01*
X9967849Y-9711999D01*
X9971291Y-9694695D01*
X9978042Y-9678395D01*
X9987844Y-9663725D01*
X10000320Y-9651249D01*
X10014990Y-9641447D01*
X10031290Y-9634696D01*
X10048594Y-9631254D01*
X10066237Y-9631254D01*
X10083541Y-9634696D01*
G37*
G36*
X12344041Y-9393696D02*
G01*
X12360341Y-9400447D01*
X12375011Y-9410249D01*
X12387486Y-9422725D01*
X12397288Y-9437395D01*
X12404040Y-9453695D01*
X12407482Y-9470999D01*
X12407482Y-9488642D01*
X12404040Y-9505946D01*
X12397288Y-9522246D01*
X12387486Y-9536916D01*
X12375011Y-9549391D01*
X12360341Y-9559193D01*
X12344041Y-9565945D01*
X12326737Y-9569387D01*
X12309094Y-9569387D01*
X12291790Y-9565945D01*
X12275489Y-9559193D01*
X12260820Y-9549391D01*
X12248344Y-9536916D01*
X12238542Y-9522246D01*
X12231791Y-9505946D01*
X12228349Y-9488642D01*
X12228349Y-9470999D01*
X12231791Y-9453695D01*
X12238542Y-9437395D01*
X12248344Y-9422725D01*
X12260820Y-9410249D01*
X12275489Y-9400447D01*
X12291790Y-9393696D01*
X12309094Y-9390254D01*
X12326737Y-9390254D01*
X12344041Y-9393696D01*
G37*
G36*
X13106041Y-9393696D02*
G01*
X13122341Y-9400447D01*
X13137011Y-9410249D01*
X13149486Y-9422725D01*
X13159288Y-9437395D01*
X13166040Y-9453695D01*
X13169482Y-9470999D01*
X13169482Y-9488642D01*
X13166040Y-9505946D01*
X13159288Y-9522246D01*
X13149486Y-9536916D01*
X13137011Y-9549391D01*
X13122341Y-9559193D01*
X13106041Y-9565945D01*
X13088737Y-9569387D01*
X13071094Y-9569387D01*
X13053790Y-9565945D01*
X13037489Y-9559193D01*
X13022820Y-9549391D01*
X13010344Y-9536916D01*
X13000542Y-9522246D01*
X12993791Y-9505946D01*
X12990349Y-9488642D01*
X12990349Y-9470999D01*
X12993791Y-9453695D01*
X13000542Y-9437395D01*
X13010344Y-9422725D01*
X13022820Y-9410249D01*
X13037489Y-9400447D01*
X13053790Y-9393696D01*
X13071094Y-9390254D01*
X13088737Y-9390254D01*
X13106041Y-9393696D01*
G37*
G36*
X8559541Y-9380696D02*
G01*
X8575841Y-9387447D01*
X8590511Y-9397249D01*
X8602986Y-9409725D01*
X8612788Y-9424395D01*
X8619540Y-9440695D01*
X8622982Y-9457999D01*
X8622982Y-9475642D01*
X8619540Y-9492946D01*
X8612788Y-9509246D01*
X8602986Y-9523916D01*
X8590511Y-9536391D01*
X8575841Y-9546193D01*
X8559541Y-9552945D01*
X8542237Y-9556387D01*
X8524594Y-9556387D01*
X8507290Y-9552945D01*
X8490990Y-9546193D01*
X8476320Y-9536391D01*
X8463844Y-9523916D01*
X8454042Y-9509246D01*
X8447291Y-9492946D01*
X8443849Y-9475642D01*
X8443849Y-9457999D01*
X8447291Y-9440695D01*
X8454042Y-9424395D01*
X8463844Y-9409725D01*
X8476320Y-9397249D01*
X8490990Y-9387447D01*
X8507290Y-9380696D01*
X8524594Y-9377254D01*
X8542237Y-9377254D01*
X8559541Y-9380696D01*
G37*
G36*
X10083541Y-9380696D02*
G01*
X10099841Y-9387447D01*
X10114511Y-9397249D01*
X10126986Y-9409725D01*
X10136788Y-9424395D01*
X10143540Y-9440695D01*
X10146982Y-9457999D01*
X10146982Y-9475642D01*
X10143540Y-9492946D01*
X10136788Y-9509246D01*
X10126986Y-9523916D01*
X10114511Y-9536391D01*
X10099841Y-9546193D01*
X10083541Y-9552945D01*
X10066237Y-9556387D01*
X10048594Y-9556387D01*
X10031290Y-9552945D01*
X10014990Y-9546193D01*
X10000320Y-9536391D01*
X9987844Y-9523916D01*
X9978042Y-9509246D01*
X9971291Y-9492946D01*
X9967849Y-9475642D01*
X9967849Y-9457999D01*
X9971291Y-9440695D01*
X9978042Y-9424395D01*
X9987844Y-9409725D01*
X10000320Y-9397249D01*
X10014990Y-9387447D01*
X10031290Y-9380696D01*
X10048594Y-9377254D01*
X10066237Y-9377254D01*
X10083541Y-9380696D01*
G37*
G36*
X10852242Y-9132582D02*
G01*
X10855486Y-9134749D01*
X10857654Y-9137994D01*
X10858415Y-9141820D01*
X10858415Y-9311820D01*
X10857654Y-9315647D01*
X10855486Y-9318891D01*
X10852242Y-9321059D01*
X10848415Y-9321820D01*
X10678415Y-9321820D01*
X10674588Y-9321059D01*
X10671344Y-9318891D01*
X10669176Y-9315647D01*
X10668415Y-9311820D01*
X10668415Y-9141820D01*
X10669176Y-9137994D01*
X10671344Y-9134749D01*
X10674588Y-9132582D01*
X10678415Y-9131820D01*
X10848415Y-9131820D01*
X10852242Y-9132582D01*
G37*
G36*
X12344041Y-9139696D02*
G01*
X12360341Y-9146447D01*
X12375011Y-9156249D01*
X12387486Y-9168725D01*
X12397288Y-9183395D01*
X12404040Y-9199695D01*
X12407482Y-9216999D01*
X12407482Y-9234642D01*
X12404040Y-9251946D01*
X12397288Y-9268246D01*
X12387486Y-9282916D01*
X12375011Y-9295391D01*
X12360341Y-9305193D01*
X12344041Y-9311945D01*
X12326737Y-9315387D01*
X12309094Y-9315387D01*
X12291790Y-9311945D01*
X12275489Y-9305193D01*
X12260820Y-9295391D01*
X12248344Y-9282916D01*
X12238542Y-9268246D01*
X12231791Y-9251946D01*
X12228349Y-9234642D01*
X12228349Y-9216999D01*
X12231791Y-9199695D01*
X12238542Y-9183395D01*
X12248344Y-9168725D01*
X12260820Y-9156249D01*
X12275489Y-9146447D01*
X12291790Y-9139696D01*
X12309094Y-9136254D01*
X12326737Y-9136254D01*
X12344041Y-9139696D01*
G37*
G36*
X13106041Y-9139696D02*
G01*
X13122341Y-9146447D01*
X13137011Y-9156249D01*
X13149486Y-9168725D01*
X13159288Y-9183395D01*
X13166040Y-9199695D01*
X13169482Y-9216999D01*
X13169482Y-9234642D01*
X13166040Y-9251946D01*
X13159288Y-9268246D01*
X13149486Y-9282916D01*
X13137011Y-9295391D01*
X13122341Y-9305193D01*
X13106041Y-9311945D01*
X13088737Y-9315387D01*
X13071094Y-9315387D01*
X13053790Y-9311945D01*
X13037489Y-9305193D01*
X13022820Y-9295391D01*
X13010344Y-9282916D01*
X13000542Y-9268246D01*
X12993791Y-9251946D01*
X12990349Y-9234642D01*
X12990349Y-9216999D01*
X12993791Y-9199695D01*
X13000542Y-9183395D01*
X13010344Y-9168725D01*
X13022820Y-9156249D01*
X13037489Y-9146447D01*
X13053790Y-9139696D01*
X13071094Y-9136254D01*
X13088737Y-9136254D01*
X13106041Y-9139696D01*
G37*
G36*
X8559541Y-9126696D02*
G01*
X8575841Y-9133447D01*
X8590511Y-9143249D01*
X8602986Y-9155725D01*
X8612788Y-9170395D01*
X8619540Y-9186695D01*
X8622982Y-9203999D01*
X8622982Y-9221642D01*
X8619540Y-9238946D01*
X8612788Y-9255246D01*
X8602986Y-9269916D01*
X8590511Y-9282391D01*
X8575841Y-9292193D01*
X8559541Y-9298945D01*
X8542237Y-9302387D01*
X8524594Y-9302387D01*
X8507290Y-9298945D01*
X8490990Y-9292193D01*
X8476320Y-9282391D01*
X8463844Y-9269916D01*
X8454042Y-9255246D01*
X8447291Y-9238946D01*
X8443849Y-9221642D01*
X8443849Y-9203999D01*
X8447291Y-9186695D01*
X8454042Y-9170395D01*
X8463844Y-9155725D01*
X8476320Y-9143249D01*
X8490990Y-9133447D01*
X8507290Y-9126696D01*
X8524594Y-9123254D01*
X8542237Y-9123254D01*
X8559541Y-9126696D01*
G37*
G36*
X10083541Y-9126696D02*
G01*
X10099841Y-9133447D01*
X10114511Y-9143249D01*
X10126986Y-9155725D01*
X10136788Y-9170395D01*
X10143540Y-9186695D01*
X10146982Y-9203999D01*
X10146982Y-9221642D01*
X10143540Y-9238946D01*
X10136788Y-9255246D01*
X10126986Y-9269916D01*
X10114511Y-9282391D01*
X10099841Y-9292193D01*
X10083541Y-9298945D01*
X10066237Y-9302387D01*
X10048594Y-9302387D01*
X10031290Y-9298945D01*
X10014990Y-9292193D01*
X10000320Y-9282391D01*
X9987844Y-9269916D01*
X9978042Y-9255246D01*
X9971291Y-9238946D01*
X9967849Y-9221642D01*
X9967849Y-9203999D01*
X9971291Y-9186695D01*
X9978042Y-9170395D01*
X9987844Y-9155725D01*
X10000320Y-9143249D01*
X10014990Y-9133447D01*
X10031290Y-9126696D01*
X10048594Y-9123254D01*
X10066237Y-9123254D01*
X10083541Y-9126696D01*
G37*
G36*
X10790992Y-8881911D02*
G01*
X10808198Y-8889038D01*
X10823683Y-8899384D01*
X10836851Y-8912553D01*
X10847198Y-8928038D01*
X10854325Y-8945243D01*
X10857958Y-8963509D01*
X10857958Y-8982132D01*
X10854325Y-9000397D01*
X10847198Y-9017603D01*
X10836851Y-9033088D01*
X10823683Y-9046256D01*
X10808198Y-9056603D01*
X10790992Y-9063730D01*
X10772727Y-9067363D01*
X10754104Y-9067363D01*
X10735838Y-9063730D01*
X10718633Y-9056603D01*
X10703148Y-9046256D01*
X10689979Y-9033088D01*
X10679633Y-9017603D01*
X10672506Y-9000397D01*
X10668873Y-8982132D01*
X10668873Y-8963509D01*
X10672506Y-8945243D01*
X10679633Y-8928038D01*
X10689979Y-8912553D01*
X10703148Y-8899384D01*
X10718633Y-8889038D01*
X10735838Y-8881911D01*
X10754104Y-8878278D01*
X10772727Y-8878278D01*
X10790992Y-8881911D01*
G37*
G36*
X12382902Y-8883275D02*
G01*
X12383474Y-8883555D01*
X12383711Y-8883593D01*
X12387514Y-8885530D01*
X12393253Y-8888336D01*
X12401400Y-8896483D01*
X12404206Y-8902222D01*
X12406143Y-8906024D01*
X12406180Y-8906261D01*
X12406460Y-8906834D01*
X12407915Y-8916820D01*
X12407915Y-9026820D01*
X12406460Y-9036807D01*
X12406180Y-9037379D01*
X12406143Y-9037617D01*
X12404208Y-9041414D01*
X12401400Y-9047158D01*
X12393253Y-9055305D01*
X12387511Y-9058112D01*
X12383712Y-9060048D01*
X12383474Y-9060085D01*
X12382902Y-9060365D01*
X12372915Y-9061820D01*
X12262915Y-9061820D01*
X12252928Y-9060365D01*
X12252356Y-9060086D01*
X12252119Y-9060048D01*
X12248319Y-9058112D01*
X12242577Y-9055305D01*
X12234430Y-9047158D01*
X12231626Y-9041421D01*
X12229687Y-9037617D01*
X12229650Y-9037379D01*
X12229370Y-9036807D01*
X12227915Y-9026820D01*
X12227915Y-8916820D01*
X12229370Y-8906834D01*
X12229650Y-8906262D01*
X12229687Y-8906024D01*
X12231626Y-8902219D01*
X12234430Y-8896483D01*
X12242577Y-8888336D01*
X12248312Y-8885532D01*
X12252119Y-8883593D01*
X12252356Y-8883555D01*
X12252928Y-8883275D01*
X12262915Y-8881820D01*
X12372915Y-8881820D01*
X12382902Y-8883275D01*
G37*
G36*
X13106041Y-8885696D02*
G01*
X13122341Y-8892447D01*
X13137011Y-8902249D01*
X13149486Y-8914725D01*
X13159288Y-8929395D01*
X13166040Y-8945695D01*
X13169482Y-8962999D01*
X13169482Y-8980642D01*
X13166040Y-8997946D01*
X13159288Y-9014246D01*
X13149486Y-9028916D01*
X13137011Y-9041391D01*
X13122341Y-9051193D01*
X13106041Y-9057945D01*
X13088737Y-9061387D01*
X13071094Y-9061387D01*
X13053790Y-9057945D01*
X13037489Y-9051193D01*
X13022820Y-9041391D01*
X13010344Y-9028916D01*
X13000542Y-9014246D01*
X12993791Y-8997946D01*
X12990349Y-8980642D01*
X12990349Y-8962999D01*
X12993791Y-8945695D01*
X13000542Y-8929395D01*
X13010344Y-8914725D01*
X13022820Y-8902249D01*
X13037489Y-8892447D01*
X13053790Y-8885696D01*
X13071094Y-8882254D01*
X13088737Y-8882254D01*
X13106041Y-8885696D01*
G37*
G36*
X8559541Y-8872696D02*
G01*
X8575841Y-8879447D01*
X8590511Y-8889249D01*
X8602986Y-8901725D01*
X8612788Y-8916395D01*
X8619540Y-8932695D01*
X8622982Y-8949999D01*
X8622982Y-8967642D01*
X8619540Y-8984946D01*
X8612788Y-9001246D01*
X8602986Y-9015916D01*
X8590511Y-9028391D01*
X8575841Y-9038193D01*
X8559541Y-9044945D01*
X8542237Y-9048387D01*
X8524594Y-9048387D01*
X8507290Y-9044945D01*
X8490990Y-9038193D01*
X8476320Y-9028391D01*
X8463844Y-9015916D01*
X8454042Y-9001246D01*
X8447291Y-8984946D01*
X8443849Y-8967642D01*
X8443849Y-8949999D01*
X8447291Y-8932695D01*
X8454042Y-8916395D01*
X8463844Y-8901725D01*
X8476320Y-8889249D01*
X8490990Y-8879447D01*
X8507290Y-8872696D01*
X8524594Y-8869254D01*
X8542237Y-8869254D01*
X8559541Y-8872696D01*
G37*
G36*
X10083541Y-8872696D02*
G01*
X10099841Y-8879447D01*
X10114511Y-8889249D01*
X10126986Y-8901725D01*
X10136788Y-8916395D01*
X10143540Y-8932695D01*
X10146982Y-8949999D01*
X10146982Y-8967642D01*
X10143540Y-8984946D01*
X10136788Y-9001246D01*
X10126986Y-9015916D01*
X10114511Y-9028391D01*
X10099841Y-9038193D01*
X10083541Y-9044945D01*
X10066237Y-9048387D01*
X10048594Y-9048387D01*
X10031290Y-9044945D01*
X10014990Y-9038193D01*
X10000320Y-9028391D01*
X9987844Y-9015916D01*
X9978042Y-9001246D01*
X9971291Y-8984946D01*
X9967849Y-8967642D01*
X9967849Y-8949999D01*
X9971291Y-8932695D01*
X9978042Y-8916395D01*
X9987844Y-8901725D01*
X10000320Y-8889249D01*
X10014990Y-8879447D01*
X10031290Y-8872696D01*
X10048594Y-8869254D01*
X10066237Y-8869254D01*
X10083541Y-8872696D01*
G37*
G36*
X7859742Y-8732582D02*
G01*
X7862986Y-8734749D01*
X7865154Y-8737994D01*
X7865915Y-8741820D01*
X7865915Y-8911820D01*
X7865154Y-8915647D01*
X7862986Y-8918891D01*
X7859742Y-8921059D01*
X7855915Y-8921820D01*
X7685915Y-8921820D01*
X7682088Y-8921059D01*
X7678844Y-8918891D01*
X7676676Y-8915647D01*
X7675915Y-8911820D01*
X7675915Y-8741820D01*
X7676676Y-8737994D01*
X7678844Y-8734749D01*
X7682088Y-8732582D01*
X7685915Y-8731820D01*
X7855915Y-8731820D01*
X7859742Y-8732582D01*
G37*
G36*
X7544492Y-8735911D02*
G01*
X7561698Y-8743038D01*
X7577183Y-8753384D01*
X7590351Y-8766553D01*
X7600698Y-8782038D01*
X7607824Y-8799243D01*
X7611458Y-8817509D01*
X7611458Y-8836132D01*
X7607824Y-8854397D01*
X7600698Y-8871603D01*
X7590351Y-8887088D01*
X7577183Y-8900256D01*
X7561698Y-8910603D01*
X7544492Y-8917730D01*
X7526227Y-8921363D01*
X7507604Y-8921363D01*
X7489338Y-8917730D01*
X7472132Y-8910603D01*
X7456648Y-8900256D01*
X7443479Y-8887088D01*
X7433133Y-8871603D01*
X7426006Y-8854397D01*
X7422373Y-8836132D01*
X7422373Y-8817509D01*
X7426006Y-8799243D01*
X7433133Y-8782038D01*
X7443479Y-8766553D01*
X7456648Y-8753384D01*
X7472132Y-8743038D01*
X7489338Y-8735911D01*
X7507604Y-8732278D01*
X7526227Y-8732278D01*
X7544492Y-8735911D01*
G37*
G36*
X10790992Y-8627911D02*
G01*
X10808198Y-8635038D01*
X10823683Y-8645384D01*
X10836851Y-8658553D01*
X10847198Y-8674038D01*
X10854325Y-8691243D01*
X10857958Y-8709509D01*
X10857958Y-8728132D01*
X10854325Y-8746397D01*
X10847198Y-8763603D01*
X10836851Y-8779088D01*
X10823683Y-8792256D01*
X10808198Y-8802603D01*
X10790992Y-8809730D01*
X10772727Y-8813363D01*
X10754104Y-8813363D01*
X10735838Y-8809730D01*
X10718633Y-8802603D01*
X10703148Y-8792256D01*
X10689979Y-8779088D01*
X10679633Y-8763603D01*
X10672506Y-8746397D01*
X10668873Y-8728132D01*
X10668873Y-8709509D01*
X10672506Y-8691243D01*
X10679633Y-8674038D01*
X10689979Y-8658553D01*
X10703148Y-8645384D01*
X10718633Y-8635038D01*
X10735838Y-8627911D01*
X10754104Y-8624278D01*
X10772727Y-8624278D01*
X10790992Y-8627911D01*
G37*
G36*
X8559541Y-8618696D02*
G01*
X8575841Y-8625447D01*
X8590511Y-8635249D01*
X8602986Y-8647725D01*
X8612788Y-8662395D01*
X8619540Y-8678695D01*
X8622982Y-8695999D01*
X8622982Y-8713642D01*
X8619540Y-8730946D01*
X8612788Y-8747246D01*
X8602986Y-8761916D01*
X8590511Y-8774391D01*
X8575841Y-8784193D01*
X8559541Y-8790945D01*
X8542237Y-8794387D01*
X8524594Y-8794387D01*
X8507290Y-8790945D01*
X8490990Y-8784193D01*
X8476320Y-8774391D01*
X8463844Y-8761916D01*
X8454042Y-8747246D01*
X8447291Y-8730946D01*
X8443849Y-8713642D01*
X8443849Y-8695999D01*
X8447291Y-8678695D01*
X8454042Y-8662395D01*
X8463844Y-8647725D01*
X8476320Y-8635249D01*
X8490990Y-8625447D01*
X8507290Y-8618696D01*
X8524594Y-8615254D01*
X8542237Y-8615254D01*
X8559541Y-8618696D01*
G37*
G36*
X10083541Y-8618696D02*
G01*
X10099841Y-8625447D01*
X10114511Y-8635249D01*
X10126986Y-8647725D01*
X10136788Y-8662395D01*
X10143540Y-8678695D01*
X10146982Y-8695999D01*
X10146982Y-8713642D01*
X10143540Y-8730946D01*
X10136788Y-8747246D01*
X10126986Y-8761916D01*
X10114511Y-8774391D01*
X10099841Y-8784193D01*
X10083541Y-8790945D01*
X10066237Y-8794387D01*
X10048594Y-8794387D01*
X10031290Y-8790945D01*
X10014990Y-8784193D01*
X10000320Y-8774391D01*
X9987844Y-8761916D01*
X9978042Y-8747246D01*
X9971291Y-8730946D01*
X9967849Y-8713642D01*
X9967849Y-8695999D01*
X9971291Y-8678695D01*
X9978042Y-8662395D01*
X9987844Y-8647725D01*
X10000320Y-8635249D01*
X10014990Y-8625447D01*
X10031290Y-8618696D01*
X10048594Y-8615254D01*
X10066237Y-8615254D01*
X10083541Y-8618696D01*
G37*
G36*
X10790992Y-8373911D02*
G01*
X10808198Y-8381038D01*
X10823683Y-8391384D01*
X10836851Y-8404553D01*
X10847198Y-8420038D01*
X10854325Y-8437243D01*
X10857958Y-8455509D01*
X10857958Y-8474132D01*
X10854325Y-8492397D01*
X10847198Y-8509603D01*
X10836851Y-8525088D01*
X10823683Y-8538256D01*
X10808198Y-8548603D01*
X10790992Y-8555730D01*
X10772727Y-8559363D01*
X10754104Y-8559363D01*
X10735838Y-8555730D01*
X10718633Y-8548603D01*
X10703148Y-8538256D01*
X10689979Y-8525088D01*
X10679633Y-8509603D01*
X10672506Y-8492397D01*
X10668873Y-8474132D01*
X10668873Y-8455509D01*
X10672506Y-8437243D01*
X10679633Y-8420038D01*
X10689979Y-8404553D01*
X10703148Y-8391384D01*
X10718633Y-8381038D01*
X10735838Y-8373911D01*
X10754104Y-8370278D01*
X10772727Y-8370278D01*
X10790992Y-8373911D01*
G37*
G36*
X8559541Y-8364696D02*
G01*
X8575841Y-8371447D01*
X8590511Y-8381249D01*
X8602986Y-8393725D01*
X8612788Y-8408395D01*
X8619540Y-8424695D01*
X8622982Y-8441999D01*
X8622982Y-8459642D01*
X8619540Y-8476946D01*
X8612788Y-8493246D01*
X8602986Y-8507916D01*
X8590511Y-8520391D01*
X8575841Y-8530193D01*
X8559541Y-8536945D01*
X8542237Y-8540387D01*
X8524594Y-8540387D01*
X8507290Y-8536945D01*
X8490990Y-8530193D01*
X8476320Y-8520391D01*
X8463844Y-8507916D01*
X8454042Y-8493246D01*
X8447291Y-8476946D01*
X8443849Y-8459642D01*
X8443849Y-8441999D01*
X8447291Y-8424695D01*
X8454042Y-8408395D01*
X8463844Y-8393725D01*
X8476320Y-8381249D01*
X8490990Y-8371447D01*
X8507290Y-8364696D01*
X8524594Y-8361254D01*
X8542237Y-8361254D01*
X8559541Y-8364696D01*
G37*
G36*
X10083541Y-8364696D02*
G01*
X10099841Y-8371447D01*
X10114511Y-8381249D01*
X10126986Y-8393725D01*
X10136788Y-8408395D01*
X10143540Y-8424695D01*
X10146982Y-8441999D01*
X10146982Y-8459642D01*
X10143540Y-8476946D01*
X10136788Y-8493246D01*
X10126986Y-8507916D01*
X10114511Y-8520391D01*
X10099841Y-8530193D01*
X10083541Y-8536945D01*
X10066237Y-8540387D01*
X10048594Y-8540387D01*
X10031290Y-8536945D01*
X10014990Y-8530193D01*
X10000320Y-8520391D01*
X9987844Y-8507916D01*
X9978042Y-8493246D01*
X9971291Y-8476946D01*
X9967849Y-8459642D01*
X9967849Y-8441999D01*
X9971291Y-8424695D01*
X9978042Y-8408395D01*
X9987844Y-8393725D01*
X10000320Y-8381249D01*
X10014990Y-8371447D01*
X10031290Y-8364696D01*
X10048594Y-8361254D01*
X10066237Y-8361254D01*
X10083541Y-8364696D01*
G37*
G36*
X7859742Y-8292581D02*
G01*
X7862986Y-8294749D01*
X7865154Y-8297993D01*
X7865915Y-8301820D01*
X7865915Y-8471820D01*
X7865154Y-8475647D01*
X7862986Y-8478891D01*
X7859742Y-8481059D01*
X7855915Y-8481820D01*
X7685915Y-8481820D01*
X7682088Y-8481059D01*
X7678844Y-8478891D01*
X7676676Y-8475647D01*
X7675915Y-8471820D01*
X7675915Y-8301820D01*
X7676676Y-8297993D01*
X7678844Y-8294749D01*
X7682088Y-8292581D01*
X7685915Y-8291820D01*
X7855915Y-8291820D01*
X7859742Y-8292581D01*
G37*
G36*
X7544492Y-8295911D02*
G01*
X7561698Y-8303038D01*
X7577183Y-8313384D01*
X7590351Y-8326553D01*
X7600698Y-8342038D01*
X7607824Y-8359243D01*
X7611458Y-8377509D01*
X7611458Y-8396132D01*
X7607824Y-8414397D01*
X7600698Y-8431603D01*
X7590351Y-8447088D01*
X7577183Y-8460256D01*
X7561698Y-8470603D01*
X7544492Y-8477730D01*
X7526227Y-8481363D01*
X7507604Y-8481363D01*
X7489338Y-8477730D01*
X7472132Y-8470603D01*
X7456648Y-8460256D01*
X7443479Y-8447088D01*
X7433133Y-8431603D01*
X7426006Y-8414397D01*
X7422373Y-8396132D01*
X7422373Y-8377509D01*
X7426006Y-8359243D01*
X7433133Y-8342038D01*
X7443479Y-8326553D01*
X7456648Y-8313384D01*
X7472132Y-8303038D01*
X7489338Y-8295911D01*
X7507604Y-8292278D01*
X7526227Y-8292278D01*
X7544492Y-8295911D01*
G37*
G36*
X8559541Y-8110696D02*
G01*
X8575841Y-8117447D01*
X8590511Y-8127249D01*
X8602986Y-8139725D01*
X8612788Y-8154395D01*
X8619540Y-8170695D01*
X8622982Y-8187999D01*
X8622982Y-8205642D01*
X8619540Y-8222946D01*
X8612788Y-8239246D01*
X8602986Y-8253916D01*
X8590511Y-8266391D01*
X8575841Y-8276193D01*
X8559541Y-8282945D01*
X8542237Y-8286387D01*
X8524594Y-8286387D01*
X8507290Y-8282945D01*
X8490990Y-8276193D01*
X8476320Y-8266391D01*
X8463844Y-8253916D01*
X8454042Y-8239246D01*
X8447291Y-8222946D01*
X8443849Y-8205642D01*
X8443849Y-8187999D01*
X8447291Y-8170695D01*
X8454042Y-8154395D01*
X8463844Y-8139725D01*
X8476320Y-8127249D01*
X8490990Y-8117447D01*
X8507290Y-8110696D01*
X8524594Y-8107254D01*
X8542237Y-8107254D01*
X8559541Y-8110696D01*
G37*
G36*
X10083541Y-8110696D02*
G01*
X10099841Y-8117447D01*
X10114511Y-8127249D01*
X10126986Y-8139725D01*
X10136788Y-8154395D01*
X10143540Y-8170695D01*
X10146982Y-8187999D01*
X10146982Y-8205642D01*
X10143540Y-8222946D01*
X10136788Y-8239246D01*
X10126986Y-8253916D01*
X10114511Y-8266391D01*
X10099841Y-8276193D01*
X10083541Y-8282945D01*
X10066237Y-8286387D01*
X10048594Y-8286387D01*
X10031290Y-8282945D01*
X10014990Y-8276193D01*
X10000320Y-8266391D01*
X9987844Y-8253916D01*
X9978042Y-8239246D01*
X9971291Y-8222946D01*
X9967849Y-8205642D01*
X9967849Y-8187999D01*
X9971291Y-8170695D01*
X9978042Y-8154395D01*
X9987844Y-8139725D01*
X10000320Y-8127249D01*
X10014990Y-8117447D01*
X10031290Y-8110696D01*
X10048594Y-8107254D01*
X10066237Y-8107254D01*
X10083541Y-8110696D01*
G37*
G36*
X7859742Y-7872581D02*
G01*
X7862986Y-7874749D01*
X7865154Y-7877993D01*
X7865915Y-7881820D01*
X7865915Y-8051820D01*
X7865154Y-8055647D01*
X7862986Y-8058891D01*
X7859742Y-8061059D01*
X7855915Y-8061820D01*
X7685915Y-8061820D01*
X7682088Y-8061059D01*
X7678844Y-8058891D01*
X7676676Y-8055647D01*
X7675915Y-8051820D01*
X7675915Y-7881820D01*
X7676676Y-7877993D01*
X7678844Y-7874749D01*
X7682088Y-7872581D01*
X7685915Y-7871820D01*
X7855915Y-7871820D01*
X7859742Y-7872581D01*
G37*
G36*
X7544492Y-7875911D02*
G01*
X7561698Y-7883038D01*
X7577183Y-7893384D01*
X7590351Y-7906553D01*
X7600698Y-7922038D01*
X7607824Y-7939243D01*
X7611458Y-7957509D01*
X7611458Y-7976132D01*
X7607824Y-7994397D01*
X7600698Y-8011603D01*
X7590351Y-8027088D01*
X7577183Y-8040256D01*
X7561698Y-8050603D01*
X7544492Y-8057730D01*
X7526227Y-8061363D01*
X7507604Y-8061363D01*
X7489338Y-8057730D01*
X7472132Y-8050603D01*
X7456648Y-8040256D01*
X7443479Y-8027088D01*
X7433133Y-8011603D01*
X7426006Y-7994397D01*
X7422373Y-7976132D01*
X7422373Y-7957509D01*
X7426006Y-7939243D01*
X7433133Y-7922038D01*
X7443479Y-7906553D01*
X7456648Y-7893384D01*
X7472132Y-7883038D01*
X7489338Y-7875911D01*
X7507604Y-7872278D01*
X7526227Y-7872278D01*
X7544492Y-7875911D01*
G37*
G36*
X8559541Y-7856696D02*
G01*
X8575841Y-7863447D01*
X8590511Y-7873249D01*
X8602986Y-7885725D01*
X8612788Y-7900395D01*
X8619540Y-7916695D01*
X8622982Y-7933999D01*
X8622982Y-7951642D01*
X8619540Y-7968946D01*
X8612788Y-7985246D01*
X8602986Y-7999916D01*
X8590511Y-8012391D01*
X8575841Y-8022193D01*
X8559541Y-8028945D01*
X8542237Y-8032387D01*
X8524594Y-8032387D01*
X8507290Y-8028945D01*
X8490990Y-8022193D01*
X8476320Y-8012391D01*
X8463844Y-7999916D01*
X8454042Y-7985246D01*
X8447291Y-7968946D01*
X8443849Y-7951642D01*
X8443849Y-7933999D01*
X8447291Y-7916695D01*
X8454042Y-7900395D01*
X8463844Y-7885725D01*
X8476320Y-7873249D01*
X8490990Y-7863447D01*
X8507290Y-7856696D01*
X8524594Y-7853254D01*
X8542237Y-7853254D01*
X8559541Y-7856696D01*
G37*
G36*
X10083541Y-7856696D02*
G01*
X10099841Y-7863447D01*
X10114511Y-7873249D01*
X10126986Y-7885725D01*
X10136788Y-7900395D01*
X10143540Y-7916695D01*
X10146982Y-7933999D01*
X10146982Y-7951642D01*
X10143540Y-7968946D01*
X10136788Y-7985246D01*
X10126986Y-7999916D01*
X10114511Y-8012391D01*
X10099841Y-8022193D01*
X10083541Y-8028945D01*
X10066237Y-8032387D01*
X10048594Y-8032387D01*
X10031290Y-8028945D01*
X10014990Y-8022193D01*
X10000320Y-8012391D01*
X9987844Y-7999916D01*
X9978042Y-7985246D01*
X9971291Y-7968946D01*
X9967849Y-7951642D01*
X9967849Y-7933999D01*
X9971291Y-7916695D01*
X9978042Y-7900395D01*
X9987844Y-7885725D01*
X10000320Y-7873249D01*
X10014990Y-7863447D01*
X10031290Y-7856696D01*
X10048594Y-7853254D01*
X10066237Y-7853254D01*
X10083541Y-7856696D01*
G37*
G36*
X8559541Y-7602696D02*
G01*
X8575841Y-7609447D01*
X8590511Y-7619249D01*
X8602986Y-7631725D01*
X8612788Y-7646395D01*
X8619540Y-7662695D01*
X8622982Y-7679999D01*
X8622982Y-7697642D01*
X8619540Y-7714946D01*
X8612788Y-7731246D01*
X8602986Y-7745916D01*
X8590511Y-7758391D01*
X8575841Y-7768193D01*
X8559541Y-7774945D01*
X8542237Y-7778387D01*
X8524594Y-7778387D01*
X8507290Y-7774945D01*
X8490990Y-7768193D01*
X8476320Y-7758391D01*
X8463844Y-7745916D01*
X8454042Y-7731246D01*
X8447291Y-7714946D01*
X8443849Y-7697642D01*
X8443849Y-7679999D01*
X8447291Y-7662695D01*
X8454042Y-7646395D01*
X8463844Y-7631725D01*
X8476320Y-7619249D01*
X8490990Y-7609447D01*
X8507290Y-7602696D01*
X8524594Y-7599254D01*
X8542237Y-7599254D01*
X8559541Y-7602696D01*
G37*
G36*
X10083541Y-7602696D02*
G01*
X10099841Y-7609447D01*
X10114511Y-7619249D01*
X10126986Y-7631725D01*
X10136788Y-7646395D01*
X10143540Y-7662695D01*
X10146982Y-7679999D01*
X10146982Y-7697642D01*
X10143540Y-7714946D01*
X10136788Y-7731246D01*
X10126986Y-7745916D01*
X10114511Y-7758391D01*
X10099841Y-7768193D01*
X10083541Y-7774945D01*
X10066237Y-7778387D01*
X10048594Y-7778387D01*
X10031290Y-7774945D01*
X10014990Y-7768193D01*
X10000320Y-7758391D01*
X9987844Y-7745916D01*
X9978042Y-7731246D01*
X9971291Y-7714946D01*
X9967849Y-7697642D01*
X9967849Y-7679999D01*
X9971291Y-7662695D01*
X9978042Y-7646395D01*
X9987844Y-7631725D01*
X10000320Y-7619249D01*
X10014990Y-7609447D01*
X10031290Y-7602696D01*
X10048594Y-7599254D01*
X10066237Y-7599254D01*
X10083541Y-7602696D01*
G37*
G36*
X14061242Y-6554081D02*
G01*
X14064486Y-6556249D01*
X14066654Y-6559493D01*
X14067415Y-6563320D01*
X14067415Y-7643320D01*
X14066654Y-7647147D01*
X14064486Y-7650391D01*
X14061242Y-7652559D01*
X14057415Y-7653320D01*
X13117415Y-7653320D01*
X13113588Y-7652559D01*
X13110344Y-7650391D01*
X13108176Y-7647147D01*
X13107415Y-7643320D01*
X13107415Y-6563320D01*
X13108176Y-6559493D01*
X13110344Y-6556249D01*
X13113588Y-6554081D01*
X13117415Y-6553320D01*
X14057415Y-6553320D01*
X14061242Y-6554081D01*
G37*
G36*
X7859742Y-7452581D02*
G01*
X7862986Y-7454749D01*
X7865154Y-7457993D01*
X7865915Y-7461820D01*
X7865915Y-7631820D01*
X7865154Y-7635647D01*
X7862986Y-7638891D01*
X7859742Y-7641059D01*
X7855915Y-7641820D01*
X7685915Y-7641820D01*
X7682088Y-7641059D01*
X7678844Y-7638891D01*
X7676676Y-7635647D01*
X7675915Y-7631820D01*
X7675915Y-7461820D01*
X7676676Y-7457993D01*
X7678844Y-7454749D01*
X7682088Y-7452581D01*
X7685915Y-7451820D01*
X7855915Y-7451820D01*
X7859742Y-7452581D01*
G37*
G36*
X7544492Y-7455911D02*
G01*
X7561698Y-7463038D01*
X7577183Y-7473384D01*
X7590351Y-7486553D01*
X7600698Y-7502038D01*
X7607824Y-7519243D01*
X7611458Y-7537509D01*
X7611458Y-7556132D01*
X7607824Y-7574397D01*
X7600698Y-7591603D01*
X7590351Y-7607088D01*
X7577183Y-7620256D01*
X7561698Y-7630603D01*
X7544492Y-7637730D01*
X7526227Y-7641363D01*
X7507604Y-7641363D01*
X7489338Y-7637730D01*
X7472132Y-7630603D01*
X7456648Y-7620256D01*
X7443479Y-7607088D01*
X7433133Y-7591603D01*
X7426006Y-7574397D01*
X7422373Y-7556132D01*
X7422373Y-7537509D01*
X7426006Y-7519243D01*
X7433133Y-7502038D01*
X7443479Y-7486553D01*
X7456648Y-7473384D01*
X7472132Y-7463038D01*
X7489338Y-7455911D01*
X7507604Y-7452278D01*
X7526227Y-7452278D01*
X7544492Y-7455911D01*
G37*
G36*
X8559541Y-7348696D02*
G01*
X8575841Y-7355447D01*
X8590511Y-7365249D01*
X8602986Y-7377725D01*
X8612788Y-7392395D01*
X8619540Y-7408695D01*
X8622982Y-7425999D01*
X8622982Y-7443642D01*
X8619540Y-7460946D01*
X8612788Y-7477246D01*
X8602986Y-7491916D01*
X8590511Y-7504391D01*
X8575841Y-7514193D01*
X8559541Y-7520945D01*
X8542237Y-7524387D01*
X8524594Y-7524387D01*
X8507290Y-7520945D01*
X8490990Y-7514193D01*
X8476320Y-7504391D01*
X8463844Y-7491916D01*
X8454042Y-7477246D01*
X8447291Y-7460946D01*
X8443849Y-7443642D01*
X8443849Y-7425999D01*
X8447291Y-7408695D01*
X8454042Y-7392395D01*
X8463844Y-7377725D01*
X8476320Y-7365249D01*
X8490990Y-7355447D01*
X8507290Y-7348696D01*
X8524594Y-7345254D01*
X8542237Y-7345254D01*
X8559541Y-7348696D01*
G37*
G36*
X10083541Y-7348696D02*
G01*
X10099841Y-7355447D01*
X10114511Y-7365249D01*
X10126986Y-7377725D01*
X10136788Y-7392395D01*
X10143540Y-7408695D01*
X10146982Y-7425999D01*
X10146982Y-7443642D01*
X10143540Y-7460946D01*
X10136788Y-7477246D01*
X10126986Y-7491916D01*
X10114511Y-7504391D01*
X10099841Y-7514193D01*
X10083541Y-7520945D01*
X10066237Y-7524387D01*
X10048594Y-7524387D01*
X10031290Y-7520945D01*
X10014990Y-7514193D01*
X10000320Y-7504391D01*
X9987844Y-7491916D01*
X9978042Y-7477246D01*
X9971291Y-7460946D01*
X9967849Y-7443642D01*
X9967849Y-7425999D01*
X9971291Y-7408695D01*
X9978042Y-7392395D01*
X9987844Y-7377725D01*
X10000320Y-7365249D01*
X10014990Y-7355447D01*
X10031290Y-7348696D01*
X10048594Y-7345254D01*
X10066237Y-7345254D01*
X10083541Y-7348696D01*
G37*
G36*
X15724902Y-7207275D02*
G01*
X15725474Y-7207555D01*
X15725711Y-7207592D01*
X15729514Y-7209530D01*
X15735253Y-7212336D01*
X15743400Y-7220483D01*
X15746206Y-7226222D01*
X15748143Y-7230024D01*
X15748180Y-7230261D01*
X15748460Y-7230833D01*
X15749915Y-7240820D01*
X15749915Y-7450820D01*
X15748460Y-7460807D01*
X15748180Y-7461379D01*
X15748143Y-7461616D01*
X15746208Y-7465414D01*
X15743400Y-7471158D01*
X15735253Y-7479305D01*
X15729511Y-7482112D01*
X15725712Y-7484048D01*
X15725474Y-7484085D01*
X15724902Y-7484365D01*
X15714915Y-7485820D01*
X15504915Y-7485820D01*
X15494928Y-7484365D01*
X15494356Y-7484085D01*
X15494119Y-7484048D01*
X15490319Y-7482112D01*
X15484577Y-7479305D01*
X15476430Y-7471158D01*
X15473626Y-7465421D01*
X15471687Y-7461617D01*
X15471650Y-7461379D01*
X15471370Y-7460807D01*
X15469915Y-7450820D01*
X15469915Y-7240820D01*
X15471370Y-7230833D01*
X15471650Y-7230262D01*
X15471687Y-7230024D01*
X15473626Y-7226219D01*
X15476430Y-7220483D01*
X15484577Y-7212336D01*
X15490312Y-7209532D01*
X15494119Y-7207593D01*
X15494356Y-7207555D01*
X15494928Y-7207275D01*
X15504915Y-7205820D01*
X15714915Y-7205820D01*
X15724902Y-7207275D01*
G37*
G36*
X14736242Y-7293081D02*
G01*
X14739486Y-7295249D01*
X14741654Y-7298493D01*
X14742415Y-7302320D01*
X14742415Y-7412320D01*
X14741654Y-7416147D01*
X14739486Y-7419391D01*
X14736242Y-7421559D01*
X14732415Y-7422320D01*
X14272415Y-7422320D01*
X14268588Y-7421559D01*
X14265344Y-7419391D01*
X14263176Y-7416147D01*
X14262415Y-7412320D01*
X14262415Y-7302320D01*
X14263176Y-7298493D01*
X14265344Y-7295249D01*
X14268588Y-7293081D01*
X14272415Y-7292320D01*
X14732415Y-7292320D01*
X14736242Y-7293081D01*
G37*
G36*
X12194902Y-7137275D02*
G01*
X12195474Y-7137555D01*
X12195711Y-7137592D01*
X12199514Y-7139530D01*
X12205253Y-7142336D01*
X12213400Y-7150483D01*
X12216206Y-7156222D01*
X12218143Y-7160024D01*
X12218180Y-7160261D01*
X12218460Y-7160833D01*
X12219915Y-7170820D01*
X12219915Y-7280820D01*
X12218460Y-7290807D01*
X12218180Y-7291379D01*
X12218143Y-7291616D01*
X12216208Y-7295414D01*
X12213400Y-7301158D01*
X12205253Y-7309305D01*
X12199511Y-7312112D01*
X12195712Y-7314048D01*
X12195474Y-7314085D01*
X12194902Y-7314365D01*
X12184915Y-7315820D01*
X12074915Y-7315820D01*
X12064928Y-7314365D01*
X12064356Y-7314085D01*
X12064119Y-7314048D01*
X12060319Y-7312112D01*
X12054577Y-7309305D01*
X12046430Y-7301158D01*
X12043626Y-7295421D01*
X12041687Y-7291617D01*
X12041650Y-7291379D01*
X12041370Y-7290807D01*
X12039915Y-7280820D01*
X12039915Y-7170820D01*
X12041370Y-7160833D01*
X12041650Y-7160262D01*
X12041687Y-7160024D01*
X12043626Y-7156219D01*
X12046430Y-7150483D01*
X12054577Y-7142336D01*
X12060312Y-7139532D01*
X12064119Y-7137593D01*
X12064356Y-7137555D01*
X12064928Y-7137275D01*
X12074915Y-7135820D01*
X12184915Y-7135820D01*
X12194902Y-7137275D01*
G37*
G36*
X11394041Y-7139696D02*
G01*
X11410341Y-7146447D01*
X11425011Y-7156249D01*
X11437486Y-7168725D01*
X11447288Y-7183395D01*
X11454040Y-7199695D01*
X11457482Y-7216999D01*
X11457482Y-7234642D01*
X11454040Y-7251946D01*
X11447288Y-7268246D01*
X11437486Y-7282916D01*
X11425011Y-7295391D01*
X11410341Y-7305193D01*
X11394041Y-7311945D01*
X11376737Y-7315387D01*
X11359094Y-7315387D01*
X11341790Y-7311945D01*
X11325489Y-7305193D01*
X11310820Y-7295391D01*
X11298344Y-7282916D01*
X11288542Y-7268246D01*
X11281791Y-7251946D01*
X11278349Y-7234642D01*
X11278349Y-7216999D01*
X11281791Y-7199695D01*
X11288542Y-7183395D01*
X11298344Y-7168725D01*
X11310820Y-7156249D01*
X11325489Y-7146447D01*
X11341790Y-7139696D01*
X11359094Y-7136254D01*
X11376737Y-7136254D01*
X11394041Y-7139696D01*
G37*
G36*
X8617242Y-7091581D02*
G01*
X8620486Y-7093749D01*
X8622654Y-7096993D01*
X8623415Y-7100820D01*
X8623415Y-7260820D01*
X8622654Y-7264647D01*
X8620486Y-7267891D01*
X8617242Y-7270059D01*
X8613415Y-7270820D01*
X8453415Y-7270820D01*
X8449588Y-7270059D01*
X8446344Y-7267891D01*
X8444176Y-7264647D01*
X8443415Y-7260820D01*
X8443415Y-7100820D01*
X8444176Y-7096993D01*
X8446344Y-7093749D01*
X8449588Y-7091581D01*
X8453415Y-7090820D01*
X8613415Y-7090820D01*
X8617242Y-7091581D01*
G37*
G36*
X10083541Y-7094696D02*
G01*
X10099841Y-7101447D01*
X10114511Y-7111249D01*
X10126986Y-7123725D01*
X10136788Y-7138395D01*
X10143540Y-7154695D01*
X10146982Y-7171999D01*
X10146982Y-7189642D01*
X10143540Y-7206946D01*
X10136788Y-7223246D01*
X10126986Y-7237916D01*
X10114511Y-7250391D01*
X10099841Y-7260193D01*
X10083541Y-7266945D01*
X10066237Y-7270387D01*
X10048594Y-7270387D01*
X10031290Y-7266945D01*
X10014990Y-7260193D01*
X10000320Y-7250391D01*
X9987844Y-7237916D01*
X9978042Y-7223246D01*
X9971291Y-7206946D01*
X9967849Y-7189642D01*
X9967849Y-7171999D01*
X9971291Y-7154695D01*
X9978042Y-7138395D01*
X9987844Y-7123725D01*
X10000320Y-7111249D01*
X10014990Y-7101447D01*
X10031290Y-7094696D01*
X10048594Y-7091254D01*
X10066237Y-7091254D01*
X10083541Y-7094696D01*
G37*
G36*
X14736242Y-7039081D02*
G01*
X14739486Y-7041249D01*
X14741654Y-7044493D01*
X14742415Y-7048320D01*
X14742415Y-7158320D01*
X14741654Y-7162147D01*
X14739486Y-7165391D01*
X14736242Y-7167559D01*
X14732415Y-7168320D01*
X14272415Y-7168320D01*
X14268588Y-7167559D01*
X14265344Y-7165391D01*
X14263176Y-7162147D01*
X14262415Y-7158320D01*
X14262415Y-7048320D01*
X14263176Y-7044493D01*
X14265344Y-7041249D01*
X14268588Y-7039081D01*
X14272415Y-7038320D01*
X14732415Y-7038320D01*
X14736242Y-7039081D01*
G37*
G36*
X11394041Y-6885696D02*
G01*
X11410341Y-6892447D01*
X11425011Y-6902249D01*
X11437486Y-6914725D01*
X11447288Y-6929395D01*
X11454040Y-6945695D01*
X11457482Y-6962999D01*
X11457482Y-6980642D01*
X11454040Y-6997946D01*
X11447288Y-7014246D01*
X11437486Y-7028916D01*
X11425011Y-7041391D01*
X11410341Y-7051193D01*
X11394041Y-7057945D01*
X11376737Y-7061387D01*
X11359094Y-7061387D01*
X11341790Y-7057945D01*
X11325489Y-7051193D01*
X11310820Y-7041391D01*
X11298344Y-7028916D01*
X11288542Y-7014246D01*
X11281791Y-6997946D01*
X11278349Y-6980642D01*
X11278349Y-6962999D01*
X11281791Y-6945695D01*
X11288542Y-6929395D01*
X11298344Y-6914725D01*
X11310820Y-6902249D01*
X11325489Y-6892447D01*
X11341790Y-6885696D01*
X11359094Y-6882254D01*
X11376737Y-6882254D01*
X11394041Y-6885696D01*
G37*
G36*
X12156041Y-6885696D02*
G01*
X12172341Y-6892447D01*
X12187011Y-6902249D01*
X12199486Y-6914725D01*
X12209288Y-6929395D01*
X12216040Y-6945695D01*
X12219482Y-6962999D01*
X12219482Y-6980642D01*
X12216040Y-6997946D01*
X12209288Y-7014246D01*
X12199486Y-7028916D01*
X12187011Y-7041391D01*
X12172341Y-7051193D01*
X12156041Y-7057945D01*
X12138737Y-7061387D01*
X12121094Y-7061387D01*
X12103790Y-7057945D01*
X12087489Y-7051193D01*
X12072820Y-7041391D01*
X12060344Y-7028916D01*
X12050542Y-7014246D01*
X12043791Y-6997946D01*
X12040349Y-6980642D01*
X12040349Y-6962999D01*
X12043791Y-6945695D01*
X12050542Y-6929395D01*
X12060344Y-6914725D01*
X12072820Y-6902249D01*
X12087489Y-6892447D01*
X12103790Y-6885696D01*
X12121094Y-6882254D01*
X12138737Y-6882254D01*
X12156041Y-6885696D01*
G37*
G36*
X15642598Y-6701688D02*
G01*
X15663491Y-6708477D01*
X15683065Y-6718451D01*
X15700838Y-6731363D01*
X15716372Y-6746898D01*
X15729285Y-6764670D01*
X15739258Y-6784245D01*
X15746047Y-6805138D01*
X15749484Y-6826836D01*
X15749484Y-6848805D01*
X15746047Y-6870503D01*
X15739258Y-6891396D01*
X15729285Y-6910970D01*
X15716372Y-6928743D01*
X15700838Y-6944277D01*
X15683065Y-6957190D01*
X15663491Y-6967163D01*
X15642598Y-6973952D01*
X15620899Y-6977389D01*
X15598931Y-6977389D01*
X15577233Y-6973952D01*
X15556339Y-6967163D01*
X15536765Y-6957190D01*
X15518992Y-6944277D01*
X15503458Y-6928743D01*
X15490546Y-6910970D01*
X15480572Y-6891396D01*
X15473783Y-6870503D01*
X15470347Y-6848805D01*
X15470347Y-6826836D01*
X15473783Y-6805138D01*
X15480572Y-6784245D01*
X15490546Y-6764670D01*
X15503458Y-6746898D01*
X15518992Y-6731363D01*
X15536765Y-6718451D01*
X15556339Y-6708477D01*
X15577233Y-6701688D01*
X15598931Y-6698252D01*
X15620899Y-6698252D01*
X15642598Y-6701688D01*
G37*
G36*
X14736242Y-6785081D02*
G01*
X14739486Y-6787249D01*
X14741654Y-6790493D01*
X14742415Y-6794320D01*
X14742415Y-6904320D01*
X14741654Y-6908147D01*
X14739486Y-6911391D01*
X14736242Y-6913559D01*
X14732415Y-6914320D01*
X14272415Y-6914320D01*
X14268588Y-6913559D01*
X14265344Y-6911391D01*
X14263176Y-6908147D01*
X14262415Y-6904320D01*
X14262415Y-6794320D01*
X14263176Y-6790493D01*
X14265344Y-6787249D01*
X14268588Y-6785081D01*
X14272415Y-6784320D01*
X14732415Y-6784320D01*
X14736242Y-6785081D01*
G37*
G36*
X11394041Y-6631696D02*
G01*
X11410341Y-6638447D01*
X11425011Y-6648249D01*
X11437486Y-6660725D01*
X11447288Y-6675395D01*
X11454040Y-6691695D01*
X11457482Y-6708999D01*
X11457482Y-6726642D01*
X11454040Y-6743946D01*
X11447288Y-6760246D01*
X11437486Y-6774916D01*
X11425011Y-6787391D01*
X11410341Y-6797193D01*
X11394041Y-6803945D01*
X11376737Y-6807387D01*
X11359094Y-6807387D01*
X11341790Y-6803945D01*
X11325489Y-6797193D01*
X11310820Y-6787391D01*
X11298344Y-6774916D01*
X11288542Y-6760246D01*
X11281791Y-6743946D01*
X11278349Y-6726642D01*
X11278349Y-6708999D01*
X11281791Y-6691695D01*
X11288542Y-6675395D01*
X11298344Y-6660725D01*
X11310820Y-6648249D01*
X11325489Y-6638447D01*
X11341790Y-6631696D01*
X11359094Y-6628254D01*
X11376737Y-6628254D01*
X11394041Y-6631696D01*
G37*
G36*
X12156041Y-6631696D02*
G01*
X12172341Y-6638447D01*
X12187011Y-6648249D01*
X12199486Y-6660725D01*
X12209288Y-6675395D01*
X12216040Y-6691695D01*
X12219482Y-6708999D01*
X12219482Y-6726642D01*
X12216040Y-6743946D01*
X12209288Y-6760246D01*
X12199486Y-6774916D01*
X12187011Y-6787391D01*
X12172341Y-6797193D01*
X12156041Y-6803945D01*
X12138737Y-6807387D01*
X12121094Y-6807387D01*
X12103790Y-6803945D01*
X12087489Y-6797193D01*
X12072820Y-6787391D01*
X12060344Y-6774916D01*
X12050542Y-6760246D01*
X12043791Y-6743946D01*
X12040349Y-6726642D01*
X12040349Y-6708999D01*
X12043791Y-6691695D01*
X12050542Y-6675395D01*
X12060344Y-6660725D01*
X12072820Y-6648249D01*
X12087489Y-6638447D01*
X12103790Y-6631696D01*
X12121094Y-6628254D01*
X12138737Y-6628254D01*
X12156041Y-6631696D01*
G37*
G36*
X7007492Y-6596911D02*
G01*
X7024698Y-6604038D01*
X7040183Y-6614384D01*
X7053351Y-6627553D01*
X7063698Y-6643038D01*
X7070824Y-6660243D01*
X7074458Y-6678509D01*
X7074458Y-6697132D01*
X7070824Y-6715397D01*
X7063698Y-6732603D01*
X7053351Y-6748088D01*
X7040183Y-6761256D01*
X7024698Y-6771603D01*
X7007492Y-6778730D01*
X6989227Y-6782363D01*
X6970604Y-6782363D01*
X6952338Y-6778730D01*
X6935132Y-6771603D01*
X6919648Y-6761256D01*
X6906479Y-6748088D01*
X6896133Y-6732603D01*
X6889006Y-6715397D01*
X6885373Y-6697132D01*
X6885373Y-6678509D01*
X6889006Y-6660243D01*
X6896133Y-6643038D01*
X6906479Y-6627553D01*
X6919648Y-6614384D01*
X6935132Y-6604038D01*
X6952338Y-6596911D01*
X6970604Y-6593278D01*
X6989227Y-6593278D01*
X7007492Y-6596911D01*
G37*
G36*
X11394041Y-6377696D02*
G01*
X11410341Y-6384447D01*
X11425011Y-6394249D01*
X11437486Y-6406725D01*
X11447288Y-6421395D01*
X11454040Y-6437695D01*
X11457482Y-6454999D01*
X11457482Y-6472642D01*
X11454040Y-6489946D01*
X11447288Y-6506246D01*
X11437486Y-6520916D01*
X11425011Y-6533391D01*
X11410341Y-6543193D01*
X11394041Y-6549945D01*
X11376737Y-6553387D01*
X11359094Y-6553387D01*
X11341790Y-6549945D01*
X11325489Y-6543193D01*
X11310820Y-6533391D01*
X11298344Y-6520916D01*
X11288542Y-6506246D01*
X11281791Y-6489946D01*
X11278349Y-6472642D01*
X11278349Y-6454999D01*
X11281791Y-6437695D01*
X11288542Y-6421395D01*
X11298344Y-6406725D01*
X11310820Y-6394249D01*
X11325489Y-6384447D01*
X11341790Y-6377696D01*
X11359094Y-6374254D01*
X11376737Y-6374254D01*
X11394041Y-6377696D01*
G37*
G36*
X12156041Y-6377696D02*
G01*
X12172341Y-6384447D01*
X12187011Y-6394249D01*
X12199486Y-6406725D01*
X12209288Y-6421395D01*
X12216040Y-6437695D01*
X12219482Y-6454999D01*
X12219482Y-6472642D01*
X12216040Y-6489946D01*
X12209288Y-6506246D01*
X12199486Y-6520916D01*
X12187011Y-6533391D01*
X12172341Y-6543193D01*
X12156041Y-6549945D01*
X12138737Y-6553387D01*
X12121094Y-6553387D01*
X12103790Y-6549945D01*
X12087489Y-6543193D01*
X12072820Y-6533391D01*
X12060344Y-6520916D01*
X12050542Y-6506246D01*
X12043791Y-6489946D01*
X12040349Y-6472642D01*
X12040349Y-6454999D01*
X12043791Y-6437695D01*
X12050542Y-6421395D01*
X12060344Y-6406725D01*
X12072820Y-6394249D01*
X12087489Y-6384447D01*
X12103790Y-6377696D01*
X12121094Y-6374254D01*
X12138737Y-6374254D01*
X12156041Y-6377696D01*
G37*
G36*
X7007492Y-6342911D02*
G01*
X7024698Y-6350038D01*
X7040183Y-6360384D01*
X7053351Y-6373553D01*
X7063698Y-6389038D01*
X7070824Y-6406243D01*
X7074458Y-6424509D01*
X7074458Y-6443132D01*
X7070824Y-6461397D01*
X7063698Y-6478603D01*
X7053351Y-6494088D01*
X7040183Y-6507256D01*
X7024698Y-6517603D01*
X7007492Y-6524730D01*
X6989227Y-6528363D01*
X6970604Y-6528363D01*
X6952338Y-6524730D01*
X6935132Y-6517603D01*
X6919648Y-6507256D01*
X6906479Y-6494088D01*
X6896133Y-6478603D01*
X6889006Y-6461397D01*
X6885373Y-6443132D01*
X6885373Y-6424509D01*
X6889006Y-6406243D01*
X6896133Y-6389038D01*
X6906479Y-6373553D01*
X6919648Y-6360384D01*
X6935132Y-6350038D01*
X6952338Y-6342911D01*
X6970604Y-6339278D01*
X6989227Y-6339278D01*
X7007492Y-6342911D01*
G37*
G36*
X8274992Y-6211581D02*
G01*
X8278236Y-6213749D01*
X8280404Y-6216993D01*
X8281165Y-6220820D01*
X8281165Y-6420820D01*
X8280404Y-6424647D01*
X8278236Y-6427891D01*
X8274992Y-6430059D01*
X8271165Y-6430820D01*
X8080665Y-6430820D01*
X8076838Y-6430059D01*
X8073594Y-6427891D01*
X8071426Y-6424647D01*
X8070665Y-6420820D01*
X8070665Y-6220820D01*
X8071426Y-6216993D01*
X8073594Y-6213749D01*
X8076838Y-6211581D01*
X8080665Y-6210820D01*
X8271165Y-6210820D01*
X8274992Y-6211581D01*
G37*
G36*
X8439226Y-6211327D02*
G01*
X8440232Y-6211327D01*
X8444161Y-6212109D01*
X8454481Y-6213743D01*
X8457801Y-6214822D01*
X8460468Y-6215352D01*
X8464231Y-6216911D01*
X8470187Y-6218846D01*
X8475767Y-6221690D01*
X8479530Y-6223248D01*
X8481790Y-6224758D01*
X8484900Y-6226343D01*
X8493353Y-6232484D01*
X8496685Y-6234711D01*
X8497396Y-6235422D01*
X8498259Y-6236049D01*
X8509936Y-6247726D01*
X8510563Y-6248589D01*
X8511275Y-6249300D01*
X8513501Y-6252633D01*
X8519643Y-6261086D01*
X8521227Y-6264195D01*
X8522737Y-6266456D01*
X8524296Y-6270218D01*
X8527139Y-6275798D01*
X8529074Y-6281754D01*
X8530633Y-6285518D01*
X8531164Y-6288185D01*
X8532242Y-6291504D01*
X8533877Y-6301823D01*
X8534658Y-6305754D01*
X8534730Y-6307212D01*
X8534841Y-6307911D01*
X8535146Y-6315682D01*
X8535165Y-6316070D01*
X8535165Y-6325570D01*
X8535146Y-6325959D01*
X8534841Y-6333729D01*
X8534730Y-6334428D01*
X8534658Y-6335887D01*
X8533876Y-6339818D01*
X8532242Y-6350136D01*
X8531164Y-6353455D01*
X8530633Y-6356123D01*
X8529074Y-6359887D01*
X8527139Y-6365842D01*
X8524296Y-6371421D01*
X8522737Y-6375185D01*
X8521227Y-6377445D01*
X8519643Y-6380555D01*
X8513502Y-6389006D01*
X8511275Y-6392340D01*
X8510563Y-6393052D01*
X8509936Y-6393914D01*
X8498259Y-6405591D01*
X8497397Y-6406218D01*
X8496685Y-6406930D01*
X8493351Y-6409157D01*
X8484900Y-6415298D01*
X8481790Y-6416882D01*
X8479530Y-6418392D01*
X8475766Y-6419951D01*
X8470187Y-6422794D01*
X8464232Y-6424729D01*
X8460468Y-6426288D01*
X8457800Y-6426819D01*
X8454481Y-6427897D01*
X8444162Y-6429532D01*
X8440232Y-6430313D01*
X8439226Y-6430313D01*
X8438172Y-6430480D01*
X8421658Y-6430480D01*
X8420605Y-6430313D01*
X8419599Y-6430313D01*
X8415669Y-6429532D01*
X8405349Y-6427897D01*
X8402030Y-6426819D01*
X8399363Y-6426288D01*
X8395599Y-6424729D01*
X8389643Y-6422794D01*
X8384063Y-6419951D01*
X8380301Y-6418392D01*
X8378040Y-6416882D01*
X8374931Y-6415298D01*
X8366478Y-6409156D01*
X8363145Y-6406930D01*
X8362434Y-6406218D01*
X8361571Y-6405591D01*
X8349894Y-6393914D01*
X8349267Y-6393051D01*
X8348556Y-6392340D01*
X8346329Y-6389008D01*
X8340188Y-6380555D01*
X8338603Y-6377445D01*
X8337093Y-6375185D01*
X8335535Y-6371422D01*
X8332691Y-6365842D01*
X8330756Y-6359886D01*
X8329197Y-6356123D01*
X8328667Y-6353456D01*
X8327588Y-6350136D01*
X8325953Y-6339815D01*
X8325172Y-6335887D01*
X8325100Y-6334429D01*
X8324990Y-6333729D01*
X8324684Y-6325958D01*
X8324665Y-6325570D01*
X8324665Y-6316070D01*
X8324684Y-6315683D01*
X8324990Y-6307911D01*
X8325100Y-6307211D01*
X8325172Y-6305754D01*
X8325953Y-6301825D01*
X8327588Y-6291504D01*
X8328667Y-6288184D01*
X8329197Y-6285518D01*
X8330756Y-6281755D01*
X8332691Y-6275798D01*
X8335535Y-6270217D01*
X8337093Y-6266456D01*
X8338603Y-6264196D01*
X8340188Y-6261086D01*
X8346330Y-6252631D01*
X8348556Y-6249300D01*
X8349267Y-6248589D01*
X8349894Y-6247726D01*
X8361571Y-6236049D01*
X8362434Y-6235422D01*
X8363145Y-6234711D01*
X8366476Y-6232485D01*
X8374931Y-6226343D01*
X8378041Y-6224758D01*
X8380301Y-6223248D01*
X8384062Y-6221690D01*
X8389643Y-6218846D01*
X8395600Y-6216911D01*
X8399363Y-6215352D01*
X8402029Y-6214822D01*
X8405349Y-6213743D01*
X8415670Y-6212109D01*
X8419599Y-6211327D01*
X8420605Y-6211327D01*
X8421658Y-6211160D01*
X8438172Y-6211160D01*
X8439226Y-6211327D01*
G37*
G36*
X8693226Y-6211327D02*
G01*
X8694232Y-6211327D01*
X8698161Y-6212109D01*
X8708481Y-6213743D01*
X8711801Y-6214822D01*
X8714468Y-6215352D01*
X8718231Y-6216911D01*
X8724187Y-6218846D01*
X8729767Y-6221690D01*
X8733530Y-6223248D01*
X8735790Y-6224758D01*
X8738900Y-6226343D01*
X8747353Y-6232484D01*
X8750685Y-6234711D01*
X8751396Y-6235422D01*
X8752259Y-6236049D01*
X8763936Y-6247726D01*
X8764563Y-6248589D01*
X8765275Y-6249300D01*
X8767501Y-6252633D01*
X8773643Y-6261086D01*
X8775227Y-6264195D01*
X8776737Y-6266456D01*
X8778296Y-6270218D01*
X8781139Y-6275798D01*
X8783074Y-6281754D01*
X8784633Y-6285518D01*
X8785164Y-6288185D01*
X8786242Y-6291504D01*
X8787877Y-6301823D01*
X8788658Y-6305754D01*
X8788730Y-6307212D01*
X8788841Y-6307911D01*
X8789146Y-6315682D01*
X8789165Y-6316070D01*
X8789165Y-6325570D01*
X8789146Y-6325959D01*
X8788841Y-6333729D01*
X8788730Y-6334428D01*
X8788658Y-6335887D01*
X8787876Y-6339818D01*
X8786242Y-6350136D01*
X8785164Y-6353455D01*
X8784633Y-6356123D01*
X8783074Y-6359887D01*
X8781139Y-6365842D01*
X8778296Y-6371421D01*
X8776737Y-6375185D01*
X8775227Y-6377445D01*
X8773643Y-6380555D01*
X8767502Y-6389006D01*
X8765275Y-6392340D01*
X8764563Y-6393052D01*
X8763936Y-6393914D01*
X8752259Y-6405591D01*
X8751397Y-6406218D01*
X8750685Y-6406930D01*
X8747351Y-6409157D01*
X8738900Y-6415298D01*
X8735790Y-6416882D01*
X8733530Y-6418392D01*
X8729766Y-6419951D01*
X8724187Y-6422794D01*
X8718232Y-6424729D01*
X8714468Y-6426288D01*
X8711800Y-6426819D01*
X8708481Y-6427897D01*
X8698162Y-6429532D01*
X8694232Y-6430313D01*
X8693226Y-6430313D01*
X8692172Y-6430480D01*
X8675658Y-6430480D01*
X8674605Y-6430313D01*
X8673599Y-6430313D01*
X8669669Y-6429532D01*
X8659349Y-6427897D01*
X8656030Y-6426819D01*
X8653363Y-6426288D01*
X8649599Y-6424729D01*
X8643643Y-6422794D01*
X8638063Y-6419951D01*
X8634301Y-6418392D01*
X8632040Y-6416882D01*
X8628931Y-6415298D01*
X8620478Y-6409156D01*
X8617145Y-6406930D01*
X8616434Y-6406218D01*
X8615571Y-6405591D01*
X8603894Y-6393914D01*
X8603267Y-6393051D01*
X8602556Y-6392340D01*
X8600329Y-6389008D01*
X8594188Y-6380555D01*
X8592603Y-6377445D01*
X8591093Y-6375185D01*
X8589535Y-6371422D01*
X8586691Y-6365842D01*
X8584756Y-6359886D01*
X8583197Y-6356123D01*
X8582667Y-6353456D01*
X8581588Y-6350136D01*
X8579953Y-6339815D01*
X8579172Y-6335887D01*
X8579100Y-6334429D01*
X8578990Y-6333729D01*
X8578684Y-6325958D01*
X8578665Y-6325570D01*
X8578665Y-6316070D01*
X8578684Y-6315683D01*
X8578990Y-6307911D01*
X8579100Y-6307211D01*
X8579172Y-6305754D01*
X8579953Y-6301825D01*
X8581588Y-6291504D01*
X8582667Y-6288184D01*
X8583197Y-6285518D01*
X8584756Y-6281755D01*
X8586691Y-6275798D01*
X8589535Y-6270217D01*
X8591093Y-6266456D01*
X8592603Y-6264196D01*
X8594188Y-6261086D01*
X8600330Y-6252631D01*
X8602556Y-6249300D01*
X8603267Y-6248589D01*
X8603894Y-6247726D01*
X8615571Y-6236049D01*
X8616434Y-6235422D01*
X8617145Y-6234711D01*
X8620476Y-6232485D01*
X8628931Y-6226343D01*
X8632041Y-6224758D01*
X8634301Y-6223248D01*
X8638062Y-6221690D01*
X8643643Y-6218846D01*
X8649600Y-6216911D01*
X8653363Y-6215352D01*
X8656029Y-6214822D01*
X8659349Y-6213743D01*
X8669670Y-6212109D01*
X8673599Y-6211327D01*
X8674605Y-6211327D01*
X8675658Y-6211160D01*
X8692172Y-6211160D01*
X8693226Y-6211327D01*
G37*
G36*
X7007492Y-6088911D02*
G01*
X7024698Y-6096038D01*
X7040183Y-6106384D01*
X7053351Y-6119553D01*
X7063698Y-6135038D01*
X7070824Y-6152243D01*
X7074458Y-6170509D01*
X7074458Y-6189132D01*
X7070824Y-6207397D01*
X7063698Y-6224603D01*
X7053351Y-6240088D01*
X7040183Y-6253256D01*
X7024698Y-6263603D01*
X7007492Y-6270730D01*
X6989227Y-6274363D01*
X6970604Y-6274363D01*
X6952338Y-6270730D01*
X6935132Y-6263603D01*
X6919648Y-6253256D01*
X6906479Y-6240088D01*
X6896133Y-6224603D01*
X6889006Y-6207397D01*
X6885373Y-6189132D01*
X6885373Y-6170509D01*
X6889006Y-6152243D01*
X6896133Y-6135038D01*
X6906479Y-6119553D01*
X6919648Y-6106384D01*
X6935132Y-6096038D01*
X6952338Y-6088911D01*
X6970604Y-6085278D01*
X6989227Y-6085278D01*
X7007492Y-6088911D01*
G37*
G36*
X6025848Y-5989688D02*
G01*
X6046741Y-5996477D01*
X6066315Y-6006451D01*
X6084088Y-6019363D01*
X6099622Y-6034898D01*
X6112535Y-6052670D01*
X6122508Y-6072245D01*
X6129297Y-6093138D01*
X6132734Y-6114836D01*
X6132734Y-6136805D01*
X6129297Y-6158503D01*
X6122508Y-6179396D01*
X6112535Y-6198970D01*
X6099622Y-6216743D01*
X6084088Y-6232277D01*
X6066315Y-6245190D01*
X6046741Y-6255163D01*
X6025848Y-6261952D01*
X6004149Y-6265389D01*
X5982181Y-6265389D01*
X5960483Y-6261952D01*
X5939589Y-6255163D01*
X5920015Y-6245190D01*
X5902242Y-6232277D01*
X5886708Y-6216743D01*
X5873796Y-6198970D01*
X5863822Y-6179396D01*
X5857033Y-6158503D01*
X5853597Y-6136805D01*
X5853597Y-6114836D01*
X5857033Y-6093138D01*
X5863822Y-6072245D01*
X5873796Y-6052670D01*
X5886708Y-6034898D01*
X5902242Y-6019363D01*
X5920015Y-6006451D01*
X5939589Y-5996477D01*
X5960483Y-5989688D01*
X5982181Y-5986252D01*
X6004149Y-5986252D01*
X6025848Y-5989688D01*
G37*
G36*
X7068742Y-5831581D02*
G01*
X7071986Y-5833749D01*
X7074154Y-5836993D01*
X7074915Y-5840820D01*
X7074915Y-6010820D01*
X7074154Y-6014647D01*
X7071986Y-6017891D01*
X7068742Y-6020059D01*
X7064915Y-6020820D01*
X6894915Y-6020820D01*
X6891088Y-6020059D01*
X6887844Y-6017891D01*
X6885676Y-6014647D01*
X6884915Y-6010820D01*
X6884915Y-5840820D01*
X6885676Y-5836993D01*
X6887844Y-5833749D01*
X6891088Y-5831581D01*
X6894915Y-5830820D01*
X7064915Y-5830820D01*
X7068742Y-5831581D01*
G37*
G36*
X13090263Y-5519412D02*
G01*
X13109664Y-5525716D01*
X13127840Y-5534977D01*
X13144343Y-5546968D01*
X13158768Y-5561392D01*
X13170758Y-5577896D01*
X13180019Y-5596071D01*
X13186323Y-5615472D01*
X13189514Y-5635621D01*
X13189514Y-5656020D01*
X13186323Y-5676168D01*
X13180019Y-5695569D01*
X13170758Y-5713745D01*
X13158768Y-5730248D01*
X13144343Y-5744673D01*
X13127840Y-5756663D01*
X13109664Y-5765925D01*
X13090263Y-5772228D01*
X13070115Y-5775420D01*
X13049715Y-5775420D01*
X13029567Y-5772228D01*
X13010166Y-5765925D01*
X12991990Y-5756663D01*
X12975487Y-5744673D01*
X12961062Y-5730248D01*
X12949072Y-5713745D01*
X12939811Y-5695569D01*
X12933507Y-5676168D01*
X12930316Y-5656020D01*
X12930316Y-5635621D01*
X12933507Y-5615472D01*
X12939811Y-5596071D01*
X12949072Y-5577896D01*
X12961062Y-5561392D01*
X12975487Y-5546968D01*
X12991990Y-5534977D01*
X13010166Y-5525716D01*
X13029567Y-5519412D01*
X13049715Y-5516221D01*
X13070115Y-5516221D01*
X13090263Y-5519412D01*
G37*
G36*
X15630263Y-5519412D02*
G01*
X15649664Y-5525716D01*
X15667840Y-5534977D01*
X15684343Y-5546968D01*
X15698768Y-5561392D01*
X15710758Y-5577896D01*
X15720019Y-5596071D01*
X15726323Y-5615472D01*
X15729514Y-5635621D01*
X15729514Y-5656020D01*
X15726323Y-5676168D01*
X15720019Y-5695569D01*
X15710758Y-5713745D01*
X15698768Y-5730248D01*
X15684343Y-5744673D01*
X15667840Y-5756663D01*
X15649664Y-5765925D01*
X15630263Y-5772228D01*
X15610115Y-5775420D01*
X15589715Y-5775420D01*
X15569567Y-5772228D01*
X15550166Y-5765925D01*
X15531990Y-5756663D01*
X15515487Y-5744673D01*
X15501062Y-5730248D01*
X15489072Y-5713745D01*
X15479811Y-5695569D01*
X15473507Y-5676168D01*
X15470316Y-5656020D01*
X15470316Y-5635621D01*
X15473507Y-5615472D01*
X15479811Y-5596071D01*
X15489072Y-5577896D01*
X15501062Y-5561392D01*
X15515487Y-5546968D01*
X15531990Y-5534977D01*
X15550166Y-5525716D01*
X15569567Y-5519412D01*
X15589715Y-5516221D01*
X15610115Y-5516221D01*
X15630263Y-5519412D01*
G37*
G36*
X6025848Y-5489689D02*
G01*
X6046741Y-5496477D01*
X6066315Y-5506451D01*
X6084088Y-5519364D01*
X6099622Y-5534898D01*
X6112535Y-5552671D01*
X6122508Y-5572245D01*
X6129297Y-5593138D01*
X6132734Y-5614836D01*
X6132734Y-5636805D01*
X6129297Y-5658503D01*
X6122508Y-5679396D01*
X6112535Y-5698970D01*
X6099622Y-5716743D01*
X6084088Y-5732277D01*
X6066315Y-5745190D01*
X6046741Y-5755163D01*
X6025848Y-5761952D01*
X6004149Y-5765389D01*
X5982181Y-5765389D01*
X5960483Y-5761952D01*
X5939589Y-5755163D01*
X5920015Y-5745190D01*
X5902242Y-5732277D01*
X5886708Y-5716743D01*
X5873796Y-5698970D01*
X5863822Y-5679396D01*
X5857033Y-5658503D01*
X5853597Y-5636805D01*
X5853597Y-5614836D01*
X5857033Y-5593138D01*
X5863822Y-5572245D01*
X5873796Y-5552671D01*
X5886708Y-5534898D01*
X5902242Y-5519364D01*
X5920015Y-5506451D01*
X5939589Y-5496477D01*
X5960483Y-5489689D01*
X5982181Y-5486252D01*
X6004149Y-5486252D01*
X6025848Y-5489689D01*
G37*
G36*
X6807266Y-4970241D02*
G01*
X6831144Y-4978000D01*
X6853515Y-4989398D01*
X6873827Y-5004155D01*
X6891580Y-5021909D01*
X6906338Y-5042221D01*
X6917736Y-5064591D01*
X6925494Y-5088469D01*
X6929422Y-5113267D01*
X6929422Y-5138374D01*
X6925494Y-5163172D01*
X6917736Y-5187050D01*
X6906338Y-5209420D01*
X6891580Y-5229732D01*
X6873827Y-5247485D01*
X6853515Y-5262243D01*
X6831144Y-5273641D01*
X6807266Y-5281400D01*
X6782469Y-5285327D01*
X6757362Y-5285327D01*
X6732564Y-5281400D01*
X6708686Y-5273641D01*
X6686315Y-5262243D01*
X6666003Y-5247485D01*
X6648250Y-5229732D01*
X6633493Y-5209420D01*
X6622094Y-5187050D01*
X6614336Y-5163172D01*
X6610408Y-5138374D01*
X6610408Y-5113267D01*
X6614336Y-5088469D01*
X6622094Y-5064591D01*
X6633493Y-5042221D01*
X6648250Y-5021909D01*
X6666003Y-5004155D01*
X6686315Y-4989398D01*
X6708686Y-4978000D01*
X6732564Y-4970241D01*
X6757362Y-4966314D01*
X6782469Y-4966314D01*
X6807266Y-4970241D01*
G37*
G36*
X9067267Y-4970241D02*
G01*
X9091145Y-4978000D01*
X9113515Y-4989398D01*
X9133827Y-5004155D01*
X9151580Y-5021909D01*
X9166338Y-5042221D01*
X9177736Y-5064591D01*
X9185494Y-5088469D01*
X9189422Y-5113267D01*
X9189422Y-5138374D01*
X9185494Y-5163172D01*
X9177736Y-5187050D01*
X9166338Y-5209420D01*
X9151580Y-5229732D01*
X9133827Y-5247485D01*
X9113515Y-5262243D01*
X9091145Y-5273641D01*
X9067267Y-5281400D01*
X9042469Y-5285327D01*
X9017362Y-5285327D01*
X8992564Y-5281400D01*
X8968686Y-5273641D01*
X8946315Y-5262243D01*
X8926004Y-5247485D01*
X8908250Y-5229732D01*
X8893493Y-5209420D01*
X8882095Y-5187050D01*
X8874336Y-5163172D01*
X8870408Y-5138374D01*
X8870408Y-5113267D01*
X8874336Y-5088469D01*
X8882095Y-5064591D01*
X8893493Y-5042221D01*
X8908250Y-5021909D01*
X8926004Y-5004155D01*
X8946315Y-4989398D01*
X8968686Y-4978000D01*
X8992564Y-4970241D01*
X9017362Y-4966314D01*
X9042469Y-4966314D01*
X9067267Y-4970241D01*
G37*
G36*
X6108152Y-4987275D02*
G01*
X6108724Y-4987555D01*
X6108961Y-4987593D01*
X6112764Y-4989530D01*
X6118503Y-4992336D01*
X6126650Y-5000483D01*
X6129456Y-5006222D01*
X6131393Y-5010024D01*
X6131430Y-5010261D01*
X6131710Y-5010834D01*
X6133165Y-5020820D01*
X6133165Y-5230820D01*
X6131710Y-5240807D01*
X6131430Y-5241379D01*
X6131393Y-5241617D01*
X6129458Y-5245414D01*
X6126650Y-5251158D01*
X6118503Y-5259305D01*
X6112761Y-5262112D01*
X6108962Y-5264048D01*
X6108724Y-5264085D01*
X6108152Y-5264365D01*
X6098165Y-5265820D01*
X5888165Y-5265820D01*
X5878178Y-5264365D01*
X5877606Y-5264086D01*
X5877369Y-5264048D01*
X5873569Y-5262112D01*
X5867827Y-5259305D01*
X5859680Y-5251158D01*
X5856876Y-5245421D01*
X5854937Y-5241617D01*
X5854900Y-5241379D01*
X5854620Y-5240807D01*
X5853165Y-5230820D01*
X5853165Y-5020820D01*
X5854620Y-5010834D01*
X5854900Y-5010262D01*
X5854937Y-5010024D01*
X5856876Y-5006219D01*
X5859680Y-5000483D01*
X5867827Y-4992336D01*
X5873562Y-4989532D01*
X5877369Y-4987593D01*
X5877606Y-4987555D01*
X5878178Y-4987275D01*
X5888165Y-4985820D01*
X6098165Y-4985820D01*
X6108152Y-4987275D01*
G37*
G36*
X11604902Y-4987275D02*
G01*
X11605474Y-4987555D01*
X11605711Y-4987593D01*
X11609514Y-4989530D01*
X11615253Y-4992336D01*
X11623400Y-5000483D01*
X11626206Y-5006222D01*
X11628143Y-5010024D01*
X11628180Y-5010261D01*
X11628460Y-5010834D01*
X11629915Y-5020820D01*
X11629915Y-5230820D01*
X11628460Y-5240807D01*
X11628180Y-5241379D01*
X11628143Y-5241617D01*
X11626208Y-5245414D01*
X11623400Y-5251158D01*
X11615253Y-5259305D01*
X11609511Y-5262112D01*
X11605712Y-5264048D01*
X11605474Y-5264085D01*
X11604902Y-5264365D01*
X11594915Y-5265820D01*
X11384915Y-5265820D01*
X11374928Y-5264365D01*
X11374356Y-5264086D01*
X11374119Y-5264048D01*
X11370319Y-5262112D01*
X11364577Y-5259305D01*
X11356430Y-5251158D01*
X11353626Y-5245421D01*
X11351687Y-5241617D01*
X11351650Y-5241379D01*
X11351370Y-5240807D01*
X11349915Y-5230820D01*
X11349915Y-5020820D01*
X11351370Y-5010834D01*
X11351650Y-5010262D01*
X11351687Y-5010024D01*
X11353626Y-5006219D01*
X11356430Y-5000483D01*
X11364577Y-4992336D01*
X11370312Y-4989532D01*
X11374119Y-4987593D01*
X11374356Y-4987555D01*
X11374928Y-4987275D01*
X11384915Y-4985820D01*
X11594915Y-4985820D01*
X11604902Y-4987275D01*
G37*
G36*
X10522598Y-4989689D02*
G01*
X10543491Y-4996477D01*
X10563065Y-5006451D01*
X10580838Y-5019364D01*
X10596372Y-5034898D01*
X10609285Y-5052671D01*
X10619258Y-5072245D01*
X10626047Y-5093138D01*
X10629484Y-5114836D01*
X10629484Y-5136805D01*
X10626047Y-5158503D01*
X10619258Y-5179396D01*
X10609285Y-5198970D01*
X10596372Y-5216743D01*
X10580838Y-5232277D01*
X10563065Y-5245190D01*
X10543491Y-5255163D01*
X10522598Y-5261952D01*
X10500900Y-5265389D01*
X10478931Y-5265389D01*
X10457233Y-5261952D01*
X10436340Y-5255163D01*
X10416765Y-5245190D01*
X10398993Y-5232277D01*
X10383458Y-5216743D01*
X10370546Y-5198970D01*
X10360572Y-5179396D01*
X10353783Y-5158503D01*
X10350347Y-5136805D01*
X10350347Y-5114836D01*
X10353783Y-5093138D01*
X10360572Y-5072245D01*
X10370546Y-5052671D01*
X10383458Y-5034898D01*
X10398993Y-5019364D01*
X10416765Y-5006451D01*
X10436340Y-4996477D01*
X10457233Y-4989689D01*
X10478931Y-4986252D01*
X10500900Y-4986252D01*
X10522598Y-4989689D01*
G37*
G36*
X11022598Y-4989689D02*
G01*
X11043491Y-4996477D01*
X11063065Y-5006451D01*
X11080838Y-5019364D01*
X11096372Y-5034898D01*
X11109285Y-5052671D01*
X11119258Y-5072245D01*
X11126047Y-5093138D01*
X11129484Y-5114836D01*
X11129484Y-5136805D01*
X11126047Y-5158503D01*
X11119258Y-5179396D01*
X11109285Y-5198970D01*
X11096372Y-5216743D01*
X11080838Y-5232277D01*
X11063065Y-5245190D01*
X11043491Y-5255163D01*
X11022598Y-5261952D01*
X11000900Y-5265389D01*
X10978931Y-5265389D01*
X10957233Y-5261952D01*
X10936340Y-5255163D01*
X10916765Y-5245190D01*
X10898993Y-5232277D01*
X10883458Y-5216743D01*
X10870546Y-5198970D01*
X10860572Y-5179396D01*
X10853783Y-5158503D01*
X10850347Y-5136805D01*
X10850347Y-5114836D01*
X10853783Y-5093138D01*
X10860572Y-5072245D01*
X10870546Y-5052671D01*
X10883458Y-5034898D01*
X10898993Y-5019364D01*
X10916765Y-5006451D01*
X10936340Y-4996477D01*
X10957233Y-4989689D01*
X10978931Y-4986252D01*
X11000900Y-4986252D01*
X11022598Y-4989689D01*
G37*
M02*
