%TF.GenerationSoftware,KiCad,Pcbnew,10.0.3*%
%TF.CreationDate,2026-06-12T15:25:57+02:00*%
%TF.ProjectId,Gruppe1-Index3,47727570-7065-4312-9d49-6e646578332e,rev?*%
%TF.SameCoordinates,Original*%
%TF.FileFunction,Drillmap*%
%TF.FilePolarity,Positive*%
%FSLAX45Y45*%
G04 Gerber Fmt 4.5, Leading zero omitted, Abs format (unit mm)*
G04 Created by KiCad (PCBNEW 10.0.3) date 2026-06-12 15:25:57*
%MOMM*%
%LPD*%
G01*
G04 APERTURE LIST*
%ADD10C,0.050000*%
%ADD11C,0.200000*%
G04 APERTURE END LIST*
D10*
X3700000Y-2290000D02*
X16700000Y-2290000D01*
X16700000Y-11590000D01*
X3700000Y-11590000D01*
X3700000Y-2290000D01*
D11*
X3958277Y-11903984D02*
X3958277Y-11703984D01*
X3958277Y-11703984D02*
X4005896Y-11703984D01*
X4005896Y-11703984D02*
X4034467Y-11713508D01*
X4034467Y-11713508D02*
X4053515Y-11732555D01*
X4053515Y-11732555D02*
X4063039Y-11751603D01*
X4063039Y-11751603D02*
X4072562Y-11789698D01*
X4072562Y-11789698D02*
X4072562Y-11818269D01*
X4072562Y-11818269D02*
X4063039Y-11856365D01*
X4063039Y-11856365D02*
X4053515Y-11875412D01*
X4053515Y-11875412D02*
X4034467Y-11894460D01*
X4034467Y-11894460D02*
X4005896Y-11903984D01*
X4005896Y-11903984D02*
X3958277Y-11903984D01*
X4158277Y-11903984D02*
X4158277Y-11770650D01*
X4158277Y-11808746D02*
X4167801Y-11789698D01*
X4167801Y-11789698D02*
X4177324Y-11780174D01*
X4177324Y-11780174D02*
X4196372Y-11770650D01*
X4196372Y-11770650D02*
X4215420Y-11770650D01*
X4282086Y-11903984D02*
X4282086Y-11770650D01*
X4282086Y-11703984D02*
X4272563Y-11713508D01*
X4272563Y-11713508D02*
X4282086Y-11723031D01*
X4282086Y-11723031D02*
X4291610Y-11713508D01*
X4291610Y-11713508D02*
X4282086Y-11703984D01*
X4282086Y-11703984D02*
X4282086Y-11723031D01*
X4405896Y-11903984D02*
X4386848Y-11894460D01*
X4386848Y-11894460D02*
X4377324Y-11875412D01*
X4377324Y-11875412D02*
X4377324Y-11703984D01*
X4510658Y-11903984D02*
X4491610Y-11894460D01*
X4491610Y-11894460D02*
X4482086Y-11875412D01*
X4482086Y-11875412D02*
X4482086Y-11703984D01*
X4739229Y-11903984D02*
X4739229Y-11703984D01*
X4739229Y-11703984D02*
X4805896Y-11846841D01*
X4805896Y-11846841D02*
X4872563Y-11703984D01*
X4872563Y-11703984D02*
X4872563Y-11903984D01*
X5053515Y-11903984D02*
X5053515Y-11799222D01*
X5053515Y-11799222D02*
X5043991Y-11780174D01*
X5043991Y-11780174D02*
X5024944Y-11770650D01*
X5024944Y-11770650D02*
X4986848Y-11770650D01*
X4986848Y-11770650D02*
X4967801Y-11780174D01*
X5053515Y-11894460D02*
X5034467Y-11903984D01*
X5034467Y-11903984D02*
X4986848Y-11903984D01*
X4986848Y-11903984D02*
X4967801Y-11894460D01*
X4967801Y-11894460D02*
X4958277Y-11875412D01*
X4958277Y-11875412D02*
X4958277Y-11856365D01*
X4958277Y-11856365D02*
X4967801Y-11837317D01*
X4967801Y-11837317D02*
X4986848Y-11827793D01*
X4986848Y-11827793D02*
X5034467Y-11827793D01*
X5034467Y-11827793D02*
X5053515Y-11818269D01*
X5148753Y-11770650D02*
X5148753Y-11970650D01*
X5148753Y-11780174D02*
X5167801Y-11770650D01*
X5167801Y-11770650D02*
X5205896Y-11770650D01*
X5205896Y-11770650D02*
X5224944Y-11780174D01*
X5224944Y-11780174D02*
X5234467Y-11789698D01*
X5234467Y-11789698D02*
X5243991Y-11808746D01*
X5243991Y-11808746D02*
X5243991Y-11865888D01*
X5243991Y-11865888D02*
X5234467Y-11884936D01*
X5234467Y-11884936D02*
X5224944Y-11894460D01*
X5224944Y-11894460D02*
X5205896Y-11903984D01*
X5205896Y-11903984D02*
X5167801Y-11903984D01*
X5167801Y-11903984D02*
X5148753Y-11894460D01*
X5329705Y-11884936D02*
X5339229Y-11894460D01*
X5339229Y-11894460D02*
X5329705Y-11903984D01*
X5329705Y-11903984D02*
X5320182Y-11894460D01*
X5320182Y-11894460D02*
X5329705Y-11884936D01*
X5329705Y-11884936D02*
X5329705Y-11903984D01*
X5329705Y-11780174D02*
X5339229Y-11789698D01*
X5339229Y-11789698D02*
X5329705Y-11799222D01*
X5329705Y-11799222D02*
X5320182Y-11789698D01*
X5320182Y-11789698D02*
X5329705Y-11780174D01*
X5329705Y-11780174D02*
X5329705Y-11799222D01*
M02*
