%TF.GenerationSoftware,KiCad,Pcbnew,10.0.3*%
%TF.CreationDate,2026-06-12T15:06:18+02:00*%
%TF.ProjectId,Gruppe1-Index3,47727570-7065-4312-9d49-6e646578332e,rev?*%
%TF.SameCoordinates,Original*%
%TF.FileFunction,Copper,L1,Top*%
%TF.FilePolarity,Positive*%
%FSLAX45Y45*%
G04 Gerber Fmt 4.5, Leading zero omitted, Abs format (unit mm)*
G04 Created by KiCad (PCBNEW 10.0.3) date 2026-06-12 15:06:18*
%MOMM*%
%LPD*%
G01*
G04 APERTURE LIST*
G04 Aperture macros list*
%AMRoundRect*
0 Rectangle with rounded corners*
0 $1 Rounding radius*
0 $2 $3 $4 $5 $6 $7 $8 $9 X,Y pos of 4 corners*
0 Add a 4 corners polygon primitive as box body*
4,1,4,$2,$3,$4,$5,$6,$7,$8,$9,$2,$3,0*
0 Add four circle primitives for the rounded corners*
1,1,$1+$1,$2,$3*
1,1,$1+$1,$4,$5*
1,1,$1+$1,$6,$7*
1,1,$1+$1,$8,$9*
0 Add four rect primitives between the rounded corners*
20,1,$1+$1,$2,$3,$4,$5,0*
20,1,$1+$1,$4,$5,$6,$7,0*
20,1,$1+$1,$6,$7,$8,$9,0*
20,1,$1+$1,$8,$9,$2,$3,0*%
%AMOutline4P*
0 Free polygon, 4 corners , with rotation*
0 The origin of the aperture is its center*
0 number of corners: always 4*
0 $1 to $8 corner X, Y*
0 $9 Rotation angle, in degrees counterclockwise*
0 create outline with 4 corners*
4,1,4,$1,$2,$3,$4,$5,$6,$7,$8,$1,$2,$9*%
G04 Aperture macros list end*
%ADD10C,0.150000*%
%ADD11C,0.300000*%
%ADD12C,0.400000*%
%TA.AperFunction,NonConductor*%
%ADD13C,0.300000*%
%TD*%
%TA.AperFunction,SMDPad,CuDef*%
%ADD14RoundRect,0.250000X0.625000X-0.400000X0.625000X0.400000X-0.625000X0.400000X-0.625000X-0.400000X0*%
%TD*%
%TA.AperFunction,SMDPad,CuDef*%
%ADD15RoundRect,0.250000X-0.650000X0.325000X-0.650000X-0.325000X0.650000X-0.325000X0.650000X0.325000X0*%
%TD*%
%TA.AperFunction,SMDPad,CuDef*%
%ADD16R,1.100000X4.600000*%
%TD*%
%TA.AperFunction,SMDPad,CuDef*%
%ADD17R,10.800000X9.400000*%
%TD*%
%TA.AperFunction,SMDPad,CuDef*%
%ADD18RoundRect,0.250001X0.462499X0.624999X-0.462499X0.624999X-0.462499X-0.624999X0.462499X-0.624999X0*%
%TD*%
%TA.AperFunction,SMDPad,CuDef*%
%ADD19RoundRect,0.250000X-0.625000X0.400000X-0.625000X-0.400000X0.625000X-0.400000X0.625000X0.400000X0*%
%TD*%
%TA.AperFunction,SMDPad,CuDef*%
%ADD20RoundRect,0.250000X0.450000X-0.350000X0.450000X0.350000X-0.450000X0.350000X-0.450000X-0.350000X0*%
%TD*%
%TA.AperFunction,SMDPad,CuDef*%
%ADD21RoundRect,0.250000X0.400000X0.625000X-0.400000X0.625000X-0.400000X-0.625000X0.400000X-0.625000X0*%
%TD*%
%TA.AperFunction,SMDPad,CuDef*%
%ADD22RoundRect,0.250001X-0.624999X0.462499X-0.624999X-0.462499X0.624999X-0.462499X0.624999X0.462499X0*%
%TD*%
%TA.AperFunction,ComponentPad*%
%ADD23C,2.600000*%
%TD*%
%TA.AperFunction,ComponentPad*%
%ADD24RoundRect,0.250000X1.050000X-1.050000X1.050000X1.050000X-1.050000X1.050000X-1.050000X-1.050000X0*%
%TD*%
%TA.AperFunction,SMDPad,CuDef*%
%ADD25RoundRect,0.250000X-0.350000X-0.450000X0.350000X-0.450000X0.350000X0.450000X-0.350000X0.450000X0*%
%TD*%
%TA.AperFunction,SMDPad,CuDef*%
%ADD26RoundRect,0.125000X-0.125000X-0.125000X0.125000X-0.125000X0.125000X0.125000X-0.125000X0.125000X0*%
%TD*%
%TA.AperFunction,ComponentPad*%
%ADD27C,1.700000*%
%TD*%
%TA.AperFunction,ComponentPad*%
%ADD28R,1.700000X1.700000*%
%TD*%
%TA.AperFunction,ComponentPad*%
%ADD29RoundRect,0.250000X1.050000X1.050000X-1.050000X1.050000X-1.050000X-1.050000X1.050000X-1.050000X0*%
%TD*%
%TA.AperFunction,ComponentPad*%
%ADD30C,3.000000*%
%TD*%
%TA.AperFunction,SMDPad,CuDef*%
%ADD31Outline4P,-1.800000X-1.150000X1.800000X-0.550000X1.800000X0.550000X-1.800000X1.150000X270.000000*%
%TD*%
%TA.AperFunction,SMDPad,CuDef*%
%ADD32Outline4P,-1.800000X-1.150000X1.800000X-0.550000X1.800000X0.550000X-1.800000X1.150000X90.000000*%
%TD*%
%TA.AperFunction,SMDPad,CuDef*%
%ADD33RoundRect,0.250000X0.325000X0.650000X-0.325000X0.650000X-0.325000X-0.650000X0.325000X-0.650000X0*%
%TD*%
%TA.AperFunction,ComponentPad*%
%ADD34R,1.905000X2.000000*%
%TD*%
%TA.AperFunction,ComponentPad*%
%ADD35O,1.905000X2.000000*%
%TD*%
%TA.AperFunction,SMDPad,CuDef*%
%ADD36RoundRect,0.250000X-0.325000X-0.650000X0.325000X-0.650000X0.325000X0.650000X-0.325000X0.650000X0*%
%TD*%
%TA.AperFunction,SMDPad,CuDef*%
%ADD37R,4.600000X1.100000*%
%TD*%
%TA.AperFunction,SMDPad,CuDef*%
%ADD38R,9.400000X10.800000*%
%TD*%
%TA.AperFunction,ComponentPad*%
%ADD39O,1.600000X1.600000*%
%TD*%
%TA.AperFunction,ComponentPad*%
%ADD40R,1.600000X1.600000*%
%TD*%
%TA.AperFunction,SMDPad,CuDef*%
%ADD41RoundRect,0.237500X0.237500X-0.250000X0.237500X0.250000X-0.237500X0.250000X-0.237500X-0.250000X0*%
%TD*%
%TA.AperFunction,ComponentPad*%
%ADD42C,1.600000*%
%TD*%
%TA.AperFunction,ComponentPad*%
%ADD43RoundRect,0.250000X-0.550000X-0.550000X0.550000X-0.550000X0.550000X0.550000X-0.550000X0.550000X0*%
%TD*%
%TA.AperFunction,SMDPad,CuDef*%
%ADD44RoundRect,0.250000X-1.400000X-0.600000X1.400000X-0.600000X1.400000X0.600000X-1.400000X0.600000X0*%
%TD*%
%TA.AperFunction,ComponentPad*%
%ADD45RoundRect,0.250000X0.550000X0.550000X-0.550000X0.550000X-0.550000X-0.550000X0.550000X-0.550000X0*%
%TD*%
%TA.AperFunction,SMDPad,CuDef*%
%ADD46RoundRect,0.237500X-0.237500X0.250000X-0.237500X-0.250000X0.237500X-0.250000X0.237500X0.250000X0*%
%TD*%
%TA.AperFunction,ComponentPad*%
%ADD47C,2.400000*%
%TD*%
%TA.AperFunction,SMDPad,CuDef*%
%ADD48RoundRect,0.237500X0.250000X0.237500X-0.250000X0.237500X-0.250000X-0.237500X0.250000X-0.237500X0*%
%TD*%
%TA.AperFunction,ComponentPad*%
%ADD49RoundRect,0.250000X-1.050000X1.050000X-1.050000X-1.050000X1.050000X-1.050000X1.050000X1.050000X0*%
%TD*%
%TA.AperFunction,SMDPad,CuDef*%
%ADD50RoundRect,0.250000X1.000000X-1.950000X1.000000X1.950000X-1.000000X1.950000X-1.000000X-1.950000X0*%
%TD*%
%TA.AperFunction,SMDPad,CuDef*%
%ADD51RoundRect,0.250000X0.650000X-0.325000X0.650000X0.325000X-0.650000X0.325000X-0.650000X-0.325000X0*%
%TD*%
%TA.AperFunction,ViaPad*%
%ADD52C,1.200000*%
%TD*%
%TA.AperFunction,ViaPad*%
%ADD53C,0.850000*%
%TD*%
%TA.AperFunction,ViaPad*%
%ADD54C,0.600000*%
%TD*%
%TA.AperFunction,ViaPad*%
%ADD55C,0.500000*%
%TD*%
%TA.AperFunction,ViaPad*%
%ADD56C,5.000000*%
%TD*%
%TA.AperFunction,Conductor*%
%ADD57C,0.700000*%
%TD*%
%TA.AperFunction,Conductor*%
%ADD58C,0.500000*%
%TD*%
%TA.AperFunction,Conductor*%
%ADD59C,1.000000*%
%TD*%
%TA.AperFunction,Conductor*%
%ADD60C,4.000000*%
%TD*%
%TA.AperFunction,Conductor*%
%ADD61C,5.000000*%
%TD*%
%TA.AperFunction,Conductor*%
%ADD62C,0.200000*%
%TD*%
%TA.AperFunction,Conductor*%
%ADD63C,2.000000*%
%TD*%
%TA.AperFunction,Conductor*%
%ADD64C,1.500000*%
%TD*%
G04 APERTURE END LIST*
D10*
X29998900Y-25300220D02*
X40798900Y-25300220D01*
X40798900Y-28500220D01*
X29998900Y-28500220D01*
X29998900Y-25300220D01*
X1000000Y-1000000D02*
X40998900Y-1000000D01*
X40998900Y-28700220D01*
X1000000Y-28700220D01*
X1000000Y-1000000D01*
X1200000Y-1200000D02*
X40798900Y-1200000D01*
X40798900Y-28500220D01*
X1200000Y-28500220D01*
X1200000Y-1200000D01*
X6000000Y-1200000D02*
X6000000Y-1000000D01*
X11000000Y-1200000D02*
X11000000Y-1000000D01*
X16000000Y-1200000D02*
X16000000Y-1000000D01*
X21000000Y-1200000D02*
X21000000Y-1000000D01*
X26000000Y-1200000D02*
X26000000Y-1000000D01*
X31000000Y-1200000D02*
X31000000Y-1000000D01*
X36000000Y-1200000D02*
X36000000Y-1000000D01*
X3608916Y-1159360D02*
X3534630Y-1159360D01*
X3571773Y-1159360D02*
X3571773Y-1029360D01*
X3571773Y-1029360D02*
X3559392Y-1047932D01*
X3559392Y-1047932D02*
X3547011Y-1060313D01*
X3547011Y-1060313D02*
X3534630Y-1066503D01*
X8534630Y-1041741D02*
X8540821Y-1035551D01*
X8540821Y-1035551D02*
X8553202Y-1029360D01*
X8553202Y-1029360D02*
X8584154Y-1029360D01*
X8584154Y-1029360D02*
X8596535Y-1035551D01*
X8596535Y-1035551D02*
X8602726Y-1041741D01*
X8602726Y-1041741D02*
X8608916Y-1054122D01*
X8608916Y-1054122D02*
X8608916Y-1066503D01*
X8608916Y-1066503D02*
X8602726Y-1085075D01*
X8602726Y-1085075D02*
X8528440Y-1159360D01*
X8528440Y-1159360D02*
X8608916Y-1159360D01*
X13528440Y-1029360D02*
X13608916Y-1029360D01*
X13608916Y-1029360D02*
X13565583Y-1078884D01*
X13565583Y-1078884D02*
X13584154Y-1078884D01*
X13584154Y-1078884D02*
X13596535Y-1085075D01*
X13596535Y-1085075D02*
X13602725Y-1091265D01*
X13602725Y-1091265D02*
X13608916Y-1103646D01*
X13608916Y-1103646D02*
X13608916Y-1134599D01*
X13608916Y-1134599D02*
X13602725Y-1146980D01*
X13602725Y-1146980D02*
X13596535Y-1153170D01*
X13596535Y-1153170D02*
X13584154Y-1159360D01*
X13584154Y-1159360D02*
X13547011Y-1159360D01*
X13547011Y-1159360D02*
X13534630Y-1153170D01*
X13534630Y-1153170D02*
X13528440Y-1146980D01*
X18596535Y-1072694D02*
X18596535Y-1159360D01*
X18565583Y-1023170D02*
X18534630Y-1116027D01*
X18534630Y-1116027D02*
X18615106Y-1116027D01*
X23602725Y-1029360D02*
X23540821Y-1029360D01*
X23540821Y-1029360D02*
X23534630Y-1091265D01*
X23534630Y-1091265D02*
X23540821Y-1085075D01*
X23540821Y-1085075D02*
X23553202Y-1078884D01*
X23553202Y-1078884D02*
X23584154Y-1078884D01*
X23584154Y-1078884D02*
X23596535Y-1085075D01*
X23596535Y-1085075D02*
X23602725Y-1091265D01*
X23602725Y-1091265D02*
X23608916Y-1103646D01*
X23608916Y-1103646D02*
X23608916Y-1134599D01*
X23608916Y-1134599D02*
X23602725Y-1146980D01*
X23602725Y-1146980D02*
X23596535Y-1153170D01*
X23596535Y-1153170D02*
X23584154Y-1159360D01*
X23584154Y-1159360D02*
X23553202Y-1159360D01*
X23553202Y-1159360D02*
X23540821Y-1153170D01*
X23540821Y-1153170D02*
X23534630Y-1146980D01*
X28596535Y-1029360D02*
X28571773Y-1029360D01*
X28571773Y-1029360D02*
X28559392Y-1035551D01*
X28559392Y-1035551D02*
X28553202Y-1041741D01*
X28553202Y-1041741D02*
X28540821Y-1060313D01*
X28540821Y-1060313D02*
X28534630Y-1085075D01*
X28534630Y-1085075D02*
X28534630Y-1134599D01*
X28534630Y-1134599D02*
X28540821Y-1146980D01*
X28540821Y-1146980D02*
X28547011Y-1153170D01*
X28547011Y-1153170D02*
X28559392Y-1159360D01*
X28559392Y-1159360D02*
X28584154Y-1159360D01*
X28584154Y-1159360D02*
X28596535Y-1153170D01*
X28596535Y-1153170D02*
X28602725Y-1146980D01*
X28602725Y-1146980D02*
X28608916Y-1134599D01*
X28608916Y-1134599D02*
X28608916Y-1103646D01*
X28608916Y-1103646D02*
X28602725Y-1091265D01*
X28602725Y-1091265D02*
X28596535Y-1085075D01*
X28596535Y-1085075D02*
X28584154Y-1078884D01*
X28584154Y-1078884D02*
X28559392Y-1078884D01*
X28559392Y-1078884D02*
X28547011Y-1085075D01*
X28547011Y-1085075D02*
X28540821Y-1091265D01*
X28540821Y-1091265D02*
X28534630Y-1103646D01*
X33528440Y-1029360D02*
X33615106Y-1029360D01*
X33615106Y-1029360D02*
X33559392Y-1159360D01*
X38559392Y-1085075D02*
X38547011Y-1078884D01*
X38547011Y-1078884D02*
X38540821Y-1072694D01*
X38540821Y-1072694D02*
X38534630Y-1060313D01*
X38534630Y-1060313D02*
X38534630Y-1054122D01*
X38534630Y-1054122D02*
X38540821Y-1041741D01*
X38540821Y-1041741D02*
X38547011Y-1035551D01*
X38547011Y-1035551D02*
X38559392Y-1029360D01*
X38559392Y-1029360D02*
X38584154Y-1029360D01*
X38584154Y-1029360D02*
X38596535Y-1035551D01*
X38596535Y-1035551D02*
X38602726Y-1041741D01*
X38602726Y-1041741D02*
X38608916Y-1054122D01*
X38608916Y-1054122D02*
X38608916Y-1060313D01*
X38608916Y-1060313D02*
X38602726Y-1072694D01*
X38602726Y-1072694D02*
X38596535Y-1078884D01*
X38596535Y-1078884D02*
X38584154Y-1085075D01*
X38584154Y-1085075D02*
X38559392Y-1085075D01*
X38559392Y-1085075D02*
X38547011Y-1091265D01*
X38547011Y-1091265D02*
X38540821Y-1097456D01*
X38540821Y-1097456D02*
X38534630Y-1109837D01*
X38534630Y-1109837D02*
X38534630Y-1134599D01*
X38534630Y-1134599D02*
X38540821Y-1146980D01*
X38540821Y-1146980D02*
X38547011Y-1153170D01*
X38547011Y-1153170D02*
X38559392Y-1159360D01*
X38559392Y-1159360D02*
X38584154Y-1159360D01*
X38584154Y-1159360D02*
X38596535Y-1153170D01*
X38596535Y-1153170D02*
X38602726Y-1146980D01*
X38602726Y-1146980D02*
X38608916Y-1134599D01*
X38608916Y-1134599D02*
X38608916Y-1109837D01*
X38608916Y-1109837D02*
X38602726Y-1097456D01*
X38602726Y-1097456D02*
X38596535Y-1091265D01*
X38596535Y-1091265D02*
X38584154Y-1085075D01*
X6000000Y-28500220D02*
X6000000Y-28700220D01*
X11000000Y-28500220D02*
X11000000Y-28700220D01*
X16000000Y-28500220D02*
X16000000Y-28700220D01*
X21000000Y-28500220D02*
X21000000Y-28700220D01*
X26000000Y-28500220D02*
X26000000Y-28700220D01*
X31000000Y-28500220D02*
X31000000Y-28700220D01*
X36000000Y-28500220D02*
X36000000Y-28700220D01*
X3608916Y-28659580D02*
X3534630Y-28659580D01*
X3571773Y-28659580D02*
X3571773Y-28529580D01*
X3571773Y-28529580D02*
X3559392Y-28548152D01*
X3559392Y-28548152D02*
X3547011Y-28560533D01*
X3547011Y-28560533D02*
X3534630Y-28566723D01*
X8534630Y-28541961D02*
X8540821Y-28535771D01*
X8540821Y-28535771D02*
X8553202Y-28529580D01*
X8553202Y-28529580D02*
X8584154Y-28529580D01*
X8584154Y-28529580D02*
X8596535Y-28535771D01*
X8596535Y-28535771D02*
X8602726Y-28541961D01*
X8602726Y-28541961D02*
X8608916Y-28554342D01*
X8608916Y-28554342D02*
X8608916Y-28566723D01*
X8608916Y-28566723D02*
X8602726Y-28585295D01*
X8602726Y-28585295D02*
X8528440Y-28659580D01*
X8528440Y-28659580D02*
X8608916Y-28659580D01*
X13528440Y-28529580D02*
X13608916Y-28529580D01*
X13608916Y-28529580D02*
X13565583Y-28579104D01*
X13565583Y-28579104D02*
X13584154Y-28579104D01*
X13584154Y-28579104D02*
X13596535Y-28585295D01*
X13596535Y-28585295D02*
X13602725Y-28591485D01*
X13602725Y-28591485D02*
X13608916Y-28603866D01*
X13608916Y-28603866D02*
X13608916Y-28634818D01*
X13608916Y-28634818D02*
X13602725Y-28647199D01*
X13602725Y-28647199D02*
X13596535Y-28653390D01*
X13596535Y-28653390D02*
X13584154Y-28659580D01*
X13584154Y-28659580D02*
X13547011Y-28659580D01*
X13547011Y-28659580D02*
X13534630Y-28653390D01*
X13534630Y-28653390D02*
X13528440Y-28647199D01*
X18596535Y-28572914D02*
X18596535Y-28659580D01*
X18565583Y-28523390D02*
X18534630Y-28616247D01*
X18534630Y-28616247D02*
X18615106Y-28616247D01*
X23602725Y-28529580D02*
X23540821Y-28529580D01*
X23540821Y-28529580D02*
X23534630Y-28591485D01*
X23534630Y-28591485D02*
X23540821Y-28585295D01*
X23540821Y-28585295D02*
X23553202Y-28579104D01*
X23553202Y-28579104D02*
X23584154Y-28579104D01*
X23584154Y-28579104D02*
X23596535Y-28585295D01*
X23596535Y-28585295D02*
X23602725Y-28591485D01*
X23602725Y-28591485D02*
X23608916Y-28603866D01*
X23608916Y-28603866D02*
X23608916Y-28634818D01*
X23608916Y-28634818D02*
X23602725Y-28647199D01*
X23602725Y-28647199D02*
X23596535Y-28653390D01*
X23596535Y-28653390D02*
X23584154Y-28659580D01*
X23584154Y-28659580D02*
X23553202Y-28659580D01*
X23553202Y-28659580D02*
X23540821Y-28653390D01*
X23540821Y-28653390D02*
X23534630Y-28647199D01*
X28596535Y-28529580D02*
X28571773Y-28529580D01*
X28571773Y-28529580D02*
X28559392Y-28535771D01*
X28559392Y-28535771D02*
X28553202Y-28541961D01*
X28553202Y-28541961D02*
X28540821Y-28560533D01*
X28540821Y-28560533D02*
X28534630Y-28585295D01*
X28534630Y-28585295D02*
X28534630Y-28634818D01*
X28534630Y-28634818D02*
X28540821Y-28647199D01*
X28540821Y-28647199D02*
X28547011Y-28653390D01*
X28547011Y-28653390D02*
X28559392Y-28659580D01*
X28559392Y-28659580D02*
X28584154Y-28659580D01*
X28584154Y-28659580D02*
X28596535Y-28653390D01*
X28596535Y-28653390D02*
X28602725Y-28647199D01*
X28602725Y-28647199D02*
X28608916Y-28634818D01*
X28608916Y-28634818D02*
X28608916Y-28603866D01*
X28608916Y-28603866D02*
X28602725Y-28591485D01*
X28602725Y-28591485D02*
X28596535Y-28585295D01*
X28596535Y-28585295D02*
X28584154Y-28579104D01*
X28584154Y-28579104D02*
X28559392Y-28579104D01*
X28559392Y-28579104D02*
X28547011Y-28585295D01*
X28547011Y-28585295D02*
X28540821Y-28591485D01*
X28540821Y-28591485D02*
X28534630Y-28603866D01*
X33528440Y-28529580D02*
X33615106Y-28529580D01*
X33615106Y-28529580D02*
X33559392Y-28659580D01*
X38559392Y-28585295D02*
X38547011Y-28579104D01*
X38547011Y-28579104D02*
X38540821Y-28572914D01*
X38540821Y-28572914D02*
X38534630Y-28560533D01*
X38534630Y-28560533D02*
X38534630Y-28554342D01*
X38534630Y-28554342D02*
X38540821Y-28541961D01*
X38540821Y-28541961D02*
X38547011Y-28535771D01*
X38547011Y-28535771D02*
X38559392Y-28529580D01*
X38559392Y-28529580D02*
X38584154Y-28529580D01*
X38584154Y-28529580D02*
X38596535Y-28535771D01*
X38596535Y-28535771D02*
X38602726Y-28541961D01*
X38602726Y-28541961D02*
X38608916Y-28554342D01*
X38608916Y-28554342D02*
X38608916Y-28560533D01*
X38608916Y-28560533D02*
X38602726Y-28572914D01*
X38602726Y-28572914D02*
X38596535Y-28579104D01*
X38596535Y-28579104D02*
X38584154Y-28585295D01*
X38584154Y-28585295D02*
X38559392Y-28585295D01*
X38559392Y-28585295D02*
X38547011Y-28591485D01*
X38547011Y-28591485D02*
X38540821Y-28597676D01*
X38540821Y-28597676D02*
X38534630Y-28610057D01*
X38534630Y-28610057D02*
X38534630Y-28634818D01*
X38534630Y-28634818D02*
X38540821Y-28647199D01*
X38540821Y-28647199D02*
X38547011Y-28653390D01*
X38547011Y-28653390D02*
X38559392Y-28659580D01*
X38559392Y-28659580D02*
X38584154Y-28659580D01*
X38584154Y-28659580D02*
X38596535Y-28653390D01*
X38596535Y-28653390D02*
X38602726Y-28647199D01*
X38602726Y-28647199D02*
X38608916Y-28634818D01*
X38608916Y-28634818D02*
X38608916Y-28610057D01*
X38608916Y-28610057D02*
X38602726Y-28597676D01*
X38602726Y-28597676D02*
X38596535Y-28591485D01*
X38596535Y-28591485D02*
X38584154Y-28585295D01*
X1000000Y-6000000D02*
X1200000Y-6000000D01*
X1000000Y-11000000D02*
X1200000Y-11000000D01*
X1000000Y-16000000D02*
X1200000Y-16000000D01*
X1000000Y-21000000D02*
X1200000Y-21000000D01*
X1000000Y-26000000D02*
X1200000Y-26000000D01*
X1069048Y-3522218D02*
X1130952Y-3522218D01*
X1056667Y-3559360D02*
X1100000Y-3429360D01*
X1100000Y-3429360D02*
X1143333Y-3559360D01*
X1109286Y-8491265D02*
X1127857Y-8497456D01*
X1127857Y-8497456D02*
X1134048Y-8503646D01*
X1134048Y-8503646D02*
X1140238Y-8516027D01*
X1140238Y-8516027D02*
X1140238Y-8534599D01*
X1140238Y-8534599D02*
X1134048Y-8546980D01*
X1134048Y-8546980D02*
X1127857Y-8553170D01*
X1127857Y-8553170D02*
X1115476Y-8559360D01*
X1115476Y-8559360D02*
X1065952Y-8559360D01*
X1065952Y-8559360D02*
X1065952Y-8429360D01*
X1065952Y-8429360D02*
X1109286Y-8429360D01*
X1109286Y-8429360D02*
X1121667Y-8435551D01*
X1121667Y-8435551D02*
X1127857Y-8441741D01*
X1127857Y-8441741D02*
X1134048Y-8454122D01*
X1134048Y-8454122D02*
X1134048Y-8466503D01*
X1134048Y-8466503D02*
X1127857Y-8478884D01*
X1127857Y-8478884D02*
X1121667Y-8485075D01*
X1121667Y-8485075D02*
X1109286Y-8491265D01*
X1109286Y-8491265D02*
X1065952Y-8491265D01*
X1140238Y-13546979D02*
X1134048Y-13553170D01*
X1134048Y-13553170D02*
X1115476Y-13559360D01*
X1115476Y-13559360D02*
X1103095Y-13559360D01*
X1103095Y-13559360D02*
X1084524Y-13553170D01*
X1084524Y-13553170D02*
X1072143Y-13540789D01*
X1072143Y-13540789D02*
X1065952Y-13528408D01*
X1065952Y-13528408D02*
X1059762Y-13503646D01*
X1059762Y-13503646D02*
X1059762Y-13485075D01*
X1059762Y-13485075D02*
X1065952Y-13460313D01*
X1065952Y-13460313D02*
X1072143Y-13447932D01*
X1072143Y-13447932D02*
X1084524Y-13435551D01*
X1084524Y-13435551D02*
X1103095Y-13429360D01*
X1103095Y-13429360D02*
X1115476Y-13429360D01*
X1115476Y-13429360D02*
X1134048Y-13435551D01*
X1134048Y-13435551D02*
X1140238Y-13441741D01*
X1065952Y-18559360D02*
X1065952Y-18429360D01*
X1065952Y-18429360D02*
X1096905Y-18429360D01*
X1096905Y-18429360D02*
X1115476Y-18435551D01*
X1115476Y-18435551D02*
X1127857Y-18447932D01*
X1127857Y-18447932D02*
X1134048Y-18460313D01*
X1134048Y-18460313D02*
X1140238Y-18485075D01*
X1140238Y-18485075D02*
X1140238Y-18503646D01*
X1140238Y-18503646D02*
X1134048Y-18528408D01*
X1134048Y-18528408D02*
X1127857Y-18540789D01*
X1127857Y-18540789D02*
X1115476Y-18553170D01*
X1115476Y-18553170D02*
X1096905Y-18559360D01*
X1096905Y-18559360D02*
X1065952Y-18559360D01*
X1072143Y-23491265D02*
X1115476Y-23491265D01*
X1134048Y-23559360D02*
X1072143Y-23559360D01*
X1072143Y-23559360D02*
X1072143Y-23429360D01*
X1072143Y-23429360D02*
X1134048Y-23429360D01*
X1118571Y-28491265D02*
X1075238Y-28491265D01*
X1075238Y-28559360D02*
X1075238Y-28429360D01*
X1075238Y-28429360D02*
X1137143Y-28429360D01*
X40998900Y-6000000D02*
X40798900Y-6000000D01*
X40998900Y-11000000D02*
X40798900Y-11000000D01*
X40998900Y-16000000D02*
X40798900Y-16000000D01*
X40998900Y-21000000D02*
X40798900Y-21000000D01*
X40998900Y-26000000D02*
X40798900Y-26000000D01*
X40867948Y-3522218D02*
X40929852Y-3522218D01*
X40855567Y-3559360D02*
X40898900Y-3429360D01*
X40898900Y-3429360D02*
X40942233Y-3559360D01*
X40908186Y-8491265D02*
X40926757Y-8497456D01*
X40926757Y-8497456D02*
X40932948Y-8503646D01*
X40932948Y-8503646D02*
X40939138Y-8516027D01*
X40939138Y-8516027D02*
X40939138Y-8534599D01*
X40939138Y-8534599D02*
X40932948Y-8546980D01*
X40932948Y-8546980D02*
X40926757Y-8553170D01*
X40926757Y-8553170D02*
X40914376Y-8559360D01*
X40914376Y-8559360D02*
X40864852Y-8559360D01*
X40864852Y-8559360D02*
X40864852Y-8429360D01*
X40864852Y-8429360D02*
X40908186Y-8429360D01*
X40908186Y-8429360D02*
X40920567Y-8435551D01*
X40920567Y-8435551D02*
X40926757Y-8441741D01*
X40926757Y-8441741D02*
X40932948Y-8454122D01*
X40932948Y-8454122D02*
X40932948Y-8466503D01*
X40932948Y-8466503D02*
X40926757Y-8478884D01*
X40926757Y-8478884D02*
X40920567Y-8485075D01*
X40920567Y-8485075D02*
X40908186Y-8491265D01*
X40908186Y-8491265D02*
X40864852Y-8491265D01*
X40939138Y-13546979D02*
X40932948Y-13553170D01*
X40932948Y-13553170D02*
X40914376Y-13559360D01*
X40914376Y-13559360D02*
X40901995Y-13559360D01*
X40901995Y-13559360D02*
X40883424Y-13553170D01*
X40883424Y-13553170D02*
X40871043Y-13540789D01*
X40871043Y-13540789D02*
X40864852Y-13528408D01*
X40864852Y-13528408D02*
X40858662Y-13503646D01*
X40858662Y-13503646D02*
X40858662Y-13485075D01*
X40858662Y-13485075D02*
X40864852Y-13460313D01*
X40864852Y-13460313D02*
X40871043Y-13447932D01*
X40871043Y-13447932D02*
X40883424Y-13435551D01*
X40883424Y-13435551D02*
X40901995Y-13429360D01*
X40901995Y-13429360D02*
X40914376Y-13429360D01*
X40914376Y-13429360D02*
X40932948Y-13435551D01*
X40932948Y-13435551D02*
X40939138Y-13441741D01*
X40864852Y-18559360D02*
X40864852Y-18429360D01*
X40864852Y-18429360D02*
X40895805Y-18429360D01*
X40895805Y-18429360D02*
X40914376Y-18435551D01*
X40914376Y-18435551D02*
X40926757Y-18447932D01*
X40926757Y-18447932D02*
X40932948Y-18460313D01*
X40932948Y-18460313D02*
X40939138Y-18485075D01*
X40939138Y-18485075D02*
X40939138Y-18503646D01*
X40939138Y-18503646D02*
X40932948Y-18528408D01*
X40932948Y-18528408D02*
X40926757Y-18540789D01*
X40926757Y-18540789D02*
X40914376Y-18553170D01*
X40914376Y-18553170D02*
X40895805Y-18559360D01*
X40895805Y-18559360D02*
X40864852Y-18559360D01*
X40871043Y-23491265D02*
X40914376Y-23491265D01*
X40932948Y-23559360D02*
X40871043Y-23559360D01*
X40871043Y-23559360D02*
X40871043Y-23429360D01*
X40871043Y-23429360D02*
X40932948Y-23429360D01*
X40917471Y-28491265D02*
X40874138Y-28491265D01*
X40874138Y-28559360D02*
X40874138Y-28429360D01*
X40874138Y-28429360D02*
X40936043Y-28429360D01*
X32344483Y-28078833D02*
X32344483Y-27928833D01*
X32344483Y-27928833D02*
X32380197Y-27928833D01*
X32380197Y-27928833D02*
X32401625Y-27935976D01*
X32401625Y-27935976D02*
X32415911Y-27950261D01*
X32415911Y-27950261D02*
X32423054Y-27964547D01*
X32423054Y-27964547D02*
X32430197Y-27993118D01*
X32430197Y-27993118D02*
X32430197Y-28014547D01*
X32430197Y-28014547D02*
X32423054Y-28043118D01*
X32423054Y-28043118D02*
X32415911Y-28057404D01*
X32415911Y-28057404D02*
X32401625Y-28071690D01*
X32401625Y-28071690D02*
X32380197Y-28078833D01*
X32380197Y-28078833D02*
X32344483Y-28078833D01*
X32558768Y-28078833D02*
X32558768Y-28000261D01*
X32558768Y-28000261D02*
X32551625Y-27985976D01*
X32551625Y-27985976D02*
X32537340Y-27978833D01*
X32537340Y-27978833D02*
X32508768Y-27978833D01*
X32508768Y-27978833D02*
X32494483Y-27985976D01*
X32558768Y-28071690D02*
X32544483Y-28078833D01*
X32544483Y-28078833D02*
X32508768Y-28078833D01*
X32508768Y-28078833D02*
X32494483Y-28071690D01*
X32494483Y-28071690D02*
X32487340Y-28057404D01*
X32487340Y-28057404D02*
X32487340Y-28043118D01*
X32487340Y-28043118D02*
X32494483Y-28028833D01*
X32494483Y-28028833D02*
X32508768Y-28021690D01*
X32508768Y-28021690D02*
X32544483Y-28021690D01*
X32544483Y-28021690D02*
X32558768Y-28014547D01*
X32608768Y-27978833D02*
X32665911Y-27978833D01*
X32630197Y-27928833D02*
X32630197Y-28057404D01*
X32630197Y-28057404D02*
X32637340Y-28071690D01*
X32637340Y-28071690D02*
X32651625Y-28078833D01*
X32651625Y-28078833D02*
X32665911Y-28078833D01*
X32773054Y-28071690D02*
X32758768Y-28078833D01*
X32758768Y-28078833D02*
X32730197Y-28078833D01*
X32730197Y-28078833D02*
X32715911Y-28071690D01*
X32715911Y-28071690D02*
X32708768Y-28057404D01*
X32708768Y-28057404D02*
X32708768Y-28000261D01*
X32708768Y-28000261D02*
X32715911Y-27985976D01*
X32715911Y-27985976D02*
X32730197Y-27978833D01*
X32730197Y-27978833D02*
X32758768Y-27978833D01*
X32758768Y-27978833D02*
X32773054Y-27985976D01*
X32773054Y-27985976D02*
X32780197Y-28000261D01*
X32780197Y-28000261D02*
X32780197Y-28014547D01*
X32780197Y-28014547D02*
X32708768Y-28028833D01*
X32844483Y-28064547D02*
X32851625Y-28071690D01*
X32851625Y-28071690D02*
X32844483Y-28078833D01*
X32844483Y-28078833D02*
X32837340Y-28071690D01*
X32837340Y-28071690D02*
X32844483Y-28064547D01*
X32844483Y-28064547D02*
X32844483Y-28078833D01*
X32844483Y-27985976D02*
X32851625Y-27993118D01*
X32851625Y-27993118D02*
X32844483Y-28000261D01*
X32844483Y-28000261D02*
X32837340Y-27993118D01*
X32837340Y-27993118D02*
X32844483Y-27985976D01*
X32844483Y-27985976D02*
X32844483Y-28000261D01*
X33023054Y-27943118D02*
X33030197Y-27935976D01*
X33030197Y-27935976D02*
X33044483Y-27928833D01*
X33044483Y-27928833D02*
X33080197Y-27928833D01*
X33080197Y-27928833D02*
X33094483Y-27935976D01*
X33094483Y-27935976D02*
X33101625Y-27943118D01*
X33101625Y-27943118D02*
X33108768Y-27957404D01*
X33108768Y-27957404D02*
X33108768Y-27971690D01*
X33108768Y-27971690D02*
X33101625Y-27993118D01*
X33101625Y-27993118D02*
X33015911Y-28078833D01*
X33015911Y-28078833D02*
X33108768Y-28078833D01*
X33201625Y-27928833D02*
X33215911Y-27928833D01*
X33215911Y-27928833D02*
X33230197Y-27935976D01*
X33230197Y-27935976D02*
X33237340Y-27943118D01*
X33237340Y-27943118D02*
X33244483Y-27957404D01*
X33244483Y-27957404D02*
X33251625Y-27985976D01*
X33251625Y-27985976D02*
X33251625Y-28021690D01*
X33251625Y-28021690D02*
X33244483Y-28050261D01*
X33244483Y-28050261D02*
X33237340Y-28064547D01*
X33237340Y-28064547D02*
X33230197Y-28071690D01*
X33230197Y-28071690D02*
X33215911Y-28078833D01*
X33215911Y-28078833D02*
X33201625Y-28078833D01*
X33201625Y-28078833D02*
X33187340Y-28071690D01*
X33187340Y-28071690D02*
X33180197Y-28064547D01*
X33180197Y-28064547D02*
X33173054Y-28050261D01*
X33173054Y-28050261D02*
X33165911Y-28021690D01*
X33165911Y-28021690D02*
X33165911Y-27985976D01*
X33165911Y-27985976D02*
X33173054Y-27957404D01*
X33173054Y-27957404D02*
X33180197Y-27943118D01*
X33180197Y-27943118D02*
X33187340Y-27935976D01*
X33187340Y-27935976D02*
X33201625Y-27928833D01*
X33308768Y-27943118D02*
X33315911Y-27935976D01*
X33315911Y-27935976D02*
X33330197Y-27928833D01*
X33330197Y-27928833D02*
X33365911Y-27928833D01*
X33365911Y-27928833D02*
X33380197Y-27935976D01*
X33380197Y-27935976D02*
X33387340Y-27943118D01*
X33387340Y-27943118D02*
X33394483Y-27957404D01*
X33394483Y-27957404D02*
X33394483Y-27971690D01*
X33394483Y-27971690D02*
X33387340Y-27993118D01*
X33387340Y-27993118D02*
X33301625Y-28078833D01*
X33301625Y-28078833D02*
X33394483Y-28078833D01*
X33523054Y-27928833D02*
X33494482Y-27928833D01*
X33494482Y-27928833D02*
X33480197Y-27935976D01*
X33480197Y-27935976D02*
X33473054Y-27943118D01*
X33473054Y-27943118D02*
X33458768Y-27964547D01*
X33458768Y-27964547D02*
X33451625Y-27993118D01*
X33451625Y-27993118D02*
X33451625Y-28050261D01*
X33451625Y-28050261D02*
X33458768Y-28064547D01*
X33458768Y-28064547D02*
X33465911Y-28071690D01*
X33465911Y-28071690D02*
X33480197Y-28078833D01*
X33480197Y-28078833D02*
X33508768Y-28078833D01*
X33508768Y-28078833D02*
X33523054Y-28071690D01*
X33523054Y-28071690D02*
X33530197Y-28064547D01*
X33530197Y-28064547D02*
X33537340Y-28050261D01*
X33537340Y-28050261D02*
X33537340Y-28014547D01*
X33537340Y-28014547D02*
X33530197Y-28000261D01*
X33530197Y-28000261D02*
X33523054Y-27993118D01*
X33523054Y-27993118D02*
X33508768Y-27985976D01*
X33508768Y-27985976D02*
X33480197Y-27985976D01*
X33480197Y-27985976D02*
X33465911Y-27993118D01*
X33465911Y-27993118D02*
X33458768Y-28000261D01*
X33458768Y-28000261D02*
X33451625Y-28014547D01*
X33601625Y-28021690D02*
X33715911Y-28021690D01*
X33815911Y-27928833D02*
X33830197Y-27928833D01*
X33830197Y-27928833D02*
X33844483Y-27935976D01*
X33844483Y-27935976D02*
X33851625Y-27943118D01*
X33851625Y-27943118D02*
X33858768Y-27957404D01*
X33858768Y-27957404D02*
X33865911Y-27985976D01*
X33865911Y-27985976D02*
X33865911Y-28021690D01*
X33865911Y-28021690D02*
X33858768Y-28050261D01*
X33858768Y-28050261D02*
X33851625Y-28064547D01*
X33851625Y-28064547D02*
X33844483Y-28071690D01*
X33844483Y-28071690D02*
X33830197Y-28078833D01*
X33830197Y-28078833D02*
X33815911Y-28078833D01*
X33815911Y-28078833D02*
X33801625Y-28071690D01*
X33801625Y-28071690D02*
X33794483Y-28064547D01*
X33794483Y-28064547D02*
X33787340Y-28050261D01*
X33787340Y-28050261D02*
X33780197Y-28021690D01*
X33780197Y-28021690D02*
X33780197Y-27985976D01*
X33780197Y-27985976D02*
X33787340Y-27957404D01*
X33787340Y-27957404D02*
X33794483Y-27943118D01*
X33794483Y-27943118D02*
X33801625Y-27935976D01*
X33801625Y-27935976D02*
X33815911Y-27928833D01*
X34001625Y-27928833D02*
X33930197Y-27928833D01*
X33930197Y-27928833D02*
X33923054Y-28000261D01*
X33923054Y-28000261D02*
X33930197Y-27993118D01*
X33930197Y-27993118D02*
X33944483Y-27985976D01*
X33944483Y-27985976D02*
X33980197Y-27985976D01*
X33980197Y-27985976D02*
X33994483Y-27993118D01*
X33994483Y-27993118D02*
X34001625Y-28000261D01*
X34001625Y-28000261D02*
X34008768Y-28014547D01*
X34008768Y-28014547D02*
X34008768Y-28050261D01*
X34008768Y-28050261D02*
X34001625Y-28064547D01*
X34001625Y-28064547D02*
X33994483Y-28071690D01*
X33994483Y-28071690D02*
X33980197Y-28078833D01*
X33980197Y-28078833D02*
X33944483Y-28078833D01*
X33944483Y-28078833D02*
X33930197Y-28071690D01*
X33930197Y-28071690D02*
X33923054Y-28064547D01*
X34073054Y-28021690D02*
X34187340Y-28021690D01*
X34337340Y-28078833D02*
X34251625Y-28078833D01*
X34294482Y-28078833D02*
X34294482Y-27928833D01*
X34294482Y-27928833D02*
X34280197Y-27950261D01*
X34280197Y-27950261D02*
X34265911Y-27964547D01*
X34265911Y-27964547D02*
X34251625Y-27971690D01*
X34465911Y-27928833D02*
X34437340Y-27928833D01*
X34437340Y-27928833D02*
X34423054Y-27935976D01*
X34423054Y-27935976D02*
X34415911Y-27943118D01*
X34415911Y-27943118D02*
X34401625Y-27964547D01*
X34401625Y-27964547D02*
X34394482Y-27993118D01*
X34394482Y-27993118D02*
X34394482Y-28050261D01*
X34394482Y-28050261D02*
X34401625Y-28064547D01*
X34401625Y-28064547D02*
X34408768Y-28071690D01*
X34408768Y-28071690D02*
X34423054Y-28078833D01*
X34423054Y-28078833D02*
X34451625Y-28078833D01*
X34451625Y-28078833D02*
X34465911Y-28071690D01*
X34465911Y-28071690D02*
X34473054Y-28064547D01*
X34473054Y-28064547D02*
X34480197Y-28050261D01*
X34480197Y-28050261D02*
X34480197Y-28014547D01*
X34480197Y-28014547D02*
X34473054Y-28000261D01*
X34473054Y-28000261D02*
X34465911Y-27993118D01*
X34465911Y-27993118D02*
X34451625Y-27985976D01*
X34451625Y-27985976D02*
X34423054Y-27985976D01*
X34423054Y-27985976D02*
X34408768Y-27993118D01*
X34408768Y-27993118D02*
X34401625Y-28000261D01*
X34401625Y-28000261D02*
X34394482Y-28014547D01*
X29998900Y-28150220D02*
X40798900Y-28150220D01*
X30144483Y-28358833D02*
X30144483Y-28208833D01*
X30230197Y-28358833D02*
X30165911Y-28273118D01*
X30230197Y-28208833D02*
X30144483Y-28294547D01*
X30294483Y-28358833D02*
X30294483Y-28258833D01*
X30294483Y-28208833D02*
X30287340Y-28215976D01*
X30287340Y-28215976D02*
X30294483Y-28223118D01*
X30294483Y-28223118D02*
X30301625Y-28215976D01*
X30301625Y-28215976D02*
X30294483Y-28208833D01*
X30294483Y-28208833D02*
X30294483Y-28223118D01*
X30451625Y-28344547D02*
X30444483Y-28351690D01*
X30444483Y-28351690D02*
X30423054Y-28358833D01*
X30423054Y-28358833D02*
X30408768Y-28358833D01*
X30408768Y-28358833D02*
X30387340Y-28351690D01*
X30387340Y-28351690D02*
X30373054Y-28337404D01*
X30373054Y-28337404D02*
X30365911Y-28323118D01*
X30365911Y-28323118D02*
X30358768Y-28294547D01*
X30358768Y-28294547D02*
X30358768Y-28273118D01*
X30358768Y-28273118D02*
X30365911Y-28244547D01*
X30365911Y-28244547D02*
X30373054Y-28230261D01*
X30373054Y-28230261D02*
X30387340Y-28215976D01*
X30387340Y-28215976D02*
X30408768Y-28208833D01*
X30408768Y-28208833D02*
X30423054Y-28208833D01*
X30423054Y-28208833D02*
X30444483Y-28215976D01*
X30444483Y-28215976D02*
X30451625Y-28223118D01*
X30580197Y-28358833D02*
X30580197Y-28280261D01*
X30580197Y-28280261D02*
X30573054Y-28265976D01*
X30573054Y-28265976D02*
X30558768Y-28258833D01*
X30558768Y-28258833D02*
X30530197Y-28258833D01*
X30530197Y-28258833D02*
X30515911Y-28265976D01*
X30580197Y-28351690D02*
X30565911Y-28358833D01*
X30565911Y-28358833D02*
X30530197Y-28358833D01*
X30530197Y-28358833D02*
X30515911Y-28351690D01*
X30515911Y-28351690D02*
X30508768Y-28337404D01*
X30508768Y-28337404D02*
X30508768Y-28323118D01*
X30508768Y-28323118D02*
X30515911Y-28308833D01*
X30515911Y-28308833D02*
X30530197Y-28301690D01*
X30530197Y-28301690D02*
X30565911Y-28301690D01*
X30565911Y-28301690D02*
X30580197Y-28294547D01*
X30715911Y-28358833D02*
X30715911Y-28208833D01*
X30715911Y-28351690D02*
X30701625Y-28358833D01*
X30701625Y-28358833D02*
X30673054Y-28358833D01*
X30673054Y-28358833D02*
X30658768Y-28351690D01*
X30658768Y-28351690D02*
X30651625Y-28344547D01*
X30651625Y-28344547D02*
X30644483Y-28330261D01*
X30644483Y-28330261D02*
X30644483Y-28287404D01*
X30644483Y-28287404D02*
X30651625Y-28273118D01*
X30651625Y-28273118D02*
X30658768Y-28265976D01*
X30658768Y-28265976D02*
X30673054Y-28258833D01*
X30673054Y-28258833D02*
X30701625Y-28258833D01*
X30701625Y-28258833D02*
X30715911Y-28265976D01*
X30901625Y-28280261D02*
X30951625Y-28280261D01*
X30973054Y-28358833D02*
X30901625Y-28358833D01*
X30901625Y-28358833D02*
X30901625Y-28208833D01*
X30901625Y-28208833D02*
X30973054Y-28208833D01*
X31037340Y-28344547D02*
X31044483Y-28351690D01*
X31044483Y-28351690D02*
X31037340Y-28358833D01*
X31037340Y-28358833D02*
X31030197Y-28351690D01*
X31030197Y-28351690D02*
X31037340Y-28344547D01*
X31037340Y-28344547D02*
X31037340Y-28358833D01*
X31108768Y-28358833D02*
X31108768Y-28208833D01*
X31108768Y-28208833D02*
X31144483Y-28208833D01*
X31144483Y-28208833D02*
X31165911Y-28215976D01*
X31165911Y-28215976D02*
X31180197Y-28230261D01*
X31180197Y-28230261D02*
X31187340Y-28244547D01*
X31187340Y-28244547D02*
X31194483Y-28273118D01*
X31194483Y-28273118D02*
X31194483Y-28294547D01*
X31194483Y-28294547D02*
X31187340Y-28323118D01*
X31187340Y-28323118D02*
X31180197Y-28337404D01*
X31180197Y-28337404D02*
X31165911Y-28351690D01*
X31165911Y-28351690D02*
X31144483Y-28358833D01*
X31144483Y-28358833D02*
X31108768Y-28358833D01*
X31258768Y-28344547D02*
X31265911Y-28351690D01*
X31265911Y-28351690D02*
X31258768Y-28358833D01*
X31258768Y-28358833D02*
X31251626Y-28351690D01*
X31251626Y-28351690D02*
X31258768Y-28344547D01*
X31258768Y-28344547D02*
X31258768Y-28358833D01*
X31323054Y-28315976D02*
X31394483Y-28315976D01*
X31308768Y-28358833D02*
X31358768Y-28208833D01*
X31358768Y-28208833D02*
X31408768Y-28358833D01*
X31458768Y-28344547D02*
X31465911Y-28351690D01*
X31465911Y-28351690D02*
X31458768Y-28358833D01*
X31458768Y-28358833D02*
X31451626Y-28351690D01*
X31451626Y-28351690D02*
X31458768Y-28344547D01*
X31458768Y-28344547D02*
X31458768Y-28358833D01*
X31723054Y-28358833D02*
X31637340Y-28358833D01*
X31680197Y-28358833D02*
X31680197Y-28208833D01*
X31680197Y-28208833D02*
X31665911Y-28230261D01*
X31665911Y-28230261D02*
X31651626Y-28244547D01*
X31651626Y-28244547D02*
X31637340Y-28251690D01*
X31815911Y-28208833D02*
X31830197Y-28208833D01*
X31830197Y-28208833D02*
X31844483Y-28215976D01*
X31844483Y-28215976D02*
X31851626Y-28223118D01*
X31851626Y-28223118D02*
X31858768Y-28237404D01*
X31858768Y-28237404D02*
X31865911Y-28265976D01*
X31865911Y-28265976D02*
X31865911Y-28301690D01*
X31865911Y-28301690D02*
X31858768Y-28330261D01*
X31858768Y-28330261D02*
X31851626Y-28344547D01*
X31851626Y-28344547D02*
X31844483Y-28351690D01*
X31844483Y-28351690D02*
X31830197Y-28358833D01*
X31830197Y-28358833D02*
X31815911Y-28358833D01*
X31815911Y-28358833D02*
X31801626Y-28351690D01*
X31801626Y-28351690D02*
X31794483Y-28344547D01*
X31794483Y-28344547D02*
X31787340Y-28330261D01*
X31787340Y-28330261D02*
X31780197Y-28301690D01*
X31780197Y-28301690D02*
X31780197Y-28265976D01*
X31780197Y-28265976D02*
X31787340Y-28237404D01*
X31787340Y-28237404D02*
X31794483Y-28223118D01*
X31794483Y-28223118D02*
X31801626Y-28215976D01*
X31801626Y-28215976D02*
X31815911Y-28208833D01*
X31930197Y-28344547D02*
X31937340Y-28351690D01*
X31937340Y-28351690D02*
X31930197Y-28358833D01*
X31930197Y-28358833D02*
X31923054Y-28351690D01*
X31923054Y-28351690D02*
X31930197Y-28344547D01*
X31930197Y-28344547D02*
X31930197Y-28358833D01*
X32030197Y-28208833D02*
X32044483Y-28208833D01*
X32044483Y-28208833D02*
X32058768Y-28215976D01*
X32058768Y-28215976D02*
X32065911Y-28223118D01*
X32065911Y-28223118D02*
X32073054Y-28237404D01*
X32073054Y-28237404D02*
X32080197Y-28265976D01*
X32080197Y-28265976D02*
X32080197Y-28301690D01*
X32080197Y-28301690D02*
X32073054Y-28330261D01*
X32073054Y-28330261D02*
X32065911Y-28344547D01*
X32065911Y-28344547D02*
X32058768Y-28351690D01*
X32058768Y-28351690D02*
X32044483Y-28358833D01*
X32044483Y-28358833D02*
X32030197Y-28358833D01*
X32030197Y-28358833D02*
X32015911Y-28351690D01*
X32015911Y-28351690D02*
X32008768Y-28344547D01*
X32008768Y-28344547D02*
X32001625Y-28330261D01*
X32001625Y-28330261D02*
X31994483Y-28301690D01*
X31994483Y-28301690D02*
X31994483Y-28265976D01*
X31994483Y-28265976D02*
X32001625Y-28237404D01*
X32001625Y-28237404D02*
X32008768Y-28223118D01*
X32008768Y-28223118D02*
X32015911Y-28215976D01*
X32015911Y-28215976D02*
X32030197Y-28208833D01*
X32144483Y-28344547D02*
X32151625Y-28351690D01*
X32151625Y-28351690D02*
X32144483Y-28358833D01*
X32144483Y-28358833D02*
X32137340Y-28351690D01*
X32137340Y-28351690D02*
X32144483Y-28344547D01*
X32144483Y-28344547D02*
X32144483Y-28358833D01*
X32201625Y-28208833D02*
X32294483Y-28208833D01*
X32294483Y-28208833D02*
X32244483Y-28265976D01*
X32244483Y-28265976D02*
X32265911Y-28265976D01*
X32265911Y-28265976D02*
X32280197Y-28273118D01*
X32280197Y-28273118D02*
X32287340Y-28280261D01*
X32287340Y-28280261D02*
X32294483Y-28294547D01*
X32294483Y-28294547D02*
X32294483Y-28330261D01*
X32294483Y-28330261D02*
X32287340Y-28344547D01*
X32287340Y-28344547D02*
X32280197Y-28351690D01*
X32280197Y-28351690D02*
X32265911Y-28358833D01*
X32265911Y-28358833D02*
X32223054Y-28358833D01*
X32223054Y-28358833D02*
X32208768Y-28351690D01*
X32208768Y-28351690D02*
X32201625Y-28344547D01*
X29998900Y-27850220D02*
X40798900Y-27850220D01*
D11*
X38740065Y-28078053D02*
X38690065Y-28006624D01*
X38654351Y-28078053D02*
X38654351Y-27928053D01*
X38654351Y-27928053D02*
X38711494Y-27928053D01*
X38711494Y-27928053D02*
X38725780Y-27935196D01*
X38725780Y-27935196D02*
X38732923Y-27942338D01*
X38732923Y-27942338D02*
X38740065Y-27956624D01*
X38740065Y-27956624D02*
X38740065Y-27978053D01*
X38740065Y-27978053D02*
X38732923Y-27992338D01*
X38732923Y-27992338D02*
X38725780Y-27999481D01*
X38725780Y-27999481D02*
X38711494Y-28006624D01*
X38711494Y-28006624D02*
X38654351Y-28006624D01*
X38861494Y-28070910D02*
X38847208Y-28078053D01*
X38847208Y-28078053D02*
X38818637Y-28078053D01*
X38818637Y-28078053D02*
X38804351Y-28070910D01*
X38804351Y-28070910D02*
X38797208Y-28056624D01*
X38797208Y-28056624D02*
X38797208Y-27999481D01*
X38797208Y-27999481D02*
X38804351Y-27985196D01*
X38804351Y-27985196D02*
X38818637Y-27978053D01*
X38818637Y-27978053D02*
X38847208Y-27978053D01*
X38847208Y-27978053D02*
X38861494Y-27985196D01*
X38861494Y-27985196D02*
X38868637Y-27999481D01*
X38868637Y-27999481D02*
X38868637Y-28013767D01*
X38868637Y-28013767D02*
X38797208Y-28028053D01*
X38918637Y-27978053D02*
X38954351Y-28078053D01*
X38954351Y-28078053D02*
X38990065Y-27978053D01*
X39047208Y-28063767D02*
X39054351Y-28070910D01*
X39054351Y-28070910D02*
X39047208Y-28078053D01*
X39047208Y-28078053D02*
X39040065Y-28070910D01*
X39040065Y-28070910D02*
X39047208Y-28063767D01*
X39047208Y-28063767D02*
X39047208Y-28078053D01*
X39047208Y-27985196D02*
X39054351Y-27992338D01*
X39054351Y-27992338D02*
X39047208Y-27999481D01*
X39047208Y-27999481D02*
X39040065Y-27992338D01*
X39040065Y-27992338D02*
X39047208Y-27985196D01*
X39047208Y-27985196D02*
X39047208Y-27999481D01*
D10*
X30137340Y-28071690D02*
X30158768Y-28078833D01*
X30158768Y-28078833D02*
X30194483Y-28078833D01*
X30194483Y-28078833D02*
X30208768Y-28071690D01*
X30208768Y-28071690D02*
X30215911Y-28064547D01*
X30215911Y-28064547D02*
X30223054Y-28050261D01*
X30223054Y-28050261D02*
X30223054Y-28035976D01*
X30223054Y-28035976D02*
X30215911Y-28021690D01*
X30215911Y-28021690D02*
X30208768Y-28014547D01*
X30208768Y-28014547D02*
X30194483Y-28007404D01*
X30194483Y-28007404D02*
X30165911Y-28000261D01*
X30165911Y-28000261D02*
X30151625Y-27993118D01*
X30151625Y-27993118D02*
X30144483Y-27985976D01*
X30144483Y-27985976D02*
X30137340Y-27971690D01*
X30137340Y-27971690D02*
X30137340Y-27957404D01*
X30137340Y-27957404D02*
X30144483Y-27943118D01*
X30144483Y-27943118D02*
X30151625Y-27935976D01*
X30151625Y-27935976D02*
X30165911Y-27928833D01*
X30165911Y-27928833D02*
X30201625Y-27928833D01*
X30201625Y-27928833D02*
X30223054Y-27935976D01*
X30287340Y-28078833D02*
X30287340Y-27978833D01*
X30287340Y-27928833D02*
X30280197Y-27935976D01*
X30280197Y-27935976D02*
X30287340Y-27943118D01*
X30287340Y-27943118D02*
X30294483Y-27935976D01*
X30294483Y-27935976D02*
X30287340Y-27928833D01*
X30287340Y-27928833D02*
X30287340Y-27943118D01*
X30344483Y-27978833D02*
X30423054Y-27978833D01*
X30423054Y-27978833D02*
X30344483Y-28078833D01*
X30344483Y-28078833D02*
X30423054Y-28078833D01*
X30537340Y-28071690D02*
X30523054Y-28078833D01*
X30523054Y-28078833D02*
X30494483Y-28078833D01*
X30494483Y-28078833D02*
X30480197Y-28071690D01*
X30480197Y-28071690D02*
X30473054Y-28057404D01*
X30473054Y-28057404D02*
X30473054Y-28000261D01*
X30473054Y-28000261D02*
X30480197Y-27985976D01*
X30480197Y-27985976D02*
X30494483Y-27978833D01*
X30494483Y-27978833D02*
X30523054Y-27978833D01*
X30523054Y-27978833D02*
X30537340Y-27985976D01*
X30537340Y-27985976D02*
X30544483Y-28000261D01*
X30544483Y-28000261D02*
X30544483Y-28014547D01*
X30544483Y-28014547D02*
X30473054Y-28028833D01*
X30608768Y-28064547D02*
X30615911Y-28071690D01*
X30615911Y-28071690D02*
X30608768Y-28078833D01*
X30608768Y-28078833D02*
X30601625Y-28071690D01*
X30601625Y-28071690D02*
X30608768Y-28064547D01*
X30608768Y-28064547D02*
X30608768Y-28078833D01*
X30608768Y-27985976D02*
X30615911Y-27993118D01*
X30615911Y-27993118D02*
X30608768Y-28000261D01*
X30608768Y-28000261D02*
X30601625Y-27993118D01*
X30601625Y-27993118D02*
X30608768Y-27985976D01*
X30608768Y-27985976D02*
X30608768Y-28000261D01*
X30787340Y-28035976D02*
X30858768Y-28035976D01*
X30773054Y-28078833D02*
X30823054Y-27928833D01*
X30823054Y-27928833D02*
X30873054Y-28078833D01*
X30908768Y-27928833D02*
X31001625Y-27928833D01*
X31001625Y-27928833D02*
X30951625Y-27985976D01*
X30951625Y-27985976D02*
X30973054Y-27985976D01*
X30973054Y-27985976D02*
X30987340Y-27993118D01*
X30987340Y-27993118D02*
X30994483Y-28000261D01*
X30994483Y-28000261D02*
X31001625Y-28014547D01*
X31001625Y-28014547D02*
X31001625Y-28050261D01*
X31001625Y-28050261D02*
X30994483Y-28064547D01*
X30994483Y-28064547D02*
X30987340Y-28071690D01*
X30987340Y-28071690D02*
X30973054Y-28078833D01*
X30973054Y-28078833D02*
X30930197Y-28078833D01*
X30930197Y-28078833D02*
X30915911Y-28071690D01*
X30915911Y-28071690D02*
X30908768Y-28064547D01*
X38644483Y-28358833D02*
X38644483Y-28208833D01*
X38780197Y-28358833D02*
X38780197Y-28208833D01*
X38780197Y-28351690D02*
X38765911Y-28358833D01*
X38765911Y-28358833D02*
X38737340Y-28358833D01*
X38737340Y-28358833D02*
X38723054Y-28351690D01*
X38723054Y-28351690D02*
X38715911Y-28344547D01*
X38715911Y-28344547D02*
X38708768Y-28330261D01*
X38708768Y-28330261D02*
X38708768Y-28287404D01*
X38708768Y-28287404D02*
X38715911Y-28273118D01*
X38715911Y-28273118D02*
X38723054Y-28265976D01*
X38723054Y-28265976D02*
X38737340Y-28258833D01*
X38737340Y-28258833D02*
X38765911Y-28258833D01*
X38765911Y-28258833D02*
X38780197Y-28265976D01*
X38851626Y-28344547D02*
X38858768Y-28351690D01*
X38858768Y-28351690D02*
X38851626Y-28358833D01*
X38851626Y-28358833D02*
X38844483Y-28351690D01*
X38844483Y-28351690D02*
X38851626Y-28344547D01*
X38851626Y-28344547D02*
X38851626Y-28358833D01*
X38851626Y-28265976D02*
X38858768Y-28273118D01*
X38858768Y-28273118D02*
X38851626Y-28280261D01*
X38851626Y-28280261D02*
X38844483Y-28273118D01*
X38844483Y-28273118D02*
X38851626Y-28265976D01*
X38851626Y-28265976D02*
X38851626Y-28280261D01*
X39115911Y-28358833D02*
X39030197Y-28358833D01*
X39073054Y-28358833D02*
X39073054Y-28208833D01*
X39073054Y-28208833D02*
X39058768Y-28230261D01*
X39058768Y-28230261D02*
X39044483Y-28244547D01*
X39044483Y-28244547D02*
X39030197Y-28251690D01*
X39287340Y-28201690D02*
X39158768Y-28394547D01*
X39323054Y-28208833D02*
X39423054Y-28208833D01*
X39423054Y-28208833D02*
X39358768Y-28358833D01*
X29998900Y-27450220D02*
X40798900Y-27450220D01*
D12*
X30168073Y-27520664D02*
X30282358Y-27520664D01*
X30200216Y-27720664D02*
X30225216Y-27520664D01*
X30324025Y-27720664D02*
X30340692Y-27587330D01*
X30349025Y-27520664D02*
X30338311Y-27530188D01*
X30338311Y-27530188D02*
X30346644Y-27539711D01*
X30346644Y-27539711D02*
X30357359Y-27530188D01*
X30357359Y-27530188D02*
X30349025Y-27520664D01*
X30349025Y-27520664D02*
X30346644Y-27539711D01*
X30407359Y-27587330D02*
X30483549Y-27587330D01*
X30444263Y-27520664D02*
X30422835Y-27692092D01*
X30422835Y-27692092D02*
X30429978Y-27711140D01*
X30429978Y-27711140D02*
X30447835Y-27720664D01*
X30447835Y-27720664D02*
X30466882Y-27720664D01*
X30562120Y-27720664D02*
X30544263Y-27711140D01*
X30544263Y-27711140D02*
X30537120Y-27692092D01*
X30537120Y-27692092D02*
X30558549Y-27520664D01*
X30715692Y-27711140D02*
X30695454Y-27720664D01*
X30695454Y-27720664D02*
X30657358Y-27720664D01*
X30657358Y-27720664D02*
X30639501Y-27711140D01*
X30639501Y-27711140D02*
X30632358Y-27692092D01*
X30632358Y-27692092D02*
X30641882Y-27615902D01*
X30641882Y-27615902D02*
X30653787Y-27596854D01*
X30653787Y-27596854D02*
X30674025Y-27587330D01*
X30674025Y-27587330D02*
X30712120Y-27587330D01*
X30712120Y-27587330D02*
X30729978Y-27596854D01*
X30729978Y-27596854D02*
X30737120Y-27615902D01*
X30737120Y-27615902D02*
X30734739Y-27634949D01*
X30734739Y-27634949D02*
X30637120Y-27653997D01*
X30812120Y-27701616D02*
X30820454Y-27711140D01*
X30820454Y-27711140D02*
X30809739Y-27720664D01*
X30809739Y-27720664D02*
X30801406Y-27711140D01*
X30801406Y-27711140D02*
X30812120Y-27701616D01*
X30812120Y-27701616D02*
X30809739Y-27720664D01*
X30825216Y-27596854D02*
X30833549Y-27606378D01*
X30833549Y-27606378D02*
X30822835Y-27615902D01*
X30822835Y-27615902D02*
X30814501Y-27606378D01*
X30814501Y-27606378D02*
X30825216Y-27596854D01*
X30825216Y-27596854D02*
X30822835Y-27615902D01*
X31057359Y-27720664D02*
X31082359Y-27520664D01*
X31082359Y-27520664D02*
X31129978Y-27520664D01*
X31129978Y-27520664D02*
X31157359Y-27530188D01*
X31157359Y-27530188D02*
X31174025Y-27549235D01*
X31174025Y-27549235D02*
X31181168Y-27568283D01*
X31181168Y-27568283D02*
X31185930Y-27606378D01*
X31185930Y-27606378D02*
X31182359Y-27634949D01*
X31182359Y-27634949D02*
X31168073Y-27673045D01*
X31168073Y-27673045D02*
X31156168Y-27692092D01*
X31156168Y-27692092D02*
X31134740Y-27711140D01*
X31134740Y-27711140D02*
X31104978Y-27720664D01*
X31104978Y-27720664D02*
X31057359Y-27720664D01*
X31374025Y-27701616D02*
X31363311Y-27711140D01*
X31363311Y-27711140D02*
X31333549Y-27720664D01*
X31333549Y-27720664D02*
X31314501Y-27720664D01*
X31314501Y-27720664D02*
X31287120Y-27711140D01*
X31287120Y-27711140D02*
X31270454Y-27692092D01*
X31270454Y-27692092D02*
X31263311Y-27673045D01*
X31263311Y-27673045D02*
X31258549Y-27634949D01*
X31258549Y-27634949D02*
X31262120Y-27606378D01*
X31262120Y-27606378D02*
X31276406Y-27568283D01*
X31276406Y-27568283D02*
X31288311Y-27549235D01*
X31288311Y-27549235D02*
X31309740Y-27530188D01*
X31309740Y-27530188D02*
X31339501Y-27520664D01*
X31339501Y-27520664D02*
X31358549Y-27520664D01*
X31358549Y-27520664D02*
X31385930Y-27530188D01*
X31385930Y-27530188D02*
X31394263Y-27539711D01*
X31609740Y-27720664D02*
X31634740Y-27520664D01*
X31634740Y-27520664D02*
X31683549Y-27663521D01*
X31683549Y-27663521D02*
X31768073Y-27520664D01*
X31768073Y-27520664D02*
X31743073Y-27720664D01*
X31866882Y-27720664D02*
X31849025Y-27711140D01*
X31849025Y-27711140D02*
X31840692Y-27701616D01*
X31840692Y-27701616D02*
X31833549Y-27682568D01*
X31833549Y-27682568D02*
X31840692Y-27625426D01*
X31840692Y-27625426D02*
X31852597Y-27606378D01*
X31852597Y-27606378D02*
X31863311Y-27596854D01*
X31863311Y-27596854D02*
X31883549Y-27587330D01*
X31883549Y-27587330D02*
X31912120Y-27587330D01*
X31912120Y-27587330D02*
X31929978Y-27596854D01*
X31929978Y-27596854D02*
X31938311Y-27606378D01*
X31938311Y-27606378D02*
X31945454Y-27625426D01*
X31945454Y-27625426D02*
X31938311Y-27682568D01*
X31938311Y-27682568D02*
X31926406Y-27701616D01*
X31926406Y-27701616D02*
X31915692Y-27711140D01*
X31915692Y-27711140D02*
X31895454Y-27720664D01*
X31895454Y-27720664D02*
X31866882Y-27720664D01*
X32007359Y-27587330D02*
X32083549Y-27587330D01*
X32044263Y-27520664D02*
X32022835Y-27692092D01*
X32022835Y-27692092D02*
X32029978Y-27711140D01*
X32029978Y-27711140D02*
X32047835Y-27720664D01*
X32047835Y-27720664D02*
X32066882Y-27720664D01*
X32162121Y-27720664D02*
X32144263Y-27711140D01*
X32144263Y-27711140D02*
X32135930Y-27701616D01*
X32135930Y-27701616D02*
X32128787Y-27682568D01*
X32128787Y-27682568D02*
X32135930Y-27625426D01*
X32135930Y-27625426D02*
X32147835Y-27606378D01*
X32147835Y-27606378D02*
X32158549Y-27596854D01*
X32158549Y-27596854D02*
X32178787Y-27587330D01*
X32178787Y-27587330D02*
X32207359Y-27587330D01*
X32207359Y-27587330D02*
X32225216Y-27596854D01*
X32225216Y-27596854D02*
X32233549Y-27606378D01*
X32233549Y-27606378D02*
X32240692Y-27625426D01*
X32240692Y-27625426D02*
X32233549Y-27682568D01*
X32233549Y-27682568D02*
X32221644Y-27701616D01*
X32221644Y-27701616D02*
X32210930Y-27711140D01*
X32210930Y-27711140D02*
X32190692Y-27720664D01*
X32190692Y-27720664D02*
X32162121Y-27720664D01*
X32314501Y-27720664D02*
X32331168Y-27587330D01*
X32326406Y-27625426D02*
X32338311Y-27606378D01*
X32338311Y-27606378D02*
X32349025Y-27596854D01*
X32349025Y-27596854D02*
X32369263Y-27587330D01*
X32369263Y-27587330D02*
X32388311Y-27587330D01*
X32590692Y-27720664D02*
X32615692Y-27520664D01*
X32615692Y-27520664D02*
X32663311Y-27520664D01*
X32663311Y-27520664D02*
X32690692Y-27530188D01*
X32690692Y-27530188D02*
X32707359Y-27549235D01*
X32707359Y-27549235D02*
X32714501Y-27568283D01*
X32714501Y-27568283D02*
X32719263Y-27606378D01*
X32719263Y-27606378D02*
X32715692Y-27634949D01*
X32715692Y-27634949D02*
X32701406Y-27673045D01*
X32701406Y-27673045D02*
X32689501Y-27692092D01*
X32689501Y-27692092D02*
X32668073Y-27711140D01*
X32668073Y-27711140D02*
X32638311Y-27720664D01*
X32638311Y-27720664D02*
X32590692Y-27720664D01*
X32790692Y-27720664D02*
X32807359Y-27587330D01*
X32802597Y-27625426D02*
X32814501Y-27606378D01*
X32814501Y-27606378D02*
X32825216Y-27596854D01*
X32825216Y-27596854D02*
X32845454Y-27587330D01*
X32845454Y-27587330D02*
X32864501Y-27587330D01*
X32914501Y-27720664D02*
X32931168Y-27587330D01*
X32939501Y-27520664D02*
X32928787Y-27530188D01*
X32928787Y-27530188D02*
X32937121Y-27539711D01*
X32937121Y-27539711D02*
X32947835Y-27530188D01*
X32947835Y-27530188D02*
X32939501Y-27520664D01*
X32939501Y-27520664D02*
X32937121Y-27539711D01*
X33007359Y-27587330D02*
X33038311Y-27720664D01*
X33038311Y-27720664D02*
X33102597Y-27587330D01*
X33239502Y-27711140D02*
X33219263Y-27720664D01*
X33219263Y-27720664D02*
X33181168Y-27720664D01*
X33181168Y-27720664D02*
X33163311Y-27711140D01*
X33163311Y-27711140D02*
X33156168Y-27692092D01*
X33156168Y-27692092D02*
X33165692Y-27615902D01*
X33165692Y-27615902D02*
X33177597Y-27596854D01*
X33177597Y-27596854D02*
X33197835Y-27587330D01*
X33197835Y-27587330D02*
X33235930Y-27587330D01*
X33235930Y-27587330D02*
X33253787Y-27596854D01*
X33253787Y-27596854D02*
X33260930Y-27615902D01*
X33260930Y-27615902D02*
X33258549Y-27634949D01*
X33258549Y-27634949D02*
X33160930Y-27653997D01*
X33333549Y-27720664D02*
X33350216Y-27587330D01*
X33345454Y-27625426D02*
X33357359Y-27606378D01*
X33357359Y-27606378D02*
X33368073Y-27596854D01*
X33368073Y-27596854D02*
X33388311Y-27587330D01*
X33388311Y-27587330D02*
X33407359Y-27587330D01*
D10*
X30194483Y-27260261D02*
X30144483Y-27260261D01*
X30144483Y-27338833D02*
X30144483Y-27188833D01*
X30144483Y-27188833D02*
X30215911Y-27188833D01*
X30273054Y-27338833D02*
X30273054Y-27238833D01*
X30273054Y-27188833D02*
X30265911Y-27195976D01*
X30265911Y-27195976D02*
X30273054Y-27203118D01*
X30273054Y-27203118D02*
X30280197Y-27195976D01*
X30280197Y-27195976D02*
X30273054Y-27188833D01*
X30273054Y-27188833D02*
X30273054Y-27203118D01*
X30365911Y-27338833D02*
X30351625Y-27331690D01*
X30351625Y-27331690D02*
X30344483Y-27317404D01*
X30344483Y-27317404D02*
X30344483Y-27188833D01*
X30480197Y-27331690D02*
X30465911Y-27338833D01*
X30465911Y-27338833D02*
X30437340Y-27338833D01*
X30437340Y-27338833D02*
X30423054Y-27331690D01*
X30423054Y-27331690D02*
X30415911Y-27317404D01*
X30415911Y-27317404D02*
X30415911Y-27260261D01*
X30415911Y-27260261D02*
X30423054Y-27245976D01*
X30423054Y-27245976D02*
X30437340Y-27238833D01*
X30437340Y-27238833D02*
X30465911Y-27238833D01*
X30465911Y-27238833D02*
X30480197Y-27245976D01*
X30480197Y-27245976D02*
X30487340Y-27260261D01*
X30487340Y-27260261D02*
X30487340Y-27274547D01*
X30487340Y-27274547D02*
X30415911Y-27288833D01*
X30551625Y-27324547D02*
X30558768Y-27331690D01*
X30558768Y-27331690D02*
X30551625Y-27338833D01*
X30551625Y-27338833D02*
X30544483Y-27331690D01*
X30544483Y-27331690D02*
X30551625Y-27324547D01*
X30551625Y-27324547D02*
X30551625Y-27338833D01*
X30551625Y-27245976D02*
X30558768Y-27253118D01*
X30558768Y-27253118D02*
X30551625Y-27260261D01*
X30551625Y-27260261D02*
X30544483Y-27253118D01*
X30544483Y-27253118D02*
X30551625Y-27245976D01*
X30551625Y-27245976D02*
X30551625Y-27260261D01*
X30815911Y-27195976D02*
X30801625Y-27188833D01*
X30801625Y-27188833D02*
X30780197Y-27188833D01*
X30780197Y-27188833D02*
X30758768Y-27195976D01*
X30758768Y-27195976D02*
X30744483Y-27210261D01*
X30744483Y-27210261D02*
X30737340Y-27224547D01*
X30737340Y-27224547D02*
X30730197Y-27253118D01*
X30730197Y-27253118D02*
X30730197Y-27274547D01*
X30730197Y-27274547D02*
X30737340Y-27303118D01*
X30737340Y-27303118D02*
X30744483Y-27317404D01*
X30744483Y-27317404D02*
X30758768Y-27331690D01*
X30758768Y-27331690D02*
X30780197Y-27338833D01*
X30780197Y-27338833D02*
X30794483Y-27338833D01*
X30794483Y-27338833D02*
X30815911Y-27331690D01*
X30815911Y-27331690D02*
X30823054Y-27324547D01*
X30823054Y-27324547D02*
X30823054Y-27274547D01*
X30823054Y-27274547D02*
X30794483Y-27274547D01*
X30887340Y-27338833D02*
X30887340Y-27238833D01*
X30887340Y-27267404D02*
X30894483Y-27253118D01*
X30894483Y-27253118D02*
X30901625Y-27245976D01*
X30901625Y-27245976D02*
X30915911Y-27238833D01*
X30915911Y-27238833D02*
X30930197Y-27238833D01*
X31044483Y-27238833D02*
X31044483Y-27338833D01*
X30980197Y-27238833D02*
X30980197Y-27317404D01*
X30980197Y-27317404D02*
X30987340Y-27331690D01*
X30987340Y-27331690D02*
X31001625Y-27338833D01*
X31001625Y-27338833D02*
X31023054Y-27338833D01*
X31023054Y-27338833D02*
X31037340Y-27331690D01*
X31037340Y-27331690D02*
X31044483Y-27324547D01*
X31115911Y-27238833D02*
X31115911Y-27388833D01*
X31115911Y-27245976D02*
X31130197Y-27238833D01*
X31130197Y-27238833D02*
X31158768Y-27238833D01*
X31158768Y-27238833D02*
X31173054Y-27245976D01*
X31173054Y-27245976D02*
X31180197Y-27253118D01*
X31180197Y-27253118D02*
X31187340Y-27267404D01*
X31187340Y-27267404D02*
X31187340Y-27310261D01*
X31187340Y-27310261D02*
X31180197Y-27324547D01*
X31180197Y-27324547D02*
X31173054Y-27331690D01*
X31173054Y-27331690D02*
X31158768Y-27338833D01*
X31158768Y-27338833D02*
X31130197Y-27338833D01*
X31130197Y-27338833D02*
X31115911Y-27331690D01*
X31251625Y-27238833D02*
X31251625Y-27388833D01*
X31251625Y-27245976D02*
X31265911Y-27238833D01*
X31265911Y-27238833D02*
X31294483Y-27238833D01*
X31294483Y-27238833D02*
X31308768Y-27245976D01*
X31308768Y-27245976D02*
X31315911Y-27253118D01*
X31315911Y-27253118D02*
X31323054Y-27267404D01*
X31323054Y-27267404D02*
X31323054Y-27310261D01*
X31323054Y-27310261D02*
X31315911Y-27324547D01*
X31315911Y-27324547D02*
X31308768Y-27331690D01*
X31308768Y-27331690D02*
X31294483Y-27338833D01*
X31294483Y-27338833D02*
X31265911Y-27338833D01*
X31265911Y-27338833D02*
X31251625Y-27331690D01*
X31444483Y-27331690D02*
X31430197Y-27338833D01*
X31430197Y-27338833D02*
X31401625Y-27338833D01*
X31401625Y-27338833D02*
X31387340Y-27331690D01*
X31387340Y-27331690D02*
X31380197Y-27317404D01*
X31380197Y-27317404D02*
X31380197Y-27260261D01*
X31380197Y-27260261D02*
X31387340Y-27245976D01*
X31387340Y-27245976D02*
X31401625Y-27238833D01*
X31401625Y-27238833D02*
X31430197Y-27238833D01*
X31430197Y-27238833D02*
X31444483Y-27245976D01*
X31444483Y-27245976D02*
X31451625Y-27260261D01*
X31451625Y-27260261D02*
X31451625Y-27274547D01*
X31451625Y-27274547D02*
X31380197Y-27288833D01*
X31594483Y-27338833D02*
X31508768Y-27338833D01*
X31551625Y-27338833D02*
X31551625Y-27188833D01*
X31551625Y-27188833D02*
X31537340Y-27210261D01*
X31537340Y-27210261D02*
X31523054Y-27224547D01*
X31523054Y-27224547D02*
X31508768Y-27231690D01*
X31658768Y-27281690D02*
X31773054Y-27281690D01*
X31844482Y-27338833D02*
X31844482Y-27188833D01*
X31915911Y-27238833D02*
X31915911Y-27338833D01*
X31915911Y-27253118D02*
X31923054Y-27245976D01*
X31923054Y-27245976D02*
X31937340Y-27238833D01*
X31937340Y-27238833D02*
X31958768Y-27238833D01*
X31958768Y-27238833D02*
X31973054Y-27245976D01*
X31973054Y-27245976D02*
X31980197Y-27260261D01*
X31980197Y-27260261D02*
X31980197Y-27338833D01*
X32115911Y-27338833D02*
X32115911Y-27188833D01*
X32115911Y-27331690D02*
X32101625Y-27338833D01*
X32101625Y-27338833D02*
X32073054Y-27338833D01*
X32073054Y-27338833D02*
X32058768Y-27331690D01*
X32058768Y-27331690D02*
X32051625Y-27324547D01*
X32051625Y-27324547D02*
X32044483Y-27310261D01*
X32044483Y-27310261D02*
X32044483Y-27267404D01*
X32044483Y-27267404D02*
X32051625Y-27253118D01*
X32051625Y-27253118D02*
X32058768Y-27245976D01*
X32058768Y-27245976D02*
X32073054Y-27238833D01*
X32073054Y-27238833D02*
X32101625Y-27238833D01*
X32101625Y-27238833D02*
X32115911Y-27245976D01*
X32244483Y-27331690D02*
X32230197Y-27338833D01*
X32230197Y-27338833D02*
X32201625Y-27338833D01*
X32201625Y-27338833D02*
X32187340Y-27331690D01*
X32187340Y-27331690D02*
X32180197Y-27317404D01*
X32180197Y-27317404D02*
X32180197Y-27260261D01*
X32180197Y-27260261D02*
X32187340Y-27245976D01*
X32187340Y-27245976D02*
X32201625Y-27238833D01*
X32201625Y-27238833D02*
X32230197Y-27238833D01*
X32230197Y-27238833D02*
X32244483Y-27245976D01*
X32244483Y-27245976D02*
X32251625Y-27260261D01*
X32251625Y-27260261D02*
X32251625Y-27274547D01*
X32251625Y-27274547D02*
X32180197Y-27288833D01*
X32301625Y-27338833D02*
X32380197Y-27238833D01*
X32301625Y-27238833D02*
X32380197Y-27338833D01*
X32423054Y-27188833D02*
X32515911Y-27188833D01*
X32515911Y-27188833D02*
X32465911Y-27245976D01*
X32465911Y-27245976D02*
X32487340Y-27245976D01*
X32487340Y-27245976D02*
X32501625Y-27253118D01*
X32501625Y-27253118D02*
X32508768Y-27260261D01*
X32508768Y-27260261D02*
X32515911Y-27274547D01*
X32515911Y-27274547D02*
X32515911Y-27310261D01*
X32515911Y-27310261D02*
X32508768Y-27324547D01*
X32508768Y-27324547D02*
X32501625Y-27331690D01*
X32501625Y-27331690D02*
X32487340Y-27338833D01*
X32487340Y-27338833D02*
X32444483Y-27338833D01*
X32444483Y-27338833D02*
X32430197Y-27331690D01*
X32430197Y-27331690D02*
X32423054Y-27324547D01*
X32580197Y-27324547D02*
X32587340Y-27331690D01*
X32587340Y-27331690D02*
X32580197Y-27338833D01*
X32580197Y-27338833D02*
X32573054Y-27331690D01*
X32573054Y-27331690D02*
X32580197Y-27324547D01*
X32580197Y-27324547D02*
X32580197Y-27338833D01*
X32651625Y-27338833D02*
X32651625Y-27188833D01*
X32665911Y-27281690D02*
X32708768Y-27338833D01*
X32708768Y-27238833D02*
X32651625Y-27295976D01*
X32773054Y-27338833D02*
X32773054Y-27238833D01*
X32773054Y-27188833D02*
X32765911Y-27195976D01*
X32765911Y-27195976D02*
X32773054Y-27203118D01*
X32773054Y-27203118D02*
X32780197Y-27195976D01*
X32780197Y-27195976D02*
X32773054Y-27188833D01*
X32773054Y-27188833D02*
X32773054Y-27203118D01*
X32908768Y-27331690D02*
X32894483Y-27338833D01*
X32894483Y-27338833D02*
X32865911Y-27338833D01*
X32865911Y-27338833D02*
X32851625Y-27331690D01*
X32851625Y-27331690D02*
X32844483Y-27324547D01*
X32844483Y-27324547D02*
X32837340Y-27310261D01*
X32837340Y-27310261D02*
X32837340Y-27267404D01*
X32837340Y-27267404D02*
X32844483Y-27253118D01*
X32844483Y-27253118D02*
X32851625Y-27245976D01*
X32851625Y-27245976D02*
X32865911Y-27238833D01*
X32865911Y-27238833D02*
X32894483Y-27238833D01*
X32894483Y-27238833D02*
X32908768Y-27245976D01*
X33037340Y-27338833D02*
X33037340Y-27260261D01*
X33037340Y-27260261D02*
X33030197Y-27245976D01*
X33030197Y-27245976D02*
X33015911Y-27238833D01*
X33015911Y-27238833D02*
X32987340Y-27238833D01*
X32987340Y-27238833D02*
X32973054Y-27245976D01*
X33037340Y-27331690D02*
X33023054Y-27338833D01*
X33023054Y-27338833D02*
X32987340Y-27338833D01*
X32987340Y-27338833D02*
X32973054Y-27331690D01*
X32973054Y-27331690D02*
X32965911Y-27317404D01*
X32965911Y-27317404D02*
X32965911Y-27303118D01*
X32965911Y-27303118D02*
X32973054Y-27288833D01*
X32973054Y-27288833D02*
X32987340Y-27281690D01*
X32987340Y-27281690D02*
X33023054Y-27281690D01*
X33023054Y-27281690D02*
X33037340Y-27274547D01*
X33173054Y-27338833D02*
X33173054Y-27188833D01*
X33173054Y-27331690D02*
X33158768Y-27338833D01*
X33158768Y-27338833D02*
X33130197Y-27338833D01*
X33130197Y-27338833D02*
X33115911Y-27331690D01*
X33115911Y-27331690D02*
X33108768Y-27324547D01*
X33108768Y-27324547D02*
X33101625Y-27310261D01*
X33101625Y-27310261D02*
X33101625Y-27267404D01*
X33101625Y-27267404D02*
X33108768Y-27253118D01*
X33108768Y-27253118D02*
X33115911Y-27245976D01*
X33115911Y-27245976D02*
X33130197Y-27238833D01*
X33130197Y-27238833D02*
X33158768Y-27238833D01*
X33158768Y-27238833D02*
X33173054Y-27245976D01*
X33208768Y-27353118D02*
X33323054Y-27353118D01*
X33358768Y-27238833D02*
X33358768Y-27388833D01*
X33358768Y-27245976D02*
X33373054Y-27238833D01*
X33373054Y-27238833D02*
X33401625Y-27238833D01*
X33401625Y-27238833D02*
X33415911Y-27245976D01*
X33415911Y-27245976D02*
X33423054Y-27253118D01*
X33423054Y-27253118D02*
X33430197Y-27267404D01*
X33430197Y-27267404D02*
X33430197Y-27310261D01*
X33430197Y-27310261D02*
X33423054Y-27324547D01*
X33423054Y-27324547D02*
X33415911Y-27331690D01*
X33415911Y-27331690D02*
X33401625Y-27338833D01*
X33401625Y-27338833D02*
X33373054Y-27338833D01*
X33373054Y-27338833D02*
X33358768Y-27331690D01*
X33558768Y-27331690D02*
X33544483Y-27338833D01*
X33544483Y-27338833D02*
X33515911Y-27338833D01*
X33515911Y-27338833D02*
X33501625Y-27331690D01*
X33501625Y-27331690D02*
X33494483Y-27324547D01*
X33494483Y-27324547D02*
X33487340Y-27310261D01*
X33487340Y-27310261D02*
X33487340Y-27267404D01*
X33487340Y-27267404D02*
X33494483Y-27253118D01*
X33494483Y-27253118D02*
X33501625Y-27245976D01*
X33501625Y-27245976D02*
X33515911Y-27238833D01*
X33515911Y-27238833D02*
X33544483Y-27238833D01*
X33544483Y-27238833D02*
X33558768Y-27245976D01*
X33623054Y-27338833D02*
X33623054Y-27188833D01*
X33623054Y-27245976D02*
X33637340Y-27238833D01*
X33637340Y-27238833D02*
X33665911Y-27238833D01*
X33665911Y-27238833D02*
X33680197Y-27245976D01*
X33680197Y-27245976D02*
X33687340Y-27253118D01*
X33687340Y-27253118D02*
X33694483Y-27267404D01*
X33694483Y-27267404D02*
X33694483Y-27310261D01*
X33694483Y-27310261D02*
X33687340Y-27324547D01*
X33687340Y-27324547D02*
X33680197Y-27331690D01*
X33680197Y-27331690D02*
X33665911Y-27338833D01*
X33665911Y-27338833D02*
X33637340Y-27338833D01*
X33637340Y-27338833D02*
X33623054Y-27331690D01*
X29998900Y-26850220D02*
X40798900Y-26850220D01*
X30137340Y-27061690D02*
X30158768Y-27068833D01*
X30158768Y-27068833D02*
X30194483Y-27068833D01*
X30194483Y-27068833D02*
X30208768Y-27061690D01*
X30208768Y-27061690D02*
X30215911Y-27054547D01*
X30215911Y-27054547D02*
X30223054Y-27040261D01*
X30223054Y-27040261D02*
X30223054Y-27025976D01*
X30223054Y-27025976D02*
X30215911Y-27011690D01*
X30215911Y-27011690D02*
X30208768Y-27004547D01*
X30208768Y-27004547D02*
X30194483Y-26997404D01*
X30194483Y-26997404D02*
X30165911Y-26990261D01*
X30165911Y-26990261D02*
X30151625Y-26983118D01*
X30151625Y-26983118D02*
X30144483Y-26975976D01*
X30144483Y-26975976D02*
X30137340Y-26961690D01*
X30137340Y-26961690D02*
X30137340Y-26947404D01*
X30137340Y-26947404D02*
X30144483Y-26933118D01*
X30144483Y-26933118D02*
X30151625Y-26925976D01*
X30151625Y-26925976D02*
X30165911Y-26918833D01*
X30165911Y-26918833D02*
X30201625Y-26918833D01*
X30201625Y-26918833D02*
X30223054Y-26925976D01*
X30287340Y-27068833D02*
X30287340Y-26918833D01*
X30351625Y-27068833D02*
X30351625Y-26990261D01*
X30351625Y-26990261D02*
X30344483Y-26975976D01*
X30344483Y-26975976D02*
X30330197Y-26968833D01*
X30330197Y-26968833D02*
X30308768Y-26968833D01*
X30308768Y-26968833D02*
X30294483Y-26975976D01*
X30294483Y-26975976D02*
X30287340Y-26983118D01*
X30480197Y-27061690D02*
X30465911Y-27068833D01*
X30465911Y-27068833D02*
X30437340Y-27068833D01*
X30437340Y-27068833D02*
X30423054Y-27061690D01*
X30423054Y-27061690D02*
X30415911Y-27047404D01*
X30415911Y-27047404D02*
X30415911Y-26990261D01*
X30415911Y-26990261D02*
X30423054Y-26975976D01*
X30423054Y-26975976D02*
X30437340Y-26968833D01*
X30437340Y-26968833D02*
X30465911Y-26968833D01*
X30465911Y-26968833D02*
X30480197Y-26975976D01*
X30480197Y-26975976D02*
X30487340Y-26990261D01*
X30487340Y-26990261D02*
X30487340Y-27004547D01*
X30487340Y-27004547D02*
X30415911Y-27018833D01*
X30608768Y-27061690D02*
X30594483Y-27068833D01*
X30594483Y-27068833D02*
X30565911Y-27068833D01*
X30565911Y-27068833D02*
X30551625Y-27061690D01*
X30551625Y-27061690D02*
X30544483Y-27047404D01*
X30544483Y-27047404D02*
X30544483Y-26990261D01*
X30544483Y-26990261D02*
X30551625Y-26975976D01*
X30551625Y-26975976D02*
X30565911Y-26968833D01*
X30565911Y-26968833D02*
X30594483Y-26968833D01*
X30594483Y-26968833D02*
X30608768Y-26975976D01*
X30608768Y-26975976D02*
X30615911Y-26990261D01*
X30615911Y-26990261D02*
X30615911Y-27004547D01*
X30615911Y-27004547D02*
X30544483Y-27018833D01*
X30658768Y-26968833D02*
X30715911Y-26968833D01*
X30680197Y-26918833D02*
X30680197Y-27047404D01*
X30680197Y-27047404D02*
X30687340Y-27061690D01*
X30687340Y-27061690D02*
X30701625Y-27068833D01*
X30701625Y-27068833D02*
X30715911Y-27068833D01*
X30765911Y-27054547D02*
X30773054Y-27061690D01*
X30773054Y-27061690D02*
X30765911Y-27068833D01*
X30765911Y-27068833D02*
X30758768Y-27061690D01*
X30758768Y-27061690D02*
X30765911Y-27054547D01*
X30765911Y-27054547D02*
X30765911Y-27068833D01*
X30765911Y-26975976D02*
X30773054Y-26983118D01*
X30773054Y-26983118D02*
X30765911Y-26990261D01*
X30765911Y-26990261D02*
X30758768Y-26983118D01*
X30758768Y-26983118D02*
X30765911Y-26975976D01*
X30765911Y-26975976D02*
X30765911Y-26990261D01*
D11*
X30140065Y-26618053D02*
X30175780Y-26768053D01*
X30175780Y-26768053D02*
X30204351Y-26660910D01*
X30204351Y-26660910D02*
X30232922Y-26768053D01*
X30232922Y-26768053D02*
X30268637Y-26618053D01*
X30325780Y-26768053D02*
X30325780Y-26618053D01*
X30325780Y-26689481D02*
X30411494Y-26689481D01*
X30411494Y-26768053D02*
X30411494Y-26618053D01*
X30468637Y-26618053D02*
X30568637Y-26618053D01*
X30568637Y-26618053D02*
X30468637Y-26768053D01*
X30468637Y-26768053D02*
X30568637Y-26768053D01*
X30725780Y-26618053D02*
X30825780Y-26618053D01*
X30825780Y-26618053D02*
X30725780Y-26768053D01*
X30725780Y-26768053D02*
X30825780Y-26768053D01*
X30868637Y-26668053D02*
X30897208Y-26768053D01*
X30897208Y-26768053D02*
X30925780Y-26696624D01*
X30925780Y-26696624D02*
X30954351Y-26768053D01*
X30954351Y-26768053D02*
X30982922Y-26668053D01*
X31040065Y-26768053D02*
X31040065Y-26668053D01*
X31040065Y-26618053D02*
X31032922Y-26625196D01*
X31032922Y-26625196D02*
X31040065Y-26632338D01*
X31040065Y-26632338D02*
X31047208Y-26625196D01*
X31047208Y-26625196D02*
X31040065Y-26618053D01*
X31040065Y-26618053D02*
X31040065Y-26632338D01*
X31175780Y-26760910D02*
X31161494Y-26768053D01*
X31161494Y-26768053D02*
X31132922Y-26768053D01*
X31132922Y-26768053D02*
X31118637Y-26760910D01*
X31118637Y-26760910D02*
X31111494Y-26753767D01*
X31111494Y-26753767D02*
X31104351Y-26739481D01*
X31104351Y-26739481D02*
X31104351Y-26696624D01*
X31104351Y-26696624D02*
X31111494Y-26682338D01*
X31111494Y-26682338D02*
X31118637Y-26675196D01*
X31118637Y-26675196D02*
X31132922Y-26668053D01*
X31132922Y-26668053D02*
X31161494Y-26668053D01*
X31161494Y-26668053D02*
X31175780Y-26675196D01*
X31240065Y-26768053D02*
X31240065Y-26618053D01*
X31254351Y-26710910D02*
X31297208Y-26768053D01*
X31297208Y-26668053D02*
X31240065Y-26725196D01*
X31425780Y-26768053D02*
X31425780Y-26689481D01*
X31425780Y-26689481D02*
X31418637Y-26675196D01*
X31418637Y-26675196D02*
X31404351Y-26668053D01*
X31404351Y-26668053D02*
X31375780Y-26668053D01*
X31375780Y-26668053D02*
X31361494Y-26675196D01*
X31425780Y-26760910D02*
X31411494Y-26768053D01*
X31411494Y-26768053D02*
X31375780Y-26768053D01*
X31375780Y-26768053D02*
X31361494Y-26760910D01*
X31361494Y-26760910D02*
X31354351Y-26746624D01*
X31354351Y-26746624D02*
X31354351Y-26732338D01*
X31354351Y-26732338D02*
X31361494Y-26718053D01*
X31361494Y-26718053D02*
X31375780Y-26710910D01*
X31375780Y-26710910D02*
X31411494Y-26710910D01*
X31411494Y-26710910D02*
X31425780Y-26703767D01*
X31561494Y-26668053D02*
X31561494Y-26768053D01*
X31497208Y-26668053D02*
X31497208Y-26746624D01*
X31497208Y-26746624D02*
X31504351Y-26760910D01*
X31504351Y-26760910D02*
X31518637Y-26768053D01*
X31518637Y-26768053D02*
X31540065Y-26768053D01*
X31540065Y-26768053D02*
X31554351Y-26760910D01*
X31554351Y-26760910D02*
X31561494Y-26753767D01*
D10*
X30123054Y-26318833D02*
X30208768Y-26318833D01*
X30165911Y-26468833D02*
X30165911Y-26318833D01*
X30315911Y-26461690D02*
X30301625Y-26468833D01*
X30301625Y-26468833D02*
X30273054Y-26468833D01*
X30273054Y-26468833D02*
X30258768Y-26461690D01*
X30258768Y-26461690D02*
X30251625Y-26447404D01*
X30251625Y-26447404D02*
X30251625Y-26390261D01*
X30251625Y-26390261D02*
X30258768Y-26375976D01*
X30258768Y-26375976D02*
X30273054Y-26368833D01*
X30273054Y-26368833D02*
X30301625Y-26368833D01*
X30301625Y-26368833D02*
X30315911Y-26375976D01*
X30315911Y-26375976D02*
X30323054Y-26390261D01*
X30323054Y-26390261D02*
X30323054Y-26404547D01*
X30323054Y-26404547D02*
X30251625Y-26418833D01*
X30451625Y-26468833D02*
X30451625Y-26390261D01*
X30451625Y-26390261D02*
X30444483Y-26375976D01*
X30444483Y-26375976D02*
X30430197Y-26368833D01*
X30430197Y-26368833D02*
X30401625Y-26368833D01*
X30401625Y-26368833D02*
X30387340Y-26375976D01*
X30451625Y-26461690D02*
X30437340Y-26468833D01*
X30437340Y-26468833D02*
X30401625Y-26468833D01*
X30401625Y-26468833D02*
X30387340Y-26461690D01*
X30387340Y-26461690D02*
X30380197Y-26447404D01*
X30380197Y-26447404D02*
X30380197Y-26433118D01*
X30380197Y-26433118D02*
X30387340Y-26418833D01*
X30387340Y-26418833D02*
X30401625Y-26411690D01*
X30401625Y-26411690D02*
X30437340Y-26411690D01*
X30437340Y-26411690D02*
X30451625Y-26404547D01*
X30523054Y-26468833D02*
X30523054Y-26368833D01*
X30523054Y-26383118D02*
X30530197Y-26375976D01*
X30530197Y-26375976D02*
X30544483Y-26368833D01*
X30544483Y-26368833D02*
X30565911Y-26368833D01*
X30565911Y-26368833D02*
X30580197Y-26375976D01*
X30580197Y-26375976D02*
X30587340Y-26390261D01*
X30587340Y-26390261D02*
X30587340Y-26468833D01*
X30587340Y-26390261D02*
X30594483Y-26375976D01*
X30594483Y-26375976D02*
X30608768Y-26368833D01*
X30608768Y-26368833D02*
X30630197Y-26368833D01*
X30630197Y-26368833D02*
X30644483Y-26375976D01*
X30644483Y-26375976D02*
X30651625Y-26390261D01*
X30651625Y-26390261D02*
X30651625Y-26468833D01*
X30915911Y-26468833D02*
X30830197Y-26468833D01*
X30873054Y-26468833D02*
X30873054Y-26318833D01*
X30873054Y-26318833D02*
X30858768Y-26340261D01*
X30858768Y-26340261D02*
X30844483Y-26354547D01*
X30844483Y-26354547D02*
X30830197Y-26361690D01*
X30144483Y-26168833D02*
X30144483Y-26018833D01*
X30215911Y-26068833D02*
X30215911Y-26168833D01*
X30215911Y-26083118D02*
X30223054Y-26075976D01*
X30223054Y-26075976D02*
X30237340Y-26068833D01*
X30237340Y-26068833D02*
X30258768Y-26068833D01*
X30258768Y-26068833D02*
X30273054Y-26075976D01*
X30273054Y-26075976D02*
X30280197Y-26090261D01*
X30280197Y-26090261D02*
X30280197Y-26168833D01*
X30415911Y-26168833D02*
X30415911Y-26018833D01*
X30415911Y-26161690D02*
X30401625Y-26168833D01*
X30401625Y-26168833D02*
X30373054Y-26168833D01*
X30373054Y-26168833D02*
X30358768Y-26161690D01*
X30358768Y-26161690D02*
X30351625Y-26154547D01*
X30351625Y-26154547D02*
X30344483Y-26140261D01*
X30344483Y-26140261D02*
X30344483Y-26097404D01*
X30344483Y-26097404D02*
X30351625Y-26083118D01*
X30351625Y-26083118D02*
X30358768Y-26075976D01*
X30358768Y-26075976D02*
X30373054Y-26068833D01*
X30373054Y-26068833D02*
X30401625Y-26068833D01*
X30401625Y-26068833D02*
X30415911Y-26075976D01*
X30544483Y-26161690D02*
X30530197Y-26168833D01*
X30530197Y-26168833D02*
X30501626Y-26168833D01*
X30501626Y-26168833D02*
X30487340Y-26161690D01*
X30487340Y-26161690D02*
X30480197Y-26147404D01*
X30480197Y-26147404D02*
X30480197Y-26090261D01*
X30480197Y-26090261D02*
X30487340Y-26075976D01*
X30487340Y-26075976D02*
X30501626Y-26068833D01*
X30501626Y-26068833D02*
X30530197Y-26068833D01*
X30530197Y-26068833D02*
X30544483Y-26075976D01*
X30544483Y-26075976D02*
X30551626Y-26090261D01*
X30551626Y-26090261D02*
X30551626Y-26104547D01*
X30551626Y-26104547D02*
X30480197Y-26118833D01*
X30601625Y-26168833D02*
X30680197Y-26068833D01*
X30601625Y-26068833D02*
X30680197Y-26168833D01*
X30880197Y-26018833D02*
X30894483Y-26018833D01*
X30894483Y-26018833D02*
X30908768Y-26025976D01*
X30908768Y-26025976D02*
X30915911Y-26033118D01*
X30915911Y-26033118D02*
X30923054Y-26047404D01*
X30923054Y-26047404D02*
X30930197Y-26075976D01*
X30930197Y-26075976D02*
X30930197Y-26111690D01*
X30930197Y-26111690D02*
X30923054Y-26140261D01*
X30923054Y-26140261D02*
X30915911Y-26154547D01*
X30915911Y-26154547D02*
X30908768Y-26161690D01*
X30908768Y-26161690D02*
X30894483Y-26168833D01*
X30894483Y-26168833D02*
X30880197Y-26168833D01*
X30880197Y-26168833D02*
X30865911Y-26161690D01*
X30865911Y-26161690D02*
X30858768Y-26154547D01*
X30858768Y-26154547D02*
X30851625Y-26140261D01*
X30851625Y-26140261D02*
X30844483Y-26111690D01*
X30844483Y-26111690D02*
X30844483Y-26075976D01*
X30844483Y-26075976D02*
X30851625Y-26047404D01*
X30851625Y-26047404D02*
X30858768Y-26033118D01*
X30858768Y-26033118D02*
X30865911Y-26025976D01*
X30865911Y-26025976D02*
X30880197Y-26018833D01*
X31001625Y-26161690D02*
X31001625Y-26168833D01*
X31001625Y-26168833D02*
X30994483Y-26183118D01*
X30994483Y-26183118D02*
X30987340Y-26190261D01*
X31223054Y-26018833D02*
X31223054Y-26125976D01*
X31223054Y-26125976D02*
X31215911Y-26147404D01*
X31215911Y-26147404D02*
X31201625Y-26161690D01*
X31201625Y-26161690D02*
X31180197Y-26168833D01*
X31180197Y-26168833D02*
X31165911Y-26168833D01*
X31358768Y-26068833D02*
X31358768Y-26168833D01*
X31294483Y-26068833D02*
X31294483Y-26147404D01*
X31294483Y-26147404D02*
X31301625Y-26161690D01*
X31301625Y-26161690D02*
X31315911Y-26168833D01*
X31315911Y-26168833D02*
X31337340Y-26168833D01*
X31337340Y-26168833D02*
X31351625Y-26161690D01*
X31351625Y-26161690D02*
X31358768Y-26154547D01*
X31430197Y-26068833D02*
X31430197Y-26168833D01*
X31430197Y-26083118D02*
X31437340Y-26075976D01*
X31437340Y-26075976D02*
X31451625Y-26068833D01*
X31451625Y-26068833D02*
X31473054Y-26068833D01*
X31473054Y-26068833D02*
X31487340Y-26075976D01*
X31487340Y-26075976D02*
X31494483Y-26090261D01*
X31494483Y-26090261D02*
X31494483Y-26168833D01*
X31623054Y-26161690D02*
X31608768Y-26168833D01*
X31608768Y-26168833D02*
X31580197Y-26168833D01*
X31580197Y-26168833D02*
X31565911Y-26161690D01*
X31565911Y-26161690D02*
X31558768Y-26147404D01*
X31558768Y-26147404D02*
X31558768Y-26090261D01*
X31558768Y-26090261D02*
X31565911Y-26075976D01*
X31565911Y-26075976D02*
X31580197Y-26068833D01*
X31580197Y-26068833D02*
X31608768Y-26068833D01*
X31608768Y-26068833D02*
X31623054Y-26075976D01*
X31623054Y-26075976D02*
X31630197Y-26090261D01*
X31630197Y-26090261D02*
X31630197Y-26104547D01*
X31630197Y-26104547D02*
X31558768Y-26118833D01*
X31801625Y-26033118D02*
X31808768Y-26025976D01*
X31808768Y-26025976D02*
X31823054Y-26018833D01*
X31823054Y-26018833D02*
X31858768Y-26018833D01*
X31858768Y-26018833D02*
X31873054Y-26025976D01*
X31873054Y-26025976D02*
X31880197Y-26033118D01*
X31880197Y-26033118D02*
X31887340Y-26047404D01*
X31887340Y-26047404D02*
X31887340Y-26061690D01*
X31887340Y-26061690D02*
X31880197Y-26083118D01*
X31880197Y-26083118D02*
X31794483Y-26168833D01*
X31794483Y-26168833D02*
X31887340Y-26168833D01*
X31980197Y-26018833D02*
X31994483Y-26018833D01*
X31994483Y-26018833D02*
X32008768Y-26025976D01*
X32008768Y-26025976D02*
X32015911Y-26033118D01*
X32015911Y-26033118D02*
X32023054Y-26047404D01*
X32023054Y-26047404D02*
X32030197Y-26075976D01*
X32030197Y-26075976D02*
X32030197Y-26111690D01*
X32030197Y-26111690D02*
X32023054Y-26140261D01*
X32023054Y-26140261D02*
X32015911Y-26154547D01*
X32015911Y-26154547D02*
X32008768Y-26161690D01*
X32008768Y-26161690D02*
X31994483Y-26168833D01*
X31994483Y-26168833D02*
X31980197Y-26168833D01*
X31980197Y-26168833D02*
X31965911Y-26161690D01*
X31965911Y-26161690D02*
X31958768Y-26154547D01*
X31958768Y-26154547D02*
X31951625Y-26140261D01*
X31951625Y-26140261D02*
X31944483Y-26111690D01*
X31944483Y-26111690D02*
X31944483Y-26075976D01*
X31944483Y-26075976D02*
X31951625Y-26047404D01*
X31951625Y-26047404D02*
X31958768Y-26033118D01*
X31958768Y-26033118D02*
X31965911Y-26025976D01*
X31965911Y-26025976D02*
X31980197Y-26018833D01*
X32087340Y-26033118D02*
X32094482Y-26025976D01*
X32094482Y-26025976D02*
X32108768Y-26018833D01*
X32108768Y-26018833D02*
X32144482Y-26018833D01*
X32144482Y-26018833D02*
X32158768Y-26025976D01*
X32158768Y-26025976D02*
X32165911Y-26033118D01*
X32165911Y-26033118D02*
X32173054Y-26047404D01*
X32173054Y-26047404D02*
X32173054Y-26061690D01*
X32173054Y-26061690D02*
X32165911Y-26083118D01*
X32165911Y-26083118D02*
X32080197Y-26168833D01*
X32080197Y-26168833D02*
X32173054Y-26168833D01*
X32301625Y-26018833D02*
X32273054Y-26018833D01*
X32273054Y-26018833D02*
X32258768Y-26025976D01*
X32258768Y-26025976D02*
X32251625Y-26033118D01*
X32251625Y-26033118D02*
X32237340Y-26054547D01*
X32237340Y-26054547D02*
X32230197Y-26083118D01*
X32230197Y-26083118D02*
X32230197Y-26140261D01*
X32230197Y-26140261D02*
X32237340Y-26154547D01*
X32237340Y-26154547D02*
X32244482Y-26161690D01*
X32244482Y-26161690D02*
X32258768Y-26168833D01*
X32258768Y-26168833D02*
X32287340Y-26168833D01*
X32287340Y-26168833D02*
X32301625Y-26161690D01*
X32301625Y-26161690D02*
X32308768Y-26154547D01*
X32308768Y-26154547D02*
X32315911Y-26140261D01*
X32315911Y-26140261D02*
X32315911Y-26104547D01*
X32315911Y-26104547D02*
X32308768Y-26090261D01*
X32308768Y-26090261D02*
X32301625Y-26083118D01*
X32301625Y-26083118D02*
X32287340Y-26075976D01*
X32287340Y-26075976D02*
X32258768Y-26075976D01*
X32258768Y-26075976D02*
X32244482Y-26083118D01*
X32244482Y-26083118D02*
X32237340Y-26090261D01*
X32237340Y-26090261D02*
X32230197Y-26104547D01*
X31998900Y-27850220D02*
X31998900Y-28150220D01*
X38398900Y-27850220D02*
X38398900Y-28500220D01*
D11*
D13*
X4327100Y-8678835D02*
X4477100Y-8643120D01*
X4477100Y-8643120D02*
X4369957Y-8614549D01*
X4369957Y-8614549D02*
X4477100Y-8585977D01*
X4477100Y-8585977D02*
X4327100Y-8550263D01*
X4477100Y-8493120D02*
X4327100Y-8493120D01*
X4398528Y-8493120D02*
X4398528Y-8407406D01*
X4477100Y-8407406D02*
X4327100Y-8407406D01*
X4327100Y-8350263D02*
X4327100Y-8250263D01*
X4327100Y-8250263D02*
X4477100Y-8350263D01*
X4477100Y-8350263D02*
X4477100Y-8250263D01*
X4477100Y-8078835D02*
X4327100Y-8078835D01*
X4327100Y-8078835D02*
X4434243Y-8028835D01*
X4434243Y-8028835D02*
X4327100Y-7978835D01*
X4327100Y-7978835D02*
X4477100Y-7978835D01*
X4477100Y-7885977D02*
X4469957Y-7900263D01*
X4469957Y-7900263D02*
X4462814Y-7907406D01*
X4462814Y-7907406D02*
X4448528Y-7914549D01*
X4448528Y-7914549D02*
X4405671Y-7914549D01*
X4405671Y-7914549D02*
X4391385Y-7907406D01*
X4391385Y-7907406D02*
X4384243Y-7900263D01*
X4384243Y-7900263D02*
X4377100Y-7885977D01*
X4377100Y-7885977D02*
X4377100Y-7864549D01*
X4377100Y-7864549D02*
X4384243Y-7850263D01*
X4384243Y-7850263D02*
X4391385Y-7843120D01*
X4391385Y-7843120D02*
X4405671Y-7835977D01*
X4405671Y-7835977D02*
X4448528Y-7835977D01*
X4448528Y-7835977D02*
X4462814Y-7843120D01*
X4462814Y-7843120D02*
X4469957Y-7850263D01*
X4469957Y-7850263D02*
X4477100Y-7864549D01*
X4477100Y-7864549D02*
X4477100Y-7885977D01*
X4377100Y-7793120D02*
X4377100Y-7735977D01*
X4327100Y-7771692D02*
X4455671Y-7771692D01*
X4455671Y-7771692D02*
X4469957Y-7764549D01*
X4469957Y-7764549D02*
X4477100Y-7750263D01*
X4477100Y-7750263D02*
X4477100Y-7735977D01*
X4477100Y-7664549D02*
X4469957Y-7678834D01*
X4469957Y-7678834D02*
X4462814Y-7685977D01*
X4462814Y-7685977D02*
X4448528Y-7693120D01*
X4448528Y-7693120D02*
X4405671Y-7693120D01*
X4405671Y-7693120D02*
X4391385Y-7685977D01*
X4391385Y-7685977D02*
X4384243Y-7678834D01*
X4384243Y-7678834D02*
X4377100Y-7664549D01*
X4377100Y-7664549D02*
X4377100Y-7643120D01*
X4377100Y-7643120D02*
X4384243Y-7628834D01*
X4384243Y-7628834D02*
X4391385Y-7621692D01*
X4391385Y-7621692D02*
X4405671Y-7614549D01*
X4405671Y-7614549D02*
X4448528Y-7614549D01*
X4448528Y-7614549D02*
X4462814Y-7621692D01*
X4462814Y-7621692D02*
X4469957Y-7628834D01*
X4469957Y-7628834D02*
X4477100Y-7643120D01*
X4477100Y-7643120D02*
X4477100Y-7664549D01*
X4477100Y-7550263D02*
X4377100Y-7550263D01*
X4405671Y-7550263D02*
X4391385Y-7543120D01*
X4391385Y-7543120D02*
X4384243Y-7535977D01*
X4384243Y-7535977D02*
X4377100Y-7521692D01*
X4377100Y-7521692D02*
X4377100Y-7507406D01*
X4419957Y-7457406D02*
X4419957Y-7343120D01*
X4477100Y-7271692D02*
X4327100Y-7271692D01*
X4327100Y-7271692D02*
X4327100Y-7235977D01*
X4327100Y-7235977D02*
X4334243Y-7214549D01*
X4334243Y-7214549D02*
X4348528Y-7200263D01*
X4348528Y-7200263D02*
X4362814Y-7193120D01*
X4362814Y-7193120D02*
X4391385Y-7185977D01*
X4391385Y-7185977D02*
X4412814Y-7185977D01*
X4412814Y-7185977D02*
X4441385Y-7193120D01*
X4441385Y-7193120D02*
X4455671Y-7200263D01*
X4455671Y-7200263D02*
X4469957Y-7214549D01*
X4469957Y-7214549D02*
X4477100Y-7235977D01*
X4477100Y-7235977D02*
X4477100Y-7271692D01*
X4477100Y-7121692D02*
X4377100Y-7121692D01*
X4405671Y-7121692D02*
X4391385Y-7114549D01*
X4391385Y-7114549D02*
X4384243Y-7107406D01*
X4384243Y-7107406D02*
X4377100Y-7093120D01*
X4377100Y-7093120D02*
X4377100Y-7078834D01*
X4477100Y-7028835D02*
X4377100Y-7028835D01*
X4327100Y-7028835D02*
X4334243Y-7035977D01*
X4334243Y-7035977D02*
X4341385Y-7028835D01*
X4341385Y-7028835D02*
X4334243Y-7021692D01*
X4334243Y-7021692D02*
X4327100Y-7028835D01*
X4327100Y-7028835D02*
X4341385Y-7028835D01*
X4377100Y-6971692D02*
X4477100Y-6935977D01*
X4477100Y-6935977D02*
X4377100Y-6900263D01*
X4469957Y-6785977D02*
X4477100Y-6800263D01*
X4477100Y-6800263D02*
X4477100Y-6828835D01*
X4477100Y-6828835D02*
X4469957Y-6843120D01*
X4469957Y-6843120D02*
X4455671Y-6850263D01*
X4455671Y-6850263D02*
X4398528Y-6850263D01*
X4398528Y-6850263D02*
X4384243Y-6843120D01*
X4384243Y-6843120D02*
X4377100Y-6828835D01*
X4377100Y-6828835D02*
X4377100Y-6800263D01*
X4377100Y-6800263D02*
X4384243Y-6785977D01*
X4384243Y-6785977D02*
X4398528Y-6778835D01*
X4398528Y-6778835D02*
X4412814Y-6778835D01*
X4412814Y-6778835D02*
X4427100Y-6850263D01*
X4477100Y-6714549D02*
X4377100Y-6714549D01*
X4405671Y-6714549D02*
X4391385Y-6707406D01*
X4391385Y-6707406D02*
X4384243Y-6700263D01*
X4384243Y-6700263D02*
X4377100Y-6685977D01*
X4377100Y-6685977D02*
X4377100Y-6671692D01*
X4568591Y-8685977D02*
X4568591Y-8600263D01*
X4718591Y-8643120D02*
X4568591Y-8643120D01*
X4711448Y-8493120D02*
X4718591Y-8507406D01*
X4718591Y-8507406D02*
X4718591Y-8535978D01*
X4718591Y-8535978D02*
X4711448Y-8550263D01*
X4711448Y-8550263D02*
X4697163Y-8557406D01*
X4697163Y-8557406D02*
X4640020Y-8557406D01*
X4640020Y-8557406D02*
X4625734Y-8550263D01*
X4625734Y-8550263D02*
X4618591Y-8535978D01*
X4618591Y-8535978D02*
X4618591Y-8507406D01*
X4618591Y-8507406D02*
X4625734Y-8493120D01*
X4625734Y-8493120D02*
X4640020Y-8485978D01*
X4640020Y-8485978D02*
X4654306Y-8485978D01*
X4654306Y-8485978D02*
X4668591Y-8557406D01*
X4718591Y-8357406D02*
X4640020Y-8357406D01*
X4640020Y-8357406D02*
X4625734Y-8364549D01*
X4625734Y-8364549D02*
X4618591Y-8378835D01*
X4618591Y-8378835D02*
X4618591Y-8407406D01*
X4618591Y-8407406D02*
X4625734Y-8421692D01*
X4711448Y-8357406D02*
X4718591Y-8371692D01*
X4718591Y-8371692D02*
X4718591Y-8407406D01*
X4718591Y-8407406D02*
X4711448Y-8421692D01*
X4711448Y-8421692D02*
X4697163Y-8428835D01*
X4697163Y-8428835D02*
X4682877Y-8428835D01*
X4682877Y-8428835D02*
X4668591Y-8421692D01*
X4668591Y-8421692D02*
X4661448Y-8407406D01*
X4661448Y-8407406D02*
X4661448Y-8371692D01*
X4661448Y-8371692D02*
X4654306Y-8357406D01*
X4718591Y-8285977D02*
X4618591Y-8285977D01*
X4632877Y-8285977D02*
X4625734Y-8278835D01*
X4625734Y-8278835D02*
X4618591Y-8264549D01*
X4618591Y-8264549D02*
X4618591Y-8243120D01*
X4618591Y-8243120D02*
X4625734Y-8228835D01*
X4625734Y-8228835D02*
X4640020Y-8221692D01*
X4640020Y-8221692D02*
X4718591Y-8221692D01*
X4640020Y-8221692D02*
X4625734Y-8214549D01*
X4625734Y-8214549D02*
X4618591Y-8200263D01*
X4618591Y-8200263D02*
X4618591Y-8178835D01*
X4618591Y-8178835D02*
X4625734Y-8164549D01*
X4625734Y-8164549D02*
X4640020Y-8157406D01*
X4640020Y-8157406D02*
X4718591Y-8157406D01*
X4718591Y-7893120D02*
X4718591Y-7978835D01*
X4718591Y-7935977D02*
X4568591Y-7935977D01*
X4568591Y-7935977D02*
X4590020Y-7950263D01*
X4590020Y-7950263D02*
X4604306Y-7964549D01*
X4604306Y-7964549D02*
X4611448Y-7978835D01*
X4718591Y-7714549D02*
X4568591Y-7714549D01*
X4618591Y-7643120D02*
X4718591Y-7643120D01*
X4632877Y-7643120D02*
X4625734Y-7635977D01*
X4625734Y-7635977D02*
X4618591Y-7621692D01*
X4618591Y-7621692D02*
X4618591Y-7600263D01*
X4618591Y-7600263D02*
X4625734Y-7585977D01*
X4625734Y-7585977D02*
X4640020Y-7578835D01*
X4640020Y-7578835D02*
X4718591Y-7578835D01*
X4718591Y-7443120D02*
X4568591Y-7443120D01*
X4711448Y-7443120D02*
X4718591Y-7457406D01*
X4718591Y-7457406D02*
X4718591Y-7485977D01*
X4718591Y-7485977D02*
X4711448Y-7500263D01*
X4711448Y-7500263D02*
X4704306Y-7507406D01*
X4704306Y-7507406D02*
X4690020Y-7514549D01*
X4690020Y-7514549D02*
X4647163Y-7514549D01*
X4647163Y-7514549D02*
X4632877Y-7507406D01*
X4632877Y-7507406D02*
X4625734Y-7500263D01*
X4625734Y-7500263D02*
X4618591Y-7485977D01*
X4618591Y-7485977D02*
X4618591Y-7457406D01*
X4618591Y-7457406D02*
X4625734Y-7443120D01*
X4711448Y-7314549D02*
X4718591Y-7328835D01*
X4718591Y-7328835D02*
X4718591Y-7357406D01*
X4718591Y-7357406D02*
X4711448Y-7371692D01*
X4711448Y-7371692D02*
X4697163Y-7378835D01*
X4697163Y-7378835D02*
X4640020Y-7378835D01*
X4640020Y-7378835D02*
X4625734Y-7371692D01*
X4625734Y-7371692D02*
X4618591Y-7357406D01*
X4618591Y-7357406D02*
X4618591Y-7328835D01*
X4618591Y-7328835D02*
X4625734Y-7314549D01*
X4625734Y-7314549D02*
X4640020Y-7307406D01*
X4640020Y-7307406D02*
X4654306Y-7307406D01*
X4654306Y-7307406D02*
X4668591Y-7378835D01*
X4718591Y-7257406D02*
X4618591Y-7178835D01*
X4618591Y-7257406D02*
X4718591Y-7178835D01*
X4568591Y-7021692D02*
X4568591Y-6928835D01*
X4568591Y-6928835D02*
X4625734Y-6978835D01*
X4625734Y-6978835D02*
X4625734Y-6957406D01*
X4625734Y-6957406D02*
X4632877Y-6943120D01*
X4632877Y-6943120D02*
X4640020Y-6935977D01*
X4640020Y-6935977D02*
X4654306Y-6928835D01*
X4654306Y-6928835D02*
X4690020Y-6928835D01*
X4690020Y-6928835D02*
X4704306Y-6935977D01*
X4704306Y-6935977D02*
X4711448Y-6943120D01*
X4711448Y-6943120D02*
X4718591Y-6957406D01*
X4718591Y-6957406D02*
X4718591Y-7000263D01*
X4718591Y-7000263D02*
X4711448Y-7014549D01*
X4711448Y-7014549D02*
X4704306Y-7021692D01*
X4810083Y-8621692D02*
X4917226Y-8621692D01*
X4917226Y-8621692D02*
X4938654Y-8628835D01*
X4938654Y-8628835D02*
X4952940Y-8643120D01*
X4952940Y-8643120D02*
X4960083Y-8664549D01*
X4960083Y-8664549D02*
X4960083Y-8678835D01*
X4860083Y-8485978D02*
X4960083Y-8485978D01*
X4860083Y-8550263D02*
X4938654Y-8550263D01*
X4938654Y-8550263D02*
X4952940Y-8543120D01*
X4952940Y-8543120D02*
X4960083Y-8528835D01*
X4960083Y-8528835D02*
X4960083Y-8507406D01*
X4960083Y-8507406D02*
X4952940Y-8493120D01*
X4952940Y-8493120D02*
X4945797Y-8485978D01*
X4860083Y-8414549D02*
X4960083Y-8414549D01*
X4874369Y-8414549D02*
X4867226Y-8407406D01*
X4867226Y-8407406D02*
X4860083Y-8393120D01*
X4860083Y-8393120D02*
X4860083Y-8371692D01*
X4860083Y-8371692D02*
X4867226Y-8357406D01*
X4867226Y-8357406D02*
X4881511Y-8350263D01*
X4881511Y-8350263D02*
X4960083Y-8350263D01*
X4960083Y-8278835D02*
X4860083Y-8278835D01*
X4810083Y-8278835D02*
X4817226Y-8285977D01*
X4817226Y-8285977D02*
X4824369Y-8278835D01*
X4824369Y-8278835D02*
X4817226Y-8271692D01*
X4817226Y-8271692D02*
X4810083Y-8278835D01*
X4810083Y-8278835D02*
X4824369Y-8278835D01*
X4824369Y-8100263D02*
X4817226Y-8093120D01*
X4817226Y-8093120D02*
X4810083Y-8078835D01*
X4810083Y-8078835D02*
X4810083Y-8043120D01*
X4810083Y-8043120D02*
X4817226Y-8028835D01*
X4817226Y-8028835D02*
X4824369Y-8021692D01*
X4824369Y-8021692D02*
X4838654Y-8014549D01*
X4838654Y-8014549D02*
X4852940Y-8014549D01*
X4852940Y-8014549D02*
X4874369Y-8021692D01*
X4874369Y-8021692D02*
X4960083Y-8107406D01*
X4960083Y-8107406D02*
X4960083Y-8014549D01*
X4810083Y-7921692D02*
X4810083Y-7907406D01*
X4810083Y-7907406D02*
X4817226Y-7893120D01*
X4817226Y-7893120D02*
X4824369Y-7885977D01*
X4824369Y-7885977D02*
X4838654Y-7878835D01*
X4838654Y-7878835D02*
X4867226Y-7871692D01*
X4867226Y-7871692D02*
X4902940Y-7871692D01*
X4902940Y-7871692D02*
X4931511Y-7878835D01*
X4931511Y-7878835D02*
X4945797Y-7885977D01*
X4945797Y-7885977D02*
X4952940Y-7893120D01*
X4952940Y-7893120D02*
X4960083Y-7907406D01*
X4960083Y-7907406D02*
X4960083Y-7921692D01*
X4960083Y-7921692D02*
X4952940Y-7935977D01*
X4952940Y-7935977D02*
X4945797Y-7943120D01*
X4945797Y-7943120D02*
X4931511Y-7950263D01*
X4931511Y-7950263D02*
X4902940Y-7957406D01*
X4902940Y-7957406D02*
X4867226Y-7957406D01*
X4867226Y-7957406D02*
X4838654Y-7950263D01*
X4838654Y-7950263D02*
X4824369Y-7943120D01*
X4824369Y-7943120D02*
X4817226Y-7935977D01*
X4817226Y-7935977D02*
X4810083Y-7921692D01*
X4824369Y-7814549D02*
X4817226Y-7807406D01*
X4817226Y-7807406D02*
X4810083Y-7793120D01*
X4810083Y-7793120D02*
X4810083Y-7757406D01*
X4810083Y-7757406D02*
X4817226Y-7743120D01*
X4817226Y-7743120D02*
X4824369Y-7735977D01*
X4824369Y-7735977D02*
X4838654Y-7728835D01*
X4838654Y-7728835D02*
X4852940Y-7728835D01*
X4852940Y-7728835D02*
X4874369Y-7735977D01*
X4874369Y-7735977D02*
X4960083Y-7821692D01*
X4960083Y-7821692D02*
X4960083Y-7728835D01*
X4810083Y-7600263D02*
X4810083Y-7628835D01*
X4810083Y-7628835D02*
X4817226Y-7643120D01*
X4817226Y-7643120D02*
X4824369Y-7650263D01*
X4824369Y-7650263D02*
X4845797Y-7664549D01*
X4845797Y-7664549D02*
X4874369Y-7671692D01*
X4874369Y-7671692D02*
X4931511Y-7671692D01*
X4931511Y-7671692D02*
X4945797Y-7664549D01*
X4945797Y-7664549D02*
X4952940Y-7657406D01*
X4952940Y-7657406D02*
X4960083Y-7643120D01*
X4960083Y-7643120D02*
X4960083Y-7614549D01*
X4960083Y-7614549D02*
X4952940Y-7600263D01*
X4952940Y-7600263D02*
X4945797Y-7593120D01*
X4945797Y-7593120D02*
X4931511Y-7585977D01*
X4931511Y-7585977D02*
X4895797Y-7585977D01*
X4895797Y-7585977D02*
X4881511Y-7593120D01*
X4881511Y-7593120D02*
X4874369Y-7600263D01*
X4874369Y-7600263D02*
X4867226Y-7614549D01*
X4867226Y-7614549D02*
X4867226Y-7643120D01*
X4867226Y-7643120D02*
X4874369Y-7657406D01*
X4874369Y-7657406D02*
X4881511Y-7664549D01*
X4881511Y-7664549D02*
X4895797Y-7671692D01*
D14*
%TO.P,R9,2*%
%TO.N,Net-(U2A--)*%
X12549915Y-6910820D03*
%TO.P,R9,1*%
%TO.N,Net-(R10-Pad1)*%
X12549915Y-7220820D03*
%TD*%
D15*
%TO.P,C6,2*%
%TO.N,GND*%
X9129915Y-6573320D03*
%TO.P,C6,1*%
%TO.N,Net-(U1-OUT)*%
X9129915Y-6278320D03*
%TD*%
D16*
%TO.P,Q1,3,S_3*%
%TO.N,/U3_VS*%
X14041415Y-7738320D03*
D17*
%TO.P,Q1,2,D_2*%
%TO.N,+24V*%
X13787415Y-6823320D03*
D16*
X13787415Y-7738320D03*
%TO.P,Q1,1,G_1*%
%TO.N,Net-(Q1-G)*%
X13533415Y-7738320D03*
%TD*%
D18*
%TO.P,D6,2,A_2*%
%TO.N,GND*%
X6894665Y-9206820D03*
%TO.P,D6,1,K_1*%
%TO.N,Net-(D6-K)*%
X7192165Y-9206820D03*
%TD*%
D19*
%TO.P,R3,2*%
%TO.N,/U3_VS*%
X13629915Y-8620820D03*
%TO.P,R3,1*%
%TO.N,Net-(Q1-G)*%
X13629915Y-8310820D03*
%TD*%
D20*
%TO.P,R2,2*%
%TO.N,Net-(Q1-G)*%
X13409915Y-8305820D03*
%TO.P,R2,1*%
%TO.N,/HO*%
X13409915Y-8505820D03*
%TD*%
D15*
%TO.P,C5,2*%
%TO.N,GND*%
X9429915Y-6573320D03*
%TO.P,C5,1*%
%TO.N,Net-(U1-OUT)*%
X9429915Y-6278320D03*
%TD*%
D21*
%TO.P,R12,2*%
%TO.N,Net-(D6-K)*%
X7508415Y-9206820D03*
%TO.P,R12,1*%
%TO.N,/LED_PWR*%
X7818415Y-9206820D03*
%TD*%
D22*
%TO.P,D2,2,A_2*%
%TO.N,GND*%
X9929915Y-6575820D03*
%TO.P,D2,1,K_1*%
%TO.N,Net-(D2-K)*%
X9929915Y-6278320D03*
%TD*%
%TO.P,D7,2,A_2*%
%TO.N,GND*%
X6823415Y-10995570D03*
%TO.P,D7,1,K_1*%
%TO.N,Net-(D7-K)*%
X6823415Y-10698070D03*
%TD*%
D23*
%TO.P,J4,2,Pin_2_2*%
%TO.N,/LS_RTN*%
X15609915Y-6837820D03*
D24*
%TO.P,J4,1,Pin_1_1*%
%TO.N,/U3_VS*%
X15609915Y-7345820D03*
%TD*%
D25*
%TO.P,R4,2*%
%TO.N,Net-(Q2-G)*%
X14089915Y-8585820D03*
%TO.P,R4,1*%
%TO.N,/LO*%
X13889915Y-8585820D03*
%TD*%
D26*
%TO.P,D3,2,A_2*%
%TO.N,Net-(D3-A)*%
X12439915Y-8675820D03*
%TO.P,D3,1,K_1*%
%TO.N,+12V*%
X12219915Y-8675820D03*
%TD*%
D27*
%TO.P,J10,4,Pin_4_4*%
%TO.N,GND*%
X10763415Y-8464820D03*
%TO.P,J10,3,Pin_3_3*%
%TO.N,/SCL*%
X10763415Y-8718820D03*
%TO.P,J10,2,Pin_2_2*%
%TO.N,/SDA*%
X10763415Y-8972820D03*
D28*
%TO.P,J10,1,Pin_1_1*%
%TO.N,/VCC_DIS*%
X10763415Y-9226820D03*
%TD*%
D27*
%TO.P,J3,4,Pin_4_4*%
%TO.N,GND*%
X6979915Y-6687820D03*
%TO.P,J3,3,Pin_3_3*%
%TO.N,+5V*%
X6979915Y-6433820D03*
%TO.P,J3,2,Pin_2_2*%
%TO.N,GND*%
X6979915Y-6179820D03*
D28*
%TO.P,J3,1,Pin_1_1*%
%TO.N,+24V*%
X6979915Y-5925820D03*
%TD*%
D27*
%TO.P,J7,2,Pin_2_2*%
%TO.N,GND*%
X7516915Y-8826820D03*
D28*
%TO.P,J7,1,Pin_1_1*%
%TO.N,/BTN_SPDN*%
X7770915Y-8826820D03*
%TD*%
D23*
%TO.P,J2,3,Pin_3_3*%
%TO.N,GND*%
X10489915Y-5125820D03*
%TO.P,J2,2,Pin_2_2*%
%TO.N,+24V*%
X10989915Y-5125820D03*
D29*
%TO.P,J2,1,Pin_1_1*%
%TO.N,+12V*%
X11489915Y-5125820D03*
%TD*%
D27*
%TO.P,J9,6,Pin_6_6*%
%TO.N,GND*%
X7295415Y-10240820D03*
%TO.P,J9,5,Pin_5_5*%
%TO.N,Net-(J9-Pin_5)*%
X7295415Y-9986820D03*
%TO.P,J9,4,Pin_4_4*%
%TO.N,/SD*%
X7549415Y-10240820D03*
%TO.P,J9,3,Pin_3_3*%
%TO.N,/LED_FLT*%
X7549415Y-9986820D03*
%TO.P,J9,2,Pin_2_2*%
%TO.N,+5V*%
X7803415Y-10240820D03*
D28*
%TO.P,J9,1,Pin_1_1*%
%TO.N,/PWM*%
X7803415Y-9986820D03*
%TD*%
D15*
%TO.P,C11,2*%
%TO.N,GND*%
X12129915Y-6123320D03*
%TO.P,C11,1*%
%TO.N,Net-(U2A-+)*%
X12129915Y-5828320D03*
%TD*%
D30*
%TO.P,F1,2*%
%TO.N,Net-(J1-Pin_1)*%
X6769915Y-5125820D03*
%TO.P,F1,1*%
%TO.N,+12V*%
X9029915Y-5125820D03*
%TD*%
D21*
%TO.P,R13,2*%
%TO.N,Net-(D8-K)*%
X7508415Y-9466820D03*
%TO.P,R13,1*%
%TO.N,/LED_RUN*%
X7818415Y-9466820D03*
%TD*%
D31*
%TO.P,D1,2,A2_2*%
%TO.N,GND*%
X9929915Y-4785820D03*
D32*
%TO.P,D1,1,A1_1*%
%TO.N,+24V*%
X9929915Y-5365820D03*
%TD*%
D15*
%TO.P,C8,2*%
%TO.N,GND*%
X11509915Y-9261320D03*
%TO.P,C8,1*%
%TO.N,+12V*%
X11509915Y-8966320D03*
%TD*%
D33*
%TO.P,C4,1*%
%TO.N,+24V*%
X8329915Y-5775820D03*
%TO.P,C4,2*%
%TO.N,GND*%
X8034915Y-5775820D03*
%TD*%
D34*
%TO.P,U1,1,IN_1*%
%TO.N,+24V*%
X8175915Y-6320820D03*
D35*
%TO.P,U1,2,GND_2*%
%TO.N,GND*%
X8429915Y-6320820D03*
%TO.P,U1,3,OUT_3*%
%TO.N,Net-(U1-OUT)*%
X8683915Y-6320820D03*
%TD*%
D36*
%TO.P,C10,2*%
%TO.N,/U3_VS*%
X12877415Y-8675820D03*
%TO.P,C10,1*%
%TO.N,Net-(D3-A)*%
X12582415Y-8675820D03*
%TD*%
D37*
%TO.P,Q2,3,S_3*%
%TO.N,GND*%
X14652415Y-8899820D03*
D38*
%TO.P,Q2,2,D_2*%
%TO.N,/U3_VS*%
X15567415Y-8645820D03*
D37*
X14652415Y-8645820D03*
%TO.P,Q2,1,G_1*%
%TO.N,Net-(Q2-G)*%
X14652415Y-8391820D03*
%TD*%
D19*
%TO.P,R5,2*%
%TO.N,GND*%
X14079915Y-9130820D03*
%TO.P,R5,1*%
%TO.N,Net-(Q2-G)*%
X14079915Y-8820820D03*
%TD*%
D15*
%TO.P,C7,2*%
%TO.N,GND*%
X7329915Y-6723320D03*
%TO.P,C7,1*%
%TO.N,+5V*%
X7329915Y-6428320D03*
%TD*%
D21*
%TO.P,R10,2*%
%TO.N,/I_sense*%
X11814915Y-7625820D03*
%TO.P,R10,1*%
%TO.N,Net-(R10-Pad1)*%
X12124915Y-7625820D03*
%TD*%
D39*
%TO.P,A1,30,VIN_30*%
%TO.N,unconnected-(A1-VIN-Pad30)*%
X10057415Y-7180820D03*
%TO.P,A1,29,GND_29*%
%TO.N,GND*%
X10057415Y-7434820D03*
%TO.P,A1,28,~{RESET}_28*%
%TO.N,unconnected-(A1-~{RESET}-Pad28)*%
X10057415Y-7688820D03*
%TO.P,A1,27,+5V_27*%
%TO.N,/VCC_DIS*%
X10057415Y-7942820D03*
%TO.P,A1,26,A7_26*%
%TO.N,unconnected-(A1-A7-Pad26)*%
X10057415Y-8196820D03*
%TO.P,A1,25,A6_25*%
%TO.N,unconnected-(A1-A6-Pad25)*%
X10057415Y-8450820D03*
%TO.P,A1,24,A5_24*%
%TO.N,/SCL*%
X10057415Y-8704820D03*
%TO.P,A1,23,A4_23*%
%TO.N,/SDA*%
X10057415Y-8958820D03*
%TO.P,A1,22,A3_22*%
%TO.N,unconnected-(A1-A3-Pad22)*%
X10057415Y-9212820D03*
%TO.P,A1,21,A2_21*%
%TO.N,unconnected-(A1-A2-Pad21)*%
X10057415Y-9466820D03*
%TO.P,A1,20,A1_20*%
%TO.N,unconnected-(A1-A1-Pad20)*%
X10057415Y-9720820D03*
%TO.P,A1,19,A0_19*%
%TO.N,/I_sense*%
X10057415Y-9974820D03*
%TO.P,A1,18,AREF_18*%
%TO.N,unconnected-(A1-AREF-Pad18)*%
X10057415Y-10228820D03*
%TO.P,A1,17,3V3_17*%
%TO.N,unconnected-(A1-3V3-Pad17)*%
X10057415Y-10482820D03*
%TO.P,A1,16,D13_16*%
%TO.N,unconnected-(A1-D13-Pad16)*%
X10057415Y-10736820D03*
%TO.P,A1,15,D12_15*%
%TO.N,unconnected-(A1-D12-Pad15)*%
X8533415Y-10736820D03*
%TO.P,A1,14,D11_14*%
%TO.N,unconnected-(A1-D11-Pad14)*%
X8533415Y-10482820D03*
%TO.P,A1,13,D10_13*%
%TO.N,/LED_FLT*%
X8533415Y-10228820D03*
%TO.P,A1,12,D9_12*%
%TO.N,/PWM*%
X8533415Y-9974820D03*
%TO.P,A1,11,D8_11*%
%TO.N,/SD*%
X8533415Y-9720820D03*
%TO.P,A1,10,D7_10*%
%TO.N,/LED_RUN*%
X8533415Y-9466820D03*
%TO.P,A1,9,D6_9*%
%TO.N,/LED_PWR*%
X8533415Y-9212820D03*
%TO.P,A1,8,D5_8*%
%TO.N,/BTN_SPDN*%
X8533415Y-8958820D03*
%TO.P,A1,7,D4_7*%
%TO.N,/BTN_SPUP*%
X8533415Y-8704820D03*
%TO.P,A1,6,D3_6*%
%TO.N,/BTN_OFF*%
X8533415Y-8450820D03*
%TO.P,A1,5,D2_5*%
%TO.N,/BTN_ON*%
X8533415Y-8196820D03*
%TO.P,A1,4,GND_4*%
%TO.N,GND*%
X8533415Y-7942820D03*
%TO.P,A1,3,~{RESET}_3*%
%TO.N,Net-(J9-Pin_5)*%
X8533415Y-7688820D03*
%TO.P,A1,2,D0/RX_2*%
%TO.N,unconnected-(A1-D0{slash}RX-Pad2)*%
X8533415Y-7434820D03*
D40*
%TO.P,A1,1,D1/TX_1*%
%TO.N,unconnected-(A1-D1{slash}TX-Pad1)*%
X8533415Y-7180820D03*
%TD*%
D41*
%TO.P,R8,2*%
%TO.N,GND*%
X12549915Y-6494570D03*
%TO.P,R8,1*%
%TO.N,Net-(U2A--)*%
X12549915Y-6677070D03*
%TD*%
D42*
%TO.P,U3,8,VB_8*%
%TO.N,Net-(D3-A)*%
X13079915Y-8971820D03*
%TO.P,U3,7,HO_7*%
%TO.N,/HO*%
X13079915Y-9225820D03*
%TO.P,U3,6,VS_6*%
%TO.N,/U3_VS*%
X13079915Y-9479820D03*
%TO.P,U3,5,LO_5*%
%TO.N,/LO*%
X13079915Y-9733820D03*
%TO.P,U3,4,COM_4*%
%TO.N,GND*%
X12317915Y-9733820D03*
%TO.P,U3,3,~{SD}_3*%
%TO.N,/SD*%
X12317915Y-9479820D03*
%TO.P,U3,2,IN_2*%
%TO.N,/PWM*%
X12317915Y-9225820D03*
D43*
%TO.P,U3,1,VCC_1*%
%TO.N,+12V*%
X12317915Y-8971820D03*
%TD*%
D19*
%TO.P,R11,2*%
%TO.N,Net-(D7-K)*%
X6823415Y-10461820D03*
%TO.P,R11,1*%
%TO.N,/LED_FLT*%
X6823415Y-10151820D03*
%TD*%
D44*
%TO.P,D5,2,A_2*%
%TO.N,/I_sense*%
X11464915Y-7625820D03*
%TO.P,D5,1,K_1*%
%TO.N,GND*%
X10914915Y-7625820D03*
%TD*%
D27*
%TO.P,J5,2,Pin_2_2*%
%TO.N,GND*%
X7516915Y-7966820D03*
D28*
%TO.P,J5,1,Pin_1_1*%
%TO.N,/BTN_OFF*%
X7770915Y-7966820D03*
%TD*%
D27*
%TO.P,J6,2,Pin_2_2*%
%TO.N,GND*%
X7516915Y-8386820D03*
D28*
%TO.P,J6,1,Pin_1_1*%
%TO.N,/BTN_SPUP*%
X7770915Y-8386820D03*
%TD*%
D27*
%TO.P,J8,2,Pin_2_2*%
%TO.N,GND*%
X7516915Y-7546820D03*
D28*
%TO.P,J8,1,Pin_1_1*%
%TO.N,/BTN_ON*%
X7770915Y-7546820D03*
%TD*%
D42*
%TO.P,U2,8,V+_8*%
%TO.N,+5V*%
X11367915Y-7225820D03*
%TO.P,U2,7*%
%TO.N,Net-(U2B--)*%
X11367915Y-6971820D03*
%TO.P,U2,6,-_6*%
X11367915Y-6717820D03*
%TO.P,U2,5,+_5*%
%TO.N,GND*%
X11367915Y-6463820D03*
%TO.P,U2,4,V-_4*%
X12129915Y-6463820D03*
%TO.P,U2,3,+_3*%
%TO.N,Net-(U2A-+)*%
X12129915Y-6717820D03*
%TO.P,U2,2,-_2*%
%TO.N,Net-(U2A--)*%
X12129915Y-6971820D03*
D45*
%TO.P,U2,1*%
%TO.N,Net-(R10-Pad1)*%
X12129915Y-7225820D03*
%TD*%
D46*
%TO.P,R1,2*%
%TO.N,Net-(D2-K)*%
X9679915Y-6442070D03*
%TO.P,R1,1*%
%TO.N,Net-(U1-OUT)*%
X9679915Y-6259570D03*
%TD*%
D15*
%TO.P,C9,2*%
%TO.N,GND*%
X11849915Y-9261320D03*
%TO.P,C9,1*%
%TO.N,+12V*%
X11849915Y-8966320D03*
%TD*%
D47*
%TO.P,R6,2*%
%TO.N,GND*%
X13059915Y-5645820D03*
%TO.P,R6,1*%
%TO.N,/LS_RTN*%
X15599915Y-5645820D03*
%TD*%
D48*
%TO.P,R7,2*%
%TO.N,Net-(U2A-+)*%
X12138665Y-5625820D03*
%TO.P,R7,1*%
%TO.N,/LS_RTN*%
X12321165Y-5625820D03*
%TD*%
D18*
%TO.P,D8,2,A_2*%
%TO.N,GND*%
X6914665Y-9466820D03*
%TO.P,D8,1,K_1*%
%TO.N,Net-(D8-K)*%
X7212165Y-9466820D03*
%TD*%
D49*
%TO.P,J1,1,Pin_1_1*%
%TO.N,Net-(J1-Pin_1)*%
X5993165Y-5125820D03*
D23*
%TO.P,J1,2,Pin_2_2*%
%TO.N,GND*%
X5993165Y-5625820D03*
%TO.P,J1,3,Pin_3_3*%
X5993165Y-6125820D03*
%TD*%
D50*
%TO.P,C12,2*%
%TO.N,GND*%
X6929915Y-2905820D03*
%TO.P,C12,1*%
%TO.N,+24V*%
X6929915Y-3745820D03*
%TD*%
%TO.P,C13,2*%
%TO.N,GND*%
X12229915Y-2905820D03*
%TO.P,C13,1*%
%TO.N,+24V*%
X12229915Y-3745820D03*
%TD*%
D51*
%TO.P,C20,2*%
%TO.N,GND*%
X11229915Y-3578320D03*
%TO.P,C20,1*%
%TO.N,+24V*%
X11229915Y-3873320D03*
%TD*%
%TO.P,C19,2*%
%TO.N,GND*%
X10929915Y-3578320D03*
%TO.P,C19,1*%
%TO.N,+24V*%
X10929915Y-3873320D03*
%TD*%
D50*
%TO.P,C15,2*%
%TO.N,GND*%
X9329915Y-2885820D03*
%TO.P,C15,1*%
%TO.N,+24V*%
X9329915Y-3725820D03*
%TD*%
%TO.P,C16,2*%
%TO.N,GND*%
X13429915Y-2905820D03*
%TO.P,C16,1*%
%TO.N,+24V*%
X13429915Y-3745820D03*
%TD*%
%TO.P,C18,2*%
%TO.N,GND*%
X14729915Y-2905820D03*
%TO.P,C18,1*%
%TO.N,+24V*%
X14729915Y-3745820D03*
%TD*%
%TO.P,C17,2*%
%TO.N,GND*%
X5729915Y-2885820D03*
%TO.P,C17,1*%
%TO.N,+24V*%
X5729915Y-3725820D03*
%TD*%
%TO.P,C14,2*%
%TO.N,GND*%
X8129915Y-2885820D03*
%TO.P,C14,1*%
%TO.N,+24V*%
X8129915Y-3725820D03*
%TD*%
D52*
%TO.N,/U3_VS*%
X14800000Y-7600000D03*
X14600000Y-7600000D03*
X14400000Y-7600000D03*
X15000000Y-7600000D03*
X15000000Y-7400000D03*
D53*
%TO.N,GND*%
X7329915Y-6875820D03*
D54*
%TO.N,+5V*%
X8029915Y-9075820D03*
D53*
%TO.N,GND*%
X9129915Y-6725820D03*
X9429915Y-6725820D03*
X9929915Y-6725820D03*
X7879915Y-5775820D03*
D52*
X5079915Y-3225820D03*
X5079915Y-3025820D03*
X5079915Y-2825820D03*
X6329915Y-2825820D03*
X6329915Y-3025820D03*
X6329915Y-3225820D03*
X7529915Y-3225820D03*
X7529915Y-3075820D03*
X7529915Y-2825820D03*
X8729915Y-2825820D03*
X8729915Y-3025820D03*
X8729915Y-3275820D03*
X9979915Y-3225820D03*
X9979915Y-3025820D03*
X9979915Y-2825820D03*
X11579915Y-3025820D03*
X11579915Y-2825820D03*
X11579915Y-3225820D03*
X12829915Y-2825820D03*
X12829915Y-3025820D03*
X12829915Y-3225820D03*
X14079915Y-2825820D03*
X14079915Y-3025820D03*
X14079915Y-3225820D03*
D54*
%TO.N,/PWM*%
X8940915Y-9974820D03*
%TO.N,/I_sense*%
X11209915Y-9465820D03*
X11469915Y-8725820D03*
%TO.N,+12V*%
X11029915Y-7905820D03*
X11029915Y-7225820D03*
D55*
%TO.N,GND*%
X10609915Y-7625820D03*
D56*
X15500000Y-11000000D03*
X4500000Y-4500000D03*
X4500000Y-11000000D03*
X15500000Y-4500000D03*
D54*
%TO.N,/LS_RTN*%
X12329915Y-5475820D03*
%TO.N,GND*%
X6823415Y-11166820D03*
D52*
X14579915Y-9125820D03*
X14579915Y-9625820D03*
X14079915Y-9375820D03*
X12779915Y-5325820D03*
X15679915Y-9625820D03*
X15279915Y-9625820D03*
X13029915Y-6075820D03*
X15679915Y-9825820D03*
X16079915Y-9625820D03*
X12779915Y-6075820D03*
X15079915Y-9825820D03*
D53*
X11849915Y-9413820D03*
X11509915Y-9413820D03*
D52*
X15479915Y-9625820D03*
X14829915Y-9825820D03*
X14579915Y-9825820D03*
X15079915Y-9625820D03*
X15879915Y-9625820D03*
X15479915Y-9825820D03*
D53*
X6663415Y-9206820D03*
D52*
X13029915Y-5325820D03*
X12779915Y-5625820D03*
X14829915Y-9375820D03*
X14829915Y-9125820D03*
D54*
X11979915Y-6125820D03*
D52*
X15279915Y-9825820D03*
X15879915Y-9825820D03*
X14579915Y-9375820D03*
X14829915Y-9625820D03*
X16079915Y-9825820D03*
D53*
X6663415Y-9466820D03*
D52*
%TO.N,Net-(Q1-G)*%
X13529915Y-8105820D03*
%TO.N,Net-(Q2-G)*%
X14269915Y-8391820D03*
D53*
%TO.N,+12V*%
X11317415Y-8966320D03*
%TD*%
%TO.N,/BTN_OFF*%
D57*
X7960000Y-8160000D02*
X8242595Y-8160000D01*
X8242595Y-8160000D02*
X8533415Y-8450820D01*
X7770915Y-7970915D02*
X7960000Y-8160000D01*
X7770915Y-7966820D02*
X7770915Y-7970915D01*
%TO.N,/BTN_ON*%
X8219946Y-7995851D02*
X7770915Y-7546820D01*
X8304149Y-7995851D02*
X8219946Y-7995851D01*
%TO.N,/BTN_SPDN*%
X8401415Y-8826820D02*
X8533415Y-8958820D01*
X7770915Y-8826820D02*
X8401415Y-8826820D01*
%TO.N,/BTN_SPUP*%
X7770915Y-8386820D02*
X8215415Y-8386820D01*
X8215415Y-8386820D02*
X8533415Y-8704820D01*
%TO.N,/BTN_ON*%
X8505118Y-8196820D02*
X8304149Y-7995851D01*
X8533415Y-8196820D02*
X8505118Y-8196820D01*
%TO.N,/U3_VS*%
X14041415Y-8209320D02*
X14041415Y-7738320D01*
X13629915Y-8620820D02*
X14041415Y-8209320D01*
%TO.N,GND*%
D58*
X7329915Y-6723320D02*
X7329915Y-6875820D01*
%TO.N,+5V*%
X11179915Y-7413820D02*
X11367915Y-7225820D01*
X11179915Y-7425820D02*
X11179915Y-7413820D01*
X8179915Y-6875820D02*
X10279915Y-6875820D01*
X10279915Y-6875820D02*
X10829915Y-7425820D01*
X7431165Y-6327070D02*
X7631165Y-6327070D01*
X7631165Y-6327070D02*
X8179915Y-6875820D01*
X10829915Y-7425820D02*
X11179915Y-7425820D01*
X7329915Y-6428320D02*
X7431165Y-6327070D01*
X7529915Y-7025820D02*
X7529915Y-6628320D01*
X7179915Y-8725820D02*
X7179915Y-7375820D01*
X7179915Y-7375820D02*
X7529915Y-7025820D01*
X7479915Y-9025820D02*
X7179915Y-8725820D01*
X7979915Y-9025820D02*
X7479915Y-9025820D01*
X8029915Y-9075820D02*
X7979915Y-9025820D01*
X7529915Y-6628320D02*
X7329915Y-6428320D01*
%TO.N,GND*%
X9929915Y-6575820D02*
X9929915Y-6725820D01*
%TO.N,Net-(U1-OUT)*%
X8929915Y-6278320D02*
X9129915Y-6278320D01*
X8887415Y-6320820D02*
X8929915Y-6278320D01*
X8683915Y-6320820D02*
X8887415Y-6320820D01*
X9429915Y-6278320D02*
X9661165Y-6278320D01*
X9129915Y-6278320D02*
X9429915Y-6278320D01*
%TO.N,GND*%
X9129915Y-6573320D02*
X9129915Y-6725820D01*
X9429915Y-6573320D02*
X9429915Y-6725820D01*
%TO.N,Net-(D2-K)*%
X9766165Y-6442070D02*
X9929915Y-6278320D01*
X9679915Y-6442070D02*
X9766165Y-6442070D01*
%TO.N,GND*%
X8034915Y-5775820D02*
X7879915Y-5775820D01*
%TO.N,+24V*%
D57*
X8329915Y-4775820D02*
X8129915Y-4575820D01*
X8329915Y-5775820D02*
X8329915Y-4775820D01*
X8129915Y-4575820D02*
X8129915Y-3725820D01*
D59*
X7229915Y-4775820D02*
X6929915Y-4475820D01*
X6929915Y-4475820D02*
X6929915Y-3745820D01*
X7229915Y-5425820D02*
X7229915Y-4775820D01*
X6979915Y-5675820D02*
X7229915Y-5425820D01*
X6979915Y-5925820D02*
X6979915Y-5675820D01*
D57*
X8329915Y-6025820D02*
X8329915Y-5775820D01*
X8175915Y-6179820D02*
X8329915Y-6025820D01*
X8175915Y-6320820D02*
X8175915Y-6179820D01*
%TO.N,GND*%
D58*
X7015415Y-6723320D02*
X6979915Y-6687820D01*
X7329915Y-6723320D02*
X7015415Y-6723320D01*
%TO.N,+5V*%
X6985415Y-6428320D02*
X6979915Y-6433820D01*
X7329915Y-6428320D02*
X6985415Y-6428320D01*
%TO.N,+24V*%
D60*
X10249915Y-3865820D02*
X9469915Y-3865820D01*
X10989915Y-4605820D02*
X10249915Y-3865820D01*
X9469915Y-3865820D02*
X9329915Y-3725820D01*
X10989915Y-4645820D02*
X10989915Y-4605820D01*
%TO.N,GND*%
D57*
X11169915Y-2905820D02*
X11569915Y-2905820D01*
X10929915Y-3145820D02*
X11169915Y-2905820D01*
X10929915Y-3578320D02*
X10929915Y-3145820D01*
X11569915Y-2905820D02*
X12229915Y-2905820D01*
X11229915Y-3245820D02*
X11569915Y-2905820D01*
X11229915Y-3578320D02*
X11229915Y-3245820D01*
%TO.N,+24V*%
X11189915Y-4385820D02*
X11249915Y-4385820D01*
X10929915Y-4125820D02*
X11189915Y-4385820D01*
X10929915Y-3873320D02*
X10929915Y-4125820D01*
X11229915Y-4365820D02*
X11249915Y-4385820D01*
X11229915Y-3873320D02*
X11229915Y-4365820D01*
%TO.N,Net-(J1-Pin_1)*%
D61*
X6769915Y-5125820D02*
X6029915Y-5125820D01*
%TO.N,/SD*%
D62*
X9169915Y-10345820D02*
X8889915Y-10065820D01*
X8889915Y-10065820D02*
X8783415Y-10065820D01*
X11451915Y-10345820D02*
X9169915Y-10345820D01*
X12317915Y-9479820D02*
X11451915Y-10345820D01*
X8783415Y-10065820D02*
X8783415Y-10226820D01*
%TO.N,/PWM*%
X11409915Y-10105820D02*
X12289915Y-9225820D01*
X8958915Y-9974820D02*
X9089915Y-10105820D01*
X8940915Y-9974820D02*
X8958915Y-9974820D01*
X12289915Y-9225820D02*
X12317915Y-9225820D01*
X9089915Y-10105820D02*
X11409915Y-10105820D01*
%TO.N,/I_sense*%
X10700915Y-9974820D02*
X10057415Y-9974820D01*
X11209915Y-9465820D02*
X10700915Y-9974820D01*
X11469915Y-8725820D02*
X11459915Y-8725820D01*
X11464915Y-8720820D02*
X11469915Y-8725820D01*
X11464915Y-7625820D02*
X11464915Y-8720820D01*
%TO.N,+12V*%
D57*
X11317415Y-8193320D02*
X11029915Y-7905820D01*
X11317415Y-8966320D02*
X11317415Y-8193320D01*
D63*
X11029915Y-6405820D02*
X11029915Y-7225820D01*
X11489915Y-5945820D02*
X11029915Y-6405820D01*
X11489915Y-5125820D02*
X11489915Y-5945820D01*
%TO.N,GND*%
D62*
X10914915Y-7625820D02*
X10609915Y-7625820D01*
%TO.N,/I_sense*%
X11814915Y-7625820D02*
X11464915Y-7625820D01*
%TO.N,Net-(R10-Pad1)*%
X12129915Y-7620820D02*
X12124915Y-7625820D01*
X12129915Y-7225820D02*
X12129915Y-7620820D01*
%TO.N,GND*%
X12519165Y-6463820D02*
X12549915Y-6494570D01*
X12129915Y-6463820D02*
X12519165Y-6463820D01*
%TO.N,Net-(U2A--)*%
X12549915Y-6677070D02*
X12549915Y-6910820D01*
X12488915Y-6971820D02*
X12549915Y-6910820D01*
X12129915Y-6971820D02*
X12488915Y-6971820D01*
%TO.N,Net-(R10-Pad1)*%
X12544915Y-7225820D02*
X12549915Y-7220820D01*
X12129915Y-7225820D02*
X12544915Y-7225820D01*
%TO.N,Net-(U2B--)*%
X11235915Y-6971820D02*
X11367915Y-6971820D01*
X11209915Y-6745820D02*
X11209915Y-6945820D01*
X11209915Y-6945820D02*
X11235915Y-6971820D01*
X11237915Y-6717820D02*
X11209915Y-6745820D01*
X11367915Y-6717820D02*
X11237915Y-6717820D01*
%TO.N,Net-(U2A-+)*%
X11779915Y-6525820D02*
X11971915Y-6717820D01*
X11779915Y-5875820D02*
X11779915Y-6525820D01*
X11971915Y-6717820D02*
X12129915Y-6717820D01*
X11827415Y-5828320D02*
X11779915Y-5875820D01*
X12129915Y-5828320D02*
X11827415Y-5828320D01*
%TO.N,+24V*%
D64*
X10989915Y-5625820D02*
X10989915Y-5125820D01*
X10029915Y-5775820D02*
X10839915Y-5775820D01*
X9929915Y-5675820D02*
X10029915Y-5775820D01*
X9929915Y-5365820D02*
X9929915Y-5675820D01*
X10839915Y-5775820D02*
X10989915Y-5625820D01*
%TO.N,GND*%
X10329915Y-4375820D02*
X10489915Y-4535820D01*
X10489915Y-4535820D02*
X10489915Y-5125820D01*
X10079915Y-4375820D02*
X10329915Y-4375820D01*
X9929915Y-4525820D02*
X10079915Y-4375820D01*
X9929915Y-4785820D02*
X9929915Y-4525820D01*
%TO.N,/LS_RTN*%
D57*
X12321165Y-5484570D02*
X12329915Y-5475820D01*
D60*
X15609915Y-5655820D02*
X15599915Y-5645820D01*
X15609915Y-6837820D02*
X15609915Y-5655820D01*
D57*
X12321165Y-5625820D02*
X12321165Y-5484570D01*
%TO.N,/U3_VS*%
X13079915Y-9479820D02*
X13629915Y-8929820D01*
X13629915Y-8929820D02*
X13629915Y-8620820D01*
D60*
X15609915Y-7345820D02*
X15609915Y-8603320D01*
D57*
X12877415Y-9277320D02*
X13079915Y-9479820D01*
D60*
X15609915Y-8603320D02*
X15567415Y-8645820D01*
D57*
X12877415Y-8675820D02*
X12877415Y-9277320D01*
%TO.N,GND*%
X12129915Y-6123320D02*
X11982415Y-6123320D01*
X11509915Y-9261320D02*
X11509915Y-9413820D01*
D62*
X6823415Y-10995570D02*
X6823415Y-11166820D01*
D57*
X6894665Y-9206820D02*
X6663415Y-9206820D01*
X11849915Y-9261320D02*
X11849915Y-9413820D01*
X11982415Y-6123320D02*
X11979915Y-6125820D01*
X14079915Y-9130820D02*
X14079915Y-9375820D01*
X6914665Y-9466820D02*
X6663415Y-9466820D01*
%TO.N,Net-(Q1-G)*%
X13529915Y-8105820D02*
X13529915Y-8185820D01*
X13624915Y-8305820D02*
X13409915Y-8305820D01*
X13629915Y-8310820D02*
X13624915Y-8305820D01*
X13529915Y-8105820D02*
X13533415Y-8102320D01*
X13533415Y-7738320D02*
X13533415Y-8102320D01*
X13529915Y-8185820D02*
X13409915Y-8305820D01*
%TO.N,+24V*%
D61*
X10989915Y-4645820D02*
X10989915Y-5125820D01*
X11249915Y-4385820D02*
X10989915Y-4645820D01*
D57*
X13787415Y-7738320D02*
X13787415Y-6823320D01*
D61*
X13787415Y-4863320D02*
X13309915Y-4385820D01*
X13787415Y-6823320D02*
X13787415Y-4863320D01*
X13309915Y-4385820D02*
X11249915Y-4385820D01*
%TO.N,Net-(D6-K)*%
D57*
X7192165Y-9206820D02*
X7508415Y-9206820D01*
%TO.N,/HO*%
X13409915Y-8895820D02*
X13409915Y-8505820D01*
X13079915Y-9225820D02*
X13409915Y-8895820D01*
%TO.N,/LED_PWR*%
X7818415Y-9206820D02*
X8527415Y-9206820D01*
X8527415Y-9206820D02*
X8533415Y-9212820D01*
%TO.N,Net-(D7-K)*%
D62*
X6823415Y-10461820D02*
X6823415Y-10698070D01*
%TO.N,/LO*%
D57*
X13889915Y-8585820D02*
X13889915Y-8923820D01*
X13889915Y-8923820D02*
X13079915Y-9733820D01*
%TO.N,Net-(Q2-G)*%
X14089915Y-8585820D02*
X14089915Y-8810820D01*
X14089915Y-8585820D02*
X14089915Y-8571820D01*
X14652415Y-8391820D02*
X14269915Y-8391820D01*
X14089915Y-8571820D02*
X14269915Y-8391820D01*
X14089915Y-8810820D02*
X14079915Y-8820820D01*
%TO.N,+12V*%
X11849915Y-8966320D02*
X11509915Y-8966320D01*
X11317415Y-8966320D02*
X11509915Y-8966320D01*
X12317915Y-8763820D02*
X12229915Y-8675820D01*
X12317915Y-8971820D02*
X11855415Y-8971820D01*
X12317915Y-8971820D02*
X12317915Y-8763820D01*
X12229915Y-8675820D02*
X12219915Y-8675820D01*
%TO.N,Net-(D3-A)*%
X12929915Y-8425820D02*
X12629915Y-8425820D01*
X13079915Y-8971820D02*
X13079915Y-8575820D01*
X12579915Y-8475820D02*
X12582415Y-8478320D01*
X13079915Y-8575820D02*
X12929915Y-8425820D01*
X12629915Y-8425820D02*
X12579915Y-8475820D01*
X12439915Y-8675820D02*
X12582415Y-8675820D01*
X12582415Y-8478320D02*
X12582415Y-8675820D01*
%TO.N,/VCC_DIS*%
X11063415Y-9166820D02*
X11003415Y-9226820D01*
X11063415Y-8206820D02*
X11063415Y-9166820D01*
X10799415Y-7942820D02*
X11063415Y-8206820D01*
X11003415Y-9226820D02*
X10763415Y-9226820D01*
X10057415Y-7942820D02*
X10799415Y-7942820D01*
%TO.N,/SDA*%
X10057415Y-8958820D02*
X10749415Y-8958820D01*
X10749415Y-8958820D02*
X10763415Y-8972820D01*
%TO.N,/SCL*%
X10057415Y-8704820D02*
X10749415Y-8704820D01*
X10749415Y-8704820D02*
X10763415Y-8718820D01*
%TO.N,/PWM*%
X7815415Y-9974820D02*
X7803415Y-9986820D01*
X8533415Y-9974820D02*
X7815415Y-9974820D01*
%TO.N,/LED_FLT*%
D62*
X7669415Y-10106820D02*
X7549415Y-9986820D01*
X6868415Y-10106820D02*
X6823415Y-10151820D01*
X8045415Y-10228820D02*
X7923415Y-10106820D01*
X7429415Y-10106820D02*
X6868415Y-10106820D01*
X7923415Y-10106820D02*
X7669415Y-10106820D01*
X7549415Y-9986820D02*
X7429415Y-10106820D01*
X8533415Y-10228820D02*
X8045415Y-10228820D01*
%TO.N,/SD*%
X8303415Y-10346820D02*
X8123415Y-10526820D01*
X8783415Y-10226820D02*
X8663415Y-10346820D01*
X8677415Y-9720820D02*
X8783415Y-9826820D01*
X8533415Y-9720820D02*
X8677415Y-9720820D01*
X8783415Y-9826820D02*
X8783415Y-10065820D01*
X8123415Y-10526820D02*
X7835415Y-10526820D01*
X8663415Y-10346820D02*
X8303415Y-10346820D01*
X7835415Y-10526820D02*
X7549415Y-10240820D01*
%TO.N,Net-(J9-Pin_5)*%
X7295415Y-9986820D02*
X7675415Y-9606820D01*
X7675415Y-9606820D02*
X8783415Y-9606820D01*
X8863415Y-8018820D02*
X8533415Y-7688820D01*
X8863415Y-9526820D02*
X8863415Y-8018820D01*
X8783415Y-9606820D02*
X8863415Y-9526820D01*
%TO.N,Net-(U2A-+)*%
D57*
X12138665Y-5625820D02*
X12138665Y-5819570D01*
X12138665Y-5819570D02*
X12129915Y-5828320D01*
%TO.N,/LED_RUN*%
X8533415Y-9466820D02*
X7818415Y-9466820D01*
%TO.N,Net-(D8-K)*%
X7508415Y-9466820D02*
X7212165Y-9466820D01*
%TD*%
%TA.AperFunction,Conductor*%
%TO.N,+24V*%
G36*
X10664219Y-3527789D02*
G01*
X10668795Y-3533069D01*
X10669915Y-3538220D01*
X10669915Y-4213420D01*
X10667947Y-4220124D01*
X10662666Y-4224700D01*
X10657515Y-4225820D01*
X5542315Y-4225820D01*
X5535611Y-4223852D01*
X5531036Y-4218571D01*
X5529915Y-4213420D01*
X5529915Y-3538220D01*
X5531884Y-3531516D01*
X5537164Y-3526941D01*
X5542315Y-3525820D01*
X10657515Y-3525820D01*
X10664219Y-3527789D01*
G37*
%TD.AperFunction*%
%TD*%
%TA.AperFunction,Conductor*%
%TO.N,+24V*%
G36*
X15024219Y-3527789D02*
G01*
X15028795Y-3533069D01*
X15029915Y-3538220D01*
X15029915Y-4213420D01*
X15027947Y-4220124D01*
X15022666Y-4224700D01*
X15017515Y-4225820D01*
X11642315Y-4225820D01*
X11635611Y-4223852D01*
X11631036Y-4218571D01*
X11629915Y-4213420D01*
X11629915Y-3538220D01*
X11631884Y-3531516D01*
X11637164Y-3526941D01*
X11642315Y-3525820D01*
X15017515Y-3525820D01*
X15024219Y-3527789D01*
G37*
%TD.AperFunction*%
%TD*%
%TA.AperFunction,Conductor*%
%TO.N,GND*%
G36*
X15030728Y-2610445D02*
G01*
X15035314Y-2615715D01*
X15036446Y-2620994D01*
X15030635Y-3313524D01*
X15028610Y-3320211D01*
X15023291Y-3324743D01*
X15018235Y-3325820D01*
X4942613Y-3325820D01*
X4935909Y-3323852D01*
X4931333Y-3318571D01*
X4930213Y-3313431D01*
X4929618Y-2638231D01*
X4931581Y-2631526D01*
X4936857Y-2626945D01*
X4942018Y-2625820D01*
X6931450Y-2625820D01*
X6931464Y-2625820D01*
X15024020Y-2608490D01*
X15030728Y-2610445D01*
G37*
%TD.AperFunction*%
%TD*%
%TA.AperFunction,Conductor*%
%TO.N,GND*%
G36*
X14979957Y-8810663D02*
G01*
X14986633Y-8812725D01*
X14991134Y-8818069D01*
X14992182Y-8823236D01*
X14983441Y-9448341D01*
X14983441Y-9448341D01*
X16367266Y-9426346D01*
X16374000Y-9428208D01*
X16378659Y-9433415D01*
X16379862Y-9438796D01*
X16377560Y-9990941D01*
X16375564Y-9997636D01*
X16370264Y-10002190D01*
X16365140Y-10003289D01*
X14412400Y-10000021D01*
X14405699Y-9998041D01*
X14401133Y-9992753D01*
X14400021Y-9987600D01*
X14401983Y-8815134D01*
X14403963Y-8808434D01*
X14409251Y-8803867D01*
X14414556Y-8802757D01*
X14979957Y-8810663D01*
G37*
%TD.AperFunction*%
%TD*%
%TA.AperFunction,Conductor*%
%TO.N,/U3_VS*%
G36*
X15157807Y-7305195D02*
G01*
X15162394Y-7310465D01*
X15163526Y-7315614D01*
X15166597Y-8698262D01*
X15164643Y-8704971D01*
X15159373Y-8709558D01*
X15154349Y-8710689D01*
X15085280Y-8711535D01*
X15085279Y-8711535D01*
X15079946Y-8711601D01*
X14403964Y-8719882D01*
X14403964Y-8719882D01*
X14403964Y-8719882D01*
X14403963Y-8719882D01*
X14400464Y-8719423D01*
X14398959Y-8719001D01*
X14393036Y-8715296D01*
X14392880Y-8715121D01*
X14390091Y-8709765D01*
X14389932Y-8709096D01*
X14389598Y-8706559D01*
X14384119Y-8505914D01*
X14384525Y-8502409D01*
X14384880Y-8501067D01*
X14388495Y-8495088D01*
X14394769Y-8492014D01*
X14395303Y-8491922D01*
X14401734Y-8492525D01*
X14403130Y-8493046D01*
X14406667Y-8495692D01*
X14412360Y-8496304D01*
X14412359Y-8496304D01*
X14412361Y-8496304D01*
X14417628Y-8496870D01*
X14887202Y-8496870D01*
X14893163Y-8496229D01*
X14906648Y-8491200D01*
X14918170Y-8482575D01*
X14926795Y-8471053D01*
X14931824Y-8457569D01*
X14932465Y-8451608D01*
X14932465Y-8332033D01*
X14931824Y-8326072D01*
X14929607Y-8320127D01*
X14926795Y-8312587D01*
X14926794Y-8312587D01*
X14918170Y-8301066D01*
X14918170Y-8301065D01*
X14918169Y-8301065D01*
X14907789Y-8293295D01*
X14906649Y-8292441D01*
X14906648Y-8292441D01*
X14906648Y-8292441D01*
X14906648Y-8292440D01*
X14893163Y-8287411D01*
X14893163Y-8287411D01*
X14887203Y-8286770D01*
X14887203Y-8286770D01*
X14887202Y-8286770D01*
X14887202Y-8286770D01*
X14887099Y-8286770D01*
X14418119Y-8286770D01*
X14417628Y-8286770D01*
X14417627Y-8286770D01*
X14411667Y-8287411D01*
X14398182Y-8292440D01*
X14398182Y-8292441D01*
X14397860Y-8292682D01*
X14397483Y-8292822D01*
X14397404Y-8292866D01*
X14397397Y-8292854D01*
X14396217Y-8293294D01*
X14396216Y-8293295D01*
X14394955Y-8293765D01*
X14387986Y-8294264D01*
X14381853Y-8290915D01*
X14378650Y-8285377D01*
X14378417Y-8284513D01*
X14377993Y-8281622D01*
X14369915Y-7985820D01*
X14004099Y-7985820D01*
X14004098Y-7985820D01*
X14004098Y-7985820D01*
X14000604Y-7985318D01*
X13999105Y-7984877D01*
X13993230Y-7981103D01*
X13993227Y-7981100D01*
X13993227Y-7981100D01*
X13993227Y-7981099D01*
X13993111Y-7980966D01*
X13990363Y-7975479D01*
X13990199Y-7974722D01*
X13989916Y-7972087D01*
X13989936Y-7357552D01*
X13990438Y-7354060D01*
X13990879Y-7352559D01*
X13994651Y-7346686D01*
X13994789Y-7346566D01*
X14000279Y-7343818D01*
X14001035Y-7343653D01*
X14003668Y-7343370D01*
X14332202Y-7343370D01*
X14332202Y-7343370D01*
X14338163Y-7342729D01*
X14351648Y-7337700D01*
X14363170Y-7329075D01*
X14371795Y-7317553D01*
X14372867Y-7314679D01*
X14374557Y-7311583D01*
X14375495Y-7310330D01*
X14381087Y-7306144D01*
X14382220Y-7305721D01*
X14386525Y-7304939D01*
X15151099Y-7303241D01*
X15157807Y-7305195D01*
G37*
%TD.AperFunction*%
%TD*%
%TA.AperFunction,Conductor*%
%TO.N,/U3_VS*%
G36*
X16359226Y-7206323D02*
G01*
X16360726Y-7206763D01*
X16362225Y-7207726D01*
X16363933Y-7208227D01*
X16366601Y-7210537D01*
X16366719Y-7210674D01*
X16369467Y-7216160D01*
X16369631Y-7216916D01*
X16369915Y-7219553D01*
X16369915Y-9331637D01*
X16369413Y-9335132D01*
X16368972Y-9336632D01*
X16368009Y-9338130D01*
X16367508Y-9339838D01*
X16365198Y-9342506D01*
X16365061Y-9342625D01*
X16359575Y-9345372D01*
X16358819Y-9345537D01*
X16356182Y-9345820D01*
X15105809Y-9345820D01*
X15102315Y-9345318D01*
X15100815Y-9344877D01*
X15099316Y-9343914D01*
X15097608Y-9343413D01*
X15094940Y-9341103D01*
X15094799Y-9340940D01*
X15092065Y-9335515D01*
X15091909Y-9334816D01*
X15091613Y-9332246D01*
X15089983Y-9172506D01*
X15085279Y-8711535D01*
X15166624Y-8710539D01*
X15163499Y-7303214D01*
X15070911Y-7303420D01*
X15070061Y-7220129D01*
X15070528Y-7216631D01*
X15070953Y-7215126D01*
X15074670Y-7209211D01*
X15074782Y-7209112D01*
X15080299Y-7206298D01*
X15081111Y-7206117D01*
X15083807Y-7205820D01*
X16355732Y-7205820D01*
X16359226Y-7206323D01*
G37*
%TD.AperFunction*%
%TD*%
%TA.AperFunction,Conductor*%
%TO.N,GND*%
G36*
X13424219Y-5127789D02*
G01*
X13428795Y-5133069D01*
X13429915Y-5138220D01*
X13429915Y-6213420D01*
X13427947Y-6220124D01*
X13422666Y-6224700D01*
X13417515Y-6225820D01*
X12642315Y-6225820D01*
X12635611Y-6223852D01*
X12631036Y-6218571D01*
X12629915Y-6213420D01*
X12629915Y-5138220D01*
X12631884Y-5131516D01*
X12637164Y-5126941D01*
X12642315Y-5125820D01*
X13417515Y-5125820D01*
X13424219Y-5127789D01*
G37*
%TD.AperFunction*%
%TD*%
%TA.AperFunction,Conductor*%
%TO.N,/LS_RTN*%
G36*
X16339226Y-5006323D02*
G01*
X16340726Y-5006763D01*
X16342225Y-5007726D01*
X16343933Y-5008227D01*
X16346601Y-5010538D01*
X16346719Y-5010674D01*
X16349467Y-5016161D01*
X16349631Y-5016916D01*
X16349915Y-5019553D01*
X16349915Y-7131637D01*
X16349413Y-7135132D01*
X16348972Y-7136631D01*
X16348009Y-7138130D01*
X16347508Y-7139838D01*
X16345198Y-7142506D01*
X16345061Y-7142624D01*
X16339575Y-7145372D01*
X16338819Y-7145537D01*
X16336182Y-7145820D01*
X15766294Y-7145820D01*
X15762801Y-7145318D01*
X15759978Y-7144489D01*
X15755741Y-7142286D01*
X15755386Y-7142004D01*
X15754840Y-7141568D01*
X15740004Y-7132246D01*
X15731059Y-7126625D01*
X15705758Y-7114441D01*
X15705756Y-7114440D01*
X15679250Y-7105165D01*
X15679248Y-7105165D01*
X15679247Y-7105164D01*
X15679247Y-7105164D01*
X15668062Y-7102611D01*
X15651867Y-7098915D01*
X15651863Y-7098914D01*
X15623959Y-7095770D01*
X15623958Y-7095770D01*
X15623958Y-7095770D01*
X15595873Y-7095770D01*
X15595872Y-7095770D01*
X15595871Y-7095770D01*
X15567967Y-7098914D01*
X15567964Y-7098915D01*
X15540583Y-7105164D01*
X15540582Y-7105165D01*
X15540580Y-7105165D01*
X15514075Y-7114440D01*
X15514072Y-7114441D01*
X15488771Y-7126625D01*
X15464990Y-7141568D01*
X15464444Y-7142004D01*
X15461400Y-7143789D01*
X15458677Y-7144900D01*
X15453990Y-7145820D01*
X15085809Y-7145820D01*
X15082315Y-7145318D01*
X15080815Y-7144877D01*
X15074940Y-7141103D01*
X15074799Y-7140940D01*
X15072065Y-7135514D01*
X15071909Y-7134816D01*
X15071613Y-7132246D01*
X15071556Y-7126626D01*
X15050061Y-5020129D01*
X15050528Y-5016632D01*
X15050953Y-5015126D01*
X15054670Y-5009211D01*
X15054782Y-5009112D01*
X15060299Y-5006298D01*
X15061111Y-5006117D01*
X15063807Y-5005820D01*
X16335732Y-5005820D01*
X16339226Y-5006323D01*
G37*
%TD.AperFunction*%
%TD*%
%TA.AperFunction,Conductor*%
%TO.N,+24V*%
G36*
X14889340Y-4406323D02*
G01*
X14890840Y-4406763D01*
X14892339Y-4407726D01*
X14894047Y-4408227D01*
X14896715Y-4410538D01*
X14896834Y-4410675D01*
X14899582Y-4416162D01*
X14899746Y-4416918D01*
X14900029Y-4419554D01*
X14900000Y-7231637D01*
X14899498Y-7235131D01*
X14899057Y-7236631D01*
X14898093Y-7238131D01*
X14897591Y-7239842D01*
X14895280Y-7242508D01*
X14895280Y-7242509D01*
X14895279Y-7242509D01*
X14895142Y-7242628D01*
X14889659Y-7245372D01*
X14888903Y-7245537D01*
X14886267Y-7245820D01*
X13624729Y-7245820D01*
X13621235Y-7245318D01*
X13619735Y-7244877D01*
X13618236Y-7243914D01*
X13616528Y-7243413D01*
X13613860Y-7241103D01*
X13613719Y-7240941D01*
X13610985Y-7235515D01*
X13610829Y-7234817D01*
X13610533Y-7232246D01*
X13581808Y-4420130D01*
X13582275Y-4416631D01*
X13582700Y-4415127D01*
X13583648Y-4413618D01*
X13584131Y-4411905D01*
X13586415Y-4409214D01*
X13586525Y-4409116D01*
X13592047Y-4406298D01*
X13592515Y-4406194D01*
X13592858Y-4406117D01*
X13595555Y-4405820D01*
X14885847Y-4405820D01*
X14889340Y-4406323D01*
G37*
%TD.AperFunction*%
%TD*%
M02*
